<?xml version="1.0" encoding="utf-8"?>
<!-- Generator: Adobe Illustrator 16.0.0, SVG Export Plug-In . SVG Version: 6.00 Build 0)  -->
<!DOCTYPE svg PUBLIC "-//W3C//DTD SVG 1.1//EN" "http://www.w3.org/Graphics/SVG/1.1/DTD/svg11.dtd">
<svg version="1.1" id="Layer_1" xmlns="http://www.w3.org/2000/svg" xmlns:xlink="http://www.w3.org/1999/xlink" x="0px" y="0px"
	 viewBox="0 0 669.2 200" enable-background="new 0 0 669.2 200" xml:space="preserve">
<g>
	<g>
		<defs>
			<circle id="SVGID_1_" cx="122.152" cy="100.484" r="49.652"/>
		</defs>
		<clipPath id="SVGID_2_">
			<use xlink:href="#SVGID_1_"  overflow="visible"/>
		</clipPath>
		<g clip-path="url(#SVGID_2_)">
			<path fill="#3FA9F5" d="M78.733,74.347c-0.567,4.108,0.85,6.234,0,8.216c-0.85,1.983-1.842,5.525-0.992,7.933
				c0.85,2.409,2.125,7.65,3.258,7.792c1.133,0.141-0.85-5.667,0.283-3.825c1.134,1.842,1.134,4.582,3.118,6.47
				c1.983,1.888,4.675,1.605,6.8,3.446c2.125,1.842,4.249,4.534,6.233,4.25c0,0-0.142,1.417-1.134,3.825
				c-0.991,2.407-1.133,5.24,0.142,6.94c1.274,1.7,2.549,4.251,3.683,5.525c1.133,1.274,1.983,8.074,1.7,11.474
				c-0.283,3.4,1.275,11.05,4.816,12.75c3.542,1.7,0-0.85-0.708-2.975c-0.708-2.125,0.547-7.083,2.258-7.792
				c1.708-0.709,3.267-3.541,4.542-5.525c1.275-1.982,4.533-2.833,5.525-5.24c0.992-2.408,0.566-5.241,1.133-6.517
				c0.567-1.275,2.125-4.108-1.275-5.809c-3.399-1.699-4.816-0.85-4.958-2.408c-0.142-1.559-0.991-3.258-3.399-3.966
				c-2.409-0.709-4.534-2.083-7.226-2.387c-2.692-0.304-3.258,1.821-4.675,0.687c-1.416-1.133-2.549-2.267-3.117-3.684
				c-0.566-1.416-2.267-0.566-2.124-1.416c0.141-0.85,2.407-3.258-0.143-2.408c-2.549,0.85-4.816,0.566-4.675-1.7
				c0.143-2.267,3.259-3.118,4.534-3.401c1.274-0.283,2.266,1.275,3.825,2.268c1.558,0.991,0.141-1.417,0.991-3.117
				c0.851-1.7,4.108-1.558,4.533-3.966c0.425-2.408-0.142-4.392,2.409-4.675c2.549-0.284,5.241,0.141,5.524-1.134
				c0.283-1.274-2.976,0.425-3.117-1.133c-0.142-1.558,2.833-3.682,3.683-2.125c0.85,1.558,2.975,1.7,3.258,1.133
				c0.283-0.566,0-1.558-0.992-3.966c-0.991-2.409-1.983-1.7-2.833-4.392c-0.85-2.691-2.267,0.142-3.683-1.275
				c-1.417-1.417-3.117-4.392-3.4-1.841c-0.283,2.549-0.283,3.966-1.558,5.949c-1.275,1.984-1.841,0.426-2.975-0.85
				c-1.134-1.274-3.684-2.55-2.834-3.683c0.85-1.134,1.7-4.108,2.975-3.258c1.275,0.85,3.258,0.85,2.975-0.567
				c-0.283-1.417,0-1.983,0.567-2.692c0.566-0.708,2.55-1.983,2.55,0.567c0,2.549-0.284,3.258,1.7,3.542
				c1.983,0.283,4.25,0.424,4.108-0.85c-0.142-1.275,0.567-0.992,0-3.118c-0.567-2.125-2.267-2.266-4.108-3.258
				c-1.841-0.991-2.833-2.549-4.392-1.983c-1.558,0.567-1.701,1.133-1.841,2.692c-0.143,1.559-0.992,2.125-1.559,1.417
				c-0.566-0.708,0.142-2.975-1.983-1.558c-2.125,1.416-2.975,3.825-4.108,2.125c-1.134-1.699,1.7-4.675-1.275-3.399
				c-2.976,1.275-5.101,2.691-3.542,3.258c1.559,0.566,3.117,1.559,1.559,2.125c-1.559,0.566-4.676-0.425-5.809,0.708
				C81.849,68.681,78.733,74.347,78.733,74.347z"/>
			<path fill="#3FA9F5" d="M95.449,59.048c-0.007,1.583,0.426,2.833,1.842,1.417c1.417-1.417,2.266-3.116,3.259-2.409
				c0.991,0.709,2.691,0.521,3.399,0.473c0.709-0.047,0.851-2.172,2.834-1.889c1.983,0.283,1.275-0.425,3.399-1.559
				c2.125-1.133,6.658-3.116,1.983-2.549s-4.958-0.708-8.217,1.417c-3.257,2.125-3.965,2.125-4.815,2.692
				c-0.85,0.566-1.842-1.7-2.975,0C95.023,58.339,95.457,57.435,95.449,59.048z"/>
			<path fill="#3FA9F5" d="M112.448,54.657c-1.674,1.446-4.25,3.542-2.267,3.542c1.983,0,2.946-1.039,4.023,0.331
				c1.077,1.369,0.651,3.494,0.651,4.485c0,0.991-0.567,3.259,0.85,6.092c1.417,2.833,1.558,4.674,2.975,2.833
				c1.417-1.841,4.816-5.382,6.516-5.666c1.7-0.284,3.401-0.992,4.251-2.409c0.85-1.417,0-2.791,1.416-3.803
				c1.417-1.013,1.133-2.288,1.559-3.846c0.424-1.559,4.25-1.559,2.55-2.408c-1.7-0.851-4.816-1.417-8.5-0.992
				C122.79,53.24,115.565,51.965,112.448,54.657z"/>
			<path fill="#3FA9F5" d="M96.866,98.43c-0.901,1.47-0.425,1.559,0.567,1.842c0.991,0.283-0.426,1.983,0.708,2.125
				c1.133,0.142,3.683,0.85,4.391,0c0.709-0.85-1.133-0.519-2.408-1.463C98.85,99.988,97.506,97.386,96.866,98.43z"/>
			<path fill="#3FA9F5" d="M165.43,121.521c-1.525,0.764-0.85,1.983-2.267,2.834c-1.417,0.85-0.85,1.133-1.274,3.116
				c-0.426,1.982,0.142,3.116,1.133,1.559C164.014,127.471,167.129,120.671,165.43,121.521z"/>
			<path fill="#3FA9F5" d="M173.504,97.722c-0.425-2.409-3.542-24.225-3.542-24.225s-8.357-5.383-9.774-4.25
				c-1.417,1.134-3.826,0.963-3.542-0.155c0.283-1.119,2.125-0.835-0.992-2.961c-3.117-2.125-3.683-3.967-6.09-1.275
				c-2.409,2.692-2.976,4.958-4.393,5.667s-2.55,2.975-0.991,3.542s1.7,0,2.975,1.133c1.275,1.133,2.976,0.85,3.259,0.142
				c0.283-0.709,0.566-2.975,0.708-3.825c0.142-0.85,1.582-3.683,1.428-1.416c-0.153,2.267,1.971,2.267,0.555,3.824
				c-1.417,1.558-0.567,2.834-3.4,3.117c-2.833,0.283-2.975-1.417-4.533-0.566c-1.558,0.849-1.417,1.416-1.983,2.266
				c-0.566,0.85-3.542,2.55-3.542,2.55s-2.408-0.851-1.275,0.708c1.134,1.559,2.125,3.4,1.134,3.541
				c-0.992,0.142-3.684-1.416-3.684,0.284c0,1.699-0.425,3.541,0.708,3.967c0.8,0.299,1.319,0.949,2.054,0.858
				c-0.569,0.246-1.087,0.602-1.487,1.124c-1.102,1.441-0.424,3.967-2.691,4.817c-2.266,0.851-2.266,1.841-2.692,3.683
				c-0.424,1.842,0,6.517,0.567,6.941c0.566,0.425,1.559,3.967,3.967,3.684c2.409-0.283,4.958-0.394,5.808,0.016
				c0.85,0.408,2.267-0.865,2.691,2.392c0.425,3.259,1.417,3.684,1.983,5.384c0.566,1.699-0.284,5.242,0,7.367
				c0.283,2.124,2.267,5.808,2.267,7.649c0,1.841,2.125,2.69,3.258,1.982c1.134-0.708,3.542-2.125,4.533-4.392
				c0.992-2.266,0.992-3.399,2.55-6.374c1.558-2.976,1.134-5.101,1.841-7.366c0.709-2.268,2.413-3.825,4.748-6.375
				c2.334-2.55,1.915-3.967,0-3.825c-1.914,0.142-3.192-1.7-4.182-3.967c-0.99-2.267-2.124-7.933-1.273-6.091
				c0.85,1.842,2.549,6.942,4.249,7.792c1.7,0.85,4.817-1.444,5.525-2.28c0.708-0.836,0.425-3.244-1.417-4.236
				c-1.841-0.992-0.707-1.842,1.134-0.708S173.93,100.13,173.504,97.722z M158.488,91.63c-0.142,1.133,0.425,2.974-2.691,2.267
				c-3.117-0.708-3.117-2.409-4.392-1.134c-1.274,1.275-2.833,2.409-4.675,0.425s-1.559-2.55-2.55-2.692
				c-0.707-0.1-3.061-0.626-5.024-0.055c0.152-0.091,0.315-0.211,0.491-0.37c1.417-1.275,1.134-1.7,2.692-3.117
				c1.559-1.417,2.691-2.691,3.825-1.417c1.133,1.276,3.542,1.56,2.692,2.976c-0.85,1.417-0.283,2.266,0.709,1.417
				c0.99-0.85,2.407-1.417,1.416-2.549c-0.992-1.133-1.983-4.108-0.566-2.126c1.416,1.983,1.841,2.976,2.691,4.108
				c0.85,1.133,1.7,1.842,1.983,1.133c0.283-0.708-0.142-2.266,0.283-2.549c0.425-0.283,0,2.408,1.275,2.549
				C157.921,90.639,158.63,90.497,158.488,91.63z M161.746,86.814c-0.992-0.567-2.832,0-5.099,0.707
				c-2.267,0.709-0.454-1.576,0.566-3.116c0.912-1.376,0.425,0.425,2.409,0.566C161.605,85.114,162.738,87.381,161.746,86.814z
				 M166.705,91.205c-0.425,0.425-1.133-1.983-1.558-3.116c-0.425-1.134-0.415-3.104,0.781-4.198c1.489-1.366,0.777,1.79,0.777,3.49
				C166.705,89.08,167.129,90.78,166.705,91.205z"/>
			<path fill="#3FA9F5" d="M139.364,73.922c-0.868,0.261-1.558,1.983-1.133,2.834c0.426,0.85-0.425-0.426-1.558,0.283
				c-1.134,0.708-2.818,2.691-1.268,2.833c1.551,0.142,1.268-1.133,2.684-0.566c1.417,0.566,2.975,0.425,2.975-0.991
				C141.064,76.897,140.781,73.498,139.364,73.922z"/>
			<path fill="#3FA9F5" d="M130.156,67.406c-0.854,0.122-1.134,2.267,0.708,2.55s5.14-0.426,3.916-1.559
				C133.556,67.265,132.14,67.123,130.156,67.406z"/>
		</g>
	</g>
	<g>
		<g>
			<circle fill="none" stroke="#3FA9F5" stroke-width="8" stroke-miterlimit="10" cx="122.381" cy="101.123" r="49.201"/>
		</g>
	</g>
</g>
<g>
	<g>
		<g>
			<defs>
				<rect id="SVGID_3_" x="282" y="18" width="80.441" height="133.548"/>
			</defs>
			<clipPath id="SVGID_4_">
				<use xlink:href="#SVGID_3_"  overflow="visible"/>
			</clipPath>
			<path clip-path="url(#SVGID_4_)" fill="#3FA9F5" d="M350.532,29.597C342.716,21.865,333.247,18,322.129,18
				c-11.119,0-20.585,3.865-28.403,11.597C285.908,37.325,282,46.664,282,57.609c0,6.601,3.345,17.632,10.034,33.094
				c6.686,15.46,13.375,29.531,20.063,42.213c6.688,12.682,10.033,18.85,10.033,18.502c1.042-1.91,2.476-4.519,4.299-7.816
				c1.825-3.301,5.038-9.511,9.642-18.632c4.603-9.122,8.644-17.503,12.117-25.147c3.475-7.643,6.69-15.549,9.642-23.713
				c2.954-8.165,4.429-14.333,4.429-18.5C362.258,46.664,358.35,37.325,350.532,29.597L350.532,29.597z M330.729,65.947
				c-2.434,2.433-5.342,3.648-8.729,3.648c-3.389,0-6.298-1.215-8.73-3.648c-2.431-2.431-3.647-5.341-3.647-8.73
				c0-3.387,1.216-6.254,3.647-8.599c2.432-2.345,5.341-3.518,8.73-3.518c3.387,0,6.295,1.173,8.729,3.518
				c2.431,2.345,3.648,5.211,3.648,8.599C334.377,60.605,333.16,63.516,330.729,65.947L330.729,65.947z M330.729,65.947"/>
		</g>
	</g>
	<g>
		<g>
			<defs>
				<rect id="SVGID_5_" x="282" y="18" width="80.441" height="133.548"/>
			</defs>
			<clipPath id="SVGID_6_">
				<use xlink:href="#SVGID_5_"  overflow="visible"/>
			</clipPath>
			<path clip-path="url(#SVGID_6_)" fill="#3FA9F5" d="M350.532,29.597C342.716,21.865,333.247,18,322.129,18
				c-11.119,0-20.585,3.865-28.403,11.597C285.908,37.325,282,46.664,282,57.609c0,6.601,3.345,17.632,10.034,33.094
				c6.686,15.46,13.375,29.531,20.063,42.213c6.688,12.682,10.033,18.85,10.033,18.502c1.042-1.91,2.476-4.519,4.299-7.816
				c1.825-3.301,5.038-9.511,9.642-18.632c4.603-9.122,8.644-17.503,12.117-25.147c3.475-7.643,6.69-15.549,9.642-23.713
				c2.954-8.165,4.429-14.333,4.429-18.5C362.258,46.664,358.35,37.325,350.532,29.597L350.532,29.597z M330.729,65.947
				c-2.434,2.433-5.342,3.648-8.729,3.648c-3.389,0-6.298-1.215-8.73-3.648c-2.431-2.431-3.647-5.341-3.647-8.73
				c0-3.387,1.216-6.254,3.647-8.599c2.432-2.345,5.341-3.518,8.73-3.518c3.387,0,6.295,1.173,8.729,3.518
				c2.431,2.345,3.648,5.211,3.648,8.599C334.377,60.605,333.16,63.516,330.729,65.947L330.729,65.947z M330.729,65.947"/>
		</g>
	</g>
	<g>
		<g>
			<defs>
				<rect id="SVGID_7_" x="282" y="18" width="80.441" height="133.548"/>
			</defs>
			<clipPath id="SVGID_8_">
				<use xlink:href="#SVGID_7_"  overflow="visible"/>
			</clipPath>
		</g>
	</g>
</g>
<g>
	<path fill="#3FA9F5" d="M36.144,9.002h17.051V151H36.144V9.002z"/>
</g>
<g>
	<path fill="#3FA9F5" d="M264.599,146.4c-4.6,2.399-14.8,5.6-27.799,5.6c-29.2,0-48.199-19.8-48.199-49.399
		c0-29.799,20.399-51.399,51.999-51.399c10.4,0,19.6,2.6,24.399,5l-4,13.6c-4.2-2.4-10.8-4.6-20.4-4.6c-22.2,0-34.2,16.4-34.2,36.6
		c0,22.399,14.4,36.199,33.6,36.199c10,0,16.6-2.6,21.6-4.8L264.599,146.4z"/>
</g>
<g>
	<path fill="#3FA9F5" d="M372.768,142.123l43.799-56.999c4.2-5.2,8.2-9.8,12.6-15v-0.4h-52.399v-14.2h73.798l-0.199,11
		l-43.199,56.199c-4,5.399-8,10.2-12.4,15.2v0.399h56.6v14h-78.599V142.123z"/>
	<path fill="#3FA9F5" d="M488.967,28.325c0.199,6-4.201,10.8-11.201,10.8c-6.199,0-10.6-4.8-10.6-10.8c0-6.2,4.6-11,11-11
		C484.766,17.325,488.967,22.125,488.967,28.325z M469.366,152.323V55.525h17.601v96.798H469.366z"/>
	<path fill="#3FA9F5" d="M517.965,152.323V68.924h-13.6V55.525h13.6v-4.6c0-13.6,3-26,11.2-33.799c6.601-6.4,15.399-9,23.6-9
		c6.2,0,11.6,1.4,15,2.8l-2.4,13.6c-2.6-1.2-6.2-2.2-11.2-2.2c-14.999,0-18.799,13.2-18.799,28v5.2h23.399v13.399h-23.399v83.399
		H517.965z"/>
	<path fill="#3FA9F5" d="M580.963,55.525l21.2,57.199c2.2,6.399,4.601,14,6.2,19.8h0.4c1.799-5.8,3.799-13.199,6.199-20.199
		l19.199-56.799h18.601l-26.399,68.999c-12.6,33.199-21.2,50.199-33.199,60.6c-8.601,7.6-17.2,10.6-21.601,11.399l-4.399-14.8
		c4.399-1.4,10.199-4.199,15.399-8.6c4.8-3.801,10.8-10.6,14.8-19.6c0.8-1.801,1.4-3.2,1.4-4.2s-0.4-2.399-1.2-4.601l-35.8-89.198
		H580.963z"/>
</g>
<g>
</g>
<g>
</g>
<g>
</g>
<g>
</g>
<g>
</g>
<g>
</g>
<g>
</g>
<g>
</g>
<g>
</g>
<g>
</g>
<g>
</g>
<g>
</g>
<g>
</g>
<g>
</g>
<g>
</g>
</svg>
