<?xml version="1.0" encoding="utf-8"?>
<!DOCTYPE svg PUBLIC "-//W3C//DTD SVG 1.1//EN" "http://www.w3.org/Graphics/SVG/1.1/DTD/svg11.dtd">
<svg version="1.1" id="Layer_1" xmlns="http://www.w3.org/2000/svg" xmlns:xlink="http://www.w3.org/1999/xlink" x="0px" y="0px"
	 width="226.508px" height="66px" viewBox="105.492 0 226.508 66" enable-background="new 105.492 0 226.508 66"
	 xml:space="preserve">
<path d="M113.5,30c-0.7-0.6-1.6-1.1-2.6-1.1c-1.1,0-1.8,0.7-1.8,1.8c0,3,5.4,3.1,5.4,8c0,3.2-1.8,5.6-5.2,5.6c-1,0-2.2-0.3-3-0.899
	V40c0.8,0.6,1.6,1,2.7,1s2-0.8,2-2c0-1.4-1.1-1.9-2.1-2.6c-2.1-1.4-3.3-2.7-3.3-5.3c0-2.8,1.6-5.3,4.7-5.3c1.1,0,2.2,0.3,3.1,0.9V30
	H113.5z"/>
<path d="M118.1,31.9l1.6,7.1l0,0l1.6-7.1h2.9l1.5,7.1l0,0l0.2-1.3l1.4-5.8h3.2l-3.3,12h-2.8l-1.1-4.101l-0.7-3.5l0,0l-0.7,3.8
	l-1,3.7h-2.8l-3.4-12h3.4V31.9z"/>
<path d="M131.4,28.3c0-1.2,1-2.1,2.2-2.1c1.2,0,2.1,1,2.1,2.2c0,1.2-1,2.1-2.1,2.1C132.4,30.5,131.4,29.5,131.4,28.3z M135.2,31.9
	v12h-3.4v-12H135.2z"/>
<path d="M142.9,35.1c-0.5-0.399-0.9-0.8-1.6-0.8c-0.6,0-0.9,0.4-0.9,0.9c0,1.399,3.8,1.1,3.8,4.7c0,2.399-1.4,4.199-3.9,4.199
	c-1.3,0-2.6-0.5-3.6-1.399l1.5-2.4c0.5,0.4,1,0.8,1.7,0.8c0.5,0,1-0.399,1-1c0-1.6-3.8-1.199-3.8-5c0-2.3,1.9-3.5,4-3.5
	c1.2,0,2.2,0.3,3.2,1L142.9,35.1z"/>
<path d="M151.9,35.1c-0.5-0.399-0.9-0.8-1.6-0.8c-0.6,0-0.9,0.4-0.9,0.9c0,1.399,3.8,1.1,3.8,4.7c0,2.399-1.4,4.199-3.9,4.199
	c-1.3,0-2.6-0.5-3.6-1.399l1.5-2.4c0.5,0.4,1,0.8,1.7,0.8c0.5,0,1-0.399,1-1c0-1.6-3.8-1.199-3.8-5c0-2.3,1.9-3.5,4-3.5
	c1.2,0,2.2,0.3,3.2,1L151.9,35.1z"/>
<path d="M161.4,43.9V26h3.6c2.3,0,6.3,0.2,6.3,5.1c0,2-0.8,3.7-2.5,4.6l3.101,8.2h-3.7l-3.1-8.301l0,0V43.9H161.4z M164.9,33.7h0.6
	c1.6,0,2.3-1.1,2.3-2.6c0-1.3-0.6-2.3-2.4-2.2h-0.5V33.7L164.9,33.7z"/>
<path d="M180.8,38.8h-5.3c0,0.9,0,2.8,1.3,2.8c0.9,0,1.101-0.699,1.101-1.399h2.899c-0.3,2.2-1.399,4-3.8,4c-3.4,0-4.6-3-4.6-6
	c0-2.9,1-6.5,4.6-6.5c2.2,0,4.3,2,4.1,5.8L180.8,38.8z M178,36.4c0-0.801-0.2-2.2-1.2-2.2s-1.2,1.399-1.2,2.1v0.4h2.5v-0.3H178z"/>
<path d="M187.9,42.6L187.9,42.6c-0.5,0.9-1.2,1.601-2.301,1.601c-2.699,0-3.3-4.3-3.3-6.3c0-2.101,0.4-6.2,3.2-6.2
	c1.1,0,1.9,0.7,2.3,1.7l0,0v-8.7h3.4v19.2h-3.4V42.6H187.9z M188.1,37.9c0-0.7-0.1-3.2-1.199-3.2c-1.101,0-1.2,2.5-1.2,3.2
	c0,0.8,0,3.199,1.2,3.199C188,41.1,188.1,38.5,188.1,37.9z"/>
<path d="M208.1,29.3c-0.5-0.1-0.899-0.2-1.3-0.2c-3.1,0-4.5,2.8-4.5,5.6c0,2.7,1.4,6,4.5,6c0.5,0,0.9-0.101,1.4-0.3V43.8
	c-0.5,0.2-1.101,0.3-1.601,0.3c-5.1,0-8-4.6-8-9.3c0-4.5,3-9,7.801-9c0.6,0,1.199,0.1,1.8,0.3v3.2H208.1z"/>
<path d="M213.4,31.9v1.5l0,0c0.6-1,1.399-1.8,2.699-1.9v3.3c-0.199,0-0.3,0-0.5,0c-2.199,0-2.3,1.5-2.3,3.3v6H210v-12h3.4V31.9z"/>
<path d="M225.9,37.9c0,3.1-1,6.199-4.601,6.199c-3.6,0-4.6-3.199-4.6-6.199s1-6.3,4.6-6.3C225,31.7,225.9,34.8,225.9,37.9z
	 M220.1,37.9c0,0.699,0,3.199,1.2,3.199s1.2-2.5,1.2-3.199c0-0.7,0-3.2-1.2-3.2C220.2,34.7,220.1,37.2,220.1,37.9z"/>
<path d="M233.5,35.1c-0.5-0.399-0.9-0.8-1.6-0.8c-0.601,0-0.9,0.4-0.9,0.9c0,1.399,3.8,1.1,3.8,4.7c0,2.399-1.399,4.199-3.899,4.199
	c-1.301,0-2.601-0.5-3.601-1.399l1.5-2.4c0.5,0.4,1,0.8,1.7,0.8c0.5,0,1-0.399,1-1c0-1.6-3.8-1.199-3.8-5c0-2.3,1.899-3.5,4-3.5
	c1.2,0,2.2,0.3,3.2,1L233.5,35.1z"/>
<path d="M242.4,35.1c-0.5-0.399-0.9-0.8-1.601-0.8c-0.6,0-0.899,0.4-0.899,0.9c0,1.399,3.8,1.1,3.8,4.7c0,2.399-1.4,4.199-3.9,4.199
	c-1.3,0-2.6-0.5-3.6-1.399l1.5-2.4c0.5,0.4,1,0.8,1.7,0.8c0.5,0,1-0.399,1-1c0-1.6-3.801-1.199-3.801-5c0-2.3,1.9-3.5,4-3.5
	c1.2,0,2.2,0.3,3.2,1L242.4,35.1z"/>
<polygon fill="#E2001A" points="332,22 310,22 310,0 288,0 288,22 266,22 266,44 288,44 288,66 310,66 310,44 332,44 "/>
</svg>
