<svg xmlns="http://www.w3.org/2000/svg" viewBox="0 0 691.25 73.79"><defs><style>.cls-1,.cls-2{fill:#231f20;}.cls-1{fill-rule:evenodd;}</style></defs><title>bethesda-net-black</title><g id="Layer_2" data-name="Layer 2"><g id="Beth_Logo_TM" data-name="Beth Logo TM"><path class="cls-1" d="M65.51,41.74h14c5.27,0,7.81,2.33,7.81,6.6,0,5.57-4,6.9-8.71,6.9H65.51ZM43.21,72.47H84.26c12.78,0,25.35-7.51,25.35-22,0-10.64-6.08-15.81-12.57-18,5.38-2.93,8.92-6.9,8.92-14.19S101.92.08,82.85.08H43.21Zm22.3-55.16H77.27c4.56,0,7.6,1.32,7.6,5,0,4.66-2.94,6-7.6,6H65.51Z"/><path class="cls-1" d="M131,40.22c.92-5.68,4.36-8.82,10.35-8.82a8.64,8.64,0,0,1,8.82,8.82Zm38.43,10.44c0-20.47-9-32.14-29.9-32.14-16.64,0-27.79,12.47-27.79,27.79,0,17.54,12.68,27.48,29.51,27.48,12,0,23-5.27,27.06-16.63H149.55c-1.62,2.54-5.17,3.75-8.43,3.75-6.27,0-9.72-4.26-10.23-10.24Z"/><path class="cls-2" d="M194.58,3.82H174.51v16h-8.92V32.21h8.92V57.37c0,14.39,9.43,15.71,18,15.71,4.26,0,8.83-.61,12.88-.61V57.25a32.67,32.67,0,0,1-4.57.31c-5.06,0-6.19-2.13-6.19-7V32.21h10.75V19.85H194.58Z"/><path class="cls-2" d="M208.66,72.47h20.08V44.69c0-8.42,4.56-10.15,8-10.15,5.87,0,6.58,4.26,6.58,10.34V72.47h20.08V36.37c0-12.06-8.63-17.84-18.06-17.84-8.51,0-13,2.95-16.43,7h-.2V.08H208.66Z"/><path class="cls-1" d="M285.28,40.22c.91-5.68,4.37-8.82,10.35-8.82a8.63,8.63,0,0,1,8.81,8.82Zm38.43,10.44c0-20.47-9-32.14-29.91-32.14C277.17,18.53,266,31,266,46.31c0,17.54,12.68,27.48,29.52,27.48,11.95,0,23-6.24,27.06-17.59H303.85a10.88,10.88,0,0,1-8.43,4.71c-6.28,0-9.73-4.26-10.23-10.24Z"/><path class="cls-2" d="M374.23,35.15c-.5-13.48-14.19-16.63-25.54-16.63-10.55,0-24.85,3.45-24.85,16.73,0,9,6.19,13.89,21.5,16.52,9.33,1.62,11.05,2.54,11.05,5.59s-4.16,4.05-6.79,4.05a8.32,8.32,0,0,1-5.38-1.53c-1.53-1.31-2.33-1.87-2.43-3.7H322.63c.29,13.59,13.89,17.59,26.25,17.59,12.78,0,26.78-4,26.78-18.56,0-8.62-5.89-12.57-12.58-14.7s-14.29-2.63-17.64-4.06c-1.11-.5-2.33-1.21-2.33-2.74,0-3.44,3.24-4,6.08-4a7,7,0,0,1,4.45,1.52,5.09,5.09,0,0,1,2.35,4Z"/><path class="cls-1" d="M433.42.08H413.36V25.62h-.21a17.17,17.17,0,0,0-14.4-7.1c-17.64,0-22.41,15-22.41,27.38,0,13.19,7.2,27.89,22.1,27.89,9.83,0,12.87-3.75,15.41-7.11h.21v5.79h19.36Zm-19.36,46c0,6.28-1.62,13.08-8.81,13.08s-8.83-6.8-8.83-13.08,1.63-13,8.83-13,8.81,6.8,8.81,13"/><path class="cls-1" d="M471.32,53.71c-.31,5.48-3.85,8.21-8.42,8.21-3.64,0-6.28-2.42-6.28-4.85,0-3.56,2.33-4.68,6.79-5.68a34.54,34.54,0,0,0,7.91-2.54Zm19.27-14.6c0-10.14.19-20.58-25-20.58-12.47,0-26.46,2.43-27.06,17.23h18.64c.11-2.22,1.33-5.37,7.51-5.37,3.26,0,6.6,1.32,6.6,4.87,0,3.35-2.74,4.16-5.47,4.67-10.25,1.92-29.7,1.31-29.7,18,0,11,8.4,15.92,18.55,15.92,6.5,0,12.67-1.43,16.93-6.29h.2a13.78,13.78,0,0,0,.71,5H493c-2.24-3.34-2.42-7.81-2.42-11.76Z"/><path class="cls-2" d="M497,52.12h21v20H497Z"/><path class="cls-2" d="M524.77,19.7h19.29v6.67h.2c3.74-5.25,9.09-8,17.07-8,9.39,0,18,5.76,18,17.78v36h-20V44.64c0-6.06-.71-10.3-6.56-10.3-3.43,0-8,1.72-8,10.1V72.11h-20Z"/><path class="cls-2" d="M602,50.4c.5,6,3.94,10.2,10.2,10.2,3.23,0,6.77-1.21,8.38-3.74H639.3c-4,11.31-15,16.56-27,16.56-16.77,0-29.39-9.9-29.39-27.37,0-15.25,11.11-27.67,27.67-27.67,20.81,0,29.79,11.61,29.79,32ZM621.22,40a8.61,8.61,0,0,0-8.79-8.79c-6,0-9.39,3.13-10.3,8.79Z"/><path class="cls-2" d="M667.78,19.7h10.71V32H667.78V50.3c0,4.85,1.11,7,6.16,7a34.32,34.32,0,0,0,4.54-.3V72.11c-4,0-8.58.61-12.83.61-8.48,0-17.88-1.31-17.88-15.66V32H638.9V19.7h8.89v-16h20Z"/><path class="cls-1" d="M10.91,11.14h9.16v9.34H10.91ZM0,0H31V31.61H0Z"/><path class="cls-2" d="M691.25,9a5.53,5.53,0,1,1-5.51-5.38A5.41,5.41,0,0,1,691.25,9Zm-9.68,0a4.17,4.17,0,0,0,4.2,4.3,4.12,4.12,0,0,0,4.1-4.27,4.16,4.16,0,1,0-8.3,0Zm3.31,2.82h-1.25V6.49a10.9,10.9,0,0,1,2.07-.16,3.35,3.35,0,0,1,1.87.39,1.49,1.49,0,0,1,.53,1.18A1.38,1.38,0,0,1,687,9.15v.07a1.59,1.59,0,0,1,1,1.31,4.13,4.13,0,0,0,.39,1.35H687a4.64,4.64,0,0,1-.43-1.31c-.1-.59-.43-.85-1.12-.85h-.59Zm0-3.05h.59c.69,0,1.25-.23,1.25-.79s-.36-.82-1.15-.82a3,3,0,0,0-.69.07Z"/></g></g></svg>