<?xml version="1.0" encoding="UTF-8" standalone="no"?>
<svg width="277px" height="124px" viewBox="0 0 277 124" version="1.1" xmlns="http://www.w3.org/2000/svg" xmlns:xlink="http://www.w3.org/1999/xlink">
    <!-- Generator: sketchtool 39.1 (31720) - http://www.bohemiancoding.com/sketch -->
    <title>CE0518AD-E4DA-4124-9265-A5A0DCDBEB58</title>
    <desc>Created with sketchtool.</desc>
    <defs></defs>
    <g id="V2" stroke="none" stroke-width="1" fill="none" fill-rule="evenodd">
        <g id="Login" transform="translate(-582.000000, -130.000000)">
            <g id="Carina_PrimaryLogo_rgb" transform="translate(582.000000, 130.000000)">
                <path d="M69.2440488,62.1358609 L69.2440488,62.0372 C69.2440488,52.2422783 76.591041,44.1289043 86.8178594,44.1289043 C93.1223145,44.1289043 96.8953574,46.355513 100.370301,49.6199478 L97.6895684,52.4897391 C94.7605098,49.7191478 91.4835781,47.7405391 86.7675449,47.7405391 C79.0732207,47.7405391 73.3151914,53.9734261 73.3151914,61.938 L73.3151914,62.0372 C73.3151914,70.0508348 79.1235352,76.3338609 86.7675449,76.3338609 C91.5338926,76.3338609 94.6609629,74.503513 97.987127,71.3372 L100.568854,73.8603304 C96.9445898,77.5210261 92.9729941,79.9449565 86.6690801,79.9449565 C76.6413555,79.9449565 69.2440488,72.0795826 69.2440488,62.1358609" id="Fill-1" fill="#6E6259"></path>
                <path d="M130.256004,66.6872 L122.363127,49.0263652 L114.421018,66.6872 L130.256004,66.6872 L130.256004,66.6872 Z M120.576693,44.4750261 L124.250189,44.4750261 L140.085717,79.3513739 L135.866336,79.3513739 L131.795734,70.1996348 L112.882369,70.1996348 L108.761453,79.3513739 L104.740625,79.3513739 L120.576693,44.4750261 L120.576693,44.4750261 Z" id="Fill-2" fill="#6E6259"></path>
                <path d="M266.907895,66.6872 L259.015018,49.0263652 L251.072908,66.6872 L266.907895,66.6872 L266.907895,66.6872 Z M257.228584,44.4750261 L260.90208,44.4750261 L276.737607,79.3513739 L272.518227,79.3513739 L268.447625,70.1996348 L249.53426,70.1996348 L245.413344,79.3513739 L241.392516,79.3513739 L257.228584,44.4750261 L257.228584,44.4750261 Z" id="Fill-3" fill="#6E6259"></path>
                <path d="M151.101877,62.3833217 L151.101877,48.3341217 L161.824266,48.3341217 C167.434598,48.3341217 170.710447,50.9068522 170.710447,55.1611304 L170.710447,55.2597913 C170.710447,59.7119304 166.987719,62.3833217 161.775033,62.3833217 L151.101877,62.3833217 L151.101877,62.3833217 Z M167.008818,65.0401565 C172.266949,63.3661565 174.682043,59.4369739 174.682043,55.1115304 L174.682043,55.0123304 C174.682043,52.2913391 173.689279,49.8674087 172.001311,48.1858609 C169.81723,46.0088522 166.392061,44.722487 162.122365,44.722487 L147.180596,44.722487 L147.180596,79.3513739 L151.101877,79.3513739 L151.101877,65.8957565 L162.932807,65.8957565 L173.010846,79.3513739 L177.826426,79.3513739 L167.008818,65.0401565 L167.008818,65.0401565 Z" id="Fill-4" fill="#6E6259"></path>
                <polygon id="Fill-5" fill="#6E6259" points="186.586551 79.3513739 190.507832 79.3513739 190.507832 44.722487 186.586551 44.722487"></polygon>
                <polyline id="Fill-6" fill="#6E6259" points="203.636117 44.722487 207.309613 44.722487 229.202352 72.4747652 229.202352 44.722487 233.024627 44.722487 233.024627 79.3513739 229.897016 79.3513739 207.458934 50.955913 207.458934 79.3513739 203.636117 79.3513739 203.636117 44.722487"></polyline>
                <path d="M62.150793,34.5722783 C68.7419863,28.6165043 77.4885859,24.9870783 87.0867441,24.9870783 C90.78675,24.9870783 94.3569121,25.5337565 97.7296035,26.5376174 C93.1526113,11.2705217 78.9596074,0.138556522 62.150793,0.138556522 C45.3419785,0.138556522 31.1484336,11.2705217 26.5719824,26.5376174 C29.9441328,25.5337565 33.5148359,24.9870783 37.2148418,24.9870783 C46.813,24.9870783 55.5595996,28.6165043 62.150793,34.5722783" id="Fill-7" fill="#F1B434"></path>
                <path d="M62.150793,89.4131652 C55.5595996,95.3689391 46.813,98.9983652 37.2148418,98.9983652 C33.5148359,98.9983652 29.9441328,98.451687 26.5719824,97.4478261 C31.1484336,112.714922 45.3419785,123.846887 62.150793,123.846887 C78.9596074,123.846887 93.1526113,112.714922 97.7296035,97.4478261 C94.3569121,98.451687 90.78675,98.9983652 87.0867441,98.9983652 C77.4885859,98.9983652 68.7419863,95.3689391 62.150793,89.4131652" id="Fill-8" fill="#F1B434"></path>
                <path d="M34.6341973,61.9929913 C28.6581387,55.4247652 25.0160215,46.7086435 25.0160215,37.1439304 C25.0160215,33.4568174 25.5646113,29.8985565 26.5719824,26.5376174 C11.2509609,31.0986609 0.0800703125,45.2422087 0.0800703125,61.9929913 C0.0800703125,78.7432348 11.2509609,92.8867826 26.5719824,97.4478261 C25.5646113,94.086887 25.0160215,90.5286261 25.0160215,86.841513 C25.0160215,77.2773391 28.6581387,68.5606783 34.6341973,61.9929913" id="Fill-9" fill="#F1BE48"></path>
                <path d="M34.6341973,61.9929913 C39.124627,57.0583304 44.9351348,53.3431826 51.5073926,51.3866783 C53.4712793,44.8373217 57.198877,39.0465217 62.150793,34.5722783 C55.5595996,28.6165043 46.813,24.9870783 37.2148418,24.9870783 C33.5148359,24.9870783 29.9441328,25.5337565 26.5719824,26.5376174 C25.5646113,29.8985565 25.0160215,33.4568174 25.0160215,37.1439304 C25.0160215,46.7086435 28.6581387,55.4247652 34.6341973,61.9929913" id="Fill-10" fill="#ED8B00"></path>
                <path d="M62.150793,89.4131652 C57.198877,84.9389217 53.4712793,79.1481217 51.5073926,72.5987652 C44.9351348,70.6422609 39.124627,66.927113 34.6341973,61.9929913 C28.6581387,68.5606783 25.0160215,77.2773391 25.0160215,86.841513 C25.0160215,90.5286261 25.5646113,94.086887 26.5719824,97.4478261 C29.9441328,98.451687 33.5148359,98.9983652 37.2148418,98.9983652 C46.813,98.9983652 55.5595996,95.3689391 62.150793,89.4131652" id="Fill-11" fill="#ED8B00"></path>
                <path d="M51.5073926,51.3866783 C44.9351348,53.3431826 39.124627,57.0583304 34.6341973,61.9929913 C39.124627,66.927113 44.9351348,70.6422609 51.5073926,72.5987652 C50.5000215,69.2378261 49.9514316,65.6801043 49.9514316,61.9929913 C49.9514316,58.3053391 50.5000215,54.7476174 51.5073926,51.3866783" id="Fill-12" fill="#F4DA40"></path>
            </g>
        </g>
    </g>
</svg>