<svg xmlns="http://www.w3.org/2000/svg" xmlns:xlink="http://www.w3.org/1999/xlink" viewBox="0 0 459.1227 215.3643"><defs><linearGradient id="abfe389e-dea8-4a9c-8567-253eaa95f8b3" x1="-157.8131" y1="-210.3063" x2="-157.6093" y2="-210.3063" gradientTransform="matrix(606.1288, 0, 0, -606.1288, 95655.637, -127382.0556)" gradientUnits="userSpaceOnUse"><stop offset="0"/><stop offset="1" stop-color="#fff"/></linearGradient><linearGradient id="a3429b04-9792-405f-bfc9-1b65d5d03c48" x1="-157.8131" y1="-210.2305" x2="-157.6093" y2="-210.2305" gradientTransform="matrix(606.1288, 0, 0, -606.1288, 95651.6243, -127382.2254)" xlink:href="#abfe389e-dea8-4a9c-8567-253eaa95f8b3"/><linearGradient id="b2239e42-eb9d-48ec-a16f-c4f06358aa1a" x1="-157.3402" y1="-210.1909" x2="-157.1366" y2="-210.1909" gradientTransform="matrix(0, 645.5277, 645.5277, 0, 135744.3642, 101586.4381)" gradientUnits="userSpaceOnUse"><stop offset="0" stop-color="#666"/><stop offset="1" stop-color="#fff"/></linearGradient><linearGradient id="bea402d8-839e-4739-952e-40bcaeb1d22e" x1="-157.3402" y1="-210.4341" x2="-157.1366" y2="-210.4341" gradientTransform="matrix(0, 645.5277, 645.5277, 0, 135901.3476, 101552.2423)" xlink:href="#b2239e42-eb9d-48ec-a16f-c4f06358aa1a"/><linearGradient id="a258b2fc-3fb8-48d6-8a38-95b2d7ea8401" x1="-155.9465" y1="-207.8732" x2="-155.7428" y2="-207.8732" gradientTransform="matrix(-446.4337, 0, 0, 446.4337, -69524.1523, 92894.1062)" gradientUnits="userSpaceOnUse"><stop offset="0" stop-color="#fff"/><stop offset="0.4054"/><stop offset="1"/></linearGradient><linearGradient id="bba0f8fd-182c-4ea4-8891-9df199219f40" x1="-154.7755" y1="-210.3712" x2="-154.5718" y2="-210.3712" gradientTransform="matrix(0, 272.9433, 272.9433, 0, 57467.6615, 42302.3509)" gradientUnits="userSpaceOnUse"><stop offset="0"/><stop offset="0.5749"/><stop offset="0.7316" stop-color="#fff"/><stop offset="1" stop-color="#fff"/></linearGradient><clipPath id="b6dde448-10f6-4209-a225-51d8860fae3d" transform="translate(30.1243 39.7954)"><rect width="120.5716" height="135.7734" style="fill:none"/></clipPath><clipPath id="ea67bebd-31c1-4ec0-bc81-c8f88772d415" transform="translate(30.1243 39.7954)"><rect x="-43.9923" y="-36.6825" width="208.5563" height="208.5563" style="fill:none"/></clipPath><clipPath id="f5e3be70-f6c5-4284-bc55-fc887c10d285" transform="translate(30.1243 39.7954)"><rect y="24.9614" width="120.5716" height="85.2722" style="fill:none"/></clipPath><clipPath id="beac066b-e88c-46b2-b83f-7e4f2e012ef9" transform="translate(30.1243 39.7954)"><path d="M13.5651,110.2336h0L120.4859,96.3557a13.0208,13.0208,0,0,0,.0857-1.48V71.09L.0012,86.74Z" style="fill:none"/></clipPath><mask id="b7d77e9f-65cc-4814-aa1b-6dd182ecf04b" x="26.7269" y="100.4168" width="127.3676" height="60.0806" maskUnits="userSpaceOnUse"><g transform="translate(30.1243 39.7954)"><rect x="-1.4752" y="65.9101" width="123.5232" height="49.5033" transform="matrix(0.9962, -0.0872, 0.0872, 0.9962, -7.6723, 5.5993)" style="fill:url(#abfe389e-dea8-4a9c-8567-253eaa95f8b3)"/></g></mask><linearGradient id="b251fe43-41ed-4d95-a716-d4b45a9ed661" x1="-157.8131" y1="-210.3063" x2="-157.6093" y2="-210.3063" gradientTransform="matrix(606.1288, 0, 0, -606.1288, 95655.6526, -127382.064)" gradientUnits="userSpaceOnUse"><stop offset="0" stop-color="#1965ff"/><stop offset="1" stop-color="#1965ff"/></linearGradient><clipPath id="a05ca985-2f23-41a9-a4ca-b4af1d3eb0a4" transform="translate(30.1243 39.7954)"><path d="M107.0128,24.9614.0853,38.84A12.9829,12.9829,0,0,0,0,40.3153V64.106l120.5716-15.65v-.01Z" style="fill:none"/></clipPath><mask id="aec4bc5c-2e68-4a9c-809f-6cda1f2edb49" x="26.7256" y="54.2883" width="127.369" height="60.0817" maskUnits="userSpaceOnUse"><g transform="translate(30.1243 39.7954)"><rect x="-1.4764" y="19.7816" width="123.5245" height="49.5042" transform="translate(-3.652 5.4237) rotate(-5)" style="fill:url(#a3429b04-9792-405f-bfc9-1b65d5d03c48)"/></g></mask><linearGradient id="b54a15c9-0e9d-4329-9ee4-2cf1d498d7d0" x1="-157.8131" y1="-210.2305" x2="-157.6093" y2="-210.2305" gradientTransform="matrix(606.1288, 0, 0, -606.1288, 95651.6335, -127382.2386)" xlink:href="#b251fe43-41ed-4d95-a716-d4b45a9ed661"/><clipPath id="bc38a228-fd79-47a3-b497-41b90932e0df" transform="translate(30.1243 39.7954)"><rect x="0.001" y="71.09" width="120.5706" height="39.1436" style="fill:none"/></clipPath><mask id="bdb6230d-0061-405d-b105-a4ac8d4a8acd" x="20.3395" y="80.7426" width="140.1423" height="99.429" maskUnits="userSpaceOnUse"><g transform="translate(30.1243 39.7954)"><rect x="25.7784" y="27.3651" width="69.0159" height="126.5932" transform="matrix(0.2588, -0.9659, 0.9659, 0.2588, -42.8893, 125.4289)" style="fill:url(#b2239e42-eb9d-48ec-a16f-c4f06358aa1a)"/></g></mask><linearGradient id="a6f6b580-ebae-4cfc-9695-0f7a6376620d" x1="-157.3402" y1="-210.1909" x2="-157.1366" y2="-210.1909" gradientTransform="matrix(0, 645.5276, 645.5276, 0, 135744.3507, 101586.4269)" gradientUnits="userSpaceOnUse"><stop offset="0" stop-color="#fff"/><stop offset="1" stop-color="#fff"/></linearGradient><clipPath id="fc9131f4-573a-449a-80a7-4dbd88727af0" transform="translate(30.1243 39.7954)"><rect y="24.9614" width="120.5716" height="39.1444" style="fill:none"/></clipPath><mask id="f31ccd2a-1dad-4c22-9348-654c9836f663" x="20.3381" y="34.6139" width="140.1439" height="99.4305" maskUnits="userSpaceOnUse"><g transform="translate(30.1243 39.7954)"><rect x="25.7773" y="-18.7636" width="69.0171" height="126.5946" transform="translate(1.6664 91.2392) rotate(-75)" style="fill:url(#bea402d8-839e-4739-952e-40bcaeb1d22e)"/></g></mask><linearGradient id="e712b197-cb57-4b7f-9a25-fedd689a4f45" x1="-157.3402" y1="-210.4341" x2="-157.1366" y2="-210.4341" gradientTransform="matrix(0, 645.5276, 645.5276, 0, 135901.3286, 101552.2383)" xlink:href="#a6f6b580-ebae-4cfc-9695-0f7a6376620d"/><clipPath id="ae1ae6ed-3f5a-4736-83b5-adb96bb13570" transform="translate(30.1243 39.7954)"><rect y="28.1142" width="92.5047" height="82.1195" style="fill:none"/></clipPath><clipPath id="e1a6bf8f-a663-4045-8a35-5f1485103e96" transform="translate(30.1243 39.7954)"><polygon points="4.015 93.692 13.565 110.234 34.884 107.467 92.505 75.095 92.315 74.757 21.314 83.973 4.015 93.692" style="fill:none"/></clipPath><mask id="f0ecf51e-29b1-496f-bb9c-e53799e16d30" x="18.7778" y="76.2358" width="119.2128" height="112.1104" maskUnits="userSpaceOnUse"><g transform="translate(30.1243 39.7954)"><rect x="1.0738" y="55.0115" width="94.3723" height="74.968" transform="translate(-39.7822 36.522) rotate(-30)" style="fill:url(#a258b2fc-3fb8-48d6-8a38-95b2d7ea8401)"/></g></mask><linearGradient id="fdcad04f-6d7a-458e-a273-c282e70a68c2" x1="-155.9465" y1="-207.8732" x2="-155.7428" y2="-207.8732" gradientTransform="matrix(-446.4337, 0, 0, 446.4337, -69524.1613, 92894.1129)" gradientUnits="userSpaceOnUse"><stop offset="0" stop-color="#1965ff"/><stop offset="0.4054" stop-color="#1965ff"/><stop offset="1" stop-color="#1965ff"/></linearGradient><mask id="ab0cd8ad-2247-4b34-975c-358079484d9b" x="28.0726" y="99.4203" width="100.6231" height="65.7414" maskUnits="userSpaceOnUse"><g transform="translate(30.1243 39.7954)"><rect x="1.6071" y="67.3439" width="93.3056" height="50.3033" transform="translate(-15.3285 9.7855) rotate(-10)" style="fill:url(#bba0f8fd-182c-4ea4-8891-9df199219f40)"/></g></mask><linearGradient id="a67b0b46-494b-4dd1-913f-cabd7065d937" x1="-154.7755" y1="-210.3712" x2="-154.5718" y2="-210.3712" gradientTransform="matrix(0, 272.9432, 272.9432, 0, 57467.6544, 42302.347)" gradientUnits="userSpaceOnUse"><stop offset="0" stop-color="#1965ff"/><stop offset="0.5749" stop-color="#1965ff"/><stop offset="0.7316" stop-color="#1965ff"/><stop offset="1" stop-color="#1965ff"/></linearGradient><clipPath id="f582381d-4e2d-4577-9f43-4d0f1c2900aa" transform="translate(30.1243 39.7954)"><rect y="28.1142" width="82.7221" height="35.9916" style="fill:none"/></clipPath><clipPath id="fb6a529c-079e-4b7c-a938-5332291c87ed" transform="translate(30.1243 39.7954)"><path d="M38.045,118.7227a3.2589,3.2589,0,0,0,0,5.6443l15.7234,9.0781a13.0355,13.0355,0,0,0,13.0348,0l47.251-27.2806a13.0342,13.0342,0,0,0,6.5174-11.2885v-23.8Z" style="fill:none"/></clipPath><linearGradient id="a5603760-5f0f-40bc-ae9c-80c1b955d764" x1="-156.8969" y1="-210.2745" x2="-156.6932" y2="-210.2745" gradientTransform="matrix(0, 661.7427, 661.7427, 0, 139225.8521, 103826.1549)" gradientUnits="userSpaceOnUse"><stop offset="0" stop-color="#2680ff"/><stop offset="0.2054" stop-color="#247dff"/><stop offset="0.3716" stop-color="#2073ff"/><stop offset="0.5" stop-color="#1965ff"/><stop offset="0.6018" stop-color="#2f61ff"/><stop offset="0.717" stop-color="#405eff"/><stop offset="0.8432" stop-color="#4a5cff"/><stop offset="1" stop-color="#4d5bff"/></linearGradient><clipPath id="a8fdc186-832a-4e29-8ae0-ff2dd308226d" transform="translate(30.1243 39.7954)"><path d="M23.2557,73.3126,0,86.7393V94.876a13.0348,13.0348,0,0,0,6.5174,11.2885l7.0473,4.0689L36.82,96.807A13.5644,13.5644,0,1,0,23.2557,73.3126" style="fill:none"/></clipPath><linearGradient id="bbf475c4-963b-41fa-91ea-e0e344a6c8fe" x1="-156.8969" y1="-210.307" x2="-156.6932" y2="-210.307" gradientTransform="matrix(-0.0001, 661.7427, 661.7427, 0.0001, 139191.9027, 103866.2412)" xlink:href="#a5603760-5f0f-40bc-ae9c-80c1b955d764"/><clipPath id="ad8df613-f7d8-4ed6-a47d-98660e4d5221" transform="translate(30.1243 39.7954)"><path d="M61.1775,51.4183A13.5642,13.5642,0,1,0,74.742,74.912l45.83-26.46V40.3153a13.0344,13.0344,0,0,0-6.5174-11.2885l-7.0469-4.0685Z" style="fill:none"/></clipPath><linearGradient id="f1817693-95bf-49ef-83e5-b10b2ac926c1" x1="-156.8969" y1="-210.2022" x2="-156.6932" y2="-210.2022" gradientTransform="matrix(0, 661.7427, 661.7427, 0, 139186.3171, 103796.94)" xlink:href="#a5603760-5f0f-40bc-ae9c-80c1b955d764"/><clipPath id="f556889f-5ad2-4d6a-bab0-c418dfddcef5" transform="translate(30.1243 39.7954)"><path d="M53.7719,1.7446,6.5156,29.028A13.0345,13.0345,0,0,0,0,40.3153v23.8L82.5264,16.4684a3.2586,3.2586,0,0,0,0-5.6442L66.8032,1.7465a13.0346,13.0346,0,0,0-13.0313-.0019" style="fill:none"/></clipPath><linearGradient id="bd014863-8787-42e2-9907-727d794dfb00" x1="-156.8969" y1="-210.2173" x2="-156.6932" y2="-210.2173" gradientTransform="matrix(0, 661.7427, 661.7427, 0, 139152.0961, 103825.1052)" xlink:href="#a5603760-5f0f-40bc-ae9c-80c1b955d764"/><clipPath id="e93a7b60-9e44-4976-b331-ce53a2c91664" transform="translate(30.1243 39.7954)"><rect x="153.027" y="14.5332" width="275.9715" height="116.7071" style="fill:none"/></clipPath><clipPath id="ba5d99cf-fd68-4098-99a3-e2ff21f5d557" transform="translate(30.1243 39.7954)"><rect x="147.5545" y="-2.2443" width="285.1682" height="148.94" style="fill:none"/></clipPath></defs><title>clevy_logo_BLUE_INLINE</title><g style="isolation:isolate"><g id="f1e49e2e-9261-475e-ba48-2e750dbbc286" data-name="Layer 2"><g id="a24f80ee-aff9-4b65-99a7-8d36860e6fee" data-name="BLUE_INLINE"><g style="clip-path:url(#b6dde448-10f6-4209-a225-51d8860fae3d)"><g style="clip-path:url(#ea67bebd-31c1-4ec0-bc81-c8f88772d415)"><g style="clip-path:url(#ea67bebd-31c1-4ec0-bc81-c8f88772d415)"><g style="opacity:0.35000601410865784;mix-blend-mode:multiply"><g style="clip-path:url(#f5e3be70-f6c5-4284-bc55-fc887c10d285)"><g style="clip-path:url(#beac066b-e88c-46b2-b83f-7e4f2e012ef9)"><g style="mask:url(#b7d77e9f-65cc-4814-aa1b-6dd182ecf04b)"><rect x="-1.4752" y="65.9101" width="123.5232" height="49.5033" transform="translate(22.452 45.3947) rotate(-5)" style="fill:url(#b251fe43-41ed-4d95-a716-d4b45a9ed661)"/></g></g><g style="clip-path:url(#a05ca985-2f23-41a9-a4ca-b4af1d3eb0a4)"><g style="mask:url(#aec4bc5c-2e68-4a9c-809f-6cda1f2edb49)"><rect x="-1.4764" y="19.7816" width="123.5245" height="49.5042" transform="translate(26.4723 45.2192) rotate(-5)" style="fill:url(#b54a15c9-0e9d-4329-9ee4-2cf1d498d7d0)"/></g></g><g style="opacity:0.39999398589134216"><g style="clip-path:url(#bc38a228-fd79-47a3-b497-41b90932e0df)"><g style="clip-path:url(#beac066b-e88c-46b2-b83f-7e4f2e012ef9)"><g style="mask:url(#bdb6230d-0061-405d-b105-a4ac8d4a8acd)"><rect x="25.7784" y="27.3651" width="69.0159" height="126.5932" transform="translate(-12.7651 165.2244) rotate(-75)" style="fill:url(#a6f6b580-ebae-4cfc-9695-0f7a6376620d)"/></g></g></g></g><g style="opacity:0.39999398589134216"><g style="clip-path:url(#fc9131f4-573a-449a-80a7-4dbd88727af0)"><g style="clip-path:url(#a05ca985-2f23-41a9-a4ca-b4af1d3eb0a4)"><g style="mask:url(#f31ccd2a-1dad-4c22-9348-654c9836f663)"><rect x="25.7773" y="-18.7636" width="69.017" height="126.5946" transform="translate(31.7907 131.0346) rotate(-75)" style="fill:url(#e712b197-cb57-4b7f-9a25-fedd689a4f45)"/></g></g></g></g></g></g><g style="opacity:0.08000180125236511;mix-blend-mode:multiply"><g style="clip-path:url(#ae1ae6ed-3f5a-4736-83b5-adb96bb13570)"><g style="clip-path:url(#e1a6bf8f-a663-4045-8a35-5f1485103e96)"><g style="mask:url(#f0ecf51e-29b1-496f-bb9c-e53799e16d30)"><rect x="1.0738" y="55.0115" width="94.3723" height="74.968" transform="translate(-9.6579 76.3174) rotate(-30)" style="fill:url(#fdcad04f-6d7a-458e-a273-c282e70a68c2)"/></g></g><g style="clip-path:url(#e1a6bf8f-a663-4045-8a35-5f1485103e96)"><g style="mask:url(#ab0cd8ad-2247-4b34-975c-358079484d9b)"><rect x="1.6071" y="67.3439" width="93.3056" height="50.3033" transform="translate(14.7958 49.5809) rotate(-10)" style="fill:url(#a67b0b46-494b-4dd1-913f-cabd7065d937)"/></g></g><g style="opacity:0.75"><g style="clip-path:url(#f582381d-4e2d-4577-9f43-4d0f1c2900aa)"><polygon points="112.846 67.91 42.854 76.995 30.124 84.344 30.124 103.901 56.418 100.488 112.846 67.91" style="fill:#1965ff"/></g></g></g></g></g><g style="clip-path:url(#fb6a529c-079e-4b7c-a938-5332291c87ed)"><rect x="27.4331" y="50.1799" width="101.578" height="106.49" transform="translate(-21.2407 147.9741) rotate(-55)" style="fill:url(#a5603760-5f0f-40bc-ae9c-80c1b955d764)"/></g><g style="clip-path:url(#a8fdc186-832a-4e29-8ae0-ff2dd308226d)"><rect x="-6.1595" y="61.1047" width="57.8496" height="59.5171" transform="translate(-34.5989 97.1899) rotate(-55)" style="fill:url(#bbf475c4-963b-41fa-91ea-e0e344a6c8fe)"/></g><g style="clip-path:url(#ad8df613-f7d8-4ed6-a47d-98660e4d5221)"><rect x="45.7825" y="8.103" width="81.4736" height="85.4841" transform="translate(25.3683 132.3494) rotate(-55)" style="fill:url(#f1817693-95bf-49ef-83e5-b10b2ac926c1)"/></g><g style="clip-path:url(#f556889f-5ad2-4d6a-bab0-c418dfddcef5)"><rect x="-8.2012" y="-21.0205" width="101.1013" height="106.1562" transform="translate(21.923 88.1562) rotate(-55)" style="fill:url(#bd014863-8787-42e2-9907-727d794dfb00)"/></g></g></g><g style="clip-path:url(#e93a7b60-9e44-4976-b331-ce53a2c91664)"><g style="clip-path:url(#ba5d99cf-fd68-4098-99a3-e2ff21f5d557)"><path d="M412.0577,39.5356,397.3224,81.44,383.0807,39.5356h-4.674l-6.5341,17.5732,16.5805,46.5541c-3.4742,8.5982-9.761,14.0335-20.2747,14.0335l4.5868,13.5439c14.51,0,25.5028-9.0423,30.73-22.3731l.0362.0094,25.4671-69.341Z" transform="translate(30.1243 39.7954)"/><polygon points="372.112 145.751 356.021 145.751 332.375 79.331 349.843 79.331 364.841 123.617 380.188 79.331 396.808 79.331 372.112 145.751"/><path d="M256.6079,64.6736a16.5523,16.5523,0,0,1,4.2424-8.9892c2.3744-2.44,6.4751-3.9569,10.7016-3.9569a12.5754,12.5754,0,0,1,9.5309,4.1011,15.79,15.79,0,0,1,3.95,8.845Zm42.66,11.59a40.5508,40.5508,0,0,0,.6007-7.2794c0-8.7692-2.708-16.18-8.0481-22.0281a26.6849,26.6849,0,0,0-20.4992-8.8649,27.8845,27.8845,0,0,0-21.79,10.0806c-5.7852,6.6312-8.7187,14.941-8.7187,24.6989,0,9.9156,2.7526,18.2189,8.1819,24.6786,5.49,6.5366,13.0017,9.8507,22.327,9.8507a31.0619,31.0619,0,0,0,15.837-3.8306,31.8969,31.8969,0,0,0,11.2488-11.9282l.6512-1.1255-10.7075-7.5941-.7543,1.4566c-3.3151,6.4042-8.0036,9.26-15.2027,9.26a16.4316,16.4316,0,0,1-11.9629-5.4843,19.1526,19.1526,0,0,1-4.2587-10.7224h42.8811Z" transform="translate(30.1243 39.7954)"/><polygon points="261.833 145.751 245.944 145.751 245.944 57.757 261.833 54.329 261.833 145.751"/><path d="M201.681,88.3105l-1.5419,1a19.505,19.505,0,0,1-11.6571,3.5148c-5.7425,0-11.0876-3.3082-13.8992-6.1187-3.5961-3.75-5.4967-8.9209-5.4967-14.9534A19.936,19.936,0,0,1,188.97,52.7058a19.4464,19.4464,0,0,1,10.8765,3.2462l1.5458,1.0017,5.0695-13.3744-1.1175-.626a33.7218,33.7218,0,0,0-17.8537-4.9223,33.2282,33.2282,0,0,0-24.5056,10.0969,33.8682,33.8682,0,0,0-9.9582,24.6177c0,10.23,3.27,18.6639,9.7178,25.0667,6.4439,6.4022,14.601,9.6484,24.244,9.6484,7.2269,0,14.084-1.8962,18.8141-5.2014l.9511-.6651Z" transform="translate(30.1243 39.7954)"/></g></g></g></g></g></svg>