<?xml version="1.0" encoding="utf-8"?>
<!-- Generator: Adobe Illustrator 21.0.2, SVG Export Plug-In . SVG Version: 6.00 Build 0)  -->
<svg version="1.1" id="Ebene_1" xmlns="http://www.w3.org/2000/svg" xmlns:xlink="http://www.w3.org/1999/xlink" x="0px" y="0px"
	 viewBox="0 0 226.8 59.5" style="enable-background:new 0 0 226.8 59.5;" xml:space="preserve">
<style type="text/css">
	.st0{fill:url(#SVGID_1_);}
</style>
<linearGradient id="SVGID_1_" gradientUnits="userSpaceOnUse" x1="0.9858" y1="29.7638" x2="225.7858" y2="29.7638">
	<stop  offset="0" style="stop-color:#E3C46F"/>
	<stop  offset="0" style="stop-color:#E3BE6F"/>
	<stop  offset="1" style="stop-color:#EF3066"/>
</linearGradient>
<path class="st0" d="M215.2,53.8c0,2.9,2.4,5.3,5.3,5.3s5.3-2.4,5.3-5.3s-2.4-5.3-5.3-5.3S215.2,50.9,215.2,53.8 M200.5,58.6h9.6
	V17.7h-9.6V58.6z M1,37.6c0,11.7,9.6,21.3,21.3,21.3c5.7,0,11.1-2.2,15.1-6.2l-6.8-6.8c-2.2,2.2-5.2,3.4-8.3,3.4
	c-6.5,0-11.8-5.3-11.8-11.7c0-6.5,5.3-11.7,11.8-11.7c3.1,0,6.1,1.2,8.3,3.4l6.8-6.8c-4-4-9.4-6.2-15.1-6.2C10.6,16.3,1,25.9,1,37.6
	 M51.5,19.9v-3.2h-9.6v41.9h9.6v-21c0-6.5,5.3-11.7,11.8-11.7v-9.6C58.9,16.3,54.9,17.6,51.5,19.9 M73.4,37.6
	c0-6.5,5.3-11.7,11.8-11.7c1.5,0,2.9,0.3,4.2,0.8L74.2,41.8C73.7,40.5,73.4,39.1,73.4,37.6 M63.8,37.6c0,11.7,9.6,21.3,21.3,21.3
	c5.7,0,11.1-2.2,15.1-6.2l-6.8-6.8c-2.2,2.2-5.2,3.4-8.3,3.4c-1.5,0-2.9-0.3-4.2-0.8l19-19l0,0l3.3-3.3c-0.9-1.4-1.9-2.6-3-3.8
	c-4-4-9.4-6.2-15.1-6.2C73.4,16.3,63.8,25.9,63.8,37.6 M113.7,37.6c0-6.5,5.3-11.7,11.8-11.7s11.8,5.3,11.8,11.7l0,0
	c0,6.5-5.3,11.7-11.8,11.7C118.9,49.3,113.7,44.1,113.7,37.6 M104.1,37.6c0,11.7,9.6,21.3,21.3,21.3c4.3,0,8.4-1.3,11.8-3.5v3.2h9.6
	v-21l0,0c0-11.7-9.6-21.3-21.3-21.3C113.7,16.3,104.1,25.9,104.1,37.6 M159.8,37.6c0-6.5,5.3-11.7,11.8-11.7s11.7,5.2,11.8,11.7v0.1
	c0,6.4-5.3,11.7-11.8,11.7C165.1,49.3,159.8,44.1,159.8,37.6 M183.3,0.9v18.9c-3.4-2.2-7.4-3.5-11.8-3.5c-11.8,0-21.3,9.6-21.3,21.3
	s9.6,21.3,21.3,21.3c4.3,0,8.4-1.3,11.8-3.5v3.2h9.6V37.7c0,0,0,0,0-0.1c0,0,0,0,0-0.1V0.9H183.3z M205.3,0.4
	c-2.9,0-5.3,2.4-5.3,5.3c0,2.9,2.4,5.3,5.3,5.3s5.3-2.4,5.3-5.3S208.2,0.4,205.3,0.4z"/>
</svg>
