<svg width="472" height="139" viewBox="0 0 472 139" fill="none" xmlns="http://www.w3.org/2000/svg">
<path fill-rule="evenodd" clip-rule="evenodd" d="M281.112 31.915L289.149 0H471.607L455.491 63.83H305.349C287.533 63.83 276.647 49.5522 281.112 31.915ZM314.321 49.5942L320.827 23.7683H331.797L334.263 14.2358H302.33L299.864 23.7683H310.877L304.371 49.5942H314.321ZM348.976 22.9284H371.172L373.34 14.1938H341.237L332.307 49.5522H364.411L366.622 40.8596H344.468L345.702 35.8204H365.261L367.387 27.4217H347.828L348.976 22.9284ZM385.501 38.466C384.906 37.7941 384.438 36.9542 384.141 35.9884C383.843 35.0225 383.715 33.9307 383.758 32.7129C383.843 31.3271 384.183 30.1093 384.779 28.9335C385.374 27.7996 386.097 26.7498 386.99 25.9099C387.883 25.0701 388.903 24.3982 390.051 23.8943C391.199 23.4323 392.347 23.1804 393.58 23.1804C394.898 23.1804 395.919 23.4323 396.727 23.8943C397.492 24.3562 398.13 24.9021 398.64 25.448C398.981 25.826 399.236 26.2459 399.448 26.7078H410.164C409.951 25.0701 409.526 23.4743 408.803 21.9626C408.08 20.4088 407.06 18.981 405.784 17.7632C404.508 16.5034 402.978 15.5376 401.192 14.7817C399.406 14.0258 397.45 13.6479 395.239 13.6479C392.56 13.6479 389.966 14.1938 387.457 15.2436C384.949 16.2934 382.695 17.7632 380.696 19.5689C378.698 21.4166 377.082 23.4743 375.807 25.8679C374.573 28.2616 373.851 30.7392 373.638 33.3008C373.468 35.6944 373.723 37.8781 374.446 39.9357C375.169 41.9934 376.189 43.7571 377.592 45.2689C378.996 46.7807 380.654 47.9985 382.652 48.8383C384.651 49.7202 386.819 50.1401 389.158 50.1401C391.199 50.1401 393.198 49.7622 395.154 49.0903C397.067 48.3764 398.895 47.4526 400.554 46.2348C402.212 45.0169 403.7 43.6312 405.019 42.0354C406.294 40.4817 407.315 38.8439 408.08 37.1222H397.662C397.28 37.5421 396.897 37.9621 396.472 38.34C395.791 38.9279 394.941 39.4318 394.006 39.8937C393.07 40.3557 391.922 40.6076 390.646 40.6076C389.583 40.6076 388.605 40.4397 387.712 40.0617C386.819 39.6838 386.097 39.1799 385.501 38.466ZM433.125 49.5942H443.075L452.047 14.2358H442.097L438.865 26.8758H426.704L429.851 14.2358H419.901L410.971 49.5942H420.921L424.238 36.4083H436.442L433.125 49.5942ZM248.963 45.2286C263.931 45.2286 276.262 57.4067 276.262 72.1884C276.262 81.9729 270.862 90.5815 262.91 95.3268C265.377 99.5681 266.78 104.481 266.78 109.689C266.78 125.772 253.386 139 237.1 139H218.093C201.808 139 188.413 125.772 188.413 109.689C188.413 98.1824 195.302 88.1459 205.167 83.3587C203.551 79.9572 202.658 76.1778 202.658 72.1884C202.658 57.4067 214.989 45.2286 229.957 45.2286H248.963ZM218.136 120.229H237.1C243.01 120.229 247.773 115.526 247.815 109.689C247.815 103.851 243.053 99.1482 237.143 99.1482H218.136C212.225 99.1482 207.463 103.851 207.463 109.689C207.463 115.526 212.225 120.229 218.136 120.229ZM229.957 80.4191H248.963C253.556 80.4191 257.255 76.7657 257.255 72.2304C257.255 67.6951 253.556 64.0417 248.963 64.0417H229.957C225.364 64.0417 221.665 67.6951 221.665 72.2304C221.665 76.7657 225.364 80.4191 229.957 80.4191ZM189.184 73.3642C191.692 57.8267 180.977 45.2286 165.244 45.2286H114.687L111.668 63.9997H162.183C167.413 63.9997 170.985 68.199 170.177 73.3642C169.326 78.5294 164.394 82.7288 159.164 82.7288H108.691L99.6768 139H118.896L124.892 101.5H141.347L159.036 139H179.999L162.013 100.912C175.449 98.2663 187.015 86.9701 189.184 73.3642ZM39.0315 101.498L42.0505 82.7267H92.5656L88.6111 107.377C85.6772 125.686 69.9018 138.998 51.1075 138.998H40.3497C28.5288 138.998 17.3458 133.917 9.64947 124.972C1.99568 116.07 -1.36349 104.395 0.507442 92.8471L2.12324 82.7267C5.60997 60.9741 24.3192 45.1846 46.6428 45.1846H98.5611L95.5421 63.9557H46.6428C33.7589 63.9557 22.916 73.1102 20.875 85.7083L19.2592 95.8287C18.2813 101.918 20.0246 108.133 24.1066 112.836C28.1887 117.539 34.0991 120.227 40.3497 120.227H51.1075C60.5047 120.227 68.3711 113.592 69.8593 104.437L70.3271 101.498H39.0315Z" fill="url(#paint0_linear_1059_2)"/>
<defs>
<linearGradient id="paint0_linear_1059_2" x1="-0.0059935" y1="81.6624" x2="470.196" y2="81.6624" gradientUnits="userSpaceOnUse">
<stop stop-color="#F7C614"/>
<stop offset="1" stop-color="#F3731E"/>
<stop offset="1" stop-color="#32F41F"/>
</linearGradient>
</defs>
</svg>
