<svg width="546" height="135" viewBox="0 0 546 135" fill="none" xmlns="http://www.w3.org/2000/svg">
<path d="M112.9 0.899902H30C13.4315 0.899902 0 14.3314 0 30.8999V104.4C0 120.968 13.4315 134.4 30 134.4H112.9C129.469 134.4 142.9 120.968 142.9 104.4V30.8999C142.9 14.3314 129.469 0.899902 112.9 0.899902Z" fill="url(#paint0_radial)"/>
<path d="M108.3 29.7998L94.6004 83.1998L87.2004 55.2998H74.2004H68.5004H55.7004L48.0004 83.1998L40.6004 55.2998H21.9004L34.7004 105.5H58.8004L71.1004 65.4998L81.2004 105.5H105.4L126.7 29.7998H108.3Z" fill="white"/>
<path d="M39.6002 36.5999C39.6002 42.7999 34.6002 47.7999 28.4002 47.7999C22.2002 47.7999 17.2002 42.7999 17.2002 36.5999C17.2002 30.3999 22.2002 25.3999 28.4002 25.3999C34.6002 25.3999 39.6002 30.3999 39.6002 36.5999Z" fill="white"/>
<path d="M158 106.1H195.3V94.4999H170.8V84.0999H191.6V72.4999H170.8V62.4999H195.3V50.8999H158V106.1Z" fill="black"/>
<path d="M202.2 106.1H239.4V94.4999H214.9V84.0999H235.8V72.4999H214.9V62.4999H239.4V50.8999H202.2V106.1Z" fill="black"/>
<path d="M291.6 50.8999H275.9L259.1 71.6999V50.8999H246.3V106.1H259.1V89.4999L264.5 82.9999L277.5 106.1H292.4L273 73.1999L291.6 50.8999Z" fill="black"/>
<path d="M294.9 106.1H332.1V94.4999H307.7V84.0999H328.5V72.4999H307.7V62.4999H332.1V50.8999H294.9V106.1Z" fill="black"/>
<path d="M369.2 80.2999L350.1 50.8999H339.1V106.1H351.8V76.5999L370.8 106.1H381.9V50.8999H369.2V80.2999Z" fill="black"/>
<path d="M390.2 85.5999C390.2 88.4999 390.6 91.1999 391.5 93.6999C392.4 96.2999 393.8 98.4999 395.6 100.4C397.2 102 398.9 103.2 400.7 104C402.5 104.8 404.3 105.3 406.3 105.6C408.2 105.9 410.2 106.1 412.2 106.1H423.9C425.9 106.1 427.8 105.9 429.6 105.6C431.5 105.3 433.3 104.7 435 103.9C436.8 103.1 438.5 101.9 440 100.3C441.9 98.3999 443.2 96.1999 444.1 93.5999C445 91.0999 445.4 88.2999 445.4 85.4999V50.8999H390.1V85.5999H390.2ZM401.8 61.4999H433.8V84.5999C433.8 86.1999 433.6 87.5999 433.1 88.5999C432.6 89.6999 431.9 90.5999 431 91.2999C430.5 91.6999 429.9 91.9999 429.3 92.2999C428.6 92.5999 427.8 92.7999 426.8 92.8999C425.7 92.9999 424.5 93.0999 423.1 93.1999C421.7 93.1999 419.9 93.2999 418 93.2999C414.1 93.2999 411 93.1999 409 92.8999C407.1 92.6999 405.6 92.0999 404.6 91.2999C403.7 90.4999 403 89.5999 402.5 88.5999C402 87.4999 401.8 86.1999 401.8 84.5999V61.4999Z" fill="black"/>
<path d="M452.4 106.1H489.6V94.4999H465.1V84.0999H486V72.4999H465.1V62.4999H489.6V50.8999H452.4V106.1Z" fill="black"/>
<path d="M527.6 82.7999C528.5 82.3999 529.4 81.8999 530.3 81.2999C531.6 80.3999 532.7 79.2999 533.7 78.0999C534.7 76.7999 535.4 75.3999 536 73.7999C536.6 72.1999 536.8 70.3999 536.8 68.3999C536.8 65.9999 536.4 63.7999 535.6 61.6999C534.8 59.5999 533.5 57.6999 531.9 56.1999C530.3 54.5999 528.4 53.3999 526.1 52.4999C523.8 51.5999 521.3 51.0999 518.4 51.0999H496.5V106.4H509.3V85.0999H514.7L525 106.2H539.7L527.6 82.7999ZM509.3 62.4999H517.8C519.8 62.4999 521.3 62.9999 522.4 64.0999C523.5 65.1999 524.1 66.4999 524.1 68.2999C524.1 70.0999 523.6 71.3999 522.4 72.4999C521.3 73.5999 519.8 74.0999 517.8 74.0999H509.3V62.4999Z" fill="black"/>
<path d="M159.5 134.5V116H171.3V118.5H162.3V123.9H170V126.4H162.3V131.9H171.3V134.5H159.5Z" fill="black"/>
<path d="M186.9 134.5H184.7L179.9 121.3H182.7L185.8 130.6L188.9 121.3H191.7L186.9 134.5Z" fill="black"/>
<path d="M202.7 128.7C202.7 129.8 203 130.8 203.6 131.4C204.2 132.1 205 132.4 206.1 132.4C206.8 132.4 207.4 132.3 207.9 132.1C208.4 131.9 208.8 131.5 209.3 131.1L211 132.7C210.7 133 210.3 133.3 210 133.6C209.7 133.8 209.3 134.1 208.9 134.2C208.5 134.4 208.1 134.5 207.6 134.6C207.1 134.7 206.6 134.7 206.1 134.7C205.3 134.7 204.5 134.6 203.8 134.4C203.1 134.2 202.5 133.8 201.9 133.3C201.4 132.8 200.9 132.1 200.6 131.2C200.3 130.3 200.1 129.3 200.1 128C200.1 125.9 200.6 124.2 201.6 123C202.6 121.8 204 121.2 205.7 121.2C206.6 121.2 207.4 121.4 208.1 121.7C208.8 122 209.4 122.4 209.8 123C210.3 123.6 210.6 124.2 210.9 125C211.1 125.8 211.3 126.6 211.3 127.6V128.8H202.7V128.7ZM208.6 126.8C208.6 126.4 208.6 126.1 208.5 125.8C208.5 125.6 208.4 125.3 208.2 125C208 124.5 207.7 124.1 207.2 123.8C206.8 123.5 206.2 123.4 205.6 123.4C205 123.4 204.4 123.6 204 123.8C203.5 124.1 203.2 124.5 203 125C202.9 125.3 202.8 125.6 202.7 125.8C202.7 126 202.6 126.4 202.6 126.8H208.6Z" fill="black"/>
<path d="M229.7 134.5V126.5C229.7 125.5 229.4 124.7 228.9 124.3C228.4 123.8 227.8 123.6 227 123.6C226.3 123.6 225.6 123.8 225.1 124.3C224.6 124.8 224.3 125.5 224.3 126.5V134.5H221.7V121.3H224.3V122.6C224.7 122.1 225.3 121.7 225.9 121.5C226.5 121.3 227.1 121.1 227.8 121.1C228.5 121.1 229.1 121.2 229.6 121.4C230.1 121.6 230.6 121.9 231 122.3C231.5 122.8 231.8 123.4 232 124C232.2 124.6 232.3 125.3 232.3 126V134.4H229.7V134.5Z" fill="black"/>
<path d="M247.3 134.5C246.7 134.5 246.1 134.4 245.7 134.2C245.2 134 244.9 133.7 244.6 133.4C244.3 133.1 244.1 132.7 243.9 132.2C243.8 131.8 243.7 131.3 243.7 130.8V123.6H242.2V121.6H243.7V117.6H246.3V121.6H248.8V123.6H246.3V130.7C246.3 131.2 246.4 131.6 246.6 131.8C246.8 132.1 247.2 132.2 247.7 132.2H248.8V134.5H247.3Z" fill="black"/>
<path d="M277.7 118.5V134.5H274.9V118.5H269.8V116H282.8V118.5H277.7Z" fill="black"/>
<path d="M298.9 124.4C298.6 124.1 298.3 123.9 298 123.7C297.7 123.6 297.3 123.5 296.9 123.5C296.2 123.5 295.6 123.8 295 124.3C294.5 124.8 294.2 125.5 294.2 126.5V134.5H291.6V121.3H294.2V122.7C294.5 122.2 295 121.9 295.7 121.6C296.3 121.3 297 121.2 297.7 121.2C298.3 121.2 298.9 121.3 299.4 121.5C299.9 121.7 300.4 122 300.8 122.5L298.9 124.4Z" fill="black"/>
<path d="M316.8 134.5V133.3C316.3 133.8 315.8 134.1 315.3 134.3C314.8 134.5 314.1 134.6 313.3 134.6C312.5 134.6 311.8 134.5 311.2 134.3C310.6 134.1 310.2 133.8 309.8 133.4C309.1 132.7 308.8 131.7 308.8 130.6C308.8 129.5 309.2 128.6 309.9 127.9C310.6 127.2 311.8 126.8 313.3 126.8H316.8V125.9C316.8 125.1 316.6 124.5 316.1 124C315.7 123.6 314.9 123.4 313.9 123.4C313.2 123.4 312.6 123.5 312.2 123.7C311.8 123.9 311.4 124.2 311 124.7L309.3 123.1C309.9 122.4 310.6 121.9 311.3 121.6C312 121.3 312.9 121.2 314 121.2C317.6 121.2 319.4 122.7 319.4 125.7V134.5H316.8ZM316.8 128.7H313.7C312.9 128.7 312.3 128.9 311.9 129.2C311.5 129.5 311.3 130 311.3 130.6C311.3 131.2 311.5 131.7 311.9 132C312.3 132.3 312.9 132.5 313.7 132.5C314.2 132.5 314.7 132.5 315.1 132.4C315.5 132.3 315.9 132.1 316.2 131.8C316.6 131.4 316.8 130.8 316.8 129.9V128.7Z" fill="black"/>
<path d="M335.5 134.5H333.4L328.6 121.3H331.4L334.5 130.6L337.6 121.3H340.4L335.5 134.5Z" fill="black"/>
<path d="M351.4 128.7C351.4 129.8 351.7 130.8 352.3 131.4C352.9 132.1 353.7 132.4 354.8 132.4C355.5 132.4 356.1 132.3 356.6 132.1C357.1 131.9 357.5 131.5 358 131.1L359.7 132.7C359.4 133 359 133.3 358.7 133.6C358.4 133.8 358 134.1 357.6 134.2C357.2 134.4 356.8 134.5 356.3 134.6C355.8 134.7 355.3 134.7 354.8 134.7C354 134.7 353.2 134.6 352.5 134.4C351.8 134.2 351.2 133.8 350.6 133.3C350.1 132.8 349.6 132.1 349.3 131.2C349 130.3 348.8 129.3 348.8 128C348.8 125.9 349.3 124.2 350.3 123C351.3 121.8 352.7 121.2 354.4 121.2C355.3 121.2 356.1 121.4 356.8 121.7C357.5 122 358.1 122.4 358.6 123C359.1 123.6 359.4 124.2 359.7 125C359.9 125.8 360.1 126.6 360.1 127.6V128.8H351.4V128.7ZM357.3 126.8C357.3 126.4 357.3 126.1 357.2 125.8C357.2 125.6 357.1 125.3 356.9 125C356.7 124.5 356.4 124.1 355.9 123.8C355.5 123.5 354.9 123.4 354.3 123.4C353.7 123.4 353.1 123.6 352.7 123.8C352.2 124.1 351.9 124.5 351.7 125C351.6 125.3 351.5 125.6 351.4 125.8C351.4 126 351.3 126.4 351.3 126.8H357.3Z" fill="black"/>
<path d="M373.899 134.5C373.299 134.5 372.699 134.4 372.299 134.2C371.799 134 371.499 133.7 371.199 133.4C370.899 133.1 370.699 132.7 370.599 132.2C370.499 131.8 370.399 131.3 370.399 130.8V116H372.999V130.7C372.999 131.2 373.099 131.6 373.299 131.8C373.499 132.1 373.899 132.2 374.399 132.2H375.599V134.5H373.899Z" fill="black"/>
<path d="M542.099 130.7C542.099 131.4 541.999 132 541.699 132.5C541.399 133 540.999 133.5 540.599 133.8C540.099 134.2 539.499 134.4 538.899 134.6C538.199 134.8 537.499 134.9 536.699 134.9C535.599 134.9 534.599 134.8 533.699 134.5C532.799 134.3 531.899 133.7 531.199 133L532.899 131.3C533.399 131.9 533.999 132.2 534.699 132.4C535.399 132.6 535.999 132.7 536.699 132.7C537.499 132.7 538.199 132.6 538.699 132.3C539.299 132 539.499 131.5 539.499 130.9C539.499 130.5 539.399 130.1 539.099 129.8C538.799 129.5 538.399 129.4 537.699 129.3L535.599 129.1C534.399 129 533.399 128.7 532.699 128.1C531.999 127.5 531.699 126.7 531.699 125.5C531.699 124.9 531.799 124.3 532.099 123.8C532.399 123.3 532.699 122.9 533.199 122.5C533.599 122.2 534.199 121.9 534.799 121.7C535.399 121.5 535.999 121.4 536.699 121.4C537.699 121.4 538.599 121.5 539.399 121.7C540.199 121.9 540.899 122.3 541.499 122.8L539.799 124.5C539.399 124.2 538.899 123.9 538.299 123.8C537.699 123.7 537.099 123.6 536.499 123.6C535.699 123.6 535.099 123.8 534.699 124.1C534.299 124.4 534.099 124.8 534.099 125.3C534.099 125.7 534.199 126 534.499 126.3C534.699 126.6 535.199 126.7 535.899 126.8L537.999 127C539.199 127.1 540.199 127.5 540.899 128.1C541.699 128.7 542.099 129.6 542.099 130.7Z" fill="black"/>
<path d="M409.8 129.3C409.8 130.1 409.6 130.9 409.3 131.6C409 132.3 408.5 132.8 407.9 133.3C407.3 133.8 406.6 134.1 405.8 134.4C405 134.6 404.1 134.8 403.1 134.8C401.7 134.8 400.5 134.6 399.5 134.3C398.5 133.9 397.5 133.3 396.6 132.4L398.5 130.6C399.2 131.3 399.9 131.7 400.6 132C401.4 132.3 402.2 132.4 403.2 132.4C404.4 132.4 405.3 132.2 406 131.7C406.7 131.2 407 130.5 407 129.6C407 128.8 406.8 128.1 406.3 127.7C406.1 127.5 405.8 127.3 405.5 127.2C405.2 127.1 404.8 127 404.3 126.9L402.1 126.6C400.6 126.4 399.4 125.9 398.6 125.1C397.7 124.3 397.3 123.1 397.3 121.6C397.3 120.8 397.4 120.1 397.7 119.4C398 118.7 398.4 118.2 398.9 117.7C399.4 117.2 400.1 116.8 400.8 116.6C401.6 116.3 402.4 116.2 403.4 116.2C404.6 116.2 405.7 116.4 406.6 116.7C407.5 117 408.3 117.6 409.1 118.3L407.3 120.1C406.7 119.5 406.1 119.2 405.5 119C404.8 118.8 404.1 118.7 403.3 118.7C402.2 118.7 401.4 119 400.8 119.5C400.2 120 399.9 120.7 399.9 121.6C399.9 121.9 400 122.3 400.1 122.5C400.2 122.8 400.4 123 400.6 123.3C401.1 123.7 401.8 124 402.7 124.2L404.8 124.5C405.7 124.6 406.4 124.8 406.9 125C407.4 125.2 407.9 125.5 408.3 125.8C408.8 126.2 409.2 126.8 409.4 127.4C409.7 127.8 409.8 128.5 409.8 129.3Z" fill="black"/>
<path d="M422.2 128.8C422.2 129.9 422.5 130.9 423.1 131.5C423.7 132.2 424.5 132.5 425.6 132.5C426.3 132.5 426.9 132.4 427.4 132.2C427.9 132 428.3 131.6 428.8 131.2L430.5 132.8C430.2 133.1 429.8 133.4 429.5 133.7C429.2 133.9 428.8 134.2 428.4 134.3C428 134.5 427.6 134.6 427.1 134.7C426.6 134.8 426.1 134.8 425.6 134.8C424.8 134.8 424 134.7 423.3 134.5C422.6 134.3 422 133.9 421.4 133.4C420.9 132.9 420.4 132.2 420.1 131.3C419.8 130.4 419.6 129.4 419.6 128.1C419.6 126 420.1 124.3 421.1 123.1C422.1 121.9 423.5 121.3 425.2 121.3C426.1 121.3 426.9 121.5 427.6 121.8C428.3 122.1 428.9 122.5 429.3 123.1C429.8 123.7 430.1 124.3 430.4 125.1C430.6 125.9 430.8 126.7 430.8 127.7V128.9H422.2V128.8ZM428.1 126.9C428.1 126.5 428.1 126.2 428 125.9C428 125.7 427.9 125.4 427.7 125.1C427.5 124.6 427.2 124.2 426.7 123.9C426.3 123.6 425.7 123.5 425.1 123.5C424.5 123.5 423.9 123.7 423.5 123.9C423 124.2 422.7 124.6 422.5 125.1C422.4 125.4 422.3 125.7 422.2 125.9C422.2 126.1 422.1 126.5 422.1 126.9H428.1Z" fill="black"/>
<path d="M448.499 124.5C448.199 124.2 447.899 124 447.599 123.8C447.299 123.7 446.899 123.6 446.499 123.6C445.799 123.6 445.199 123.9 444.699 124.4C444.199 124.9 443.899 125.6 443.899 126.6V134.6H441.199V121.4H443.799V122.8C444.099 122.3 444.599 122 445.299 121.7C445.899 121.4 446.599 121.3 447.299 121.3C447.899 121.3 448.499 121.4 448.999 121.6C449.499 121.8 449.999 122.1 450.399 122.6L448.499 124.5Z" fill="black"/>
<path d="M464.699 134.6H462.499L457.699 121.4H460.499L463.599 130.7L466.699 121.4H469.499L464.699 134.6Z" fill="black"/>
<path d="M478.699 116H481.499V118.8H478.699V116ZM478.799 121.4H481.399V134.5H478.799V121.4Z" fill="black"/>
<path d="M500.199 134.3C499.499 134.6 498.699 134.7 497.799 134.7C497.099 134.7 496.299 134.6 495.599 134.3C494.899 134.1 494.299 133.7 493.699 133.1C493.199 132.6 492.699 131.9 492.399 131C492.099 130.1 491.899 129.1 491.899 127.9C491.899 126.7 492.099 125.6 492.399 124.8C492.699 123.9 493.199 123.3 493.699 122.7C494.199 122.2 494.899 121.8 495.599 121.5C496.299 121.3 496.999 121.1 497.799 121.1C498.699 121.1 499.499 121.2 500.199 121.5C500.899 121.8 501.499 122.3 502.099 122.9L500.299 124.7C499.899 124.3 499.499 123.9 499.099 123.7C498.699 123.5 498.299 123.4 497.799 123.4C496.799 123.4 495.999 123.8 495.399 124.6C495.099 125 494.899 125.4 494.799 125.9C494.699 126.4 494.599 127 494.599 127.8C494.599 128.6 494.699 129.2 494.799 129.7C494.899 130.2 495.099 130.6 495.399 131C495.999 131.8 496.799 132.2 497.799 132.2C498.299 132.2 498.799 132.1 499.099 131.9C499.499 131.7 499.899 131.4 500.299 130.9L502.099 132.6C501.499 133.5 500.799 134 500.199 134.3Z" fill="black"/>
<path d="M513.7 128.8C513.7 129.9 514 130.9 514.6 131.5C515.2 132.2 516 132.5 517.1 132.5C517.8 132.5 518.4 132.4 518.9 132.2C519.4 132 519.8 131.6 520.3 131.2L522 132.8C521.7 133.1 521.3 133.4 521 133.7C520.7 133.9 520.3 134.2 519.9 134.3C519.5 134.5 519.1 134.6 518.6 134.7C518.1 134.8 517.6 134.8 517.1 134.8C516.3 134.8 515.5 134.7 514.8 134.5C514.1 134.3 513.5 133.9 512.9 133.4C512.4 132.9 511.9 132.2 511.6 131.3C511.3 130.4 511.1 129.4 511.1 128.1C511.1 126 511.6 124.3 512.6 123.1C513.6 121.9 515 121.3 516.7 121.3C517.6 121.3 518.4 121.5 519.1 121.8C519.8 122.1 520.4 122.5 520.8 123.1C521.3 123.7 521.6 124.3 521.9 125.1C522.1 125.9 522.3 126.7 522.3 127.7V128.9H513.7V128.8ZM519.6 126.9C519.6 126.5 519.6 126.2 519.5 125.9C519.5 125.7 519.4 125.4 519.2 125.1C519 124.6 518.7 124.2 518.2 123.9C517.8 123.6 517.2 123.5 516.6 123.5C516 123.5 515.4 123.7 515 123.9C514.5 124.2 514.2 124.6 514 125.1C513.9 125.4 513.8 125.7 513.7 125.9C513.7 126.1 513.6 126.5 513.6 126.9H519.6Z" fill="black"/>
<defs>
<radialGradient id="paint0_radial" cx="0" cy="0" r="1" gradientUnits="userSpaceOnUse" gradientTransform="translate(9.5 0.899897) rotate(47.1047) scale(182.911 195.79)">
<stop stop-color="#FF8E20"/>
<stop offset="0.508287" stop-color="#FF256B"/>
<stop offset="1" stop-color="#E100AB"/>
</radialGradient>
</defs>
</svg>
