<svg id="Layer_1" data-name="Layer 1" xmlns="http://www.w3.org/2000/svg" xmlns:xlink="http://www.w3.org/1999/xlink" viewBox="0 0 473 100"><defs><style>.cls-1{fill:#000;}.cls-2{fill:url(#linear-gradient);}.cls-3{fill:#00d6ff;}</style><linearGradient id="linear-gradient" x1="191.51" y1="92.41" x2="192.51" y2="92.41" gradientTransform="matrix(129.64, 0, 0, -129.71, -24583.44, 12035.48)" gradientUnits="userSpaceOnUse"><stop offset="0" stop-color="#fff" stop-opacity="0"/><stop offset="1" stop-color="#00d6ff"/></linearGradient></defs><title>Artboard 1</title><path class="cls-1" d="M44.15,79.75a43.09,43.09,0,0,0,5.31-21.42V8.68A8,8,0,0,0,47.2,3,7.87,7.87,0,0,0,41.49.7,7.67,7.67,0,0,0,35.87,3,7.85,7.85,0,0,0,33.76,8.6V58.4c0,7.43-2.42,13.61-7.19,18.46s-11,7.19-18.6,7.19a7.93,7.93,0,0,0-5.7,2.27A7.82,7.82,0,0,0,0,92a7.94,7.94,0,0,0,2.27,5.7A7.68,7.68,0,0,0,8,100a43,43,0,0,0,21.41-5.32A39.85,39.85,0,0,0,44.15,79.75Zm107.68-2.19c3.75-6.72,5.63-14.93,5.63-24.24V8.6A7.65,7.65,0,0,0,155.19,3a6.58,6.58,0,0,0-2.73-1.64,8.13,8.13,0,0,0-2.74-.47h-.15A7.27,7.27,0,0,0,144,3.05a7.59,7.59,0,0,0-2.19,5.55V53.48c0,9.77-2.73,17.28-8.13,22.36s-12.42,7.58-21,7.66c-8.59-.08-15.7-2.66-21-7.66s-8.13-12.59-8.13-22.28V8.68a7.3,7.3,0,0,0-2.18-5.55A7.61,7.61,0,0,0,75.8.94h-.16a7.56,7.56,0,0,0-2.73.47,8.8,8.8,0,0,0-2.74,1.64,7.43,7.43,0,0,0-2.26,5.63V53.4c0,9.38,1.87,17.51,5.62,24.24a41.08,41.08,0,0,0,8,10.16,36.47,36.47,0,0,0,7.74,5.4,47.54,47.54,0,0,0,22.51,5.31h1.87a47.53,47.53,0,0,0,22.5-5.31,38.06,38.06,0,0,0,7.74-5.4A44.43,44.43,0,0,0,151.83,77.56Zm39.23,17.51a7.84,7.84,0,0,0,2.11-5.63V8.68a7.84,7.84,0,0,0-2.11-5.63A7.4,7.4,0,0,0,185.43.78a7.81,7.81,0,0,0-5.7,2.27,7.69,7.69,0,0,0-2.27,5.71V89.44a7.82,7.82,0,0,0,2.27,5.71,8.1,8.1,0,0,0,11.33-.08Zm37.67-28.22a36.12,36.12,0,0,1-4.38-17.75,36.48,36.48,0,0,1,4.38-17.9,31.69,31.69,0,0,1,12.11-12.36,35.58,35.58,0,0,1,34.46,0A31.35,31.35,0,0,1,283,25.1a7.76,7.76,0,0,0,5.62,2.58,7.5,7.5,0,0,0,5.78-12.28,4.87,4.87,0,0,0-.62-.7A46.72,46.72,0,0,0,283,6.33,49.53,49.53,0,0,0,258,0,50,50,0,0,0,233,6.33,46.08,46.08,0,0,0,215.36,24,50.63,50.63,0,0,0,209,49.18a50.14,50.14,0,0,0,6.33,25.1A46.36,46.36,0,0,0,233,91.87a52.85,52.85,0,0,0,50.16,0A47.37,47.37,0,0,0,293.9,83.5a3.23,3.23,0,0,0,.46-.54,7.62,7.62,0,0,0-5.23-12.51H288a7.69,7.69,0,0,0-4.77,2.18,4.34,4.34,0,0,0-.55.63,30.55,30.55,0,0,1-7.42,5.94,35.51,35.51,0,0,1-34.46,0A31.67,31.67,0,0,1,228.73,66.85ZM391.18,49.18a36.44,36.44,0,0,1-4.37,17.75,32,32,0,0,1-12,12.35,35.2,35.2,0,0,1-34.3,0,31.67,31.67,0,0,1-12.11-12.35,30.43,30.43,0,0,1-1.72-3.6c-.08-.23-.16-.39-.24-.62-.23-.55-.39-1.18-.62-1.72,0-.08-.08-.16-.08-.24-.23-.7-.39-1.33-.55-2-.07-.24-.07-.39-.15-.63-.08-.47-.24-.94-.32-1.48-.07-.24-.07-.55-.15-.79l-.24-1.4c0-.24-.07-.55-.07-.78-.08-.47-.08-1-.16-1.49a2.1,2.1,0,0,0-.08-.7c0-.71-.08-1.49-.08-2.27a20.87,20.87,0,0,1,.08-2.27c0-.23.08-.47.08-.7a9.43,9.43,0,0,1,.16-1.49c0-.31.07-.54.07-.86s.16-.94.24-1.33.08-.62.15-.86c.08-.39.16-.86.24-1.25s.16-.62.23-.86c.08-.39.24-.78.32-1.25.07-.31.15-.55.23-.86a6.69,6.69,0,0,0,.39-1.17c.08-.31.24-.55.31-.86s.32-.78.55-1.25c.08-.24.23-.47.31-.78l.94-1.88a32.49,32.49,0,0,1,12.11-12.43,34.68,34.68,0,0,1,34.31,0,32.79,32.79,0,0,1,12,12.43A34.16,34.16,0,0,1,391.18,49.18Zm13.21,45.89a7.53,7.53,0,0,0,2.27-5.47V49.18a50.3,50.3,0,0,0-6.41-25A47.53,47.53,0,0,0,382.59,6.41,49.12,49.12,0,0,0,357.66,0a49.77,49.77,0,0,0-24.93,6.41,48.38,48.38,0,0,0-21.64,26.66,23.54,23.54,0,0,0-.78,2.66c-.08.24-.08.39-.16.63-.23.93-.47,1.79-.63,2.73,0,.16-.07.24-.07.39a24,24,0,0,0-.39,2.66c0,.16-.08.32-.08.47-.08.94-.24,2-.24,2.89v.63c-.07,1-.07,2-.07,3s0,2,.07,3v.47c.08.94.16,1.95.24,2.89,0,.16.08.39.08.55.15.94.23,1.87.46,2.81,0,.16.08.24.08.39.16.94.39,1.88.63,2.82v.15c.15.63.31,1.26.47,1.88a50,50,0,0,0,4.14,9.93A46.31,46.31,0,0,0,356.25,98.2a46.1,46.1,0,0,0,21-4.85,43.65,43.65,0,0,0,13.52-10.63V89.6a7.67,7.67,0,0,0,2.27,5.63,7.84,7.84,0,0,0,5.63,2.11A7.68,7.68,0,0,0,404.39,95.07ZM473,8.68A8,8,0,0,0,470.73,3,7.72,7.72,0,0,0,465,.7,43,43,0,0,0,443.62,6,38.83,38.83,0,0,0,428.85,20.8a43.07,43.07,0,0,0-5.31,21.42V89.37a8,8,0,0,0,2.26,5.7,7.83,7.83,0,0,0,5.71,2.27,7.63,7.63,0,0,0,5.62-2.27,7.84,7.84,0,0,0,2.11-5.63V42.3c0-7.43,2.43-13.61,7.19-18.45s11-7.2,18.6-7.2a8,8,0,0,0,5.7-2.26A7.83,7.83,0,0,0,473,8.68Z"/><path class="cls-2" d="M373.52,48.55A15.54,15.54,0,0,0,358,33H259.44a15.56,15.56,0,0,0,0,31.12H358A15.54,15.54,0,0,0,373.52,48.55Z"/><path class="cls-3" d="M259.44,64.11a15.56,15.56,0,1,0-15.56-15.56A15.55,15.55,0,0,0,259.44,64.11Z"/></svg>
