<svg viewBox="0 0 143 46" xmlns="http://www.w3.org/2000/svg" xmlns:xlink="http://www.w3.org/1999/xlink">
    <title>Packlink</title>
    <g fill="#FF5F00" fill-rule="evenodd">
        <path d="M3.68559984 43.3703996c2.4479999 0 3.50879986-1.2919999 3.50879986-2.8015999 0-3.3863998-5.27679978-2.3391999-5.27679978-4.0255998 0-.68.59839997-1.1288 1.53679993-1.1288.95199996 0 1.91759992.3264 2.62479989 1.0336l.91119997-1.1832C6.14719974 34.4488 5.00479979 34 3.59039985 34 1.60479993 34 .28559999 35.156.28559999 36.6519999c0 3.3455998 5.29039978 2.1623999 5.29039978 4.0663998 0 .5984-.51679998 1.2376-1.82239993 1.2376-1.26479994 0-2.2439999-.5848-2.86959988-1.2512L0 41.9287997c.80239997.8567999 2.01279992 1.4415999 3.68559984 1.4415999zm5.64399977-7.5343997c.48959998 0 .88399999-.3944.88399999-.8839999 0-.4896-.39440001-.884-.88399999-.884-.47599998 0-.88399997.3944-.88399997.884 0 .4895999.40799999.8839999.88399997.8839999zm.72079999 7.3711997v-6.5687997H8.62239964v6.5687997h1.42799996zm11.3287995 0v-4.7463998c0-1.3327999-.68-1.9855999-1.8903999-1.9855999-.9792 0-1.8495999.612-2.2303999 1.2103999-.2176-.7207999-.816-1.2103999-1.7952-1.2103999-.9927999 0-1.8631999.6528-2.1351999 1.0608v-.8976h-1.4279999v6.5687997h1.4279999v-4.5831998c.2992-.4352.884-.884 1.5096-.884.7751999 0 1.0879999.476 1.0879999 1.1832v4.2839998h1.428v-4.5967998c.2856-.4216.8839999-.8704 1.5231999-.8704.7616 0 1.0744.476 1.0744 1.1832v4.2839998h1.4279999zm5.3855998.1632c1.6999999 0 2.9103999-1.2919999 2.9103999-3.4543998 0-2.1624-1.2104-3.4407999-2.9103999-3.4407999-.8568 0-1.6184.408-2.1079999 1.0608v-.8976h-1.428v9.0711996h1.428v-3.4135998c.5303999.7071999 1.2783999 1.0743999 2.1079999 1.0743999zm-.4216-1.2647999c-.6664 0-1.3736-.408-1.6863999-.884v-2.5975999c.3127999-.4896 1.0199999-.884 1.6863999-.884 1.1287999 0 1.8495999.9112 1.8495999 2.176 0 1.2783999-.7208 2.1895999-1.8495999 2.1895999zm6.1743997 1.1015999V34.136h-1.4279999v9.0711996h1.4279999zm1.564 2.5703999c.204.0544.5983999.0952.8023999.0952 1.02-.0136 1.8088-.3672 2.2575999-1.4823999l3.1687999-7.7519997h-1.5367999l-1.9176 4.9231998-1.9175999-4.9231998h-1.5231999l2.6927999 6.6503997-.3264.748c-.1904.4352-.4896.5712-.9384.5712-.1632 0-.3943999-.0408-.5439999-.1088l-.2176 1.2783999zm13.7631994-2.4071999c2.4479999 0 3.5087998-1.2919999 3.5087998-2.8015999 0-3.3863998-5.2767997-2.3391999-5.2767997-4.0255998 0-.68.5983999-1.1288 1.5367999-1.1288.952 0 1.9175999.3264 2.6247999 1.0336l.9111999-1.1832C50.3063979 34.4488 49.1639979 34 47.749598 34c-1.9855999 0-3.3047999 1.156-3.3047999 2.6519999 0 3.3455998 5.2903998 2.1623999 5.2903998 4.0663998 0 .5984-.5168 1.2376-1.8223999 1.2376-1.2648 0-2.2439999-.5848-2.8695999-1.2512l-.884 1.224c.8024.8567999 2.0128 1.4415999 3.6855999 1.4415999zm10.8119995-.1632v-4.6511998c0-1.3463999-.7071999-2.0807999-2.1215999-2.0807999-1.0335999 0-1.8903999.544-2.3255999 1.0608V34.136h-1.4279999v9.0711996h1.4279999v-4.5831998c.34-.4488.9656-.884 1.6863999-.884.8024 0 1.3328.3128 1.3328 1.3328v4.1343998h1.4279999zm2.5567999-7.3711997c.4896 0 .884-.3944.884-.8839999 0-.4896-.3944-.884-.884-.884-.476 0-.8839999.3944-.8839999.884 0 .4895999.4079999.8839999.8839999.8839999zm.7208 7.3711997v-6.5687997h-1.4279999v6.5687997h1.4279999zm5.3855998.1632c1.6999999 0 2.9103998-1.2919999 2.9103998-3.4543998 0-2.1624-1.2103999-3.4407999-2.9103998-3.4407999-.8568 0-1.6184.408-2.1079999 1.0608v-.8976h-1.428v9.0711996h1.428v-3.4135998c.5303999.7071999 1.2783999 1.0743999 2.1079999 1.0743999zm-.4216-1.2647999c-.6664 0-1.3736-.408-1.6863999-.884v-2.5975999c.3127999-.4896 1.0199999-.884 1.6863999-.884 1.1287999 0 1.8495999.9112 1.8495999 2.176 0 1.2783999-.7208 2.1895999-1.8495999 2.1895999zm8.2823996 1.2647999c1.7 0 2.9103999-1.2919999 2.9103999-3.4543998 0-2.1624-1.2103999-3.4407999-2.9103999-3.4407999-.8567999 0-1.6183999.408-2.1079999 1.0608v-.8976H71.644797v9.0711996h1.4279999v-3.4135998c.5304.7071999 1.2784 1.0743999 2.1079999 1.0743999zm-.4215999-1.2647999c-.6664 0-1.3736-.408-1.6864-.884v-2.5975999c.3128-.4896 1.02-.884 1.6864-.884 1.1287999 0 1.8495999.9112 1.8495999 2.176 0 1.2783999-.7208 2.1895999-1.8495999 2.1895999zm5.4535997-6.2695998c.4896 0 .884-.3944.884-.8839999 0-.4896-.3944-.884-.884-.884-.476 0-.8839999.3944-.8839999.884 0 .4895999.4079999.8839999.8839999.8839999zm.7208 7.3711997v-6.5687997h-1.4279999v6.5687997h1.4279999zm7.7111997 0v-4.6239998c0-1.3463999-.7072-2.1079999-2.1215999-2.1079999-1.0336 0-1.8768.544-2.3119999 1.0608v-.8976h-1.428v6.5687997h1.428v-4.5831998c.3263999-.4488.9519999-.884 1.6863999-.884.8024 0 1.3191999.34 1.3191999 1.36v4.1071998h1.428zm4.5151998 2.6655999c1.6183999 0 3.3727998-.6392 3.3727998-3.0055999v-6.2287997H95.104796v.9112c-.5304-.6936-1.2783999-1.0744-2.1079999-1.0744-1.6863999 0-2.9103999 1.2511999-2.9103999 3.3727999 0 2.1623999 1.2376 3.3727998 2.9103999 3.3727998.8568 0 1.6047999-.4352 2.1079999-1.0879999v.7887999c0 1.3464-1.0064 1.7815999-1.9447999 1.7815999-.8704 0-1.5504-.2311999-2.0807999-.8431999l-.6664 1.0335999c.8024.7344 1.6319999.9792 2.7471999.9792zm.2584-3.9167998c-1.1288 0-1.8496-.8432-1.8496-2.1079999 0-1.2648.7208-2.108 1.8496-2.108.6663999 0 1.3735999.3944 1.6863999.884v2.4479999c-.3128.4896-1.02.884-1.6863999.884zM6.37108886 26.3824339v-8.4063516h6.00067674c5.5561821 0 8.5935617-3.7903639 8.5935617-8.29376658 0-4.54093101-3.0373796-8.33129492-8.5935617-8.33129492H0v25.0314131h6.37108886zM11.408694 12.346829H6.37108886V6.98027413H11.408694c1.7038959 0 3.0744208.97573724 3.0744208 2.70204159 0 1.68877598-1.3705249 2.66451328-3.0744208 2.66451328zm26.9261133 14.0356049V15.0488706c0-5.62925336-4.0374923-7.24297265-8.3342732-7.24297265-2.7410498 0-5.8154706.82562382-8.1120259 2.81462665l2.1113492 4.0155341c1.4446074-1.2384358 3.2225857-1.9514745 5.0005639-1.9514745 2.2965553 0 3.630039 1.0883223 3.630039 2.6645132v1.8013611c-1.0741952-1.3510208-3.1855444-2.1391163-5.5561821-2.1391163-2.7410499 0-6.1488416 1.4636059-6.1488416 5.8544235 0 4.0530624 3.4077917 5.9670085 6.1488416 5.9670085 2.2965553 0 4.4449457-.9006805 5.5561821-2.2517013v1.801361h5.704347zm-8.8898914-3.3400236c-1.4816486 0-2.8521735-.6755104-2.8521735-2.1015879 0-1.4260775 1.3705249-2.1015879 2.8521735-2.1015879 1.2594013 0 2.592885.4128119 3.1855444 1.2759641v1.6137192c-.5926594.8631522-1.9261431 1.3134925-3.1855444 1.3134925zm20.7772718 3.7903639c3.8893275 0 6.2599652-1.7638327 7.3341604-3.3400236l-3.7041214-3.5276655c-.7037831 1.0132656-1.8520607 1.7638327-3.3707505 1.7638327-2.3706377 0-4.1856572-1.688776-4.1856572-4.4283459 0-2.73957 1.8150195-4.3908176 4.1856572-4.3908176 1.5186898 0 2.6669674.6755104 3.3707505 1.7263044l3.7041214-3.4901371c-1.0741952-1.6137193-3.4448329-3.34002365-7.3341604-3.34002365-5.5932234 0-9.7418394 3.82789225-9.7418394 9.49467395s4.148616 9.5322023 9.7418394 9.5322023zm27.4446903-.4503403l-6.926707-9.8699575 6.5933361-8.25623819h-6.8896659l-5.4450585 7.24297259v-14.14819h-5.704347v25.0314131h5.704347v-4.3532892l1.7038959-2.0640596 3.9263687 6.4173488h7.0378307zm6.7016104 0V1.3510208h-5.704347v25.0314131h5.704347zm6.1459921-19.73991497c1.8150195 0 3.2966681-1.50113422 3.2966681-3.34002364S92.3295 0 90.5144805 0c-1.8150195 0-3.2596269 1.46360587-3.2596269 3.30249529 0 1.83888942 1.4446074 3.34002364 3.2596269 3.34002364zM93.366654 26.3824339V8.25623821h-5.704347V26.3824339h5.704347zm21.110643 0V13.5477363c0-3.3400236-1.852061-5.74183835-5.889553-5.74183835-3.03738 0-5.148729 1.38854915-6.222924 2.66451325V8.25623821h-5.7043474V26.3824339h5.7043474V14.673587c.666741-.8256238 1.777978-1.7638327 3.481874-1.7638327 1.777978 0 2.926256.7880955 2.926256 3.0022684v10.4704112h5.704347zm21.666261 0l-6.926707-9.8699575 6.593336-8.25623819h-6.889666l-5.445059 7.24297259v-14.14819h-5.704347v25.0314131h5.704347v-4.3532892l1.703896-2.0640596 3.926369 6.4173488h7.037831zm1.272786-23.86776344c-.554657.56500492-.831981 1.24758171-.831981 2.04775084 0 .8062773.275817 1.49343514.827459 2.06149414.554656.568059 1.228373.85208424 2.02117.85208424.792797 0 1.466513-.28402524 2.021169-.85208424.554657-.568059.831981-1.25521684.831981-2.06149414 0-.80016913-.277324-1.48274592-.831981-2.04775084-.55767-.56805901-1.231387-.85208425-2.021169-.85208425-.786768 0-1.458978.28402524-2.016648.85208425zm4.367897 4.43450294c-.648104.65968143-1.431846.98951719-2.351249.98951719-.919404 0-1.701638-.32983576-2.346728-.98951719-.642075-.65662734-.963107-1.45220342-.963107-2.3867521 0-.92538644.324047-1.71638146.972151-2.37300881.645089-.65357326 1.424309-.98035499 2.337684-.98035499.919403 0 1.703145.32678173 2.351249.98035499.648104.65357326.972151 1.44456829.972151 2.37300881 0 .9314946-.324047 1.72707068-.972151 2.3867521zm-1.725003-3.66029737c-.161273-.09162242-.419757-.13743294-.77546-.13743294h-.547118v1.33768064h.578769c.2713 0 .474771-.02748631.610421-.08245976.250198-.10078467.375295-.29318886.375295-.57721836 0-.2687591-.080635-.44894716-.241907-.54056958zm-.689549-.58179945c.452165 0 .783748.0442835.994759.13285184.376805.1588122.565204.47032375.565204.93454401 0 .32984071-.119068.57263648-.357209.7283946-.126606.08246017-.302948.14201385-.529031.17866282.286372.04581121.495872.16644559.628507.36190675.132635.19546116.198952.38633834.198952.57263726v.27028479c0 .08551426.003014.1771353.009043.27486588.006029.09773058.016579.16186532.031652.19240612l.022608.04581098h-.601377c-.003015-.01221632-.006029-.02443246-.009044-.03664878-.003014-.01221632-.006028-.02595948-.009043-.04122988l-.013565-.11910855v-.29319028c0-.42757129-.114547-.71006952-.343644-.84750315-.13565-.07940609-.373786-.11910855-.714418-.11910855h-.506423v1.45678919h-.642072V2.70707658h1.275101z"/>
    </g>
</svg>