<?xml version="1.0" encoding="utf-8"?>
<!-- Generator: Adobe Illustrator 18.0.0, SVG Export Plug-In . SVG Version: 6.00 Build 0)  -->
<!DOCTYPE svg PUBLIC "-//W3C//DTD SVG 1.1//EN" "http://www.w3.org/Graphics/SVG/1.1/DTD/svg11.dtd">
<svg version="1.1" id="Layer_1" xmlns="http://www.w3.org/2000/svg" xmlns:xlink="http://www.w3.org/1999/xlink" x="0px" y="0px"
	 viewBox="0 0 706.3 175.6" enable-background="new 0 0 706.3 175.6" xml:space="preserve">
<g>
	<path fill="#FF507A" d="M175,98.1c0.1-0.8,0.2-1.6,0.3-2.4c0-0.1,0-0.1,0-0.2c0.1-0.7,0.1-1.5,0.2-2.2c0-0.1,0-0.3,0-0.4
		c0-0.7,0.1-1.4,0.1-2.1c0-0.2,0-0.3,0-0.5c0-0.8,0-1.7,0-2.5c0-0.3,0-0.6,0-0.9l0,0c-0.1-6-0.7-11.9-2-17.6c0,0,0,0,0,0
		c-0.2-0.7-0.3-1.5-0.5-2.2c0,0,0,0,0,0c-0.2-0.7-0.4-1.4-0.6-2.2c0,0,0,0,0,0c-0.2-0.7-0.4-1.4-0.6-2.2l0,0l0,0
		c-1.3-4.3-2.9-8.5-4.8-12.5h0c0,0,0,0,0,0c-0.6-1.2-1.2-2.5-1.9-3.7c0,0,0,0,0,0c-2.6-4.9-5.7-9.6-9.2-13.9l0,0c0,0,0,0,0,0
		c-0.8-1-1.7-2-2.6-3c0,0,0,0,0,0c-0.9-1-1.8-2-2.7-2.9c0,0,0,0,0,0h0c-2.9-3-6.1-5.8-9.4-8.4l0,0c0,0,0,0,0,0
		c-1.1-0.8-2.2-1.6-3.3-2.4c0,0,0,0,0,0c-6-4.2-12.5-7.6-19.4-10.2c0,0,0,0,0,0c-1.4-0.5-2.8-1-4.3-1.5l0,0l0,0
		c-5.7-1.8-11.7-3-17.8-3.6c-0.1,0-0.3,0-0.4,0c-0.7-0.1-1.5-0.1-2.2-0.2c-0.2,0-0.5,0-0.7,0c-0.7,0-1.3-0.1-2-0.1
		c-0.2,0-0.4,0-0.6,0c-0.9,0-1.7,0-2.6,0c0,0,0,0,0,0l0,0c0,0-0.1,0-0.1,0C42.8,0,5.7,33.9,0.6,77.5l0,0c0,0,0,0,0,0
		c-0.1,0.8-0.2,1.6-0.3,2.4c0,0.1,0,0.1,0,0.2c-0.1,0.7-0.1,1.5-0.2,2.2c0,0.1,0,0.3,0,0.4c0,0.7-0.1,1.4-0.1,2.1c0,0.2,0,0.3,0,0.5
		c0,0.8,0,1.7,0,2.5c0,0.3,0,0.6,0,0.9l0,0c0.1,5.3,0.6,10.4,1.5,15.4l0,0c0,0,0,0,0,0c0.1,0.7,0.3,1.5,0.4,2.2c0,0,0,0,0,0
		c0.2,0.7,0.3,1.5,0.5,2.2c0,0,0,0,0,0c0.2,0.7,0.4,1.4,0.6,2.2c0,0,0,0,0,0c0.2,0.7,0.4,1.4,0.6,2.2c0,0,0,0,0,0l0,0
		c1.3,4.3,2.9,8.5,4.8,12.5l0,0c0,0,0,0,0,0c0.6,1.2,1.2,2.5,1.9,3.7c0,0,0,0,0,0c0.6,1.2,1.3,2.4,2,3.6l0,0l0,0
		c2.2,3.6,4.6,7.1,7.2,10.3h0c0,0,0,0,0,0c0.8,1,1.7,2,2.6,3c0,0,0,0,0,0c4.6,5.2,9.8,9.8,15.4,13.7c0,0,0,0,0,0
		c1.1,0.8,2.3,1.5,3.4,2.3c0,0,0,0,0,0l0,0c3.8,2.4,7.7,4.5,11.8,6.3l0,0h0c1.4,0.6,2.8,1.2,4.2,1.7c0,0,0,0,0,0
		c1.4,0.5,2.8,1,4.3,1.5l0,0l0,0c4.9,1.5,9.9,2.7,15.1,3.3l0,0h0c0.9,0.1,1.8,0.2,2.7,0.3c0.1,0,0.3,0,0.4,0
		c0.7,0.1,1.5,0.1,2.2,0.2c0.2,0,0.4,0,0.7,0c0.7,0,1.4,0.1,2,0.1c0.2,0,0.4,0,0.6,0c0.9,0,1.7,0,2.6,0c0,0,0,0,0,0l0,0
		c0,0,0.1,0,0.1,0C132.8,175.6,169.9,141.7,175,98.1L175,98.1C175,98.1,175,98.1,175,98.1z M75.5,11L13,66.5
		C21.2,37.7,45.5,15.7,75.5,11z M10,87.8c0-2.8,0.2-5.6,0.5-8.4L88.7,10c5.7,0.1,11.3,0.8,16.6,2L10.5,96.2
		C10.2,93.4,10,90.6,10,87.8z M12,105.5l102.3-90.8c4.3,1.6,8.4,3.5,12.3,5.8l-110.4,98C14.5,114.3,13.1,110,12,105.5z M20,125.9
		L133.6,25c3.4,2.5,6.6,5.3,9.6,8.3L27.1,136.4C24.4,133.1,22.1,129.6,20,125.9z M32.4,142.3L148.5,39.3c2.6,3.3,5,6.8,7.1,10.5
		L41.9,150.6C38.5,148.1,35.3,145.3,32.4,142.3z M48.9,155.1l110.4-98c1.8,4.2,3.2,8.5,4.3,13L61.2,160.9
		C56.9,159.4,52.8,157.4,48.9,155.1z M70.3,163.6l94.8-84.2c0.3,2.8,0.5,5.6,0.5,8.4c0,2.8-0.2,5.6-0.5,8.4l-78.2,69.4
		C81.2,165.5,75.6,164.8,70.3,163.6z M100,164.6l62.6-55.5C154.4,137.9,130,159.9,100,164.6z"/>
	<g>
		<g>
			<path fill="#FF507A" d="M259.6,49.2c-13,0-20.7,6.3-24.6,14.9h-0.5c0.2-2-0.9-10-2.5-14.6l-16.9,0.6v95.1h21.5v-30.4
				c4.2,6,11.4,10.2,21.9,10.2c19.3,0,33.8-13.8,33.8-37.9C292.3,65.1,279.6,49.2,259.6,49.2z M254.1,107.1
				c-11.4,0-17.5-9.2-17.5-17.4v-5c0-8.6,6.7-17.4,17.1-17.4c10.3,0,16.9,7.8,16.9,19.9C270.6,99.2,264.1,107.1,254.1,107.1z
				 M310.8,13.2c-7.7,0-13.8,5.6-13.8,13.3c0,7.8,6.1,13.3,13.8,13.3c7.7,0,13.9-5.5,13.9-13.3C324.8,18.8,318.5,13.2,310.8,13.2z
				 M300,124.1h21.5V49.6L300,50.2V124.1z M371.9,106.9c-8.3,0-12.1-4.4-12.1-14.3V66.5h26V50.2h-26V28.6l-20.7,0.8v20.8H327v16.3
				h11.3v27.1c0,21,10.2,31.5,29.6,31.5c14.3,0,22.1-5.3,22.1-5.3l-6.1-16.8C383.8,103,379.4,106.9,371.9,106.9z M429.1,107.5
				c-12.7,0-19.1-8.3-19.1-20.8c0-11.9,6.6-19.9,16.3-19.9c8.1,0,12.2,5.5,12.2,11.8c0,1.6-0.2,3-0.3,3.3l19-1.1
				c0,0,0.5-2.2,0.5-5.5c0-14.4-11.4-26-31-26c-22.7,0-38.4,15.5-38.4,38.2c0,21.9,14.7,37.6,39.5,37.6c16.6,0,27.4-6.7,32.1-12.7
				l-10.5-13.5C447.1,101.6,440.7,107.5,429.1,107.5z M509.8,49.2c-11.9,0-18.6,5.5-22.4,13h-0.5l-0.2-48.7h-21v110.6h21.5V85.9
				c0-8.8,4.7-18.2,15.7-18.2c8.8,0,13,6,13,14.7v41.7h21.6V78.7C537.5,61.9,528.3,49.2,509.8,49.2z M547,124.1h21.5V13.5H547V124.1
				z M647.7,84.2c0-20.2-12.4-34.9-34-34.9c-22.9,0-37.8,15.8-37.8,37.9c0,22.3,14.9,37.9,39.8,37.9c16,0,26.8-6.4,31.8-13
				l-10.2-11.8c-3.1,3.4-8.6,8.5-19.1,8.5c-12.2,0-19.1-6.9-21-16.8h49.8C647.1,92,647.7,88.9,647.7,84.2z M597.3,80.9
				c1.6-9.9,8-15.4,16.4-15.4c8.9,0,14.3,6.6,14.4,15.4H597.3z M695.4,49.2c-11.1,0-16.9,7.2-19.7,16.6H675c0-3.1-1.1-11.4-2.7-16.3
				l-16.8,0.6v74H677V88.4c0-12.4,7-19,15.2-19c3.3,0,6,0.9,8.5,2.7l5.6-20.7C703,50,699.6,49.2,695.4,49.2z"/>
		</g>
	</g>
</g>
</svg>
