<?xml version="1.0" encoding="UTF-8" standalone="no"?>
<!-- Created with Inkscape (http://www.inkscape.org/) -->

<svg
   xmlns:dc="http://purl.org/dc/elements/1.1/"
   xmlns:cc="http://creativecommons.org/ns#"
   xmlns:rdf="http://www.w3.org/1999/02/22-rdf-syntax-ns#"
   xmlns:svg="http://www.w3.org/2000/svg"
   xmlns="http://www.w3.org/2000/svg"
   xmlns:sodipodi="http://sodipodi.sourceforge.net/DTD/sodipodi-0.dtd"
   xmlns:inkscape="http://www.inkscape.org/namespaces/inkscape"
   version="1.1"
   id="svg2793"
   xml:space="preserve"
   width="1333.3333"
   height="1333.3333"
   viewBox="0 0 1333.3333 1333.3333"
   sodipodi:docname="Rduce-01.svg"
   inkscape:version="0.92.4 (5da689c313, 2019-01-14)"><metadata
     id="metadata2799"><rdf:RDF><cc:Work
         rdf:about=""><dc:format>image/svg+xml</dc:format><dc:type
           rdf:resource="http://purl.org/dc/dcmitype/StillImage" /><dc:title></dc:title></cc:Work></rdf:RDF></metadata><defs
     id="defs2797"><clipPath
       clipPathUnits="userSpaceOnUse"
       id="clipPath2809"><path
         d="M 0,1000 H 1000 V 0 H 0 Z"
         id="path2807"
         inkscape:connector-curvature="0" /></clipPath></defs><sodipodi:namedview
     pagecolor="#ffffff"
     bordercolor="#666666"
     borderopacity="1"
     objecttolerance="10"
     gridtolerance="10"
     guidetolerance="10"
     inkscape:pageopacity="0"
     inkscape:pageshadow="2"
     inkscape:window-width="1177"
     inkscape:window-height="1324"
     id="namedview2795"
     showgrid="false"
     inkscape:zoom="0.17700001"
     inkscape:cx="666.66663"
     inkscape:cy="666.66663"
     inkscape:window-x="0"
     inkscape:window-y="0"
     inkscape:window-maximized="0"
     inkscape:current-layer="g2801" /><g
     id="g2801"
     inkscape:groupmode="layer"
     inkscape:label="Rduce-01"
     transform="matrix(1.3333333,0,0,-1.3333333,0,1333.3333)"><g
       id="g2803"><g
         id="g2805"
         clip-path="url(#clipPath2809)"><g
           id="g2811"
           transform="translate(236.5703,253.4123)"><path
             d="m 0,0 v -10.83 h 13.274 c 2.883,0 3.772,0.844 3.772,3.727 v 3.376 C 17.046,-0.844 16.157,0 13.274,0 Z M 24.059,-26.723 H 17.713 L 9.589,-15.091 H 0 V -26.723 H -5.682 V 4.352 h 21.04 c 5.196,0 7.37,-2.088 7.37,-7.37 v -4.349 c 0,-5.195 -2.087,-7.325 -7.234,-7.37 z"
             style="fill:#000000;fill-opacity:1;fill-rule:nonzero;stroke:none"
             id="path2813"
             inkscape:connector-curvature="0" /></g><g
           id="g2815"
           transform="translate(274.1585,231.5729)"><path
             d="m 0,0 h 13.139 c 3.775,0 5.682,1.91 5.682,5.682 v 9.944 c 0,3.772 -1.907,5.682 -5.682,5.682 H 0 Z m -5.682,-4.883 v 31.074 h 19.977 c 6.613,0 10.208,-3.508 10.208,-10.211 V 5.328 c 0,-6.703 -3.595,-10.211 -10.208,-10.211 z"
             style="fill:#000000;fill-opacity:1;fill-rule:nonzero;stroke:none"
             id="path2817"
             inkscape:connector-curvature="0" /></g><g
           id="g2819"
           transform="translate(315.6118,226.6897)"><path
             d="m 0,0 c -5.682,0 -8.256,2.574 -8.256,8.256 v 22.818 h 5.682 V 9.322 c 0,-3.24 1.199,-4.439 4.439,-4.439 h 9.055 c 3.33,0 4.438,1.108 4.438,4.439 V 31.074 H 21.04 V 8.256 C 21.04,2.574 18.467,0 12.785,0 Z"
             style="fill:#000000;fill-opacity:1;fill-rule:nonzero;stroke:none"
             id="path2821"
             inkscape:connector-curvature="0" /></g><g
           id="g2823"
           transform="translate(353.6475,226.6897)"><path
             d="m 0,0 c -5.682,0 -8.256,2.574 -8.256,8.256 v 14.562 c 0,5.682 2.574,8.256 8.256,8.256 h 13.052 c 5.682,0 8.256,-2.574 8.256,-8.256 v -3.285 h -5.505 v 2.306 c 0,3.241 -1.198,4.439 -4.439,4.439 H 1.865 c -3.24,0 -4.439,-1.198 -4.439,-4.439 V 9.232 c 0,-3.241 1.199,-4.439 4.439,-4.439 h 9.499 c 3.241,0 4.439,1.198 4.439,4.439 v 2.709 h 5.505 V 8.256 C 21.308,2.574 18.734,0 13.052,0 Z"
             style="fill:#000000;fill-opacity:1;fill-rule:nonzero;stroke:none"
             id="path2825"
             inkscape:connector-curvature="0" /></g><g
           id="g2827"
           transform="translate(389.5058,231.4408)"><path
             d="M 0,0 H 20.155 V -4.751 H -5.682 V 26.323 H 19.71 V 21.572 H 0 V 13.584 H 17.935 V 9.187 H 0 Z"
             style="fill:#000000;fill-opacity:1;fill-rule:nonzero;stroke:none"
             id="path2829"
             inkscape:connector-curvature="0" /></g><g
           id="g2831"
           transform="translate(442.5546,226.6897)"><path
             d="m 0,0 c -5.46,0 -7.901,2.397 -7.901,7.901 v 15.272 c 0,5.505 2.441,7.901 7.901,7.901 h 12.965 c 5.46,0 7.901,-2.396 7.901,-7.901 v -2.976 h -3.64 v 2.441 c 0,3.862 -1.378,5.241 -5.24,5.241 H 1.066 c -3.772,0 -5.237,-1.466 -5.237,-5.241 V 8.433 c 0,-3.772 1.465,-5.238 5.237,-5.238 h 10.92 c 3.862,0 5.24,1.376 5.24,5.238 v 2.841 h 3.64 V 7.901 C 20.866,2.397 18.425,0 12.965,0 Z"
             style="fill:#000000;fill-opacity:1;fill-rule:nonzero;stroke:none"
             id="path2833"
             inkscape:connector-curvature="0" /></g><g
           id="g2835"
           transform="translate(493.3299,229.9302)"><path
             d="m 0,0 c 3.862,0 5.238,1.375 5.238,5.238 v 14.118 c 0,3.862 -1.376,5.237 -5.238,5.237 h -11.809 c -3.772,0 -5.237,-1.375 -5.237,-5.237 V 5.238 C -17.046,1.375 -15.581,0 -11.809,0 Z m -12.875,-3.24 c -5.46,0 -7.901,2.396 -7.901,7.901 v 15.271 c 0,5.505 2.441,7.902 7.901,7.902 H 1.066 c 5.46,0 7.902,-2.397 7.902,-7.902 V 4.661 c 0,-5.505 -2.442,-7.901 -7.902,-7.901 z"
             style="fill:#000000;fill-opacity:1;fill-rule:nonzero;stroke:none"
             id="path2837"
             inkscape:connector-curvature="0" /></g><g
           id="g2839"
           transform="translate(542.6396,257.7639)"><path
             d="m 0,0 h 3.15 v -31.074 h -3.552 v 24.725 l -12.251,-18.199 h -2.132 l -12.25,18.199 v -24.725 h -3.553 V 0 h 3.286 l 13.673,-20.554 z"
             style="fill:#000000;fill-opacity:1;fill-rule:nonzero;stroke:none"
             id="path2841"
             inkscape:connector-curvature="0" /></g><g
           id="g2843"
           transform="translate(559.6828,241.2042)"><path
             d="m 0,0 h 15.626 c 3.417,0 4.438,1.021 4.438,4.442 v 4.616 c 0,3.417 -1.021,4.438 -4.438,4.438 L 0,13.496 Z M -3.73,-14.515 V 16.56 h 20.509 c 4.973,0 7.015,-1.997 7.015,-7.016 V 4.042 c 0,-5.018 -2.042,-7.015 -7.015,-7.015 H 0 v -11.542 z"
             style="fill:#000000;fill-opacity:1;fill-rule:nonzero;stroke:none"
             id="path2845"
             inkscape:connector-curvature="0" /></g><g
           id="g2847"
           transform="translate(595.7604,230.0203)"><path
             d="M 0,0 H 19.176 V -3.331 H -3.73 V 27.744 H 0 Z"
             style="fill:#000000;fill-opacity:1;fill-rule:nonzero;stroke:none"
             id="path2849"
             inkscape:connector-curvature="0" /></g><g
           id="g2851"
           transform="translate(626.4202,229.8401)"><path
             d="M 0,0 H 21.395 V -3.15 H -3.73 V 27.924 H 20.953 V 24.77 H 0 V 14.605 H 19.176 V 11.631 H 0 Z"
             style="fill:#000000;fill-opacity:1;fill-rule:nonzero;stroke:none"
             id="path2853"
             inkscape:connector-curvature="0" /></g><g
           id="g2855"
           transform="translate(653.5272,226.6897)"><path
             d="M 0,0 13.542,15.803 0.445,31.074 h 4.706 l 10.964,-13.139 10.92,13.139 h 4.484 L 18.467,15.803 31.963,0 H 27.257 L 15.893,13.674 4.439,0 Z"
             style="fill:#000000;fill-opacity:1;fill-rule:nonzero;stroke:none"
             id="path2857"
             inkscape:connector-curvature="0" /></g><path
           d="m 693.07,257.764 h 3.73 V 226.69 h -3.73 z"
           style="fill:#000000;fill-opacity:1;fill-rule:nonzero;stroke:none"
           id="path2859"
           inkscape:connector-curvature="0" /><g
           id="g2861"
           transform="translate(732.857,257.7639)"><path
             d="m 0,0 v -3.331 h -12.163 v -27.743 h -3.73 V -3.331 H -28.056 V 0 Z"
             style="fill:#000000;fill-opacity:1;fill-rule:nonzero;stroke:none"
             id="path2863"
             inkscape:connector-curvature="0" /></g><g
           id="g2865"
           transform="translate(769.1118,257.7639)"><path
             d="m 0,0 -14.028,-19.488 v -11.586 h -3.73 v 11.586 L -31.786,0 h 4.397 L -15.761,-16.515 -4.216,0 Z"
             style="fill:#000000;fill-opacity:1;fill-rule:nonzero;stroke:none"
             id="path2867"
             inkscape:connector-curvature="0" /></g><g
           id="g2869"
           transform="translate(593.3045,622.1032)"><path
             d="m 0,0 c 0,-41.582 -16.993,-79.384 -44.426,-106.781 l -257.988,257.988 h 151.207 C -68.043,151.207 0,83.164 0,0"
             style="fill:#0080c5;fill-opacity:1;fill-rule:nonzero;stroke:none"
             id="path2871"
             inkscape:connector-curvature="0" /></g><g
           id="g2873"
           transform="translate(593.3045,470.9322)"><path
             d="M 0,0 V -143.503 L -143.611,0.144 c 38.594,1.944 73.48,18.541 99.185,44.246 z"
             style="fill:#00b7eb;fill-opacity:1;fill-rule:nonzero;stroke:none"
             id="path2875"
             inkscape:connector-curvature="0" /></g></g></g></g></svg>