<svg id="Layer_1" data-name="Layer 1" xmlns="http://www.w3.org/2000/svg" viewBox="0 0 521.63 99.37"><path d="M141.56,46l-6.82-1.31c-3.58-.69-5.3-2.82-5.3-5.51,0-3.23,3-6.19,7.64-6.19,6.2,0,8.4,4.2,8.88,6.88l8.54-2.62c-1.1-5.5-5.64-12.66-17.49-12.66-9.22,0-17,6.61-17,15.28,0,7.37,5,12.4,12.8,14l6.82,1.38c3.79.75,5.92,3,5.92,5.78,0,3.44-2.82,6-7.92,6-6.88,0-10.26-4.34-10.67-9.16l-8.81,2.34c.75,7,6.47,15.29,19.41,15.29,11.37,0,17.63-7.58,17.63-15.08C155.19,53.47,150.44,47.69,141.56,46Z" fill="#121339"/><path d="M175.5,67c-4.68,0-8.67-3.44-8.67-9.57s3.92-9.5,8.6-9.5a7.39,7.39,0,0,1,7.51,5.71l8.19-2.75c-1.44-5.72-6.68-11.43-15.9-11.43-9.85,0-17.56,7.5-17.56,18a17.53,17.53,0,0,0,17.83,18c9,0,14.32-5.78,15.84-11.43l-8.06-2.69A7.75,7.75,0,0,1,175.5,67Z" fill="#121339"/><path d="M214.33,39.63c-3.23,0-7,1.11-9.15,3.72V24.56H196V74.41h9.16V54.51c.2-3.72,2.48-6.61,6.33-6.61,4.41,0,6.27,3,6.27,6.74V74.41h9.16V53.06C226.94,45.63,222.94,39.63,214.33,39.63Z" fill="#121339"/><path d="M249.38,39.5c-10.12,0-17.76,7.5-17.76,18s7.64,18,17.76,18,17.77-7.58,17.77-18S259.5,39.5,249.38,39.5Zm0,27.61c-4.47,0-8.61-3.31-8.61-9.64s4.14-9.64,8.61-9.64S258,51.06,258,57.47,253.86,67.11,249.38,67.11Z" fill="#121339"/><path d="M287.53,39.5c-10.12,0-17.77,7.5-17.77,18s7.65,18,17.77,18,17.76-7.58,17.76-18S297.65,39.5,287.53,39.5Zm0,27.61c-4.48,0-8.61-3.31-8.61-9.64s4.13-9.64,8.61-9.64,8.6,3.23,8.6,9.64S292,67.11,287.53,67.11Z" fill="#121339"/><rect x="310.46" y="24.56" width="9.16" height="49.85" fill="#121339"/><path d="M361.2,25.59H343l-12.41,0s1.08,6.59,12.41,8V74.41h9.51V56h8.74c9.64,0,16-6.33,16-15.21S370.84,25.59,361.2,25.59ZM360,47.83h-7.51v-14H360c4.75,0,7.64,2.69,7.64,7S364.78,47.83,360,47.83Z" fill="#121339"/><path d="M408.57,52.37c0-6.81-4-12.87-14.73-12.87-9.09,0-14,5.85-14.53,11.15l8.12,1.72c.28-3,2.48-5.51,6.47-5.51s5.72,2,5.72,4.41c0,1.17-.62,2.14-2.55,2.41l-8.33,1.24c-5.65.83-10.12,4.2-10.12,10.26,0,5.3,4.41,10.19,11.64,10.19,5,0,8.26-2.34,10-5a23.74,23.74,0,0,0,.34,4.07H409a39,39,0,0,1-.41-5.37Zm-8.95,8.33c0,6-3.58,7.85-7.44,7.85-3,0-4.4-1.92-4.4-3.92,0-2.62,1.86-3.93,4.2-4.27l7.64-1.17Z" fill="#121339"/><path d="M424.61,45.56v-5h-8.88V74.41h9.16V58.91c0-7.29,4.06-9.57,8.74-9.57a13.65,13.65,0,0,1,2.76.28V40.39a20.6,20.6,0,0,0-2.14-.14C431.36,40.25,426.68,41.08,424.61,45.56Z" fill="#121339"/><path d="M449.67,45.56v-5h-8.88V74.41H450V58.91c0-7.29,4.06-9.57,8.74-9.57a13.58,13.58,0,0,1,2.76.28V40.39a20.6,20.6,0,0,0-2.14-.14C456.42,40.25,451.74,41.08,449.67,45.56Z" fill="#121339"/><path d="M480.73,39.5c-10.12,0-17.77,7.5-17.77,18s7.65,18,17.77,18,17.76-7.58,17.76-18S490.85,39.5,480.73,39.5Zm0,27.61c-4.48,0-8.61-3.31-8.61-9.64s4.13-9.64,8.61-9.64,8.6,3.23,8.6,9.64S485.2,67.11,480.73,67.11Z" fill="#121339"/><path d="M521.63,48.65V40.53h-6.82V30.41h-8.26v4.75c0,3-1.66,5.37-5.24,5.37h-1.72v8.12h6.13V64.42c0,6.54,4.13,10.47,10.74,10.47a13.48,13.48,0,0,0,5.17-.83V66.49a13.36,13.36,0,0,1-2.83.27c-2.61,0-4-1-4-3.92V48.65Z" fill="#121339"/><path d="M44,99.37A42.63,42.63,0,0,1,3.58,70.32,6,6,0,0,1,4.4,64.9a5.92,5.92,0,0,1,2.06-1.8A41.65,41.65,0,0,1,3.82,23.4a6,6,0,0,1,8.63-2.59l9.63,6a31.52,31.52,0,0,1,.73-4.45A24.17,24.17,0,0,1,9.56,7.94,6,6,0,0,1,15.25,0H56.11a37,37,0,0,1,7.2.72,34.77,34.77,0,0,1,11.9,4.85,18,18,0,0,1,6.63-1.25c11.66,0,21.88,10.88,21.88,23.29a23.71,23.71,0,0,1-3,11.44A7.27,7.27,0,0,1,90.3,41.53a16.57,16.57,0,0,1-8.12,11.19,30.67,30.67,0,0,1,.88,18.38c-2.53,9.79-9.62,18.35-19.45,23.48l-.35.17-.34.15C58.44,96.89,52.88,99.37,44,99.37Z" fill="#fff" fill-opacity="0.0"/><path d="M50.41,26.77a5.09,5.09,0,1,0,5.09-5.08A5.09,5.09,0,0,0,50.41,26.77ZM81.84,6.65A15.66,15.66,0,0,0,75,8.23,32,32,0,0,0,62.82,3a34.75,34.75,0,0,0-6.71-.67H15.25a3.68,3.68,0,0,0-3.48,4.86A21.84,21.84,0,0,0,25.63,21a28.1,28.1,0,0,0-1.3,10L11.22,22.79a3.72,3.72,0,0,0-1.94-.55,3.82,3.82,0,0,0-1.06.15,3.69,3.69,0,0,0-2.28,2,39.26,39.26,0,0,0,4.5,40.35H9.28A3.67,3.67,0,0,0,5.8,69.58,40.28,40.28,0,0,0,44,97c8.37,0,13.45-2.27,17.94-4.27l.36-.16.21-.1c9.25-4.83,15.91-12.84,18.27-22a28.48,28.48,0,0,0-1.61-18.95c5.35-2.19,8.55-6.56,9.17-12.67a8.34,8.34,0,0,1,1.82-.34c.22,0,.31,0,.6.31a4.94,4.94,0,0,0,3.63,1.59,5.22,5.22,0,0,0,.58,0,5,5,0,0,0,3.74-2.51,21.33,21.33,0,0,0,2.65-10.31C101.38,16.45,92.25,6.65,81.84,6.65ZM95.51,36.14a1.28,1.28,0,0,1-1,.64h-.15a1.27,1.27,0,0,1-.93-.41C91,33.73,88.27,35.25,84.92,36c-5.75,1.32-14.09,2.11-14-7.85V22.82A11.33,11.33,0,0,1,74,15a26.62,26.62,0,0,0-12.38-6.2h0a29,29,0,0,0-5.45-.53H18.79A16.45,16.45,0,0,0,31,16.14l3.19.47-1.5,2.86c-2.82,5.39-3.2,11.72-1.07,18.28l.83,2.6L49.64,51,48,52.69,10.36,29.28a33.25,33.25,0,0,0-.7,21C13,61.58,23.08,70.38,31,73.6A34.25,34.25,0,0,0,44.81,76l.06,2.29a37.64,37.64,0,0,1-23.58-7.6H12.62A34.34,34.34,0,0,0,44,91.08c7.1,0,11.19-1.83,15.52-3.76l.29-.13C67.55,83.14,73.09,76.52,75,69a22.58,22.58,0,0,0-3.21-18.52l-1.07-1.62c-.2-.3.15-6.92.14-13.33,4,5.4,12,3.15,13.85,2.6-.65,8.12-6.58,10.44-11,11.09h0c9.5,14.4,2.54,31.94-12.9,40-4.5,2-9,4.11-16.81,4.11a36.66,36.66,0,0,1-34.74-25H19a36.75,36.75,0,0,1-5.45-5.63A35.67,35.67,0,0,1,9.28,25.91L29.45,38.45C27.3,31.8,27.34,24.78,30.68,18.4,22.57,17.22,17.34,12.19,15.25,6H56.11a31.26,31.26,0,0,1,6,.59,28.33,28.33,0,0,1,12.63,6.05h0a12.11,12.11,0,0,1,7.15-2.32c8,0,15.87,7.51,15.87,17.28A17.57,17.57,0,0,1,95.51,36.14Zm-26.92-11V39.69H55.31a12.73,12.73,0,0,1-5-1h0a12.91,12.91,0,0,1,5-24.81h1.9A11.36,11.36,0,0,1,68.59,25.14Z" fill="#121339"/><path d="M42.89,110.24"/></svg>
