<svg xmlns="http://www.w3.org/2000/svg" viewBox="0 0 170.7 52.92"><defs><style>.cls-1{fill:#da1c5c;}.cls-2{fill:#231f20;}</style></defs><g id="Layer_2" data-name="Layer 2"><g id="Layer_1-2" data-name="Layer 1"><path class="cls-1" d="M5,35.48H0l1.33-6.23h5l.89-4.32h-5l1.25-6h5l1.55-7.4h7.78l-1.55,7.4h6.28l1.55-7.4h7.78l-1.55,7.4h4.56l-1.26,6H29.1l-.89,4.32h4.5l-1.33,6.23H26.87l-1.54,7.36H17.55l1.54-7.36H12.81l-1.54,7.36H3.49ZM15,24.93l-.89,4.32h6.28l.89-4.32Z"/><path class="cls-2" d="M47.32,32.64a3.65,3.65,0,0,0,1.08,2.88,5.12,5.12,0,0,0,3.12.78A4.67,4.67,0,0,0,53.44,36a2.9,2.9,0,0,0,1.08-.78,2.48,2.48,0,0,0,.48-.9,3,3,0,0,0,.12-.75,1.68,1.68,0,0,0-.54-1.32,4.37,4.37,0,0,0-1.53-.81,14.53,14.53,0,0,0-2.34-.54q-1.35-.21-3-.51-.78-.12-2.19-.45a9.94,9.94,0,0,1-2.82-1.17,7.61,7.61,0,0,1-2.43-2.37,7.19,7.19,0,0,1-1-4.05,10.42,10.42,0,0,1,1.35-5.55,10.34,10.34,0,0,1,3.57-3.51,15,15,0,0,1,5-1.83,30.64,30.64,0,0,1,5.58-.51,36.45,36.45,0,0,1,5,.36,14.69,14.69,0,0,1,4.65,1.41,8.23,8.23,0,0,1,3.3,3,8.16,8.16,0,0,1,1,5.07H58.06a2.46,2.46,0,0,0-.84-2.46,3.1,3.1,0,0,0-1.32-.63,7,7,0,0,0-1.44-.15,4.82,4.82,0,0,0-2.28.57A2,2,0,0,0,51.1,20a1.91,1.91,0,0,0,.75,1.74,4.4,4.4,0,0,0,1.95.6,57.75,57.75,0,0,1,5.79,1.11,13.65,13.65,0,0,1,4.14,1.71,6.84,6.84,0,0,1,2.46,2.73A9.29,9.29,0,0,1,67,32a10.48,10.48,0,0,1-1.11,4.86,10,10,0,0,1-3.18,3.63,15.88,15.88,0,0,1-5,2.28,24.27,24.27,0,0,1-6.51.81A35.9,35.9,0,0,1,46,43.23a14,14,0,0,1-4.83-1.59,9.9,9.9,0,0,1-3.54-3.33,9.68,9.68,0,0,1-1.26-5.67Z"/><path class="cls-2" d="M73.68,11.7H85.2l-.72,3.54h.12A10.66,10.66,0,0,1,88.17,12a9.94,9.94,0,0,1,4.77-1.08,10.92,10.92,0,0,1,5.46,1.23,10.65,10.65,0,0,1,3.48,3.09,11.77,11.77,0,0,1,1.86,4.14,18.77,18.77,0,0,1,.54,4.32,28.4,28.4,0,0,1-.9,7,22,22,0,0,1-2.73,6.42,14.82,14.82,0,0,1-4.71,4.68,12.64,12.64,0,0,1-6.84,1.8q-1.26,0-2.52-.12a8.85,8.85,0,0,1-2.46-.6,9,9,0,0,1-2.31-1.38,9.61,9.61,0,0,1-2.07-2.46L76.92,52.92H65ZM86.16,35a4.56,4.56,0,0,0,3-1,7.31,7.31,0,0,0,1.92-2.46,11.82,11.82,0,0,0,1-3.21,19.14,19.14,0,0,0,.3-3.24,12.42,12.42,0,0,0-.18-2.16,4.79,4.79,0,0,0-.66-1.77A3.26,3.26,0,0,0,90.24,20a4.83,4.83,0,0,0-2.16-.42,4.34,4.34,0,0,0-3.21,1.23A8.41,8.41,0,0,0,83,23.7a14.89,14.89,0,0,0-.9,3.42,21.35,21.35,0,0,0-.24,2.76A9.78,9.78,0,0,0,82,31.14a5.38,5.38,0,0,0,.57,1.71,4.27,4.27,0,0,0,1.32,1.5A3.85,3.85,0,0,0,86.16,35Z"/><path class="cls-2" d="M110.05,11.7h11.88l-6.48,31.14H103.57Zm12.54-3.36H110.71L112.45,0h11.88Z"/><path class="cls-2" d="M127.89,19l1.5-7.32A28.53,28.53,0,0,1,131.13,6a9.44,9.44,0,0,1,2.67-3.6A9.84,9.84,0,0,1,137.88.54,27.69,27.69,0,0,1,143.79,0c1,0,2.07,0,3.12.09S149,.22,150,.3l-1.68,7.86A22.36,22.36,0,0,0,145.17,8a3.6,3.6,0,0,0-2.58.81,5.89,5.89,0,0,0-1.32,2.91L139.77,19l-4.92,23.82H123Z"/><path class="cls-2" d="M148.56,19l1.5-7.32A28.53,28.53,0,0,1,151.8,6a9.44,9.44,0,0,1,2.67-3.6A9.84,9.84,0,0,1,158.55.54,27.69,27.69,0,0,1,164.46,0q1.56,0,3.12.09L170.7.3,169,8.16A22.36,22.36,0,0,0,165.84,8a3.6,3.6,0,0,0-2.58.81,5.89,5.89,0,0,0-1.32,2.91L160.44,19l-4.92,23.82H143.64Z"/><path class="cls-2" d="M123.23,20.06l1.88-8.19h43.28l-1.82,8.19Z"/><path class="cls-2" d="M120.48,34.39l1.88-8.19h43.28l-1.82,8.19Z"/></g></g></svg>