<svg viewBox="0 0 709.8907 264.3256" width="5000" height="1861.7344895488839" xmlns="http://www.w3.org/2000/svg" xmlns:xlink="http://www.w3.org/1999/xlink" preserveAspectRatio="none"><defs></defs><style>.a6izo4zJpcolor {fill:#0C0C0C;fill-opacity:1;}.aD6z1nYkhcolor {fill:#0C0C0C;fill-opacity:1;}.aIptOCySncolors-0 {fill:#316BAC;fill-opacity:1;}.atBXipXk0bfillColor {fill:#316BAC;fill-opacity:1;}.shapeStroke-str {stroke:#0C0C0C;stroke-opacity:1;}</style><g opacity="1" transform="rotate(0 0 0)">
<svg width="263.8691" height="264.3256" x="0" y="0" version="1.1" preserveAspectRatio="none" viewBox="0 0 99.8272933959961 100">
  <g transform="matrix(1 0 0 1 0 0)" class="aIptOCySncolors-0"><title>univer</title><desc>Created with Sketch.</desc><g stroke-width="1" fill-rule="evenodd"><g><path d="M14.0393881,64.3761667 C21.793128,64.3761667 28.0787761,58.079644 28.0787761,50.3124898 C28.0787761,42.5453355 21.793128,36.2488129 14.0393881,36.2488129 C6.28564814,36.2488129 0,42.5453355 0,50.3124898 C0,58.079644 6.28564814,64.3761667 14.0393881,64.3761667 L14.0393881,64.3761667 Z M63.6378162,86.2428509 C63.4750358,93.8684628 57.2531783,100 49.6016969,100 C41.847957,100 35.5623088,93.7034774 35.5623088,85.9363231 C35.5623088,78.1691688 41.847957,71.8726462 49.6016969,71.8726462 C49.6206766,71.8726462 49.6401891,71.8721699 49.6602289,71.8712221 C49.7440442,71.8721707 49.8279728,71.8726462 49.9120124,71.8726462 C61.8379609,71.8726462 71.5309458,62.2956523 71.744906,50.4002616 C71.7473077,50.3698059 71.7485178,50.3405426 71.7485178,50.3124898 C71.7485178,50.2937213 71.7480268,50.2744306 71.7470501,50.2546229 C71.7480277,50.1693192 71.7485178,50.0838983 71.7485178,49.9983626 C71.7485178,37.9175293 61.9719813,28.124079 49.9120124,28.124079 C49.7872633,28.124079 49.6627586,28.1251269 49.5385065,28.1272143 C41.8138351,28.0931155 35.5623088,21.8097204 35.5623088,14.0636769 C35.5623088,6.29652262 41.847957,0 49.6016969,0 C57.3343625,0 63.6069058,6.26234175 63.6409457,14.0003772 C63.6388619,14.1248442 63.6378158,14.2495644 63.6378158,14.3745292 C63.6378158,26.4553625 73.4143523,36.2488129 85.4743212,36.2488129 C85.5579657,36.2488129 85.6415004,36.2483418 85.7249228,36.2474021 C85.7464162,36.2483409 85.7674123,36.2488129 85.7879058,36.2488129 C93.5416458,36.2488129 99.8272939,42.5453355 99.8272939,50.3124898 C99.8272939,58.0594025 93.5743645,64.3433386 85.8484957,64.3760385 C85.7240216,64.3739435 85.599294,64.3728918 85.4743212,64.3728918 C73.4157913,64.3728918 63.640149,74.1640051 63.6378162,86.2428509 L63.6378162,86.2428509 L63.6378162,86.2428509 Z"></path></g></g></g>
</svg>
</g><g opacity="1" transform="rotate(0 329.08739999999995 183.4183)">
<svg width="380.8033" height="30.5904" x="329.08739999999995" y="183.4183" version="1.1" preserveAspectRatio="none" viewBox="0.44 -30.88 484.52 38.92">
  <g transform="matrix(1 0 0 1 0 0)" class="a6izo4zJpcolor"><path d="M14.72-4.72L16.12-1.16Q15.24-0.44 13.98-0.08Q12.72 0.28 11.32 0.28L11.32 0.28Q7.80 0.28 5.88-1.56Q3.96-3.40 3.96-6.92L3.96-6.92L3.96-17.20L0.44-17.20L0.44-21.20L3.96-21.20L3.96-26.08L8.96-26.08L8.96-21.20L14.68-21.20L14.68-17.20L8.96-17.20L8.96-7.04Q8.96-5.48 9.72-4.66Q10.48-3.84 11.92-3.84L11.92-3.84Q13.60-3.84 14.72-4.72L14.72-4.72Z M50.36-21.60Q54.40-21.60 56.84-19.24Q59.28-16.88 59.28-12.24L59.28-12.24L59.28 0L54.28 0L54.28-11.60Q54.28-14.40 52.96-15.82Q51.64-17.24 49.20-17.24L49.20-17.24Q46.44-17.24 44.84-15.58Q43.24-13.92 43.24-10.80L43.24-10.80L43.24 0L38.24 0L38.24-29.68L43.24-29.68L43.24-18.88Q44.48-20.20 46.30-20.90Q48.12-21.60 50.36-21.60L50.36-21.60Z M83.64 0L83.64-21.36L88.64-21.36L88.64 0L83.64 0ZM86.16-24.88Q84.80-24.88 83.88-25.74Q82.96-26.60 82.96-27.88L82.96-27.88Q82.96-29.16 83.88-30.02Q84.80-30.88 86.16-30.88L86.16-30.88Q87.52-30.88 88.44-30.06Q89.36-29.24 89.36-28L89.36-28Q89.36-26.68 88.46-25.78Q87.56-24.88 86.16-24.88L86.16-24.88Z M125.32-21.60Q129.36-21.60 131.80-19.24Q134.24-16.88 134.24-12.24L134.24-12.24L134.24 0L129.24 0L129.24-11.60Q129.24-14.40 127.92-15.82Q126.60-17.24 124.16-17.24L124.16-17.24Q121.40-17.24 119.80-15.58Q118.20-13.92 118.20-10.80L118.20-10.80L118.20 0L113.20 0L113.20-21.36L117.96-21.36L117.96-18.60Q119.20-20.08 121.08-20.84Q122.96-21.60 125.32-21.60L125.32-21.60Z M174.72 0L167.32-9.16L163.60-5.64L163.60 0L158.60 0L158.60-29.68L163.60-29.68L163.60-11.76L173.96-21.36L179.96-21.36L171.04-12.40L180.80 0L174.72 0Z M247.00-29.68L252.00-29.68L252.00 0L247.20 0L247.20-2.76Q245.96-1.24 244.14-0.48Q242.32 0.28 240.12 0.28L240.12 0.28Q237.04 0.28 234.58-1.08Q232.12-2.44 230.72-4.94Q229.32-7.44 229.32-10.68L229.32-10.68Q229.32-13.92 230.72-16.40Q232.12-18.88 234.58-20.24Q237.04-21.60 240.12-21.60L240.12-21.60Q242.24-21.60 244.00-20.88Q245.76-20.16 247.00-18.72L247.00-18.72L247.00-29.68ZM240.72-4Q242.52-4 243.96-4.82Q245.40-5.64 246.24-7.16Q247.08-8.68 247.08-10.68L247.08-10.68Q247.08-12.68 246.24-14.20Q245.40-15.72 243.96-16.54Q242.52-17.36 240.72-17.36L240.72-17.36Q238.92-17.36 237.48-16.54Q236.04-15.72 235.20-14.20Q234.36-12.68 234.36-10.68L234.36-10.68Q234.36-8.68 235.20-7.16Q236.04-5.64 237.48-4.82Q238.92-4 240.72-4L240.72-4Z M276.56 0L276.56-21.36L281.56-21.36L281.56 0L276.56 0ZM279.08-24.88Q277.72-24.88 276.80-25.74Q275.88-26.60 275.88-27.88L275.88-27.88Q275.88-29.16 276.80-30.02Q277.72-30.88 279.08-30.88L279.08-30.88Q280.44-30.88 281.36-30.06Q282.28-29.24 282.28-28L282.28-28Q282.28-26.68 281.38-25.78Q280.48-24.88 279.08-24.88L279.08-24.88Z M322.56-21.36L327.32-21.36L327.32-3.24Q327.32 8.04 315.80 8.04L315.80 8.04Q312.72 8.04 309.96 7.26Q307.20 6.48 305.40 5L305.40 5L307.64 1.24Q309.04 2.40 311.18 3.10Q313.32 3.80 315.52 3.80L315.52 3.80Q319.04 3.80 320.68 2.20Q322.32 0.60 322.32-2.68L322.32-2.68L322.32-3.80Q321.04-2.40 319.20-1.68Q317.36-0.96 315.16-0.96L315.16-0.96Q312.12-0.96 309.66-2.26Q307.20-3.56 305.78-5.92Q304.36-8.28 304.36-11.32L304.36-11.32Q304.36-14.36 305.78-16.70Q307.20-19.04 309.66-20.32Q312.12-21.60 315.16-21.60L315.16-21.60Q317.48-21.60 319.38-20.84Q321.28-20.08 322.56-18.52L322.56-18.52L322.56-21.36ZM315.92-5.20Q318.76-5.20 320.58-6.90Q322.40-8.60 322.40-11.32L322.40-11.32Q322.40-14 320.58-15.68Q318.76-17.36 315.92-17.36L315.92-17.36Q313.04-17.36 311.22-15.68Q309.40-14 309.40-11.32L309.40-11.32Q309.40-8.60 311.22-6.90Q313.04-5.20 315.92-5.20L315.92-5.20Z M351.88 0L351.88-21.36L356.88-21.36L356.88 0L351.88 0ZM354.40-24.88Q353.04-24.88 352.12-25.74Q351.20-26.60 351.20-27.88L351.20-27.88Q351.20-29.16 352.12-30.02Q353.04-30.88 354.40-30.88L354.40-30.88Q355.76-30.88 356.68-30.06Q357.60-29.24 357.60-28L357.60-28Q357.60-26.68 356.70-25.78Q355.80-24.88 354.40-24.88L354.40-24.88Z M392.88-4.72L394.28-1.16Q393.40-0.44 392.14-0.08Q390.88 0.28 389.48 0.28L389.48 0.28Q385.96 0.28 384.04-1.56Q382.12-3.40 382.12-6.92L382.12-6.92L382.12-17.20L378.60-17.20L378.60-21.20L382.12-21.20L382.12-26.08L387.12-26.08L387.12-21.20L392.84-21.20L392.84-17.20L387.12-17.20L387.12-7.04Q387.12-5.48 387.88-4.66Q388.64-3.84 390.08-3.84L390.08-3.84Q391.76-3.84 392.88-4.72L392.88-4.72Z M424.56-21.60Q429.28-21.60 431.78-19.34Q434.28-17.08 434.28-12.52L434.28-12.52L434.28 0L429.56 0L429.56-2.60Q428.64-1.20 426.94-0.46Q425.24 0.28 422.84 0.28L422.84 0.28Q420.44 0.28 418.64-0.54Q416.84-1.36 415.86-2.82Q414.88-4.28 414.88-6.12L414.88-6.12Q414.88-9 417.02-10.74Q419.16-12.48 423.76-12.48L423.76-12.48L429.28-12.48L429.28-12.80Q429.28-15.04 427.94-16.24Q426.60-17.44 423.96-17.44L423.96-17.44Q422.16-17.44 420.42-16.88Q418.68-16.32 417.48-15.32L417.48-15.32L415.52-18.96Q417.20-20.24 419.56-20.92Q421.92-21.60 424.56-21.60L424.56-21.60ZM423.88-3.36Q425.76-3.36 427.22-4.22Q428.68-5.08 429.28-6.68L429.28-6.68L429.28-9.16L424.12-9.16Q419.80-9.16 419.80-6.32L419.80-6.32Q419.80-4.96 420.88-4.16Q421.96-3.36 423.88-3.36L423.88-3.36Z M458.68 0L458.68-29.68L463.68-29.68L463.68 0L458.68 0Z"/></g>
</svg>
</g><g opacity="1" transform="rotate(0 332.74060000000003 51.31630000000001)">
<svg width="373.4969" height="109.1358" x="332.74060000000003" y="51.31630000000001" version="1.1" preserveAspectRatio="none" viewBox="0.44 -29.68 129.08 37.72">
  <g transform="matrix(1 0 0 1 0 0)" class="aD6z1nYkhcolor"><path d="M14.72-4.72L16.12-1.16Q15.24-0.44 13.98-0.08Q12.72 0.28 11.32 0.28L11.32 0.28Q7.80 0.28 5.88-1.56Q3.96-3.40 3.96-6.92L3.96-6.92L3.96-17.20L0.44-17.20L0.44-21.20L3.96-21.20L3.96-26.08L8.96-26.08L8.96-21.20L14.68-21.20L14.68-17.20L8.96-17.20L8.96-7.04Q8.96-5.48 9.72-4.66Q10.48-3.84 11.92-3.84L11.92-3.84Q13.60-3.84 14.72-4.72L14.72-4.72Z M39.60-10.56Q39.60-10.04 39.52-9.08L39.52-9.08L22.76-9.08Q23.20-6.72 25.06-5.34Q26.92-3.96 29.68-3.96L29.68-3.96Q33.20-3.96 35.48-6.28L35.48-6.28L38.16-3.20Q36.72-1.48 34.52-0.60Q32.32 0.28 29.56 0.28L29.56 0.28Q26.04 0.28 23.36-1.12Q20.68-2.52 19.22-5.02Q17.76-7.52 17.76-10.68L17.76-10.68Q17.76-13.80 19.18-16.30Q20.60-18.80 23.12-20.20Q25.64-21.60 28.80-21.60L28.80-21.60Q31.92-21.60 34.38-20.22Q36.84-18.84 38.22-16.34Q39.60-13.84 39.60-10.56L39.60-10.56ZM28.80-17.60Q26.40-17.60 24.74-16.18Q23.08-14.76 22.72-12.40L22.72-12.40L34.84-12.40Q34.52-14.72 32.88-16.16Q31.24-17.60 28.80-17.60L28.80-17.60Z M60.84-21.36L65.60-21.36L65.60-3.24Q65.60 8.04 54.08 8.04L54.08 8.04Q51.00 8.04 48.24 7.26Q45.48 6.48 43.68 5L43.68 5L45.92 1.24Q47.32 2.40 49.46 3.10Q51.60 3.80 53.80 3.80L53.80 3.80Q57.32 3.80 58.96 2.20Q60.60 0.60 60.60-2.68L60.60-2.68L60.60-3.80Q59.32-2.40 57.48-1.68Q55.64-0.96 53.44-0.96L53.44-0.96Q50.40-0.96 47.94-2.26Q45.48-3.56 44.06-5.92Q42.64-8.28 42.64-11.32L42.64-11.32Q42.64-14.36 44.06-16.70Q45.48-19.04 47.94-20.32Q50.40-21.60 53.44-21.60L53.44-21.60Q55.76-21.60 57.66-20.84Q59.56-20.08 60.84-18.52L60.84-18.52L60.84-21.36ZM54.20-5.20Q57.04-5.20 58.86-6.90Q60.68-8.60 60.68-11.32L60.68-11.32Q60.68-14 58.86-15.68Q57.04-17.36 54.20-17.36L54.20-17.36Q51.32-17.36 49.50-15.68Q47.68-14 47.68-11.32L47.68-11.32Q47.68-8.60 49.50-6.90Q51.32-5.20 54.20-5.20L54.20-5.20Z M81.76 0.28Q78.52 0.28 75.92-1.12Q73.32-2.52 71.86-5.02Q70.40-7.52 70.40-10.68L70.40-10.68Q70.40-13.84 71.86-16.32Q73.32-18.80 75.92-20.20Q78.52-21.60 81.76-21.60L81.76-21.60Q85.04-21.60 87.64-20.20Q90.24-18.80 91.70-16.32Q93.16-13.84 93.16-10.68L93.16-10.68Q93.16-7.52 91.70-5.02Q90.24-2.52 87.64-1.12Q85.04 0.28 81.76 0.28L81.76 0.28ZM81.76-4Q84.52-4 86.32-5.84Q88.12-7.68 88.12-10.68L88.12-10.68Q88.12-13.68 86.32-15.52Q84.52-17.36 81.76-17.36L81.76-17.36Q79.00-17.36 77.22-15.52Q75.44-13.68 75.44-10.68L75.44-10.68Q75.44-7.68 77.22-5.84Q79.00-4 81.76-4L81.76-4Z M97.96 0L97.96-29.68L102.96-29.68L102.96 0L97.96 0Z M124.72-21.36L129.52-21.36L119.52 1.72Q118.12 5.20 116.12 6.62Q114.12 8.04 111.28 8.04L111.28 8.04Q109.68 8.04 108.12 7.52Q106.56 7 105.56 6.08L105.56 6.08L107.56 2.40Q108.28 3.08 109.26 3.48Q110.24 3.88 111.24 3.88L111.24 3.88Q112.56 3.88 113.42 3.20Q114.28 2.52 115.00 0.92L115.00 0.92L115.36 0.08L106.04-21.36L111.24-21.36L117.96-5.56L124.72-21.36Z"/></g>
</svg>
</g><g opacity="1" transform="rotate(0 298.8726 21.818600000000004)">
<svg width="6.5551" height="220.6884" x="298.8726" y="21.818600000000004" version="1.1" preserveAspectRatio="none" viewBox="0 0 6.5551 220.6884">
  <rect x="0" y="0" width="6.5551" height="220.6884" class="atBXipXk0bfillColor shapeStroke-str" style="stroke-width:0;" rx="0px" ry="0px" />
</svg>
</g></svg>