<svg width="260" height="53" viewBox="0 0 260 53" fill="none" xmlns="http://www.w3.org/2000/svg">
<path d="M21.1171 0.766602L0 12.9634V37.358L21.1171 49.5549L42.2343 37.358V12.9634L21.1171 0.766602Z" fill="#2975BC"/>
<path d="M39.5253 14.5483L21.0127 3.85547L2.5 14.5483V35.9341L21.0127 46.627L39.5253 35.9341V14.5483ZM20.8966 44.5201L4.24911 34.9042V15.6726L20.8966 6.0568L37.5442 15.6726V34.9042L20.8966 44.5201Z" fill="white"/>
<path d="M25.6911 23.6206C26.2349 24.4036 27.1374 24.918 28.1629 24.918C29.8265 24.918 31.1754 23.5685 31.1754 21.9042C31.1754 21.4714 31.083 21.0612 30.9188 20.6894C31.9168 20.1986 32.605 19.1747 32.605 17.9865C32.605 16.3222 31.2561 14.9727 29.5925 14.9727C28.4284 14.9727 27.4196 15.6346 26.9182 16.6025C26.5033 16.3871 26.0333 16.2641 25.5338 16.2641C23.8703 16.2641 22.5213 17.6137 22.5213 19.2779C22.5213 20.2763 23.009 21.1586 23.7572 21.7065L21.0662 24.3986L18.3751 21.7065C19.1234 21.1586 19.611 20.2763 19.611 19.2779C19.611 17.6137 18.2621 16.2641 16.5985 16.2641C16.0991 16.2641 15.6291 16.3881 15.2142 16.6025C14.7127 15.6346 13.705 14.9727 12.5399 14.9727C10.8763 14.9727 9.52734 16.3222 9.52734 17.9865C9.52734 19.1737 10.2156 20.1986 11.2135 20.6894C11.0494 21.0612 10.9569 21.4714 10.9569 21.9042C10.9569 23.5685 12.3059 24.918 13.9695 24.918C14.9949 24.918 15.8975 24.4036 16.4412 23.6206L19.143 26.3236L15.0342 30.4341L14.5368 29.9364L15.0923 29.3806L13.7482 28.036L9.99928 31.7866L11.2686 33.0564L11.7917 32.5331L12.2882 33.0298L12.1653 33.1528C11.7572 33.561 11.5911 34.1807 11.8152 34.7128C11.8959 34.9046 12.0266 35.0945 12.2321 35.2597C12.4288 35.4171 12.6313 35.5056 12.825 35.5489C13.3225 35.662 13.8406 35.4741 14.2015 35.1141L21.0662 28.2465L22.9893 26.3226L25.6911 23.6196V23.6206ZM25.5761 17.7376C26.0048 17.7376 26.3922 17.9137 26.6724 18.1969C26.6704 18.195 26.6684 18.192 26.6665 18.1901L27.7588 19.1776L28.1285 17.6628C28.2779 16.9684 28.8944 16.4471 29.6338 16.4471C30.4843 16.4471 31.1744 17.1366 31.1744 17.9884C31.1744 18.8402 30.4852 19.5297 29.6338 19.5297L28.2602 19.5868L29.3447 20.8704L29.3398 20.8724C29.5885 21.1458 29.7449 21.5068 29.7449 21.9062C29.7449 22.757 29.0557 23.4475 28.2042 23.4475C27.3528 23.4475 26.6635 22.758 26.6635 21.9062C26.6635 21.7675 26.6881 21.6357 26.7225 21.5078L26.8602 20.6107L26.0215 20.7484C25.9763 20.7622 25.933 20.7809 25.8868 20.7907C25.934 20.7809 25.9763 20.7622 26.0215 20.7484L25.5761 20.8212C24.7257 20.8212 24.0355 20.1317 24.0355 19.2799C24.0355 18.4281 24.7247 17.7386 25.5761 17.7386V17.7376ZM18.0979 19.2789C18.0979 20.1297 17.4087 20.8202 16.5572 20.8202L16.1118 20.7475C16.1571 20.7612 16.2003 20.7799 16.2465 20.7898C16.1993 20.7799 16.1571 20.7612 16.1118 20.7475L15.2732 20.6098L15.4108 21.5068C15.4452 21.6347 15.4698 21.7665 15.4698 21.9052C15.4698 22.756 14.7806 23.4465 13.9291 23.4465C13.0787 23.4465 12.3885 22.757 12.3885 21.9052C12.3885 21.5058 12.5438 21.1458 12.7935 20.8714L12.7886 20.8694L13.8731 19.5858L12.4996 19.5288C11.6491 19.5288 10.9589 18.8392 10.9589 17.9874C10.9589 17.1366 11.6481 16.4461 12.4996 16.4461C13.2389 16.4461 13.8554 16.9684 14.0048 17.6628V17.6619L14.3745 19.1766L15.4669 18.1891C15.4669 18.1891 15.4629 18.194 15.461 18.196C15.7402 17.9127 16.1276 17.7366 16.5572 17.7366C17.4077 17.7366 18.0979 18.4261 18.0979 19.2779V19.2789Z" fill="white"/>
<path d="M27.0399 29.3807L27.5954 29.9365L27.0979 30.4342L23.3392 26.6738L21.416 28.5978L27.9297 35.1142C28.2905 35.4752 28.8087 35.6621 29.3062 35.549C29.4999 35.5047 29.7024 35.4172 29.899 35.2598C30.1045 35.0955 30.2353 34.9057 30.3159 34.7129C30.5401 34.1798 30.3739 33.5611 29.9659 33.1529L29.843 33.0299L30.3395 32.5332L30.8626 33.0565L32.1319 31.7867L28.3829 28.0361L27.0389 29.3807H27.0399Z" fill="white"/>
<path d="M50.2773 11.5032V6.42773H71.6354V11.5032H63.9468V35.5201H58.0515V11.5032H50.2773Z" fill="#4D5155"/>
<path d="M69.61 17.0732C71.1192 15.1738 73.6391 14.2227 77.1708 14.2227C80.7024 14.2227 83.2214 15.1738 84.7316 17.0732C86.2408 18.9725 86.9959 21.6421 86.9959 25.0808C86.9959 32.3743 83.7209 36.0205 77.1708 36.0205C70.6207 36.0205 67.3457 32.3743 67.3457 25.0808C67.3457 21.6421 68.0998 18.9725 69.609 17.0732H69.61ZM74.0315 29.7805C74.6155 30.7789 75.6616 31.2785 77.1718 31.2785C78.682 31.2785 79.7271 30.7789 80.3111 29.7805C80.8941 28.7831 81.1872 27.2162 81.1872 25.0808C81.1872 22.9453 80.8951 21.3922 80.3111 20.4214C79.7271 19.4506 78.68 18.9647 77.1718 18.9647C75.6636 18.9647 74.6155 19.4506 74.0315 20.4214C73.4474 21.3922 73.1554 22.9444 73.1554 25.0808C73.1554 27.2172 73.4474 28.7831 74.0315 29.7805Z" fill="#4D5155"/>
<path d="M94.3217 35.5218H88.6211V14.7223H94.2824V15.8869C96.0747 14.7784 97.7236 14.2227 99.2269 14.2227C101.864 14.2227 104.089 15.041 105.091 16.6778C106.093 18.3145 106.594 20.8375 106.594 24.2486V35.5218H100.888V24.4159C100.888 22.6414 100.691 21.3312 100.296 20.4853C99.9004 19.6394 99.1089 19.2165 97.9222 19.2165C96.8406 19.2165 95.7995 19.4102 94.7976 19.7988L94.3227 19.965V35.5228L94.3217 35.5218Z" fill="#4D5155"/>
<path d="M121.717 19.4641H116.464V27.9921C116.464 28.8242 116.485 29.4134 116.528 29.7596C116.571 30.1068 116.727 30.4049 116.998 30.6537C117.268 30.9036 117.688 31.0285 118.258 31.0285L121.505 30.9449L121.761 35.3957C119.853 35.8118 118.401 36.0203 117.405 36.0203C114.842 36.0203 113.091 35.4587 112.151 34.3354C111.211 33.2131 110.741 31.1396 110.741 28.117V19.4641H108.221V14.7221H110.741V8.94043H116.465V14.7221H121.718V19.4641H121.717Z" fill="#4D5155"/>
<path d="M123.387 12.0601V6.40234H129.111V12.0601H123.387ZM123.387 35.5213V14.7218H129.111V35.5213H123.387Z" fill="#4D5155"/>
<path d="M136.46 35.5218H130.736V14.7223H136.417V15.8869C138.353 14.7784 140.135 14.2227 141.756 14.2227C144.603 14.2227 146.568 15.041 147.651 16.6778C148.733 18.3145 149.275 20.8375 149.275 24.2486V35.5218H143.55V24.4159C143.55 22.6414 143.335 21.3312 142.909 20.4853C142.482 19.6394 141.627 19.2165 140.346 19.2165C139.178 19.2165 138.053 19.4102 136.972 19.7988L136.46 19.965V35.5228L136.46 35.5218Z" fill="#4D5155"/>
<path d="M157.717 30.2595C158.385 30.828 159.348 31.1123 160.601 31.1123C163.249 31.1123 165.612 31.0287 167.691 30.8625L168.887 30.7375L168.973 34.8559C165.698 35.632 162.736 36.0205 160.088 36.0205C156.869 36.0205 154.535 35.1884 153.082 33.5241C151.63 31.8608 150.904 29.1569 150.904 25.4123C150.904 17.9535 154.051 14.2227 160.344 14.2227C166.637 14.2227 169.657 17.3574 169.657 23.624L169.23 27.4926H156.672C156.699 28.7683 157.048 29.691 157.718 30.2585L157.717 30.2595ZM164.017 23.2503C164.017 21.586 163.746 20.4293 163.205 19.7771C162.664 19.126 161.718 18.7994 160.365 18.7994C159.012 18.7994 158.058 19.1388 157.503 19.8184C156.947 20.4981 156.655 21.6421 156.627 23.2503H164.016H164.017Z" fill="#4D5155"/>
<path d="M171.283 9.29792V6.42773H192.641V9.29792H183.628V35.5201H180.382V9.29792H171.283Z" fill="#4D5155"/>
<path d="M188.094 35.522V14.7225H191.255V17.5514C193.731 15.8881 196.337 14.7924 199.072 14.2651V17.4265C197.876 17.6488 196.63 17.996 195.334 18.4671C194.038 18.9393 193.048 19.3544 192.366 19.7153L191.297 20.2563V35.523H188.094V35.522Z" fill="#4D5155"/>
<path d="M214.239 14.7227H217.443V35.5222H214.239V34.0654C212.103 35.3136 209.996 35.9382 207.917 35.9382C205.012 35.9382 203.083 35.2045 202.129 33.733C201.174 32.2635 200.697 29.5467 200.697 25.5798V14.7227H203.901V25.5375C203.901 28.5611 204.172 30.5854 204.713 31.6113C205.253 32.6372 206.478 33.1507 208.387 33.1507C209.327 33.1507 210.28 33.0189 211.249 32.7553C212.216 32.4917 212.958 32.2349 213.471 31.9851L214.24 31.6103V14.7217L214.239 14.7227Z" fill="#4D5155"/>
<path d="M226.928 17.0932C223.823 17.0932 222.272 18.1477 222.272 20.2546C222.272 21.2254 222.628 21.912 223.339 22.3133C224.051 22.7156 225.674 23.1316 228.21 23.5615C230.745 23.9913 232.538 24.5943 233.591 25.3713C234.645 26.1484 235.172 27.6032 235.172 29.7386C235.172 31.874 234.467 33.4419 233.057 34.4393C231.647 35.4376 229.59 35.9373 226.885 35.9373C225.119 35.9373 223.04 35.7436 220.649 35.355L219.368 35.1465L219.539 32.4425C222.786 32.9137 225.234 33.1498 226.886 33.1498C228.538 33.1498 229.797 32.893 230.666 32.3796C231.535 31.8661 231.969 31.0065 231.969 29.7996C231.969 28.5927 231.599 27.7753 230.858 27.3455C230.118 26.9156 228.494 26.5074 225.988 26.1179C223.482 25.7304 221.701 25.1618 220.649 24.4133C219.595 23.6648 219.068 22.2779 219.068 20.2536C219.068 18.2293 219.802 16.7313 221.268 15.7604C222.735 14.7896 224.563 14.3037 226.757 14.3037C228.494 14.3037 230.672 14.4975 233.292 14.886L234.489 15.0945L234.403 17.7562C231.242 17.3136 228.751 17.0913 226.928 17.0913V17.0932Z" fill="#4D5155"/>
<path d="M249.785 17.4261H242.994V27.3684C242.994 29.7537 243.171 31.3206 243.528 32.0691C243.883 32.8177 244.73 33.1924 246.069 33.1924L249.871 32.9426L250.085 35.5216C248.176 35.8265 246.725 35.979 245.728 35.979C243.506 35.979 241.968 35.4528 241.114 34.3983C240.26 33.3449 239.833 31.3354 239.833 28.3668V17.4261H236.801V14.7221H239.833V8.94043H242.995V14.7221H249.786V17.4261H249.785Z" fill="#4D5155"/>
<path d="M255.994 14.7598C253.785 14.7598 251.986 16.5578 251.986 18.769C251.986 20.9801 253.785 22.7782 255.994 22.7782C258.203 22.7782 260.001 20.9792 260.001 18.769C260.001 16.5588 258.204 14.7598 255.994 14.7598ZM255.994 21.9283C254.253 21.9283 252.836 20.511 252.836 18.769C252.836 17.027 254.253 15.6096 255.994 15.6096C257.735 15.6096 259.152 17.027 259.152 18.769C259.152 20.511 257.735 21.9283 255.994 21.9283Z" fill="#4D5155"/>
<path d="M257.483 18.1444C257.483 17.3408 257.01 16.9395 256.065 16.9395H254.506V20.5985H255.321V19.3719H256.107L256.574 20.5985H257.465L256.892 19.1988C257.286 18.9726 257.483 18.6214 257.483 18.1444ZM256.508 18.5752C256.413 18.6834 256.27 18.7365 256.076 18.7365H255.32V17.5739H256.064C256.253 17.5739 256.399 17.626 256.499 17.7303C256.599 17.8345 256.65 17.9742 256.65 18.1503C256.65 18.3263 256.603 18.468 256.508 18.5752Z" fill="#4D5155"/>
<path d="M141.171 49.5278H135.924V39.9927H136.985V48.5777H141.172V49.5288L141.171 49.5278Z" fill="#4D5155"/>
<path d="M142.34 41.0813V39.8823H143.373V41.0813H142.34ZM142.34 49.5276V42.6374H143.373V49.5276H142.34Z" fill="#4D5155"/>
<path d="M144.707 42.6377H145.809L147.421 48.6318H147.93L149.596 42.6377H150.657L148.716 49.5279H146.649L144.707 42.6377Z" fill="#4D5155"/>
<path d="M156.542 48.6737L156.942 48.6323L156.969 49.4458C155.922 49.5923 155.027 49.6661 154.284 49.6661C153.292 49.6661 152.59 49.3789 152.176 48.8045C151.763 48.23 151.557 47.3369 151.557 46.1241C151.557 43.7084 152.516 42.5005 154.435 42.5005C155.363 42.5005 156.056 42.7602 156.515 43.2795C156.974 43.7989 157.204 44.6143 157.204 45.7258L157.149 46.5107H152.604C152.604 47.273 152.741 47.8386 153.017 48.2055C153.292 48.5733 153.772 48.7563 154.456 48.7563C155.14 48.7563 155.835 48.7287 156.543 48.6737H156.542ZM156.171 45.6835C156.171 44.8385 156.035 44.2415 155.765 43.8923C155.494 43.5431 155.053 43.369 154.442 43.369C153.832 43.369 153.373 43.553 153.065 43.9198C152.757 44.2867 152.599 44.8749 152.59 45.6835H156.171Z" fill="#4D5155"/>
<path d="M167.271 49.5278H162.023V39.9927H163.084V48.5777H167.272V49.5288L167.271 49.5278Z" fill="#4D5155"/>
<path d="M168.068 46.0686C168.068 44.8095 168.293 43.9007 168.743 43.34C169.192 42.7794 169.952 42.499 171.022 42.499C172.092 42.499 172.85 42.7794 173.295 43.34C173.74 43.9007 173.964 44.8095 173.964 46.0686C173.964 47.3276 173.752 48.2414 173.33 48.8109C172.908 49.3804 172.136 49.6647 171.016 49.6647C169.896 49.6647 169.124 49.3804 168.702 48.8109C168.279 48.2414 168.068 47.3276 168.068 46.0686ZM169.128 46.0479C169.128 47.0541 169.25 47.7584 169.493 48.1627C169.736 48.5669 170.246 48.7686 171.022 48.7686C171.798 48.7686 172.305 48.5689 172.544 48.1696C172.783 47.7702 172.902 47.065 172.902 46.0548C172.902 45.0446 172.768 44.3482 172.503 43.9676C172.236 43.5859 171.743 43.3961 171.022 43.3961C170.301 43.3961 169.805 43.5869 169.534 43.9676C169.263 44.3492 169.128 45.0426 169.128 46.0479Z" fill="#4D5155"/>
<path d="M176.678 49.5284H175.645V42.6382H176.664V43.1202C177.407 42.707 178.119 42.5005 178.799 42.5005C179.717 42.5005 180.334 42.7484 180.651 43.2451C180.968 43.7408 181.126 44.6231 181.126 45.891V49.5284H180.107V45.9185C180.107 44.9635 180.013 44.3094 179.825 43.9553C179.637 43.6021 179.235 43.4251 178.62 43.4251C178.326 43.4251 178.016 43.4684 177.69 43.5559C177.364 43.6434 177.113 43.728 176.938 43.8107L176.677 43.9346V49.5294L176.678 49.5284Z" fill="#4D5155"/>
<path d="M185.699 52.7665C184.598 52.7665 183.828 52.617 183.392 52.3189C182.956 52.0199 182.738 51.476 182.738 50.6861C182.738 50.3094 182.821 50.0045 182.986 49.7694C183.151 49.5353 183.431 49.2707 183.827 48.9766C183.569 48.8025 183.441 48.4858 183.441 48.0254C183.441 47.8691 183.556 47.5799 183.785 47.1579L183.909 46.9376C183.184 46.6071 182.821 45.9136 182.821 44.8572C182.821 43.2864 183.679 42.5005 185.397 42.5005C185.837 42.5005 186.246 42.5467 186.623 42.6382L186.829 42.6795L188.868 42.6244V43.5067L187.559 43.4792C187.862 43.7821 188.013 44.2415 188.013 44.8572C188.013 45.7208 187.8 46.3248 187.373 46.669C186.946 47.0133 186.274 47.1854 185.356 47.1854C185.108 47.1854 184.883 47.1668 184.681 47.1304C184.516 47.5346 184.433 47.7963 184.433 47.9153C184.433 48.2005 184.521 48.3766 184.695 48.4455C184.869 48.5143 185.397 48.5487 186.279 48.5487C187.161 48.5487 187.794 48.6864 188.179 48.9619C188.565 49.2373 188.757 49.7753 188.757 50.574C188.757 52.0347 187.738 52.7645 185.7 52.7645L185.699 52.7665ZM183.757 50.6035C183.757 51.0904 183.893 51.4278 184.163 51.6166C184.433 51.8045 184.935 51.8989 185.664 51.8989C186.394 51.8989 186.918 51.7976 187.234 51.596C187.551 51.3933 187.709 51.056 187.709 50.5828C187.709 50.1097 187.594 49.8048 187.365 49.6671C187.135 49.5294 186.686 49.4605 186.015 49.4605L184.528 49.3917C184.225 49.612 184.02 49.8048 183.915 49.9701C183.81 50.1353 183.757 50.3468 183.757 50.6035ZM183.853 44.8572C183.853 45.3992 183.975 45.7848 184.218 46.0149C184.461 46.2451 184.863 46.3592 185.422 46.3592C185.982 46.3592 186.382 46.2441 186.621 46.0149C186.86 45.7858 186.979 45.3972 186.979 44.8503C186.979 44.3035 186.859 43.9159 186.621 43.6857C186.382 43.4566 185.983 43.3415 185.422 43.3415C184.862 43.3415 184.461 43.4585 184.218 43.6926C183.974 43.9267 183.853 44.3153 183.853 44.8572Z" fill="#4D5155"/>
<path d="M194.46 40.275C194.975 39.9032 195.67 39.7173 196.548 39.7173C197.426 39.7173 198.106 39.9081 198.593 40.2888C199.08 40.6704 199.323 41.1917 199.323 41.8527C199.323 42.5137 199.186 43.0331 198.91 43.4098C198.635 43.7865 198.144 44.2232 197.437 44.719L198.787 46.0695C198.842 45.9318 198.897 45.6652 198.952 45.2698C199.007 44.8754 199.039 44.5537 199.048 44.3049L200.839 44.3462C200.701 45.4124 200.467 46.3439 200.136 47.1436L201.679 48.4941L200.632 49.6931L199.172 48.4941C198.851 48.8433 198.44 49.1305 197.939 49.3557C197.439 49.581 196.908 49.6931 196.348 49.6931C195.007 49.6931 194.055 49.4521 193.49 48.9701C192.926 48.4882 192.643 47.7741 192.643 46.8268C192.643 46.0832 192.799 45.497 193.111 45.0701C193.422 44.6432 193.919 44.296 194.598 44.0295C194.222 43.5701 193.976 43.1983 193.862 42.913C193.747 42.6288 193.69 42.256 193.69 41.7966C193.69 41.1543 193.947 40.6458 194.461 40.274L194.46 40.275ZM196.113 48.0396C196.48 48.0396 196.839 47.9895 197.188 47.8882C197.537 47.7869 197.78 47.6541 197.918 47.4888L195.535 45.1045C194.856 45.435 194.517 45.9593 194.517 46.6754C194.517 47.5852 195.048 48.0396 196.114 48.0396H196.113ZM195.563 42.2107C195.563 42.5786 195.769 42.9829 196.182 43.4235L196.416 43.6714C196.793 43.396 197.059 43.1501 197.214 42.9337C197.371 42.7183 197.448 42.4586 197.448 42.1557C197.448 41.5773 197.134 41.2871 196.505 41.2871C195.875 41.2871 195.562 41.595 195.562 42.2107H195.563Z" fill="#4D5155"/>
<path d="M209.5 46.3173H207.077V49.5278H206.016V39.9927H209.5C210.537 39.9927 211.304 40.2455 211.8 40.751C212.295 41.2566 212.544 42.0278 212.544 43.0655C212.544 45.2334 211.529 46.3173 209.5 46.3173ZM207.077 45.3799H209.486C210.8 45.3799 211.456 44.6078 211.456 43.0645C211.456 42.3297 211.299 41.7897 210.988 41.4455C210.676 41.1012 210.175 40.9291 209.486 40.9291H207.077V45.3799Z" fill="#4D5155"/>
<path d="M214.002 49.528V42.6378H215.022V43.5752C215.82 43.0244 216.66 42.6614 217.542 42.4863V43.5339C217.157 43.6076 216.755 43.7217 216.337 43.8781C215.919 44.0345 215.601 44.1722 215.38 44.2913L215.036 44.4703V49.527H214.003L214.002 49.528Z" fill="#4D5155"/>
<path d="M218.33 46.0686C218.33 44.8095 218.555 43.9007 219.005 43.34C219.454 42.7794 220.214 42.499 221.284 42.499C222.353 42.499 223.111 42.7794 223.557 43.34C224.002 43.9007 224.225 44.8095 224.225 46.0686C224.225 47.3276 224.014 48.2414 223.592 48.8109C223.169 49.3804 222.398 49.6647 221.278 49.6647C220.158 49.6647 219.386 49.3804 218.963 48.8109C218.54 48.2414 218.33 47.3276 218.33 46.0686ZM219.39 46.0479C219.39 47.0541 219.512 47.7584 219.755 48.1627C219.998 48.5669 220.508 48.7686 221.284 48.7686C222.059 48.7686 222.567 48.5689 222.806 48.1696C223.045 47.7702 223.163 47.065 223.163 46.0548C223.163 45.0446 223.03 44.3482 222.764 43.9676C222.498 43.5859 222.004 43.3961 221.284 43.3961C220.563 43.3961 220.066 43.5869 219.796 43.9676C219.525 44.3492 219.39 45.0426 219.39 46.0479Z" fill="#4D5155"/>
<path d="M228.065 43.4241C227.064 43.4241 226.564 43.7733 226.564 44.4716C226.564 44.7933 226.679 45.0205 226.908 45.1533C227.137 45.2861 227.661 45.4248 228.478 45.5664C229.295 45.709 229.874 45.9087 230.213 46.1654C230.552 46.4231 230.723 46.9051 230.723 47.6123C230.723 48.3196 230.495 48.8389 230.04 49.1694C229.586 49.4999 228.922 49.6651 228.05 49.6651C227.481 49.6651 226.81 49.6012 226.04 49.4723L225.627 49.4035L225.682 48.5084C226.729 48.6648 227.518 48.7425 228.051 48.7425C228.584 48.7425 228.99 48.6579 229.27 48.4877C229.551 48.3176 229.69 48.0333 229.69 47.634C229.69 47.2346 229.571 46.9631 229.332 46.8205C229.093 46.6779 228.57 46.5431 227.762 46.4143C226.954 46.2854 226.38 46.0976 226.041 45.8487C225.7 45.6008 225.531 45.1415 225.531 44.4707C225.531 43.7998 225.768 43.3041 226.241 42.9825C226.714 42.6608 227.304 42.5005 228.011 42.5005C228.57 42.5005 229.273 42.5654 230.118 42.6933L230.503 42.7621L230.476 43.6444C229.457 43.4979 228.653 43.4241 228.065 43.4241Z" fill="#4D5155"/>
<path d="M232.308 52.5865V42.6382H233.327V43.1339C234.024 42.712 234.714 42.5005 235.393 42.5005C236.265 42.5005 236.898 42.7788 237.293 43.3346C237.688 43.8903 237.885 44.8071 237.885 46.0838C237.885 47.3605 237.653 48.2773 237.19 48.833C236.726 49.3887 235.957 49.6671 234.883 49.6671C234.322 49.6671 233.808 49.6169 233.34 49.5156V52.5884H232.307L232.308 52.5865ZM235.241 43.4231C234.966 43.4231 234.67 43.4693 234.353 43.5608C234.036 43.6523 233.785 43.7448 233.602 43.8362L233.34 43.9739V48.6176C233.992 48.7189 234.487 48.7691 234.828 48.7691C235.572 48.7691 236.092 48.5576 236.391 48.1356C236.69 47.7136 236.838 47.0241 236.838 46.069C236.838 45.114 236.703 44.4343 236.432 44.03C236.162 43.6257 235.765 43.4241 235.241 43.4241L235.241 43.4231Z" fill="#4D5155"/>
<path d="M244.249 48.6737L244.649 48.6323L244.676 49.4458C243.629 49.5923 242.734 49.6661 241.991 49.6661C240.999 49.6661 240.297 49.3789 239.883 48.8045C239.47 48.23 239.264 47.3369 239.264 46.1241C239.264 43.7084 240.223 42.5005 242.142 42.5005C243.07 42.5005 243.763 42.7602 244.222 43.2795C244.681 43.7989 244.911 44.6143 244.911 45.7258L244.856 46.5107H240.311C240.311 47.273 240.448 47.8386 240.724 48.2055C240.999 48.5733 241.479 48.7563 242.163 48.7563C242.847 48.7563 243.543 48.7287 244.25 48.6737H244.249ZM243.878 45.6835C243.878 44.8385 243.742 44.2415 243.472 43.8923C243.201 43.5431 242.76 43.369 242.149 43.369C241.539 43.369 241.08 43.553 240.772 43.9198C240.464 44.2867 240.306 44.8749 240.297 45.6835H243.878Z" fill="#4D5155"/>
<path d="M246.521 49.528V42.6378H247.541V43.5752C248.339 43.0244 249.18 42.6614 250.062 42.4863V43.5339C249.677 43.6076 249.274 43.7217 248.857 43.8781C248.439 44.0345 248.12 44.1722 247.9 44.2913L247.556 44.4703V49.527H246.522L246.521 49.528Z" fill="#4D5155"/>
</svg>
