<svg width="441" height="73" viewBox="0 0 441 73" fill="none" xmlns="http://www.w3.org/2000/svg">
<path d="M290.364 26.6095V61.7911H305.407C316.061 61.7911 322.351 55.2082 322.351 43.9443C322.351 32.6803 316.086 26.6095 305.407 26.6095H290.364ZM300.701 34.8258H303.944C308.893 34.8258 311.819 38.0197 311.819 43.9443C311.819 50.4296 309.113 53.5747 303.944 53.5747H300.701V34.8258Z" fill="black"/>
<path d="M340.731 26.6095H330.393V49.2593C330.393 57.2806 336.61 62.4006 345.899 62.4006C355.188 62.4006 361.406 57.2806 361.406 49.2593V26.6095H351.068V48.1134C351.068 51.8193 349.239 53.8429 345.899 53.8429C342.559 53.8429 340.731 51.8193 340.731 48.1134V26.6095Z" fill="black"/>
<path d="M389.536 61.7911V34.8258H398.801V26.6095H369.934V34.8258H379.199V61.7911H389.536Z" fill="black"/>
<path d="M427.98 61.7911V50.649L440 26.6095H429.199L423.031 40.8723H422.836L416.668 26.6095H405.623L417.643 50.649V61.7911H427.98Z" fill="black"/>
<path d="M94.0639 41.6525H94.259L99.5008 61.7911H109.253L118.323 26.6095H107.644L103.597 48.8448H103.402L98.1599 26.6095H90.163L84.9211 48.8448H84.726L80.6788 26.6095H70L79.0697 61.7911H88.822L94.0639 41.6525Z" fill="black"/>
<path d="M146.527 61.7911H157.547L146.063 26.6095H133.093L121.609 61.7911H132.142L133.97 54.7938H144.698L146.527 61.7911ZM139.237 34.7283H139.432L142.821 47.5039H135.848L139.237 34.7283Z" fill="black"/>
<path d="M211.029 62.4006C220.514 62.4006 227.365 56.3785 227.413 47.6014H217.515C217.198 51.673 214.613 54.2818 211.054 54.2818C206.763 54.2818 204.105 50.5271 204.105 44.1637C204.105 37.8735 206.787 34.1188 211.029 34.1188C214.613 34.1188 217.222 36.7763 217.466 40.7748H227.365C227.34 32.0465 220.319 26 211.029 26C200.277 26 193.573 32.5828 193.573 44.1881C193.573 55.7934 200.253 62.4006 211.029 62.4006Z" fill="black"/>
<path d="M268.394 61.7911V26.6095H258.056V39.9702H245.671V26.6095H235.333V61.7911H245.671V48.1866H258.056V61.7911H268.394Z" fill="black"/>
<path d="M179.339 61.7911V34.8258H188.603V26.6095H159.736V34.8258H169.001V61.7911H179.339Z" fill="black"/>
<path d="M35.5 22.0405C35.5 22.0405 32.0676 6.81069 19.3487 0.0577594C18.9829 -0.136479 18.555 0.188123 18.5958 0.600324C19.1989 6.70461 13.959 12.6965 9.83421 17.4133C8.47263 18.9703 7.23257 20.3883 6.3643 21.6255C2.40651 26.0483 0 31.8884 0 38.2906C0 45.4678 3.02447 51.9386 7.86842 56.498L22.1715 70.8012C23.7336 72.3633 26.2663 72.3633 27.8284 70.8012L42.1305 56.499C46.9751 51.9395 50 45.4683 50 38.2906C50 36.5782 49.8278 34.906 49.4999 33.2904C49.4999 33.2904 46.9629 19.2148 39.1993 10.546C38.8872 10.1975 38.3219 10.4557 38.3407 10.9232C38.6046 17.4565 36.3468 20.9381 35.6812 21.8162L35.5 22.0405Z" fill="#E25345"/>
<path opacity="0.6" d="M36.9916 56.6378C40.3827 53.4461 42.5 48.9164 42.5 43.8921C42.5 34.2271 34.665 26.3921 25 26.3921C15.335 26.3921 7.5 34.2271 7.5 43.8921C7.5 48.916 9.617 53.4454 13.0076 56.637L22.1715 65.801C23.7336 67.3631 26.2663 67.3631 27.8284 65.801L36.9916 56.6378Z" fill="#FBC02D"/>
<path opacity="0.6" d="M32.5376 55.9963C34.6691 53.9646 36 51.0812 36 47.883C36 41.7308 31.0751 36.7434 25 36.7434C18.9249 36.7434 14 41.7308 14 47.883C14 51.081 15.3307 53.9642 17.462 55.9959L22.1538 60.7472C23.7198 62.3332 26.2801 62.3332 27.8462 60.7472L32.5376 55.9963Z" fill="#FBC02D"/>
</svg>
