<svg id="Layer_1" data-name="Layer 1" xmlns="http://www.w3.org/2000/svg" viewBox="0 0 1920 360"><defs><style>.cls-1{fill:none;}.cls-2{fill:#0280c1;}.cls-3{fill:#414242;}</style></defs><title>Artboard 1</title><rect class="cls-1" x="60" y="34.6" width="1800" height="290.79"/><path class="cls-2" d="M946.64,258.65q-31.85,7.61-51.57,4.14-35.64-6.21-45.32-24.9-3.46-6.57-3.46-11.59a39.56,39.56,0,0,1,.68-8.13q2.1-10.72,13.33-22.84t31.32-23.19l18-10q6.21-57.45,72.32-98.27,26-16.28,43.6-16.27a31.86,31.86,0,0,1,10.73,1.73q11.4,4.16,11.41,14.88,0,18.67-25.25,38.75A240.52,240.52,0,0,1,992.31,124L932.1,160v10.21q0,7.78,3.11,20.58a173.77,173.77,0,0,1,57.45-20.06,151,151,0,0,1,26.63-2.78q28.38,0,32.19,18a33.7,33.7,0,0,1,.35,4.51q0,11.76-12.81,24.56-22.49,22.5-75.43,38.76,21.09,28.69,46.37,39.09,16.93,7.28,26.3,7.27t13-4a12.19,12.19,0,0,0,3.63-8.3q0-4.35-4.84-10.21-10.38-13.5-30.46-13.49a60.25,60.25,0,0,0-6.39.51c-2.89.35-4.32.17-4.32-.51-.7-1.85.91-3.13,4.84-3.81A117.42,117.42,0,0,1,1029,259q22.14,0,31.49,12.11,4.85,5.53,4.84,11.24t-4.15,11.6q-8,11.74-25.61,11.76-13.85,0-29.06-6.57Q970.86,283.9,946.64,258.65Zm-68.51-5.19A63.81,63.81,0,0,0,902.34,258a195,195,0,0,0,39.79-3.81q-17.64-20.38-25.25-40.48c-7.84,4.63-12.58,7.78-14.19,9.51s-2.55,2.55-2.77,2.43-.23-.86,0-2.25q1-7.59,13.15-17.64l.68-.35a109,109,0,0,1-4.84-31.14l-10,6.22q-19,13.16-28.89,27.35t-9.86,26.64Q860.13,246.88,878.13,253.46ZM1001.48,105q15.75-13.85,15.75-25.08t-11.78-11.25q-13.5,0-32.17,12.79-35.64,24.25-39.8,67.83,6.24-3.8,21.11-12.11Q985.73,118.85,1001.48,105Zm42,87.54q0-9.68-20.08-9.68-33.91,0-85.13,20.76a160.49,160.49,0,0,0,21.81,45.67Q1002.36,236.18,1029,213,1043.51,200.5,1043.53,192.55Z"/><path class="cls-3" d="M1202,254q-17.82-5.94-28-15.38l9-18.91h0q12.91,11.63,35.5,17.44a67.94,67.94,0,0,0,13.31,2q26.55,1.35,38.67-7,10.41-7.14,10.41-19,0-8.72-5.69-14.18a38,38,0,0,0-14.05-8.35q-8.37-2.91-23.63-6.54a244.12,244.12,0,0,1-30.89-9.22,51,51,0,0,1-20.12-14.17q-8.36-9.57-8.35-25.8a43.68,43.68,0,0,1,7.14-24.47Q1192.43,99.55,1207,93t36.1-6.55a114.59,114.59,0,0,1,29.57,3.88,78.54,78.54,0,0,1,25,11.15l-8,19.38h0a87.88,87.88,0,0,0-22.77-10.3,85.45,85.45,0,0,0-23.75-3.5q-20.58,0-30.9,7.5T1201.87,134a18.56,18.56,0,0,0,5.82,14.18,40.37,40.37,0,0,0,14.41,8.48,227.81,227.81,0,0,0,23.39,6.41,236.93,236.93,0,0,1,30.77,9.22,51.71,51.71,0,0,1,20,14q8.37,9.45,8.36,25.45a43.26,43.26,0,0,1-7.27,24.35q-7.26,11-22,17.44t-36.35,6.42A115.89,115.89,0,0,1,1202,254Z"/><path class="cls-3" d="M1395.23,182.65l-31,31.51V258H1340V88.4h24.24v94.74l92.07-94.74h27.63l-72.46,76.32L1488.51,258h-28.35Z"/><path class="cls-3" d="M1514.2,88.4h24.23V258H1514.2Z"/><path class="cls-3" d="M1589.3,88.4h24.24V236.93h91.83V258H1589.3Z"/><path class="cls-3" d="M1733.24,88.4h24.24V236.93h91.83V258H1733.24Z"/><path class="cls-3" d="M322.57,88.39,265.87,258H240.42L194.15,122.55,147.87,258H121.94L65.24,88.39h25L136,226.26,183.73,88.39H206L252.78,227l46.78-138.6Z"/><path class="cls-3" d="M373.88,88.39h24.24V258H373.88Z"/><path class="cls-3" d="M459.88,88.39h24.24V236.92H576V258H459.88Z"/><path class="cls-3" d="M614.69,88.39h24.24V236.92h91.83V258H614.69Z"/></svg>