<?xml version="1.0" encoding="UTF-8"?>
<svg width="1422px" height="371px" viewBox="0 0 1422 371" version="1.1" xmlns="http://www.w3.org/2000/svg" xmlns:xlink="http://www.w3.org/1999/xlink">
    <!-- Generator: Sketch 42 (36781) - http://www.bohemiancoding.com/sketch -->
    <title>wuxus_logo</title>
    <desc>Created with Sketch.</desc>
    <defs>
        <polygon id="path-1" points="0.06 290.556 0.06 0.035 131.9845 0.035 263.909 0.035 263.909 290.556 0.06 290.556"></polygon>
        <polygon id="path-3" points="865.32 76.5625 865.32 152.94 0.216 152.94 0.216 0.185 865.32 0.185 865.32 76.5625"></polygon>
    </defs>
    <g id="Page-1" stroke="none" stroke-width="1" fill="none" fill-rule="evenodd">
        <g id="wuxus_logo">
            <g id="wuxus-logo-blue-rgb" transform="translate(2.000000, 2.000000)">
                <g id="Group-3">
                    <mask id="mask-2" fill="white">
                        <use xlink:href="#path-1"></use>
                    </mask>
                    <g id="Clip-2"></g>
                    <polyline id="Fill-1" fill="#3C0CD1" mask="url(#mask-2)" points="226.786 170.686 194.87 189.185 85.67 0.035 0 0.035 167.729 290.556 263.909 234.922 226.786 170.686"></polyline>
                </g>
                <path d="M299.637,74.226 L381.703,216.365 L463.768,74.226 L299.637,74.226 Z M381.703,364.747 L171.135,0.035 L592.27,0.035 L381.703,364.747 L381.703,364.747 Z" id="Fill-4" fill="#3C0CD1"></path>
                <g id="Group-11" transform="translate(552.000000, 214.000000)">
                    <mask id="mask-4" fill="white">
                        <use xlink:href="#path-3"></use>
                    </mask>
                    <g id="Clip-6"></g>
                    <polyline id="Fill-5" fill="#3C0CD1" mask="url(#mask-4)" points="124.39 105.558 106.683 150.813 54.214 150.813 0.216 2.154 52.247 2.154 84.822 96.816 103.403 48.498 87.664 2.154 140.133 2.154 166.148 88.727 194.569 2.154 247.255 2.154 193.258 150.813 140.789 150.813 124.39 105.558"></polyline>
                    <path d="M307.609,81.948 C307.609,99.22 316.354,108.838 331.439,108.838 C346.962,108.838 355.707,99.22 355.707,81.948 L355.707,2.154 L403.802,2.154 L403.802,85.229 C403.802,121.737 377.567,153 331.439,153 C285.748,153 259.514,124.582 259.514,85.229 L259.514,2.154 L307.609,2.154 L307.609,81.948" id="Fill-7" fill="#3C0CD1" mask="url(#mask-4)"></path>
                    <polyline id="Fill-8" fill="#3C0CD1" mask="url(#mask-4)" points="576.56 5.435 530 76.704 576.56 147.315 576.56 150.813 521.47 150.813 496.33 107.963 471.19 150.813 416.095 150.813 416.095 147.315 462.44 76.704 416.095 5.435 416.095 2.154 470.75 2.154 496.33 45.658 521.91 2.154 576.56 2.154 576.56 5.435"></polyline>
                    <path d="M636.95,81.948 C636.95,99.22 645.7,108.838 660.78,108.838 C676.31,108.838 685.05,99.22 685.05,81.948 L685.05,2.154 L733.15,2.154 L733.15,85.229 C733.15,121.737 706.91,153 660.78,153 C615.09,153 588.86,124.582 588.86,85.229 L588.86,2.154 L636.95,2.154 L636.95,81.948" id="Fill-9" fill="#3C0CD1" mask="url(#mask-4)"></path>
                    <path d="M780.28,89.82 C756.01,82.607 745.3,70.579 745.3,49.156 C745.3,21.173 768.69,0.185 808.7,0.185 C829.69,0.185 851.11,5.652 862.92,11.99 L849.58,51.996 C837.56,44.347 820.29,38.445 806.51,38.445 C797.77,38.445 793.4,41.725 793.4,46.534 C793.4,49.814 795.36,51.561 801.7,53.53 L825.75,61.178 C853.96,70.144 865.32,83.042 865.32,102.501 C865.32,131.795 842.15,153 802.58,153 C780.06,153 757.54,145.569 747.49,140.102 L758.64,99.438 C770.88,107.745 789.02,114.741 803.45,114.741 C812.42,114.741 816.79,110.149 816.79,105.34 C816.79,101.625 813.07,99.003 807.17,97.251 L780.28,89.82" id="Fill-10" fill="#3C0CD1" mask="url(#mask-4)"></path>
                </g>
            </g>
        </g>
    </g>
</svg>