<svg width="176" height="62" viewBox="0 0 176 62" fill="none" xmlns="http://www.w3.org/2000/svg">
<g id="Logo" clip-path="url(#clip0_3624_6615)">
<path id="Vector" d="M76.446 10.5664L78.5489 8.40768L84.5623 16.8595H87.4594L80.2325 6.72867L86.8113 0H83.6156L76.446 7.37881V0H74.0508V16.8595H76.446V10.5664Z" fill="white"/>
<path id="Vector_2" d="M93.257 17.1535C96.0906 17.1535 98.1427 15.7459 98.7462 13.3884L98.7748 13.2811L96.6496 12.7793L96.6242 12.8834C96.278 14.3289 95.0359 15.1557 93.257 15.1557C91.1573 15.1557 89.6992 13.6661 89.5213 11.3685H99.0258V11.2738C99.048 11.0624 99.0734 10.6426 99.0734 10.327C99.0734 7.00055 96.602 4.58301 93.1966 4.58301C89.7024 4.58301 87.25 7.17097 87.25 10.873C87.25 14.5182 89.7722 17.163 93.2443 17.163M89.6452 9.4591C90.074 7.59389 91.3923 6.48611 93.1966 6.48611C95.1217 6.48611 96.4495 7.62229 96.6909 9.4591H89.6452Z" fill="white"/>
<path id="Vector_3" d="M102.822 21.2906H105.135L111.539 4.76562H109.223L105.758 13.7509L102.314 4.8319L102.289 4.76562H99.8555L104.611 16.6891L102.822 21.2906Z" fill="white"/>
<path id="Vector_4" d="M115.756 16.9637H117.903L120.648 8.11102L123.392 16.9637H125.536L129.313 4.76562H126.956L124.447 13.6467L121.709 4.76562H119.587L116.845 13.6467L114.313 4.76562H112.004L115.733 16.888L115.756 16.9637Z" fill="white"/>
<path id="Vector_5" d="M135.932 4.57324C132.32 4.57324 129.699 7.22113 129.699 10.8632C129.699 14.5053 132.32 17.1532 135.932 17.1532C139.544 17.1532 142.193 14.5084 142.193 10.8632C142.193 7.21798 139.559 4.57324 135.932 4.57324ZM139.871 10.8632C139.871 13.388 138.251 15.1333 135.932 15.1333C133.613 15.1333 131.996 13.3786 131.996 10.8632C131.996 8.34784 133.616 6.59623 135.932 6.59623C138.248 6.59623 139.871 8.35099 139.871 10.8632Z" fill="white"/>
<path id="Vector_6" d="M149.985 4.57343C148.594 4.57343 147.126 5.52024 146.335 6.85524V4.76595H144.086V16.964H146.335V12.2899C146.335 8.81828 147.625 6.66585 149.699 6.66585C150.217 6.66155 150.732 6.75582 151.214 6.94358L151.354 7.00356L151.487 4.82273L151.411 4.79434C150.951 4.64357 150.469 4.56895 149.985 4.57343Z" fill="white"/>
<path id="Vector_7" d="M161.4 6.26508C160.917 5.72902 160.324 5.30099 159.662 5.00937C159 4.71774 158.283 4.56918 157.559 4.57345C153.976 4.57345 151.66 7.0446 151.66 10.8634C151.66 14.6822 153.985 17.1534 157.585 17.1534C159.173 17.1534 160.688 16.4906 161.397 15.5028V16.964H163.646V0.104492H161.397L161.4 6.26508ZM161.593 10.8634C161.593 13.4577 160.094 15.1335 157.782 15.1335C155.469 15.1335 153.97 13.4577 153.97 10.8634C153.97 8.26914 155.469 6.59644 157.782 6.59644C160.094 6.59644 161.593 8.2723 161.593 10.8634Z" fill="white"/>
<path id="Vector_8" d="M170.77 9.45562C169.391 9.12108 168.203 8.82442 168.203 7.84289C168.203 6.97182 168.997 6.45423 170.322 6.45423C170.926 6.43651 171.52 6.61694 172.012 6.9677C172.503 7.31845 172.865 7.82007 173.041 8.39519L173.076 8.51513L174.982 7.69137L174.956 7.59987C174.445 5.81986 172.564 4.57324 170.376 4.57324C167.777 4.57324 166.033 5.89876 166.033 7.86812C166.033 10.4434 168.187 10.9895 170.09 11.4723C171.637 11.8637 172.974 12.2014 172.974 13.5048C172.974 14.4863 171.97 15.228 170.639 15.228C169.051 15.228 167.993 14.3948 167.463 12.7568L167.428 12.6432L165.48 13.4922L165.509 13.5837C166.049 15.31 167.679 17.1532 170.639 17.1532C173.311 17.1532 175.176 15.6414 175.176 13.4796C175.176 10.5192 172.742 9.92902 170.776 9.45562" fill="white"/>
<path id="Vector_9" d="M79.9848 30.7869C77.993 30.2535 76.2713 29.7927 76.2713 28.2368C76.2713 26.785 77.5197 25.9171 79.6099 25.9171C81.6398 25.9171 83.047 26.987 83.3806 28.7797L83.4028 28.9059L85.5947 28.0664V27.9812C85.1563 25.4563 82.758 23.7773 79.6258 23.7773C76.2363 23.7773 73.8698 25.611 73.8698 28.2368C73.8698 31.4718 76.7065 32.3049 79.2128 33.0371C81.3634 33.6683 83.3933 34.2617 83.3933 36.25C83.3933 37.847 81.9511 38.8758 79.7211 38.8758C77.4911 38.8758 75.7948 37.3672 75.4708 35.117L75.4549 34.9907L73.1836 35.7261V35.8176C73.7459 38.9263 76.3602 41.0156 79.6576 41.0156C83.3584 41.0156 85.8425 39.0904 85.8425 36.2247C85.8425 32.3523 82.596 31.4907 79.9848 30.7869Z" fill="white"/>
<path id="Vector_10" d="M94.3236 38.6738C93.8691 38.8909 93.3697 38.999 92.8655 38.9894C91.8077 38.9894 91.201 38.3582 91.201 37.2157V30.6417H94.4316V28.6439H91.2169V24.9893H88.9678V28.6282H86.7188V30.6259H88.9678V37.1305C88.9678 39.5985 90.3084 41.0156 92.6432 41.0156C93.2969 41.0301 93.9483 40.9319 94.5682 40.7252L94.6477 40.6968L94.4825 38.6044L94.3236 38.6738Z" fill="white"/>
<path id="Vector_11" d="M104.7 33.9907C104.7 37.0647 103.328 38.971 101.12 38.971C99.5315 38.971 98.4991 37.9231 98.4991 36.2978V28.6286H96.25V36.667C96.25 39.2234 98.067 41.0066 100.666 41.0066C101.468 41.0073 102.258 40.8077 102.963 40.4261C103.668 40.0445 104.265 39.4931 104.7 38.8226V40.8172H106.949V28.6191H104.7V33.9907Z" fill="white"/>
<path id="Vector_12" d="M118.65 30.1278C118.166 29.5928 117.574 29.1657 116.912 28.8747C116.25 28.5836 115.533 28.4353 114.809 28.4393C111.226 28.4393 108.91 30.9073 108.91 34.7293C108.91 38.5512 111.235 41.0161 114.831 41.0161C116.436 41.0161 117.938 40.3534 118.643 39.3655V40.8268H120.892V23.7842H118.643L118.65 30.1278ZM118.84 34.7293C118.84 37.3204 117.344 38.9963 115.028 38.9963C112.713 38.9963 111.216 37.3204 111.216 34.7293C111.216 32.1382 112.716 30.4592 115.028 30.4592C117.341 30.4592 118.84 32.135 118.84 34.7293Z" fill="white"/>
<path id="Vector_13" d="M124.622 23.699C124.321 23.7064 124.03 23.8016 123.783 23.9727C123.537 24.1437 123.346 24.3831 123.236 24.6609C123.125 24.9387 123.1 25.2427 123.162 25.5349C123.224 25.8271 123.372 26.0946 123.586 26.3041C123.801 26.5136 124.072 26.6558 124.367 26.7129C124.662 26.77 124.968 26.7395 125.246 26.6253C125.523 26.511 125.761 26.3181 125.929 26.0704C126.097 25.8228 126.189 25.5315 126.191 25.2328C126.194 25.0284 126.156 24.8255 126.077 24.6363C125.999 24.4472 125.883 24.2757 125.737 24.1323C125.59 23.9889 125.416 23.8766 125.224 23.8021C125.032 23.7276 124.828 23.6926 124.622 23.699Z" fill="white"/>
<path id="Vector_14" d="M125.761 28.6279H123.512V40.826H125.761V28.6279Z" fill="white"/>
<path id="Vector_15" d="M134.122 28.4395C130.511 28.4395 127.887 31.0842 127.887 34.7294C127.887 38.3746 130.511 41.0162 134.122 41.0162C137.734 41.0162 140.38 38.3715 140.38 34.7294C140.38 31.0873 137.747 28.4395 134.122 28.4395ZM138.058 34.7294C138.058 37.2542 136.438 38.9964 134.122 38.9964C131.807 38.9964 130.183 37.2416 130.183 34.7294C130.183 32.2172 131.804 30.4593 134.122 30.4593C136.441 30.4593 138.058 32.214 138.058 34.7294Z" fill="white"/>
<path id="Vector_16" d="M146.864 33.3187C145.489 32.9873 144.3 32.6875 144.3 31.7091C144.3 30.838 145.091 30.3173 146.419 30.3173C147.024 30.3006 147.617 30.4815 148.108 30.8321C148.6 31.1827 148.961 31.6837 149.138 32.2582L149.17 32.3782L151.076 31.5545L151.051 31.4661C150.543 29.6829 148.659 28.4395 146.473 28.4395C143.875 28.4395 142.128 29.7618 142.128 31.7312C142.128 34.3097 144.285 34.8557 146.187 35.3354C147.734 35.7299 149.069 36.0676 149.069 37.3678C149.069 38.3494 148.065 39.0911 146.737 39.0911C145.149 39.0911 144.091 38.261 143.56 36.6199L143.522 36.5094L141.578 37.3553L141.607 37.4467C142.147 39.1731 143.776 41.0162 146.737 41.0162C149.405 41.0162 151.27 39.5077 151.27 37.3458C151.27 34.3854 148.837 33.7921 146.87 33.3187" fill="white"/>
<path id="Vector_17" d="M75.0528 49.4238H74.1094V59.2202H75.0528V49.4238Z" fill="white"/>
<path id="Vector_18" d="M77.1523 52.1658H78.0386V53.6334C78.178 53.1684 78.4675 52.762 78.8625 52.4768C79.2575 52.1916 79.736 52.0435 80.2242 52.0553C81.4059 52.0553 82.3779 52.6171 82.6035 53.6334C82.7797 53.1754 83.0899 52.7804 83.4942 52.4991C83.8984 52.2179 84.3781 52.0633 84.8716 52.0553C86.3805 52.0553 87.3239 52.98 87.3239 54.5202V59.2227H86.4345V54.6307C86.4345 53.5829 85.8309 52.8664 84.7318 52.8664C83.4071 52.8664 82.6733 54.072 82.6733 55.7069V59.2195H81.7871V54.6275C81.7871 53.5797 81.1962 52.8633 80.0971 52.8633C78.7724 52.8633 78.0386 54.0689 78.0386 55.7037V59.2164H77.1523V52.1658Z" fill="white"/>
<path id="Vector_19" d="M94.7881 54.5712V59.2201H93.9018V57.9324C93.6553 58.3739 93.2899 58.7384 92.8467 58.9853C92.4035 59.2323 91.9 59.3518 91.3923 59.3306C89.9564 59.3306 88.9844 58.491 88.9844 57.2602C88.9844 55.9031 90.1248 55.1741 92.4787 54.9374L93.9018 54.7953V54.5996C93.9018 53.5361 93.1267 52.8638 91.9958 52.8638C90.9094 52.8638 90.1629 53.495 90.0359 54.5302L89.1781 54.3629C89.3878 52.9774 90.5155 52.0527 91.9958 52.0527C93.6413 52.0527 94.7976 53.0753 94.7976 54.5776M93.9113 55.9631V55.5433L92.5168 55.6853C90.7982 55.8652 89.9247 56.3986 89.9247 57.2634C89.9247 58.0176 90.56 58.5258 91.4717 58.5258C93.0092 58.5258 93.9113 57.579 93.9113 55.9631Z" fill="white"/>
<path id="Vector_20" d="M103.153 52.1664V58.9519C103.153 60.6877 101.829 61.8776 99.9575 61.8776C98.3088 61.8776 97.054 61.0096 96.873 59.7662L97.7592 59.6115C97.8164 60.4636 98.7313 61.0791 99.9575 61.0791C101.308 61.0791 102.28 60.2554 102.28 59.0371V57.9452C101.962 58.5764 100.955 59.0498 99.8431 59.0498C97.6036 59.0498 96.4219 57.497 96.4219 55.5529C96.4219 53.6087 97.6036 52.0528 99.8304 52.0528C100.303 52.0493 100.771 52.1549 101.196 52.3613C101.621 52.5678 101.992 52.8695 102.28 53.2427V52.1664H103.153ZM102.365 55.5529C102.365 53.9275 101.381 52.8639 99.8717 52.8639C98.3628 52.8639 97.3653 53.9275 97.3653 55.5529C97.3653 57.1782 98.3501 58.2386 99.8717 58.2386C101.393 58.2386 102.365 57.1751 102.365 55.5529Z" fill="white"/>
<path id="Vector_21" d="M106.101 52.166H105.215V59.2198H106.101V52.166Z" fill="white"/>
<path id="Vector_22" d="M108.156 52.1657H109.043V53.6333C109.282 53.1657 109.645 52.7718 110.093 52.4938C110.54 52.2158 111.056 52.0642 111.584 52.0552C111.916 52.0373 112.248 52.0886 112.558 52.2058C112.869 52.3229 113.152 52.5034 113.388 52.7355C113.624 52.9676 113.809 53.2463 113.931 53.5537C114.052 53.861 114.108 54.1902 114.093 54.5201V59.2226H113.204V54.6306C113.222 54.3969 113.189 54.1621 113.107 53.942C113.026 53.7219 112.899 53.5217 112.733 53.3546C112.568 53.1875 112.368 53.0575 112.148 52.9733C111.928 52.8891 111.692 52.8526 111.457 52.8663C110.021 52.8663 109.049 54.1288 109.049 56.1297V59.2226H108.163L108.156 52.1657Z" fill="white"/>
<path id="Vector_23" d="M122.397 55.7769H116.629C116.629 57.4149 117.671 58.5195 119.107 58.5195C120.32 58.5195 121.165 57.9609 121.375 56.9667L122.22 57.134C121.902 58.5321 120.742 59.3432 119.122 59.3432C117.108 59.3432 115.727 57.8031 115.727 55.7043C115.727 53.6055 117.108 52.0654 119.122 52.0654C121.066 52.0654 122.432 53.4225 122.432 55.3288C122.432 55.4518 122.432 55.6917 122.404 55.7895M121.518 54.9784C121.477 54.3856 121.202 53.8326 120.754 53.4391C120.306 53.0457 119.72 52.8436 119.122 52.8765C117.868 52.8765 116.953 53.675 116.699 54.9784H121.518Z" fill="white"/>
<path id="Vector_24" d="M127.512 49.4238H128.735L132.229 57.8347L135.723 49.4238H136.949V59.2202H135.977V51.2133L132.667 59.2202H131.794L128.484 51.2133V59.2202H127.512V49.4238Z" fill="white"/>
<path id="Vector_25" d="M138.629 55.6917C138.629 53.5645 140.109 52.0527 142.193 52.0527C144.277 52.0527 145.757 53.5645 145.757 55.6917C145.757 57.8188 144.264 59.3306 142.193 59.3306C140.122 59.3306 138.629 57.8188 138.629 55.6917ZM144.827 55.6917C144.827 54.041 143.756 52.8512 142.193 52.8512C140.63 52.8512 139.56 54.0253 139.56 55.6917C139.56 57.358 140.614 58.5321 142.193 58.5321C143.772 58.5321 144.827 57.358 144.827 55.6917Z" fill="white"/>
<path id="Vector_26" d="M150.393 52.8639C149.208 52.8639 148.28 54.0822 148.28 56.4902V59.2202H147.391V52.1665H148.28V53.6624C148.715 52.7156 149.659 52.0528 150.532 52.0528C150.819 52.0503 151.104 52.0929 151.377 52.1791L151.323 53.0344C151.027 52.9194 150.711 52.8616 150.393 52.8639Z" fill="white"/>
<path id="Vector_27" d="M158.521 55.7769H152.746C152.746 57.4149 153.788 58.5195 155.224 58.5195C156.434 58.5195 157.279 57.9609 157.492 56.9667L158.337 57.134C158.019 58.5321 156.856 59.3432 155.236 59.3432C153.222 59.3432 151.844 57.8031 151.844 55.7043C151.844 53.6055 153.222 52.0654 155.236 52.0654C157.181 52.0654 158.546 53.4225 158.546 55.3288C158.546 55.4518 158.546 55.6917 158.521 55.7895M157.632 54.9784C157.592 54.3853 157.317 53.8318 156.869 53.4382C156.421 53.0446 155.834 52.8428 155.236 52.8765C153.985 52.8765 153.067 53.675 152.816 54.9784H157.632Z" fill="white"/>
<path id="Vector_28" d="M106.314 49.9947C106.317 50.1239 106.281 50.2512 106.211 50.3599C106.141 50.4687 106.039 50.5541 105.919 50.605C105.8 50.6559 105.668 50.67 105.54 50.6456C105.412 50.6211 105.294 50.5592 105.202 50.4678C105.11 50.3764 105.048 50.2596 105.023 50.1327C104.999 50.0057 105.013 49.8744 105.064 49.7555C105.116 49.6367 105.201 49.5358 105.311 49.4659C105.42 49.396 105.549 49.3604 105.679 49.3635C105.847 49.3635 106.009 49.43 106.128 49.5484C106.247 49.6667 106.314 49.8273 106.314 49.9947Z" fill="white"/>
<path id="Vector_29" d="M28.6088 0H0V28.4264H28.6088V0Z" fill="white"/>
<path id="Vector_30" d="M28.6088 30.793H0V59.2194H28.6088V30.793Z" fill="white"/>
<path id="Vector_31" d="M30.957 0V28.4233C34.7143 28.4237 38.4348 27.6888 41.9061 26.2606C45.3774 24.8324 48.5316 22.7388 51.1885 20.0994C53.8454 17.46 55.953 14.3265 57.3909 10.8778C58.8289 7.42917 59.569 3.73286 59.569 0H30.957Z" fill="white"/>
<path id="Vector_32" d="M30.9961 59.2194H59.608C59.608 51.6802 56.5936 44.4498 51.2278 39.1189C45.862 33.7879 38.5845 30.793 30.9961 30.793V59.2194Z" fill="white"/>
</g>
<defs>
<clipPath id="clip0_3624_6615">
<rect width="176" height="62" fill="white"/>
</clipPath>
</defs>
</svg>
