<?xml version="1.0" encoding="utf-8"?>
<!-- Generator: Adobe Illustrator 15.1.0, SVG Export Plug-In . SVG Version: 6.00 Build 0)  -->
<!DOCTYPE svg PUBLIC "-//W3C//DTD SVG 1.1//EN" "http://www.w3.org/Graphics/SVG/1.1/DTD/svg11.dtd">
<svg version="1.1" id="Layer_1" xmlns="http://www.w3.org/2000/svg" xmlns:xlink="http://www.w3.org/1999/xlink" x="0px" y="0px"
	 width="315px" height="86.392px" viewBox="0 0 315 86.392" enable-background="new 0 0 315 86.392" xml:space="preserve">
<g>
	<defs>
		<rect id="SVGID_1_" y="0.05" width="315" height="86.342"/>
	</defs>
	<clipPath id="SVGID_2_">
		<use xlink:href="#SVGID_1_"  overflow="visible"/>
	</clipPath>
	<path clip-path="url(#SVGID_2_)" fill="#00539B" d="M298.763,53.271c-1.905-2.039-4.801-3.07-8.6-3.07
		c-2.815,0-5.31,0.651-7.262,1.89c-1.547-1.223-3.546-1.89-5.704-1.89c-0.991,0-1.938,0.11-2.82,0.327h-5.318l4.891-50.479H8.461
		l-8.46,87.318h265.487l1.374-14.171h17.735l0.024-0.248c1.277,0.38,2.666,0.576,4.153,0.576c6.766,0,11.329-3.412,11.904-8.903
		c0.071-0.682,0.063-1.366-0.022-2.037l0.208-3.142C301.027,57.05,300.302,54.913,298.763,53.271"/>
	<polygon clip-path="url(#SVGID_2_)" fill="#FFFFFF" points="31.086,16.11 38.188,16.11 36.394,33.244 46.587,33.244 45.97,39.151 
		28.677,39.151 	"/>
	<path clip-path="url(#SVGID_2_)" fill="#FFFFFF" d="M59.243,31.632c-0.815,0.386-1.711,0.61-2.6,0.806
		c-1.457,0.32-2.233,0.678-2.353,1.807c-0.081,0.774,0.676,1.549,1.84,1.549c1.449,0,2.669-0.872,2.951-2.614L59.243,31.632z
		 M64.977,35.407c-0.131,1.258-0.214,2.678,0.384,3.745h-6.518c-0.114-0.452-0.14-1.131-0.06-1.585h-0.063
		c-1.519,1.552-3.535,2.002-5.599,2.002c-3.228,0-5.741-1.548-5.375-5.065c0.554-5.292,6.728-5.1,10.051-5.713
		c0.889-0.16,1.786-0.42,1.898-1.483c0.119-1.131-0.902-1.553-1.935-1.55c-1.966,0-2.461,1-2.567,1.712h-5.936
		c0.685-4.713,5.218-5.485,9.19-5.485c8,0,7.588,3.322,7.25,6.549L64.977,35.407z"/>
	<path clip-path="url(#SVGID_2_)" fill="#FFFFFF" d="M68.435,22.4h6.164l-0.224,2.132h0.064c1.37-1.678,3.171-2.548,5.72-2.548
		c3.002,0,5.553,1.836,5.149,5.678l-1.202,11.49h-6.389l0.919-8.78c0.201-1.936,0.12-3.291-1.753-3.291
		c-1.097,0-2.606,0.548-2.886,3.227l-0.925,8.845h-6.39L68.435,22.4z"/>
	<path clip-path="url(#SVGID_2_)" fill="#FFFFFF" d="M95.061,34.052c2.354,0,2.85-2.259,3.046-4.131
		c0.192-1.838-0.559-3.292-2.43-3.292c-1.808,0-2.875,1.549-3.059,3.324C92.42,31.857,92.771,34.052,95.061,34.052 M103.594,36.987
		c-0.348,3.324-1.709,8.005-9.549,8.005c-3.97,0-8.051-1.066-8.16-5.585h6.325c0.048,0.161,0.183,0.389,0.294,0.581
		c0.325,0.583,0.935,1.227,1.743,1.227c2.063,0,2.772-2.453,2.918-3.839l0.162-1.551h-0.065c-1.187,1.485-2.825,2.323-4.729,2.323
		c-4.935,0-6.774-3.678-6.309-8.163c0.457-4.357,3.323-8.002,8.098-8.002c1.873,0,3.568,0.741,4.133,2.451h0.063l0.212-2.034h6.39
		L103.594,36.987z"/>
	<path clip-path="url(#SVGID_2_)" fill="#FFFFFF" d="M122.757,39.151h-6.162l0.223-2.131h-0.064
		c-1.371,1.68-3.172,2.548-5.721,2.548c-2.999,0-5.551-1.837-5.148-5.679l1.202-11.489h6.388l-0.917,8.779
		c-0.203,1.936-0.117,3.291,1.754,3.291c1.094,0,2.605-0.549,2.887-3.228l0.925-8.843h6.386L122.757,39.151z"/>
	<path clip-path="url(#SVGID_2_)" fill="#FFFFFF" d="M136.578,31.632c-0.813,0.386-1.711,0.61-2.601,0.806
		c-1.455,0.32-2.232,0.678-2.35,1.807c-0.083,0.774,0.674,1.549,1.835,1.549c1.453,0,2.673-0.872,2.954-2.614L136.578,31.632z
		 M142.315,35.407c-0.134,1.258-0.217,2.678,0.38,3.745h-6.518c-0.114-0.452-0.138-1.131-0.061-1.585h-0.062
		c-1.519,1.552-3.534,2.002-5.601,2.002c-3.226,0-5.74-1.548-5.372-5.065c0.553-5.292,6.727-5.1,10.052-5.713
		c0.887-0.16,1.785-0.42,1.896-1.483c0.12-1.131-0.901-1.553-1.935-1.553c-1.971,0-2.46,1.003-2.567,1.715h-5.938
		c0.688-4.713,5.22-5.485,9.191-5.485c8.001,0,7.588,3.322,7.251,6.549L142.315,35.407z"/>
	<path clip-path="url(#SVGID_2_)" fill="#FFFFFF" d="M153.423,34.052c2.357,0,2.853-2.259,3.047-4.131
		c0.192-1.84-0.558-3.292-2.431-3.292c-1.808,0-2.873,1.549-3.058,3.324C150.781,31.857,151.136,34.052,153.423,34.052
		 M161.957,36.987c-0.343,3.324-1.707,8.005-9.549,8.005c-3.967,0-8.052-1.066-8.158-5.585h6.323
		c0.048,0.161,0.184,0.389,0.294,0.581c0.325,0.583,0.935,1.227,1.743,1.227c2.065,0,2.772-2.453,2.917-3.839l0.164-1.551h-0.063
		c-1.187,1.485-2.824,2.323-4.729,2.323c-4.938,0-6.777-3.678-6.31-8.163c0.457-4.357,3.322-8.002,8.099-8.002
		c1.871,0,3.567,0.741,4.131,2.451h0.065l0.212-2.034h6.389L161.957,36.987z"/>
	<path clip-path="url(#SVGID_2_)" fill="#FFFFFF" d="M176.293,28.888c0.162-1.549-0.868-2.808-2.517-2.808
		c-1.901,0-3.101,1.001-3.582,2.808H176.293z M169.812,32.211c-0.035,1.904,0.919,3.261,2.92,3.261c1.028,0,2.204-0.388,2.8-1.196
		h5.973c-1.669,3.616-5.36,5.294-9.172,5.294c-5.353,0-9.057-3.164-8.474-8.744c0.514-4.874,4.478-8.841,9.768-8.841
		c6.647,0,9.133,3.709,8.449,10.227H169.812z"/>
	<polygon clip-path="url(#SVGID_2_)" fill="#FFFFFF" points="185.887,16.11 192.986,16.11 191.193,33.244 201.39,33.244 
		200.771,39.151 183.473,39.151 	"/>
	<path clip-path="url(#SVGID_2_)" fill="#FFFFFF" d="M210.874,20.594h-6.388l0.47-4.484h6.387L210.874,20.594z M204.298,22.4h6.391
		l-1.756,16.752h-6.391L204.298,22.4z"/>
	<path clip-path="url(#SVGID_2_)" fill="#FFFFFF" d="M213.039,22.4h6.162l-0.222,2.132h0.066c1.37-1.678,3.169-2.548,5.721-2.548
		c2.998,0,5.546,1.836,5.145,5.678l-1.2,11.49h-6.386l0.915-8.78c0.2-1.936,0.118-3.291-1.752-3.291
		c-1.096,0-2.606,0.548-2.888,3.225l-0.923,8.847h-6.391L213.039,22.4z"/>
	<path clip-path="url(#SVGID_2_)" fill="#FFFFFF" d="M243.496,28.888c0.162-1.549-0.867-2.808-2.517-2.808
		c-1.901,0-3.101,1.001-3.581,2.808H243.496z M237.019,32.211c-0.039,1.904,0.915,3.261,2.916,3.261
		c1.034,0,2.205-0.388,2.804-1.196h5.969c-1.668,3.616-5.36,5.294-9.168,5.294c-5.356,0-9.06-3.164-8.473-8.744
		c0.509-4.874,4.473-8.841,9.763-8.841c6.647,0,9.128,3.709,8.45,10.227H237.019z"/>
	<path clip-path="url(#SVGID_2_)" fill="#FFFFFF" d="M182.135,62.354c-0.043,0.453-0.011,0.857,0.083,1.185
		c0.297,1.084,1.476,1.312,2.51,1.312c0.91,0,2.33-0.302,2.469-1.639c0.099-0.934-0.658-1.186-3.669-2.069
		c-2.765-0.809-5.944-1.59-5.562-5.225c0.437-4.164,4.182-5.955,7.894-5.955c3.908,0,7.211,1.487,6.903,5.877h-5.252
		c0.175-0.68-0.09-1.121-0.503-1.436c-0.427-0.319-1.035-0.455-1.591-0.455c-0.762,0-2.056,0.199-2.122,1.211
		c-0.083,1.289,2.509,1.567,4.986,2.272c2.474,0.709,4.871,1.894,4.528,5.198c-0.493,4.696-4.966,6.21-8.979,6.21
		c-2.044,0-7.798-0.73-7.245-6.486H182.135z"/>
	<path clip-path="url(#SVGID_2_)" fill="#FFFFFF" d="M201.532,58.62c-1.894,0-2.339,1.843-2.486,3.229
		c-0.142,1.389-0.086,3.257,1.808,3.257c1.893,0,2.34-1.868,2.485-3.257C203.484,60.463,203.421,58.62,201.532,58.62
		 M200.471,68.738c-4.92,0-6.801-3.252-6.422-6.89c0.386-3.633,2.942-6.863,7.866-6.863c4.919,0,6.8,3.23,6.421,6.863
		C207.954,65.486,205.394,68.738,200.471,68.738"/>
	<polygon clip-path="url(#SVGID_2_)" fill="#FFFFFF" points="211.216,50.392 216.214,50.392 214.329,68.409 209.33,68.409 	"/>
	<path clip-path="url(#SVGID_2_)" fill="#FFFFFF" d="M230.187,68.409h-4.82l0.174-1.665h-0.052
		c-1.072,1.313-2.478,1.994-4.474,1.994c-2.346,0-4.344-1.438-4.023-4.441l0.939-8.98h4.993l-0.717,6.862
		c-0.157,1.512-0.092,2.574,1.368,2.574c0.864,0,2.044-0.431,2.261-2.524l0.727-6.912h4.993L230.187,68.409z"/>
	<path clip-path="url(#SVGID_2_)" fill="#FFFFFF" d="M240.286,55.314h2.674l-0.319,3.08h-2.679l-0.477,4.565
		c-0.122,1.213,0.099,1.741,1.356,1.741c0.378,0,0.762-0.024,1.145-0.076l-0.396,3.784c-1.01,0-2.161,0.154-3.219,0.154
		c-2.122,0-4.435-0.328-4.059-3.914l0.65-6.255h-2.217l0.319-3.08h2.221l0.418-3.988h4.998L240.286,55.314z"/>
	<path clip-path="url(#SVGID_2_)" fill="#FFFFFF" d="M250.168,53.9h-4.999l0.367-3.511h4.994L250.168,53.9z M245.023,55.314h4.993
		l-1.367,13.095h-4.999L245.023,55.314z"/>
	<path clip-path="url(#SVGID_2_)" fill="#FFFFFF" d="M258.735,58.62c-1.894,0-2.335,1.843-2.481,3.229
		c-0.146,1.389-0.086,3.257,1.803,3.257c1.895,0,2.339-1.868,2.484-3.257C260.688,60.463,260.629,58.62,258.735,58.62
		 M257.678,68.738c-4.919,0-6.801-3.256-6.422-6.89c0.383-3.633,2.943-6.863,7.862-6.863s6.805,3.23,6.422,6.863
		C265.161,65.482,262.598,68.738,257.678,68.738"/>
	<path clip-path="url(#SVGID_2_)" fill="#FFFFFF" d="M268.021,55.314h4.82l-0.178,1.662h0.052c1.069-1.309,2.478-1.991,4.473-1.991
		c2.349,0,4.34,1.439,4.028,4.441l-0.942,8.982h-4.995l0.719-6.863c0.154-1.512,0.091-2.572-1.373-2.572
		c-0.86,0-2.035,0.428-2.257,2.521l-0.722,6.915h-4.998L268.021,55.314z"/>
	<path clip-path="url(#SVGID_2_)" fill="#FFFFFF" d="M291.541,59.124c0.019-0.428-0.182-0.742-0.478-0.982
		c-0.288-0.241-0.667-0.382-1.074-0.382c-0.705,0-1.529,0.152-1.616,1.012c-0.039,0.376,0.24,0.558,0.508,0.679
		c0.793,0.367,2.675,0.466,4.284,1.011c1.609,0.54,2.975,1.515,2.749,3.66c-0.377,3.633-3.964,4.617-7.146,4.617
		c-3.077,0-6.332-1.236-6.052-4.617h4.769c-0.023,0.453,0.143,0.831,0.486,1.159c0.228,0.226,0.69,0.379,1.294,0.379
		c0.658,0,1.72-0.252,1.799-1.01c0.082-0.757-0.327-0.981-2.604-1.387c-3.745-0.657-5.157-1.867-4.923-4.115
		c0.347-3.305,3.996-4.16,6.619-4.16c2.828,0,6.149,0.779,5.929,4.137H291.541z"/>
	<path clip-path="url(#SVGID_2_)" fill="#00539B" d="M309.257,50.208c3.199,0,5.747,2.478,5.747,5.641
		c0,3.166-2.548,5.679-5.783,5.679s-5.814-2.513-5.814-5.679c0-3.163,2.579-5.641,5.814-5.641H309.257z M309.189,51.345
		c-2.446,0-4.34,2.027-4.34,4.504c0,2.513,1.894,4.508,4.407,4.508c2.445,0.036,4.3-1.995,4.3-4.472c0-2.513-1.854-4.54-4.336-4.54
		H309.189z M308.326,58.773h-1.307V53.13c0.518-0.067,1.238-0.171,2.17-0.171c1.061,0,1.547,0.171,1.924,0.448
		c0.344,0.238,0.589,0.653,0.589,1.202c0,0.689-0.521,1.137-1.172,1.343v0.069c0.548,0.171,0.825,0.617,0.999,1.376
		c0.173,0.861,0.308,1.169,0.413,1.376h-1.38c-0.17-0.207-0.273-0.688-0.446-1.376c-0.103-0.584-0.446-0.857-1.171-0.857h-0.619
		V58.773z M308.36,55.608h0.62c0.722,0,1.309-0.241,1.309-0.824c0-0.517-0.378-0.86-1.202-0.86c-0.347,0-0.588,0.032-0.727,0.066
		V55.608z"/>
</g>
</svg>
