<?xml version="1.0" encoding="UTF-8"?>
<svg width="130px" height="19px" viewBox="0 0 130 19" version="1.1" xmlns="http://www.w3.org/2000/svg" xmlns:xlink="http://www.w3.org/1999/xlink">
    <!-- Generator: Sketch 52.5 (67469) - http://www.bohemiancoding.com/sketch -->
    <title>Lionbridge-Logo / Black Color</title>
    <desc>Created with Sketch.</desc>
    <g id="Symbols" stroke="none" stroke-width="1" fill="none" fill-rule="evenodd">
        <g id="Navigation-/-2.0-/-Desktop" transform="translate(-30.000000, -68.000000)">
            <g id="Lionbridge-Logo-/-White-Color" transform="translate(30.000000, 68.000000)">
                <path d="M8.57492128,11.3866224 L2.53427988,11.335051 L2.53427988,1.81488776 C2.53427988,1.05488776 2.02906122,0.779193878 1.83349271,0.67294898 C1.63944023,0.573295918 1.4514519,0.527153061 1.24148105,0.527153061 C1.03795335,0.527153061 0.866262391,0.570581633 0.661597668,0.67527551 C0.377720117,0.830377551 -0.000151603499,1.11731633 -0.000151603499,1.81488776 L-0.000151603499,12.1175408 C-0.000151603499,12.7840918 0.328827988,13.3195816 0.644163265,13.5468061 C0.863988338,13.7263367 1.38853644,13.9097449 1.68378426,13.9097449 C1.70425073,13.9097449 1.73002332,13.9163367 1.75731195,13.9233163 C1.79521283,13.9330102 1.83841983,13.9446429 1.88806997,13.9446429 L8.57340525,13.9446429 C9.26964431,13.9446429 9.81465889,13.3637857 9.81465889,12.6220102 L9.81541691,12.5506633 C9.81769096,12.3932347 9.82034402,12.2144796 9.72066472,12.0109082 C9.50462974,11.596398 9.11841983,11.3866224 8.57492128,11.3866224" id="Fill-1" fill="#FFFFFF"></path>
                <path d="M47.588793,0.614126531 C46.7564898,0.614126531 46.2789388,1.07090204 46.2789388,1.86696327 L46.2789388,9.15792245 C45.0160816,7.54059592 43.7566356,5.92016735 42.4968105,4.29935102 C41.6493469,3.20937143 40.8022624,2.11900408 39.961621,1.04026939 C39.7311837,0.7068 39.3938659,0.544330612 38.9303382,0.544330612 C38.7537201,0.544330612 38.4914461,0.544330612 38.2936035,0.721534694 C37.881242,0.935187755 37.6887055,1.30045306 37.6887055,1.86696327 L37.6887055,12.6217388 C37.6887055,13.4278816 38.1340408,13.9098612 38.879551,13.9098612 L39.2195219,13.9098612 L39.270688,13.9032694 C39.7599883,13.7842286 40.1890262,13.1851469 40.1890262,12.6217388 L40.1890262,5.62547347 C42.2061108,8.26569796 44.2307755,10.8341878 46.374449,13.471698 C46.5768397,13.7741469 46.936519,13.9618204 47.3166647,13.9618204 L47.4189971,13.9618204 C47.6816501,13.9618204 47.9833411,13.9432082 48.2440991,13.7295551 C48.6386472,13.4821673 48.7792595,13.1901878 48.7792595,12.6217388 L48.7792595,1.90186122 C48.7792595,1.15543265 48.2785889,0.614126531 47.588793,0.614126531" id="Fill-4" fill="#FFFFFF"></path>
                <path d="M56.0585394,5.31278776 L56.0585394,2.85868571 L58.6782478,2.85868571 C59.6795889,2.85868571 60.8727085,3.07893061 60.8727085,4.12935918 C60.8727085,5.08207347 59.8167901,5.32713469 58.9287726,5.36513469 C58.6475481,5.36513469 58.3166735,5.35582857 57.9316006,5.34535918 C57.4210758,5.3314 56.7911633,5.31433878 56.0585394,5.31278776 M61.6383061,9.35048163 C61.6383061,10.7444612 60.5225044,11.5777469 59.4438455,11.5777469 L56.0585394,11.5777469 L56.0585394,7.71376735 L59.4438455,7.71376735 C59.9585394,7.71376735 61.6383061,7.83203265 61.6383061,9.35048163 M62.6078105,6.3271551 C62.541105,6.25309388 62.4774315,6.18252245 62.3978397,6.11931837 C62.8628834,5.63733878 63.3048076,4.8676449 63.3048076,3.97270612 C63.3048076,1.94397143 61.6822711,0.527114286 59.3589475,0.527114286 L54.6296764,0.527114286 C54.0005219,0.527114286 53.5074315,1.10835918 53.5074315,1.84935918 L53.5074315,12.6045224 C53.5074315,12.9616449 53.618102,13.2640939 53.8174606,13.4676653 C54.1199096,13.8181959 54.2991808,13.9271551 54.8339621,13.9271551 L59.9710466,13.9271551 C61.0136997,13.9271551 62.0893265,13.2268694 62.6919504,12.628951 C63.063758,12.2671755 63.324137,11.7979918 63.6019504,11.2667673 C63.8638455,10.7665633 64.0025627,10.1760122 64.0025627,9.55909388 C64.0025627,8.42878776 63.5951283,7.44078776 62.7131749,6.44076735 C62.674516,6.40121633 62.6400262,6.36321633 62.6078105,6.3271551" id="Fill-6" fill="#FFFFFF"></path>
                <path d="M75.7384927,4.07701224 C75.7384927,4.94286939 74.6730991,5.17009388 73.7775015,5.20809388 L70.855723,5.20809388 L70.855723,2.7854 L73.5781429,2.78035918 C74.5631866,2.78035918 75.7384927,2.91180816 75.7384927,4.07701224 M78.1876472,4.14680816 C78.1876472,1.96878776 76.5495714,0.387522449 74.2925743,0.387522449 L69.4276181,0.387522449 C69.207414,0.387522449 69.1156939,0.439869388 68.9530991,0.54417551 C68.5051108,0.82995102 68.2879388,1.22274694 68.2879388,1.74505306 C68.2879388,1.80437959 68.2894548,1.97072653 68.2921079,2.24331837 C68.3049942,3.53842041 68.339105,6.97897143 68.339105,12.7088286 C68.339105,13.5459918 68.8083178,14.0659714 69.5636822,14.0659714 C69.6978513,14.0659714 69.9593673,14.0473592 70.2246735,13.9100939 C70.6495423,13.6386653 70.855723,13.2454816 70.855723,12.7088286 L70.855723,7.66219592 L72.5324577,7.66219592 C72.6245569,7.78744082 72.7431866,8.01195102 72.934207,8.37450204 C73.3552857,9.17405306 74.1390758,10.6618694 75.8491633,13.3548286 C76.0416997,13.7231959 76.4586093,13.9620531 76.9119038,13.9620531 L77.0138571,13.9620531 C77.1832741,13.9620531 77.4375889,13.9620531 77.6369475,13.7662367 C77.9678222,13.4936449 78.1876472,13.2291959 78.1876472,12.8309714 C78.1876472,12.5242571 78.0781137,12.2900531 77.917793,11.9833388 C77.3356356,10.9906857 76.7337697,10.0189714 76.1516122,9.07905306 C75.8749359,8.63274694 75.5971224,8.18372653 75.317414,7.72695102 C75.9571808,7.6528898 78.1876472,6.69009388 78.1876472,4.14680816" id="Fill-8" fill="#FFFFFF"></path>
                <path d="M84.3746618,0.690242857 C84.1753032,0.58787551 83.9350117,0.527385714 83.731863,0.527385714 C83.5218921,0.527385714 83.3339038,0.573528571 83.1345452,0.675508163 C82.8726501,0.818589796 82.5239621,1.09195714 82.5239621,1.81473265 L82.5239621,12.6218551 C82.5239621,13.1616102 82.7464402,13.5563449 83.1906385,13.7990796 C83.38507,13.8983449 83.5730583,13.9444878 83.7826501,13.9444878 C83.992621,13.9444878 84.1806093,13.8983449 84.3799679,13.7959776 C84.6267026,13.6614265 85.0417172,13.3248551 85.0417172,12.5873449 L85.0417172,1.81473265 C85.0417172,1.14042653 84.687723,0.860855102 84.3746618,0.690242857" id="Fill-11" fill="#FFFFFF"></path>
                <path d="M98.2569563,6.87896939 L98.2569563,7.08796939 C98.2569563,9.85460204 96.8747114,11.3168265 94.259172,11.3168265 L92.2860525,11.3168265 L92.2860525,3.08478571 L94.5483557,3.08478571 C95.8358484,3.08478571 96.5661983,3.64276531 97.24993,4.25464286 C97.7142157,4.7292551 98.2569563,5.7017449 98.2569563,6.87896939 M100.335819,4.33141837 C99.8897259,3.05919388 99.1472478,2.20264286 97.7650029,1.37129592 C97.1873936,1.05721429 96.512379,0.843561224 96.0549155,0.709785714 C95.6289096,0.585316327 95.1017085,0.527153061 94.3956152,0.527153061 L91.0273644,0.527153061 C90.8931953,0.527153061 90.6316793,0.546153061 90.3788805,0.67527551 C89.9740991,0.896295918 89.7686764,1.29141837 89.7686764,1.84978571 L89.7686764,12.604949 C89.7686764,13.1381122 89.9968397,13.5328469 90.4520292,13.7817857 C90.6521458,13.8833776 90.8238367,13.9271939 91.0273644,13.9271939 L94.3956152,13.9271939 C94.8727872,13.9271939 95.3628455,13.8837653 95.816519,13.8011735 C96.2557901,13.7108265 96.7454694,13.5320714 97.2252945,13.3571939 C97.7206589,13.1761122 98.2190554,12.8864592 98.6814461,12.5072347 L98.765207,12.4261939 C99.112,12.0888469 99.5050321,11.7065204 99.8343907,11.2346224 C100.473399,10.272602 100.82512,8.81813265 100.82512,7.13992857 L100.824741,6.86617347 C100.76751,5.83047959 100.606052,4.99796939 100.335819,4.33141837" id="Fill-13" fill="#FFFFFF"></path>
                <path d="M114.43737,6.21780816 L110.592706,6.21780816 C109.92565,6.21780816 109.647458,6.60401224 109.49358,6.89986939 C109.393522,7.10421633 109.351073,7.28025714 109.351073,7.48809388 C109.351073,7.71570612 109.454163,7.92586939 109.547399,8.1166449 C109.683085,8.37721633 109.944601,8.72348163 110.643872,8.72348163 L113.093405,8.72348163 L113.094163,9.16474694 C113.094163,10.2004408 113.026321,10.3958694 113.02291,10.4098286 C113.011918,10.4234 112.999411,10.440849 112.98463,10.4617878 C112.523755,11.1101143 111.547429,11.4389306 110.08256,11.4389306 C108.921656,11.4389306 108.019236,11.0236449 107.399557,10.2039306 C106.723026,9.30937959 106.407691,8.31362449 106.407691,7.07048163 C106.407691,4.58613469 107.830111,2.98082857 110.031394,2.98082857 C111.196845,2.98082857 112.228128,3.29025714 113.013434,3.8761551 C113.309061,4.09872653 113.636904,4.21621633 113.960577,4.21621633 C114.64772,4.21621633 115.186292,3.69856327 115.186292,3.03744082 C115.186292,2.71482857 115.055155,2.39105306 114.808041,2.10101224 L114.790227,2.0824 C113.977254,1.32550204 112.482822,0.422808163 109.980227,0.422808163 C107.591335,0.422808163 105.634134,1.62252245 104.611569,3.71446122 C104.12909,4.70246122 103.874017,5.88123673 103.874017,7.12244082 C103.874017,7.92897143 104.023347,8.64942041 104.169265,9.24811429 C104.850344,12.054298 107.26084,14.0140122 110.031394,14.0140122 C112.288012,14.0140122 115.644892,13.1795633 115.644892,10.8844408 L115.678624,7.57495102 C115.678624,7.17556327 115.487603,6.7641551 115.321598,6.59470612 C115.105942,6.3306449 114.841394,6.21780816 114.43737,6.21780816" id="Fill-15" fill="#FFFFFF"></path>
                <path d="M128.486239,11.351802 C128.422187,11.351802 128.278163,11.3537408 128.054169,11.3564551 C127.293878,11.3653735 125.51898,11.3863122 122.753732,11.3867 L122.753732,7.6437 L127.703965,7.59251633 L127.841924,7.59290408 C128.035219,7.59290408 128.298251,7.59290408 128.514665,7.37847551 C128.800437,7.13961837 128.945598,6.78443469 128.945598,6.32223061 C128.945598,5.61225102 128.403615,5.03449592 127.737697,5.03449592 C127.670233,5.03449592 127.530379,5.0372102 127.316239,5.04147551 C126.607114,5.0562102 125.13656,5.08606735 122.753732,5.0864551 L122.753732,3.06780204 L128.486239,3.06780204 C128.811429,3.06780204 129.058921,3.02282245 129.280641,2.80141429 C129.588397,2.5439449 129.779038,2.12710816 129.779038,1.71027143 C129.779038,1.01463878 129.235539,0.509781633 128.486239,0.509781633 L121.495044,0.509781633 C121.180087,0.509781633 120.963673,0.548169388 120.658192,0.756781633 C120.355743,0.963067347 120.202624,1.30700612 120.202624,1.78006735 L120.202624,12.5875776 C120.202624,12.867149 120.308746,13.0757612 120.394023,13.2436592 L120.432682,13.3196592 C120.584286,13.6116388 120.829504,13.9098224 121.495044,13.9098224 L128.486239,13.9098224 C129.271545,13.9098224 129.779038,13.4111694 129.779038,12.639149 C129.779038,11.8931082 129.235539,11.351802 128.486239,11.351802" id="Fill-17" fill="#FFFFFF"></path>
                <path d="M15.523137,0.762946939 C15.3237784,0.660967347 15.0831079,0.600089796 14.8799592,0.600089796 C14.6703673,0.600089796 14.482,0.646232653 14.2830204,0.748212245 C14.0207464,0.891293878 13.6724373,1.16504898 13.6724373,1.88743673 L13.6724373,12.6949469 C13.6724373,13.2343143 13.8949155,13.6294367 14.3391137,13.8717837 C14.5331662,13.971049 14.7215335,14.0171918 14.9311254,14.0171918 C15.1407172,14.0171918 15.3290845,13.971049 15.5280641,13.8690694 C15.7751778,13.7341306 16.1898134,13.3975592 16.1898134,12.660049 L16.1898134,1.88743673 C16.1898134,1.21313061 15.8361983,0.933946939 15.523137,0.762946939" id="Fill-20" fill="#FFFFFF"></path>
                <path d="M27.078621,11.7842265 C24.7052682,11.7842265 22.7817988,9.81598163 22.7817988,7.38785918 C22.7817988,4.96012449 24.7052682,2.99187959 27.078621,2.99187959 C29.4515948,2.99187959 31.3754431,4.96012449 31.3754431,7.38785918 C31.3754431,9.81598163 29.4515948,11.7842265 27.078621,11.7842265 M27.078621,0.430757143 C23.3226443,0.430757143 20.2780671,3.54559388 20.2780671,7.38785918 C20.2780671,11.2305122 23.3226443,14.3449612 27.078621,14.3449612 C30.8342187,14.3449612 33.8787959,11.2305122 33.8787959,7.38785918 C33.8787959,3.54559388 30.8342187,0.430757143 27.078621,0.430757143" id="Fill-25" fill="#FFFFFF"></path>
                <path d="M33.3603878,18.1659 C33.1936239,18.4861857 32.9199796,18.848349 32.2612624,18.848349 L14.5740612,18.848349 C13.8528076,18.848349 13.524207,18.4241449 13.392312,18.1717163 C13.2926327,17.9673694 13.2475306,17.7750429 13.2475306,17.5602265 C13.2475306,17.345798 13.2926327,17.1534714 13.3896589,16.9545531 C13.6269184,16.5001041 14.0127493,16.2728796 14.5399504,16.2728796 L32.2612624,16.2728796 C32.9673557,16.2728796 33.2349359,16.6292265 33.3747901,16.8975531 C33.4740904,17.1011245 33.5195714,17.293451 33.5195714,17.5082673 C33.5195714,17.7161041 33.4600671,17.9623286 33.3603878,18.1659 Z M15.1949913,17.5589082 C15.1949913,17.1711531 14.8879942,16.8570714 14.5089854,16.8570714 C14.1303557,16.8570714 13.8233586,17.1711531 13.8233586,17.5589082 C13.8233586,17.9462755 14.1303557,18.2607449 14.5089854,18.2607449 C14.8879942,18.2607449 15.1949913,17.9462755 15.1949913,17.5589082 Z M32.8827609,17.5589082 C32.8827609,17.1711531 32.5753848,16.8570714 32.1967551,16.8570714 C31.8177464,16.8570714 31.5111283,17.1711531 31.5111283,17.5589082 C31.5111283,17.9462755 31.8177464,18.2607449 32.1967551,18.2607449 C32.5753848,18.2607449 32.8827609,17.9462755 32.8827609,17.5589082 Z" id="Combined-Shape" fill="#F16522"></path>
            </g>
        </g>
    </g>
</svg>