<svg xmlns="http://www.w3.org/2000/svg" viewBox="0 0 80 18">
 <defs>
  <style>.cls-1{fill:#00a89f;}.cls-2{fill:#003d7f;}.cls-3{fill:#808184;}</style>
 </defs>
 <rect class="cls-1" height="8.03" width="8.03" x="0" y="0.37"/>
 <circle class="cls-2" cx="8.63" cy="9" r="5.2"/>
 <rect class="cls-1" height="8.03" width="8.03" x="0" y="9.6"/>
 <rect class="cls-1" height="8.03" width="8.03" x="9.23" y="0.37"/>
 <path class="cls-3" d="m73.84,17.88c3.62,0 6.16,-1.92 6.16,-5.15l0,-0.05c0,-2.86 -1.9,-4.17 -5.55,-5.06c-3.3,-0.78 -4.09,-1.38 -4.09,-2.71l0,-0.05c0,-1.13 1,-2 2.81,-2a7.85,7.85 0 0 1 4.69,1.77l1.62,-2.29a9.52,9.52 0 0 0 -6.26,-2.21c-3.43,0 -5.89,2.05 -5.89,5l0,0.05c0,3.18 2.07,4.27 5.74,5.16c3.21,0.74 3.9,1.4 3.9,2.63l0,0.05c0,1.31 -1.19,2.17 -3.06,2.17a8,8 0 0 1 -5.45,-2.24l-1.82,2.18a10.62,10.62 0 0 0 7.2,2.76m-28.42,-0.26l2.58,0l4.21,-12.31l4.22,12.31l2.57,0l6,-17.25l-3.16,0l-4.09,12.75l-4.21,-12.8l-2.54,0l-4.21,12.8l-4.09,-12.75l-3.25,0l5.97,17.25zm-19.07,-8.7l0,-5.8l4.42,0c2.24,0 3.57,1 3.57,2.86l0,0.05c0,1.75 -1.38,2.88 -3.55,2.88l-4.44,0.01zm-3,8.7l3,0l0,-6l3.8,0l4.24,6l3.61,0l-4.69,-6.5a5.18,5.18 0 0 0 4.11,-5.23l0,0a5.19,5.19 0 0 0 -1.42,-3.77a7,7 0 0 0 -5,-1.72l-7.68,0l0.03,17.22z"/>
</svg>