<?xml version="1.0" encoding="utf-8"?>
<!-- Generator: Adobe Illustrator 16.0.0, SVG Export Plug-In . SVG Version: 6.00 Build 0)  -->
<!DOCTYPE svg PUBLIC "-//W3C//DTD SVG 1.1//EN" "http://www.w3.org/Graphics/SVG/1.1/DTD/svg11.dtd">
<svg version="1.1" id="Layer_1" xmlns="http://www.w3.org/2000/svg" xmlns:xlink="http://www.w3.org/1999/xlink" x="0px" y="0px"
	   viewBox="0 0 738.336 217" enable-background="new 0 0 738.336 217" xml:space="preserve">
<g>
	<g>
		<defs>
			<circle id="SVGID_1_" cx="201.619" cy="108.951" r="67.119"/>
		</defs>
		<clipPath id="SVGID_2_">
			<use xlink:href="#SVGID_1_"  overflow="visible"/>
		</clipPath>
		<g clip-path="url(#SVGID_2_)">
			<path fill="#FFFFFF" d="M142.926,73.62c-0.766,5.554,1.148,8.427,0,11.107c-1.149,2.681-2.49,7.469-1.341,10.724
				c1.148,3.256,2.872,10.341,4.404,10.533c1.532,0.19-1.148-7.66,0.383-5.171c1.533,2.49,1.533,6.194,4.214,8.746
				c2.681,2.553,6.32,2.17,9.192,4.659c2.872,2.49,5.744,6.129,8.426,5.746c0,0-0.192,1.915-1.533,5.17
				c-1.34,3.255-1.532,7.084,0.192,9.383c1.723,2.298,3.447,5.746,4.979,7.469c1.532,1.724,2.681,10.915,2.298,15.511
				c-0.383,4.596,1.723,14.937,6.51,17.235c4.788,2.298,0-1.149-0.957-4.021c-0.958-2.872,0.739-9.575,3.052-10.533
				c2.31-0.958,4.417-4.787,6.14-7.469c1.723-2.681,6.128-3.83,7.469-7.084c1.341-3.256,0.766-7.085,1.532-8.81
				c0.766-1.724,2.873-5.554-1.724-7.852c-4.595-2.297-6.51-1.148-6.703-3.255c-0.191-2.106-1.34-4.404-4.595-5.361
				c-3.256-0.958-6.129-2.817-9.768-3.228c-3.639-0.411-4.404,2.462-6.319,0.929c-1.915-1.532-3.446-3.065-4.213-4.979
				c-0.766-1.915-3.064-0.766-2.872-1.915c0.19-1.149,3.254-4.404-0.192-3.255c-3.446,1.149-6.51,0.766-6.319-2.297
				c0.193-3.064,4.405-4.214,6.129-4.597c1.723-0.383,3.063,1.724,5.17,3.065c2.106,1.34,0.191-1.915,1.34-4.213
				s5.554-2.106,6.128-5.361c0.575-3.255-0.191-5.937,3.256-6.32c3.446-0.383,7.084,0.191,7.468-1.533
				c0.383-1.723-4.022,0.575-4.213-1.532c-0.192-2.106,3.83-4.978,4.979-2.872c1.149,2.106,4.021,2.298,4.405,1.532
				c0.383-0.766,0-2.105-1.341-5.361c-1.34-3.256-2.681-2.298-3.83-5.937c-1.149-3.638-3.064,0.191-4.979-1.724
				c-1.916-1.915-4.213-5.937-4.597-2.489c-0.383,3.447-0.383,5.361-2.105,8.042c-1.724,2.682-2.489,0.575-4.021-1.149
				c-1.532-1.723-4.979-3.446-3.831-4.978c1.149-1.532,2.298-5.553,4.021-4.404c1.724,1.149,4.405,1.149,4.021-0.767
				c-0.383-1.915,0-2.681,0.766-3.639c0.766-0.958,3.447-2.681,3.447,0.767c0,3.446-0.384,4.404,2.298,4.788
				c2.681,0.383,5.744,0.574,5.554-1.149c-0.192-1.724,0.766-1.341,0-4.214c-0.767-2.872-3.064-3.063-5.554-4.404
				c-2.489-1.34-3.831-3.446-5.937-2.681c-2.106,0.766-2.299,1.532-2.489,3.639c-0.192,2.107-1.341,2.873-2.107,1.915
				c-0.766-0.958,0.192-4.022-2.681-2.106c-2.873,1.915-4.021,5.171-5.553,2.872c-1.533-2.297,2.297-6.319-1.724-4.595
				c-4.022,1.723-6.895,3.638-4.788,4.404c2.107,0.766,4.213,2.107,2.107,2.873c-2.107,0.766-6.32-0.575-7.852,0.957
				C147.138,65.96,142.926,73.62,142.926,73.62z"/>
			<path fill="#FFFFFF" d="M165.522,52.939c-0.01,2.141,0.575,3.829,2.49,1.915c1.915-1.915,3.063-4.212,4.405-3.256
				c1.34,0.958,3.639,0.704,4.595,0.639c0.958-0.064,1.15-2.937,3.831-2.554c2.681,0.383,1.724-0.574,4.595-2.107
				c2.873-1.532,9.001-4.212,2.681-3.446c-6.319,0.766-6.703-0.958-11.107,1.915c-4.403,2.873-5.36,2.873-6.509,3.639
				c-1.149,0.766-2.49-2.298-4.022,0C164.947,51.98,165.533,50.757,165.522,52.939z"/>
			<path fill="#FFFFFF" d="M188.501,47.002c-2.263,1.956-5.744,4.788-3.064,4.788c2.681,0,3.983-1.404,5.439,0.447
				c1.456,1.851,0.88,4.723,0.88,6.063s-0.766,4.405,1.149,8.235c1.916,3.829,2.106,6.319,4.022,3.829
				c1.915-2.489,6.51-7.276,8.808-7.659c2.298-0.384,4.597-1.341,5.746-3.256c1.148-1.916,0-3.773,1.915-5.142
				s1.531-3.093,2.107-5.199c0.573-2.107,5.745-2.107,3.446-3.255c-2.298-1.149-6.51-1.916-11.49-1.341
				C202.481,45.087,192.715,43.364,188.501,47.002z"/>
			<path fill="#FFFFFF" d="M167.438,106.174c-1.218,1.987-0.575,2.107,0.766,2.49c1.34,0.383-0.575,2.68,0.957,2.872
				c1.532,0.192,4.979,1.149,5.936,0c0.958-1.148-1.531-0.701-3.255-1.978C170.119,108.281,168.303,104.763,167.438,106.174z"/>
			<path fill="#FFFFFF" d="M260.122,137.388c-2.062,1.033-1.149,2.682-3.064,3.831c-1.915,1.148-1.148,1.531-1.723,4.213
				c-0.576,2.68,0.191,4.212,1.532,2.106C258.207,145.432,262.419,136.239,260.122,137.388z"/>
			<path fill="#FFFFFF" d="M271.037,105.218c-0.574-3.256-4.787-32.747-4.787-32.747s-11.298-7.277-13.212-5.746
				c-1.916,1.533-5.172,1.301-4.788-0.21c0.383-1.512,2.872-1.128-1.341-4.002c-4.213-2.873-4.979-5.362-8.233-1.724
				c-3.256,3.639-4.022,6.703-5.938,7.66c-1.916,0.957-3.447,4.021-1.34,4.787c2.106,0.766,2.297,0,4.021,1.532
				c1.724,1.532,4.022,1.148,4.405,0.192c0.383-0.958,0.766-4.021,0.957-5.171c0.192-1.149,2.139-4.979,1.931-1.915
				c-0.207,3.064,2.665,3.064,0.75,5.17c-1.915,2.106-0.767,3.831-4.596,4.213s-4.021-1.915-6.128-0.766
				c-2.106,1.148-1.916,1.915-2.681,3.063c-0.766,1.149-4.788,3.447-4.788,3.447s-3.255-1.149-1.723,0.958
				c1.533,2.106,2.873,4.596,1.533,4.787c-1.341,0.192-4.98-1.915-4.98,0.384c0,2.297-0.574,4.787,0.958,5.362
				c1.082,0.405,1.783,1.283,2.776,1.161c-0.769,0.332-1.469,0.813-2.01,1.52c-1.49,1.948-0.574,5.362-3.638,6.511
				c-3.063,1.15-3.063,2.489-3.639,4.979c-0.573,2.489,0,8.809,0.766,9.383c0.766,0.574,2.107,5.362,5.362,4.979
				c3.256-0.383,6.703-0.531,7.851,0.022c1.149,0.552,3.064-1.17,3.639,3.233c0.574,4.404,1.915,4.979,2.681,7.277
				c0.766,2.297-0.383,7.086,0,9.958c0.383,2.872,3.064,7.852,3.064,10.341c0,2.488,2.872,3.638,4.404,2.681
				c1.533-0.958,4.788-2.873,6.127-5.937c1.341-3.063,1.341-4.596,3.448-8.617c2.106-4.021,1.533-6.895,2.489-9.958
				c0.958-3.064,3.262-5.17,6.418-8.617c3.156-3.446,2.588-5.362,0-5.17c-2.587,0.191-4.314-2.298-5.653-5.362
				c-1.338-3.064-2.871-10.723-1.721-8.234c1.149,2.49,3.446,9.384,5.744,10.533c2.298,1.149,6.512-1.952,7.469-3.083
				c0.958-1.131,0.575-4.386-1.916-5.726c-2.489-1.341-0.956-2.49,1.533-0.958C268.738,106.94,271.611,108.472,271.037,105.218z
				 M250.738,96.983c-0.191,1.531,0.575,4.021-3.639,3.064c-4.213-0.958-4.213-3.256-5.936-1.533
				c-1.723,1.724-3.83,3.256-6.32,0.575c-2.489-2.681-2.106-3.447-3.446-3.639c-0.955-0.135-4.138-0.846-6.792-0.074
				c0.207-0.123,0.427-0.285,0.664-0.5c1.916-1.724,1.533-2.298,3.639-4.213c2.107-1.916,3.639-3.638,5.17-1.916
				c1.532,1.725,4.788,2.108,3.639,4.022s-0.383,3.063,0.958,1.915c1.339-1.149,3.254-1.915,1.915-3.446
				c-1.341-1.532-2.681-5.554-0.766-2.874c1.915,2.681,2.489,4.022,3.638,5.554c1.149,1.532,2.298,2.49,2.681,1.532
				c0.383-0.957-0.191-3.063,0.383-3.446c0.575-0.383,0,3.255,1.724,3.446C249.972,95.642,250.929,95.45,250.738,96.983z
				 M255.141,90.473c-1.341-0.766-3.828,0-6.892,0.956c-3.065,0.958-0.613-2.13,0.766-4.212c1.233-1.861,0.574,0.574,3.256,0.766
				C254.952,88.174,256.483,91.238,255.141,90.473z M261.845,96.408c-0.575,0.575-1.532-2.681-2.106-4.213
				c-0.575-1.532-0.56-4.195,1.056-5.675c2.014-1.847,1.05,2.419,1.05,4.718C261.845,93.536,262.419,95.833,261.845,96.408z"/>
			<path fill="#FFFFFF" d="M224.886,73.045c-1.173,0.353-2.106,2.681-1.532,3.831c0.576,1.149-0.574-0.575-2.105,0.383
				c-1.533,0.957-3.809,3.639-1.713,3.829c2.096,0.192,1.713-1.532,3.628-0.766c1.915,0.766,4.021,0.575,4.021-1.34
				C227.184,77.066,226.801,72.471,224.886,73.045z"/>
			<path fill="#FFFFFF" d="M212.439,64.237c-1.154,0.165-1.533,3.064,0.957,3.447c2.49,0.383,6.948-0.575,5.292-2.107
				C217.035,64.045,215.121,63.854,212.439,64.237z"/>
		</g>
	</g>
	<g>
		<g>
			<circle fill="none" stroke="#FFFFFF" stroke-width="8" stroke-miterlimit="10" cx="201.928" cy="109.814" r="66.51"/>
		</g>
	</g>
</g>
<g>
	<g>
		<g>
			<defs>
				<rect id="SVGID_3_" x="414" y="40.695" width="81.977" height="136.096"/>
			</defs>
			<clipPath id="SVGID_4_">
				<use xlink:href="#SVGID_3_"  overflow="visible"/>
			</clipPath>
			<path clip-path="url(#SVGID_4_)" fill="#3FA9F5" d="M483.84,52.513c-7.966-7.879-17.614-11.818-28.944-11.818
				c-11.331,0-20.979,3.939-28.945,11.818C417.983,60.39,414,69.906,414,81.06c0,6.727,3.408,17.969,10.225,33.725
				c6.814,15.756,13.631,30.096,20.446,43.02c6.816,12.924,10.225,19.208,10.225,18.854c1.062-1.947,2.522-4.604,4.381-7.967
				c1.859-3.363,5.135-9.693,9.826-18.988c4.691-9.294,8.809-17.835,12.348-25.625c3.542-7.79,6.817-15.846,9.826-24.166
				c3.01-8.321,4.514-14.605,4.514-18.854C495.79,69.906,491.807,60.39,483.84,52.513L483.84,52.513z M463.659,89.557
				c-2.479,2.479-5.444,3.717-8.896,3.717c-3.453,0-6.418-1.238-8.896-3.717c-2.478-2.478-3.717-5.443-3.717-8.896
				c0-3.452,1.239-6.373,3.717-8.763c2.479-2.39,5.443-3.585,8.896-3.585c3.452,0,6.417,1.195,8.896,3.585
				c2.478,2.39,3.718,5.311,3.718,8.763C467.377,84.113,466.137,87.079,463.659,89.557L463.659,89.557z M463.659,89.557"/>
		</g>
	</g>
	<g>
		<g>
			<defs>
				<rect id="SVGID_5_" x="414" y="40.695" width="81.977" height="136.096"/>
			</defs>
			<clipPath id="SVGID_6_">
				<use xlink:href="#SVGID_5_"  overflow="visible"/>
			</clipPath>
			<path clip-path="url(#SVGID_6_)" fill="#FFFFFF" d="M483.84,52.513c-7.966-7.879-17.614-11.818-28.944-11.818
				c-11.331,0-20.979,3.939-28.945,11.818C417.983,60.39,414,69.906,414,81.06c0,6.727,3.408,17.969,10.225,33.725
				c6.814,15.756,13.631,30.096,20.446,43.02c6.816,12.924,10.225,19.208,10.225,18.854c1.062-1.947,2.522-4.604,4.381-7.967
				c1.859-3.363,5.135-9.693,9.826-18.988c4.691-9.294,8.809-17.835,12.348-25.625c3.542-7.79,6.817-15.846,9.826-24.166
				c3.01-8.321,4.514-14.605,4.514-18.854C495.79,69.906,491.807,60.39,483.84,52.513L483.84,52.513z M463.659,89.557
				c-2.479,2.479-5.444,3.717-8.896,3.717c-3.453,0-6.418-1.238-8.896-3.717c-2.478-2.478-3.717-5.443-3.717-8.896
				c0-3.452,1.239-6.373,3.717-8.763c2.479-2.39,5.443-3.585,8.896-3.585c3.452,0,6.417,1.195,8.896,3.585
				c2.478,2.39,3.718,5.311,3.718,8.763C467.377,84.113,466.137,87.079,463.659,89.557L463.659,89.557z M463.659,89.557"/>
		</g>
	</g>
	<g>
		<g>
			<defs>
				<rect id="SVGID_7_" x="414" y="40.695" width="81.977" height="136.096"/>
			</defs>
			<clipPath id="SVGID_8_">
				<use xlink:href="#SVGID_7_"  overflow="visible"/>
			</clipPath>
		</g>
	</g>
</g>
<g>
	<path fill="#FFFFFF" d="M36.726,41.202h16.856V161.4h55.802V176H36.726V41.202z"/>
</g>
<g>
	<path fill="#FFFFFF" d="M394.398,170.6c-6.4,3.2-19.2,6.4-35.6,6.4c-38,0-66.599-24-66.599-68.199
		c0-42.199,28.6-70.799,70.399-70.799c16.8,0,27.399,3.6,31.999,6l-4.199,14.2c-6.6-3.2-16-5.6-27.2-5.6
		c-31.6,0-52.599,20.2-52.599,55.599c0,33,19,54.199,51.799,54.199c10.6,0,21.399-2.2,28.4-5.6L394.398,170.6z"/>
</g>
<g>
	<path fill="#FFFFFF" d="M509,165.801l74.799-109.399v-0.6H515.4v-14.6h90.998v10.6L532,160.801v0.6h75.398V176H509V165.801z"/>
	<path fill="#FFFFFF" d="M698.598,112.801h-52.399v48.6h58.399V176h-75.799V41.202h72.799v14.6h-55.399v42.6h52.399V112.801z"/>
</g>
</svg>
