<?xml version="1.0" encoding="utf-8"?>
<!-- Generator: Adobe Illustrator 16.0.0, SVG Export Plug-In . SVG Version: 6.00 Build 0)  -->
<!DOCTYPE svg PUBLIC "-//W3C//DTD SVG 1.1//EN" "http://www.w3.org/Graphics/SVG/1.1/DTD/svg11.dtd">
<svg version="1.1" id="Layer_1" xmlns="http://www.w3.org/2000/svg" xmlns:xlink="http://www.w3.org/1999/xlink" x="0px" y="0px"
	 viewBox="0 0 841.89 429.167" enable-background="new 0 0 841.89 429.167"
	 xml:space="preserve">
<g>
	<path fill="#FFFFFF" d="M245.781,112.46v8.599l11.465-11.465l-11.465-11.467v8.6c-12.668,0-22.931,10.262-22.931,22.931
		c0,4.501,1.32,8.683,3.555,12.211l4.185-4.186c-1.29-2.376-2.007-5.131-2.007-8.025C228.583,120.169,236.293,112.46,245.781,112.46
		z M265.157,117.446l-4.185,4.186c1.263,2.407,2.006,5.131,2.006,8.025c0,9.489-7.709,17.197-17.197,17.197v-8.599l-11.465,11.465
		l11.465,11.466v-8.599c12.668,0,22.93-10.262,22.93-22.931C268.711,125.155,267.393,120.975,265.157,117.446z"/>
	<path fill="#FFFFFF" d="M180.31,129.885c5.544,0,9.985-4.476,9.985-10.018c0-5.545-4.441-10.019-9.985-10.019
		s-10.017,4.474-10.017,10.019C170.293,125.409,174.766,129.885,180.31,129.885z M153.596,129.885c5.544,0,9.986-4.476,9.986-10.018
		c0-5.545-4.442-10.019-9.986-10.019c-5.543,0-10.018,4.474-10.018,10.019C143.579,125.409,148.053,129.885,153.596,129.885z
		 M153.596,136.562c-7.78,0-23.375,3.905-23.375,11.688v8.348h46.749v-8.348C176.971,140.468,161.377,136.562,153.596,136.562z
		 M180.31,136.562c-0.969,0-2.07,0.065-3.241,0.166c3.874,2.808,6.581,6.577,6.581,11.522v8.348h20.035v-8.348
		C203.685,140.468,188.091,136.562,180.31,136.562z"/>
	<g>
		<path fill="#FFFFFF" d="M144.242,82.337c0,2.474-0.671,4.364-2.014,5.673c-1.343,1.309-3.274,1.963-5.796,1.963h-4.151V74.988
			h4.591c2.33,0,4.141,0.646,5.432,1.938C143.597,78.217,144.242,80.021,144.242,82.337z M142.397,82.398
			c0-1.954-0.49-3.427-1.471-4.417s-2.438-1.485-4.371-1.485h-2.532v11.971h2.122c2.077,0,3.639-0.512,4.684-1.533
			C141.875,85.912,142.397,84.401,142.397,82.398z"/>
		<path fill="#FFFFFF" d="M152.072,90.178c-1.66,0-2.97-0.506-3.93-1.518c-0.96-1.011-1.44-2.415-1.44-4.212
			c0-1.811,0.446-3.249,1.337-4.314c0.892-1.065,2.089-1.599,3.592-1.599c1.408,0,2.521,0.463,3.341,1.389s1.23,2.146,1.23,3.664
			v1.075h-7.738c0.034,1.318,0.367,2.32,0.999,3.003c0.632,0.684,1.522,1.025,2.67,1.025c1.209,0,2.405-0.252,3.587-0.758v1.517
			c-0.601,0.26-1.17,0.445-1.706,0.559C153.478,90.121,152.831,90.178,152.072,90.178z M151.611,79.959
			c-0.902,0-1.622,0.295-2.158,0.882c-0.536,0.588-0.852,1.401-0.948,2.439h5.873c0-1.073-0.239-1.895-0.717-2.466
			C153.183,80.245,152.5,79.959,151.611,79.959z"/>
		<path fill="#FFFFFF" d="M161.562,89.973l-4.264-11.233h1.824l2.419,6.662c0.547,1.558,0.868,2.569,0.964,3.034h0.082
			c0.075-0.362,0.312-1.112,0.712-2.25c0.399-1.138,1.296-3.619,2.69-7.446h1.824l-4.263,11.233H161.562z"/>
		<path fill="#FFFFFF" d="M174.364,90.178c-1.661,0-2.971-0.506-3.931-1.518c-0.96-1.011-1.44-2.415-1.44-4.212
			c0-1.811,0.446-3.249,1.337-4.314c0.892-1.065,2.089-1.599,3.592-1.599c1.408,0,2.521,0.463,3.342,1.389
			c0.819,0.926,1.229,2.146,1.229,3.664v1.075h-7.738c0.034,1.318,0.367,2.32,0.999,3.003c0.632,0.684,1.522,1.025,2.67,1.025
			c1.209,0,2.405-0.252,3.587-0.758v1.517c-0.602,0.26-1.17,0.445-1.707,0.559C175.769,90.121,175.122,90.178,174.364,90.178z
			 M173.902,79.959c-0.902,0-1.621,0.295-2.158,0.882c-0.536,0.588-0.852,1.401-0.948,2.439h5.873c0-1.073-0.239-1.895-0.717-2.466
			C175.474,80.245,174.791,79.959,173.902,79.959z"/>
		<path fill="#FFFFFF" d="M183.096,89.973h-1.702V74.025h1.702V89.973z"/>
		<path fill="#FFFFFF" d="M196.398,84.347c0,1.83-0.46,3.261-1.383,4.288c-0.922,1.028-2.197,1.543-3.823,1.543
			c-1.004,0-1.896-0.236-2.675-0.708c-0.778-0.471-1.38-1.147-1.803-2.028c-0.424-0.881-0.636-1.913-0.636-3.095
			c0-1.832,0.458-3.259,1.374-4.28s2.186-1.531,3.812-1.531c1.571,0,2.82,0.522,3.746,1.567
			C195.936,81.148,196.398,82.562,196.398,84.347z M187.84,84.347c0,1.435,0.288,2.527,0.861,3.279
			c0.574,0.751,1.418,1.127,2.532,1.127s1.959-0.374,2.536-1.122c0.578-0.748,0.867-1.844,0.867-3.284
			c0-1.429-0.289-2.513-0.867-3.255c-0.577-0.741-1.429-1.111-2.557-1.111c-1.114,0-1.954,0.364-2.521,1.096
			C188.124,81.808,187.84,82.897,187.84,84.347z"/>
		<path fill="#FFFFFF" d="M204.607,90.178c-0.731,0-1.399-0.135-2.003-0.405c-0.604-0.27-1.112-0.685-1.522-1.245h-0.123
			c0.082,0.656,0.123,1.277,0.123,1.865v4.623h-1.702V78.739h1.384L201,80.277h0.082c0.438-0.615,0.946-1.06,1.527-1.333
			c0.581-0.272,1.247-0.409,1.998-0.409c1.489,0,2.639,0.509,3.449,1.527c0.809,1.018,1.214,2.445,1.214,4.284
			c0,1.844-0.412,3.277-1.235,4.299C207.212,89.667,206.069,90.178,204.607,90.178z M204.362,79.98
			c-1.148,0-1.978,0.317-2.491,0.952c-0.513,0.636-0.775,1.647-0.789,3.034v0.38c0,1.577,0.263,2.707,0.789,3.387
			c0.526,0.679,1.37,1.02,2.531,1.02c0.971,0,1.73-0.394,2.281-1.179c0.55-0.786,0.825-1.869,0.825-3.249
			c0-1.4-0.275-2.475-0.825-3.223C206.133,80.354,205.359,79.98,204.362,79.98z"/>
		<path fill="#FFFFFF" d="M226.561,89.973v-7.308c0-0.895-0.191-1.566-0.574-2.014c-0.382-0.448-0.977-0.671-1.783-0.671
			c-1.059,0-1.841,0.304-2.347,0.912c-0.505,0.608-0.759,1.544-0.759,2.808v6.272h-1.701v-7.308c0-0.895-0.191-1.566-0.574-2.014
			c-0.383-0.448-0.98-0.671-1.794-0.671c-1.066,0-1.846,0.319-2.341,0.958c-0.496,0.639-0.743,1.686-0.743,3.141v5.894h-1.701
			V78.739h1.383l0.277,1.538h0.082c0.321-0.546,0.774-0.974,1.357-1.281c0.584-0.308,1.239-0.461,1.963-0.461
			c1.756,0,2.904,0.636,3.444,1.906h0.082c0.334-0.588,0.82-1.053,1.455-1.395c0.636-0.341,1.36-0.512,2.173-0.512
			c1.271,0,2.222,0.326,2.854,0.979s0.949,1.696,0.949,3.131v7.328H226.561z"/>
		<path fill="#FFFFFF" d="M236.512,90.178c-1.66,0-2.97-0.506-3.931-1.518c-0.959-1.011-1.44-2.415-1.44-4.212
			c0-1.811,0.446-3.249,1.337-4.314c0.892-1.065,2.089-1.599,3.593-1.599c1.407,0,2.521,0.463,3.341,1.389
			c0.819,0.926,1.23,2.146,1.23,3.664v1.075h-7.738c0.034,1.318,0.367,2.32,0.999,3.003c0.632,0.684,1.522,1.025,2.669,1.025
			c1.21,0,2.405-0.252,3.587-0.758v1.517c-0.602,0.26-1.17,0.445-1.707,0.559C237.918,90.121,237.271,90.178,236.512,90.178z
			 M236.051,79.959c-0.902,0-1.621,0.295-2.157,0.882c-0.536,0.588-0.853,1.401-0.948,2.439h5.873c0-1.073-0.239-1.895-0.718-2.466
			C237.622,80.245,236.939,79.959,236.051,79.959z"/>
		<path fill="#FFFFFF" d="M251.229,89.973v-7.267c0-0.916-0.208-1.599-0.625-2.05c-0.417-0.451-1.069-0.676-1.957-0.676
			c-1.175,0-2.037,0.317-2.583,0.952c-0.547,0.636-0.82,1.685-0.82,3.146v5.894h-1.701V78.739h1.383l0.277,1.538h0.082
			c0.349-0.554,0.837-0.982,1.465-1.287c0.628-0.304,1.329-0.455,2.101-0.455c1.353,0,2.371,0.326,3.054,0.979
			c0.683,0.652,1.025,1.696,1.025,3.131v7.328H251.229z"/>
		<path fill="#FFFFFF" d="M260.053,88.773c0.301,0,0.591-0.022,0.872-0.066c0.28-0.045,0.502-0.091,0.666-0.139v1.302
			c-0.185,0.089-0.456,0.162-0.815,0.221c-0.358,0.058-0.682,0.087-0.968,0.087c-2.173,0-3.259-1.145-3.259-3.434v-6.682h-1.609
			v-0.82l1.609-0.707l0.718-2.398h0.984v2.603h3.259v1.323h-3.259v6.609c0,0.677,0.16,1.196,0.481,1.559
			S259.493,88.773,260.053,88.773z"/>
		<path fill="#FFFFFF" d="M275.959,76.332c-1.646,0-2.947,0.548-3.9,1.645c-0.953,1.096-1.429,2.598-1.429,4.504
			c0,1.961,0.459,3.476,1.378,4.546c0.919,1.069,2.229,1.604,3.931,1.604c1.045,0,2.237-0.188,3.577-0.563v1.527
			c-1.039,0.39-2.32,0.584-3.843,0.584c-2.207,0-3.91-0.67-5.109-2.01c-1.2-1.338-1.799-3.241-1.799-5.708
			c0-1.544,0.289-2.896,0.866-4.058c0.577-1.162,1.411-2.058,2.501-2.686c1.09-0.629,2.373-0.943,3.849-0.943
			c1.571,0,2.945,0.287,4.12,0.861l-0.738,1.496C278.228,76.598,277.094,76.332,275.959,76.332z"/>
		<path fill="#FFFFFF" d="M280.746,78.739h1.824l2.459,6.406c0.54,1.462,0.875,2.518,1.004,3.167h0.082
			c0.089-0.349,0.275-0.945,0.559-1.788c0.283-0.845,1.211-3.439,2.783-7.785h1.824l-4.827,12.791
			c-0.478,1.264-1.037,2.161-1.676,2.69c-0.639,0.529-1.423,0.795-2.352,0.795c-0.52,0-1.032-0.059-1.537-0.175v-1.363
			c0.375,0.082,0.796,0.123,1.26,0.123c1.168,0,2.002-0.655,2.5-1.968l0.625-1.599L280.746,78.739z"/>
		<path fill="#FFFFFF" d="M297.595,90.178c-1.626,0-2.885-0.501-3.777-1.502s-1.337-2.417-1.337-4.247
			c0-1.879,0.453-3.332,1.358-4.356c0.905-1.025,2.195-1.537,3.869-1.537c0.54,0,1.08,0.058,1.619,0.175
			c0.54,0.115,0.963,0.252,1.271,0.409l-0.523,1.444c-0.375-0.149-0.786-0.274-1.229-0.373s-0.837-0.149-1.178-0.149
			c-2.282,0-3.424,1.456-3.424,4.366c0,1.38,0.279,2.439,0.835,3.177c0.557,0.738,1.382,1.107,2.476,1.107
			c0.936,0,1.896-0.201,2.879-0.604v1.507C299.682,89.983,298.736,90.178,297.595,90.178z"/>
		<path fill="#FFFFFF" d="M304.8,89.973h-1.701V74.025h1.701V89.973z"/>
		<path fill="#FFFFFF" d="M313.152,90.178c-1.66,0-2.97-0.506-3.93-1.518c-0.96-1.011-1.44-2.415-1.44-4.212
			c0-1.811,0.446-3.249,1.337-4.314c0.892-1.065,2.089-1.599,3.592-1.599c1.407,0,2.521,0.463,3.341,1.389
			c0.82,0.926,1.23,2.146,1.23,3.664v1.075h-7.738c0.034,1.318,0.368,2.32,1,3.003c0.632,0.684,1.522,1.025,2.67,1.025
			c1.209,0,2.405-0.252,3.587-0.758v1.517c-0.601,0.26-1.17,0.445-1.707,0.559C314.558,90.121,313.911,90.178,313.152,90.178z
			 M312.691,79.959c-0.902,0-1.621,0.295-2.157,0.882c-0.537,0.588-0.853,1.401-0.948,2.439h5.873c0-1.073-0.239-1.895-0.717-2.466
			C314.263,80.245,313.58,79.959,312.691,79.959z"/>
	</g>
</g>
<g>
	<path fill="#FFFFFF" d="M677.096,113.004v8.599l11.466-11.465L677.096,98.67v8.6c-12.667,0-22.93,10.262-22.93,22.932
		c0,4.501,1.318,8.683,3.555,12.209l4.185-4.185c-1.289-2.376-2.007-5.131-2.007-8.024
		C659.898,120.712,667.609,113.004,677.096,113.004z M696.472,117.989l-4.185,4.186c1.264,2.407,2.006,5.13,2.006,8.026
		c0,9.488-7.708,17.197-17.197,17.197V138.8l-11.465,11.465l11.465,11.465v-8.599c12.669,0,22.931-10.262,22.931-22.93
		C700.026,125.699,698.709,121.519,696.472,117.989z"/>
	<g>
		<path fill="#FFFFFF" d="M571.562,90.516h-1.742V77.08h-4.746v-1.549h11.233v1.549h-4.745V90.516z"/>
		<path fill="#FFFFFF" d="M583.431,79.078c0.499,0,0.946,0.041,1.343,0.123l-0.236,1.578c-0.464-0.103-0.874-0.154-1.229-0.154
			c-0.909,0-1.686,0.37-2.332,1.107c-0.646,0.737-0.968,1.656-0.968,2.757v6.026h-1.701V79.283h1.403l0.195,2.08h0.082
			c0.417-0.73,0.919-1.295,1.506-1.69C582.081,79.276,582.728,79.078,583.431,79.078z"/>
		<path fill="#FFFFFF" d="M593.782,90.516l-0.339-1.599h-0.082c-0.561,0.704-1.119,1.181-1.676,1.43
			c-0.556,0.249-1.251,0.374-2.085,0.374c-1.114,0-1.986-0.287-2.618-0.861c-0.632-0.573-0.948-1.391-0.948-2.449
			c0-2.269,1.813-3.457,5.441-3.566l1.906-0.062v-0.697c0-0.881-0.189-1.531-0.568-1.952c-0.38-0.42-0.986-0.63-1.819-0.63
			c-0.937,0-1.995,0.286-3.178,0.86l-0.522-1.301c0.554-0.302,1.16-0.537,1.82-0.708c0.659-0.171,1.32-0.257,1.982-0.257
			c1.339,0,2.331,0.299,2.978,0.893c0.646,0.595,0.968,1.547,0.968,2.859v7.666H593.782z M589.938,89.316
			c1.059,0,1.891-0.29,2.495-0.871c0.605-0.581,0.908-1.394,0.908-2.438v-1.016l-1.702,0.072c-1.353,0.048-2.328,0.258-2.926,0.63
			s-0.897,0.951-0.897,1.737c0,0.615,0.188,1.083,0.559,1.404C588.748,89.156,589.269,89.316,589.938,89.316z"/>
		<path fill="#FFFFFF" d="M606.234,90.516v-7.267c0-0.916-0.208-1.599-0.625-2.05c-0.417-0.45-1.07-0.676-1.958-0.676
			c-1.176,0-2.036,0.317-2.583,0.952c-0.546,0.636-0.819,1.685-0.819,3.147v5.893h-1.702V79.283h1.384l0.277,1.537h0.082
			c0.349-0.554,0.837-0.981,1.465-1.286c0.63-0.304,1.329-0.456,2.102-0.456c1.353,0,2.37,0.326,3.055,0.979
			c0.683,0.652,1.024,1.696,1.024,3.131v7.328H606.234z"/>
		<path fill="#FFFFFF" d="M618.676,87.451c0,1.045-0.39,1.852-1.168,2.419c-0.779,0.566-1.872,0.851-3.279,0.851
			c-1.489,0-2.651-0.235-3.485-0.707v-1.578c0.54,0.273,1.12,0.488,1.737,0.645c0.619,0.158,1.215,0.236,1.789,0.236
			c0.888,0,1.571-0.142,2.049-0.425c0.479-0.284,0.718-0.716,0.718-1.297c0-0.438-0.189-0.812-0.568-1.122s-1.119-0.679-2.22-1.102
			c-1.045-0.39-1.788-0.729-2.229-1.021c-0.44-0.29-0.769-0.619-0.984-0.988c-0.215-0.369-0.322-0.81-0.322-1.322
			c0-0.916,0.373-1.639,1.117-2.168c0.745-0.529,1.767-0.794,3.064-0.794c1.209,0,2.391,0.245,3.546,0.738l-0.605,1.383
			c-1.127-0.465-2.148-0.696-3.063-0.696c-0.807,0-1.414,0.126-1.824,0.379s-0.614,0.602-0.614,1.045
			c0,0.301,0.076,0.558,0.229,0.769c0.154,0.213,0.402,0.414,0.743,0.604c0.342,0.192,0.997,0.47,1.968,0.83
			c1.332,0.486,2.232,0.975,2.7,1.466C618.441,86.089,618.676,86.706,618.676,87.451z"/>
		<path fill="#FFFFFF" d="M623.145,90.516h-1.701V74.568h1.701V90.516z"/>
		<path fill="#FFFFFF" d="M633.66,90.516l-0.339-1.599h-0.082c-0.561,0.704-1.118,1.181-1.675,1.43
			c-0.558,0.249-1.253,0.374-2.086,0.374c-1.113,0-1.986-0.287-2.618-0.861c-0.632-0.573-0.949-1.391-0.949-2.449
			c0-2.269,1.815-3.457,5.442-3.566l1.906-0.062v-0.697c0-0.881-0.189-1.531-0.568-1.952c-0.379-0.42-0.985-0.63-1.819-0.63
			c-0.936,0-1.995,0.286-3.177,0.86l-0.522-1.301c0.554-0.302,1.159-0.537,1.819-0.708c0.659-0.171,1.319-0.257,1.982-0.257
			c1.34,0,2.332,0.299,2.977,0.893c0.646,0.595,0.969,1.547,0.969,2.859v7.666H633.66z M629.816,89.316
			c1.06,0,1.892-0.29,2.496-0.871s0.907-1.394,0.907-2.438v-1.016l-1.702,0.072c-1.353,0.048-2.327,0.258-2.926,0.63
			c-0.598,0.372-0.896,0.951-0.896,1.737c0,0.615,0.186,1.083,0.559,1.404C628.626,89.156,629.146,89.316,629.816,89.316z"/>
		<path fill="#FFFFFF" d="M642.054,89.316c0.3,0,0.591-0.021,0.871-0.066c0.28-0.044,0.503-0.091,0.667-0.139v1.302
			c-0.186,0.089-0.457,0.162-0.815,0.221c-0.359,0.058-0.682,0.087-0.969,0.087c-2.173,0-3.259-1.145-3.259-3.434v-6.682h-1.609
			v-0.82l1.609-0.707l0.717-2.398h0.984v2.604h3.26v1.322h-3.26v6.61c0,0.676,0.161,1.196,0.481,1.558
			C641.053,89.135,641.494,89.316,642.054,89.316z"/>
		<path fill="#FFFFFF" d="M645.692,76.239c0-0.39,0.095-0.675,0.286-0.855c0.191-0.182,0.432-0.271,0.718-0.271
			c0.273,0,0.509,0.092,0.708,0.276c0.198,0.185,0.297,0.468,0.297,0.851s-0.099,0.668-0.297,0.855
			c-0.199,0.188-0.435,0.282-0.708,0.282c-0.286,0-0.526-0.095-0.718-0.282S645.692,76.622,645.692,76.239z M647.537,90.516h-1.701
			V79.283h1.701V90.516z"/>
		<path fill="#FFFFFF" d="M660.84,84.889c0,1.832-0.462,3.262-1.384,4.29s-2.196,1.542-3.822,1.542
			c-1.005,0-1.896-0.235-2.675-0.707c-0.779-0.472-1.381-1.148-1.805-2.029c-0.424-0.882-0.635-1.913-0.635-3.096
			c0-1.831,0.457-3.257,1.373-4.278c0.915-1.021,2.187-1.532,3.812-1.532c1.572,0,2.819,0.522,3.746,1.567
			C660.377,81.691,660.84,83.105,660.84,84.889z M652.282,84.889c0,1.436,0.287,2.529,0.86,3.279
			c0.574,0.752,1.418,1.129,2.531,1.129c1.114,0,1.96-0.375,2.537-1.123s0.865-1.843,0.865-3.285c0-1.427-0.288-2.512-0.865-3.253
			s-1.43-1.112-2.558-1.112c-1.112,0-1.953,0.365-2.521,1.096C652.565,82.351,652.282,83.44,652.282,84.889z"/>
		<path fill="#FFFFFF" d="M671.509,90.516v-7.267c0-0.916-0.209-1.599-0.626-2.05c-0.416-0.45-1.068-0.676-1.957-0.676
			c-1.175,0-2.035,0.317-2.582,0.952c-0.547,0.636-0.82,1.685-0.82,3.147v5.893h-1.701V79.283h1.384l0.276,1.537h0.082
			c0.349-0.554,0.837-0.981,1.466-1.286c0.629-0.304,1.329-0.456,2.101-0.456c1.354,0,2.371,0.326,3.054,0.979
			c0.684,0.652,1.025,1.696,1.025,3.131v7.328H671.509z"/>
		<path fill="#FFFFFF" d="M688.829,76.875c-1.646,0-2.946,0.548-3.899,1.645s-1.43,2.598-1.43,4.504
			c0,1.961,0.459,3.477,1.378,4.546c0.92,1.068,2.229,1.604,3.931,1.604c1.046,0,2.238-0.188,3.576-0.563v1.527
			c-1.038,0.39-2.319,0.584-3.843,0.584c-2.207,0-3.909-0.67-5.109-2.009c-1.198-1.339-1.799-3.242-1.799-5.709
			c0-1.544,0.289-2.896,0.867-4.059c0.577-1.161,1.41-2.057,2.501-2.685c1.089-0.629,2.372-0.943,3.848-0.943
			c1.571,0,2.945,0.287,4.12,0.861l-0.738,1.496C691.098,77.141,689.964,76.875,688.829,76.875z"/>
		<path fill="#FFFFFF" d="M693.615,79.283h1.824l2.46,6.405c0.539,1.462,0.874,2.518,1.005,3.167h0.082
			c0.088-0.349,0.274-0.944,0.558-1.789c0.284-0.843,1.212-3.438,2.783-7.783h1.824l-4.828,12.79
			c-0.478,1.264-1.036,2.161-1.675,2.69c-0.639,0.53-1.424,0.795-2.353,0.795c-0.519,0-1.032-0.059-1.537-0.175v-1.362
			c0.376,0.082,0.796,0.122,1.261,0.122c1.169,0,2.002-0.655,2.501-1.968l0.625-1.599L693.615,79.283z"/>
		<path fill="#FFFFFF" d="M710.464,90.721c-1.626,0-2.884-0.501-3.776-1.502c-0.892-1-1.338-2.416-1.338-4.248
			c0-1.879,0.453-3.33,1.358-4.354c0.905-1.025,2.195-1.538,3.869-1.538c0.54,0,1.079,0.058,1.62,0.174
			c0.539,0.117,0.963,0.253,1.271,0.41l-0.522,1.445c-0.377-0.15-0.786-0.274-1.23-0.375c-0.444-0.099-0.837-0.147-1.179-0.147
			c-2.282,0-3.423,1.455-3.423,4.366c0,1.38,0.277,2.438,0.835,3.177c0.557,0.737,1.382,1.106,2.476,1.106
			c0.936,0,1.896-0.201,2.88-0.604v1.507C712.552,90.526,711.605,90.721,710.464,90.721z"/>
		<path fill="#FFFFFF" d="M717.67,90.516h-1.702V74.568h1.702V90.516z"/>
		<path fill="#FFFFFF" d="M726.021,90.721c-1.66,0-2.97-0.506-3.93-1.517c-0.961-1.012-1.439-2.416-1.439-4.213
			c0-1.81,0.445-3.248,1.337-4.314c0.892-1.065,2.089-1.599,3.592-1.599c1.407,0,2.521,0.462,3.341,1.389
			c0.82,0.926,1.23,2.146,1.23,3.663v1.076h-7.738c0.035,1.319,0.368,2.321,1,3.004s1.521,1.024,2.669,1.024
			c1.21,0,2.405-0.253,3.587-0.759v1.518c-0.601,0.26-1.169,0.445-1.706,0.559C727.429,90.664,726.78,90.721,726.021,90.721z
			 M725.561,80.503c-0.901,0-1.62,0.294-2.157,0.881c-0.536,0.588-0.853,1.4-0.948,2.439h5.873c0-1.073-0.239-1.895-0.718-2.465
			C727.132,80.787,726.449,80.503,725.561,80.503z"/>
	</g>
	<path fill="#FFFFFF" d="M616.647,137.106c-4.008,0-10.252,1.134-15.026,3.338c-4.775-2.236-11.019-3.338-15.026-3.338
		c-7.245,0-21.705,3.604-21.705,10.851v9.185h73.462v-9.185C638.352,140.711,623.894,137.106,616.647,137.106z M603.29,152.131
		h-33.391v-4.174c0-1.803,8.548-5.843,16.695-5.843c8.148,0,16.695,4.04,16.695,5.843V152.131z M633.344,152.131H608.3v-4.174
		c0-1.535-0.669-2.868-1.735-4.075c2.935-0.998,6.542-1.768,10.083-1.768c8.146,0,16.696,4.04,16.696,5.843V152.131z
		 M586.595,133.766c6.444,0,11.688-5.242,11.688-11.688c0-6.444-5.243-11.687-11.688-11.687s-11.687,5.242-11.687,11.687
		C574.908,128.523,580.15,133.766,586.595,133.766z M586.595,115.4c3.674,0,6.679,3.005,6.679,6.678s-3.005,6.68-6.679,6.68
		c-3.673,0-6.679-3.007-6.679-6.68S582.922,115.4,586.595,115.4z M616.647,133.766c6.443,0,11.688-5.242,11.688-11.688
		c0-6.444-5.244-11.687-11.688-11.687s-11.688,5.242-11.688,11.687C604.96,128.523,610.204,133.766,616.647,133.766z M616.647,115.4
		c3.673,0,6.68,3.005,6.68,6.678s-3.007,6.68-6.68,6.68s-6.679-3.007-6.679-6.68S612.975,115.4,616.647,115.4z"/>
</g>
<g>
	<path fill="#FFFFFF" d="M768.045,247.466h-107.37v15.256h107.37V247.466z M774.756,323.748v-15.256l-6.711-38.142h-107.37
		l-6.712,38.142v15.256h6.712v45.77h67.106v-45.77h26.843v45.77h13.421v-45.77H774.756z M714.359,354.262h-40.265v-30.514h40.265
		V354.262z"/>
	<g>
		<path fill="#FFFFFF" d="M678.827,385.155c-3.43,0-6.221-2.804-6.221-6.25s2.791-6.25,6.221-6.25c3.446,0,6.25,2.804,6.25,6.25
			S682.273,385.155,678.827,385.155z M648.827,385.155c-3.43,0-6.221-2.804-6.221-6.25s2.791-6.25,6.221-6.25
			c3.446,0,6.25,2.804,6.25,6.25S652.273,385.155,648.827,385.155z M648.827,370.155c-3.446,0-6.25-2.804-6.25-6.25
			c0-1.069,0.271-2.107,0.783-3.004l3.987-7.235l-10.679-22.511h-6.092v-6.5h10.22l2.819,6h44.211c1.792,0,3.25,1.458,3.25,3.25
			c0,0.565-0.14,1.12-0.394,1.563l-10.738,19.467c-1.089,1.986-3.185,3.22-5.469,3.22h-22.201l-2.629,4.761l-0.067,0.301
			c0.008,0.224,0.223,0.438,0.508,0.438h34.99v6.5H648.827z"/>
		<path fill="#488FCC" d="M640.638,324.905l2.819,6h44.37c1.649,0,3,1.351,3,3c0,0.51-0.12,1.02-0.36,1.44l-10.74,19.47
			c-1.02,1.859-3,3.09-5.25,3.09h-22.349l-2.7,4.89l-0.091,0.36c0,0.422,0.33,0.75,0.75,0.75h34.74v6h-36c-3.301,0-6-2.701-6-6
			c0-1.049,0.27-2.039,0.75-2.88l4.051-7.351l-10.801-22.77h-6v-6H640.638 M678.827,372.905c3.299,0,6,2.701,6,6s-2.701,6-6,6
			s-5.971-2.701-5.971-6S675.528,372.905,678.827,372.905 M648.827,372.905c3.301,0,6,2.701,6,6s-2.699,6-6,6s-5.971-2.701-5.971-6
			S645.526,372.905,648.827,372.905 M640.955,324.405h-0.317h-9.811h-0.5v0.5v6v0.5h0.5h5.684l10.556,22.253l-3.927,7.126
			c-0.53,0.927-0.812,2.009-0.812,3.121c0,3.584,2.916,6.5,6.5,6.5h36h0.5v-0.5v-6v-0.5h-0.5h-34.74
			c-0.129,0-0.226-0.083-0.246-0.203l0.056-0.222l2.526-4.575h22.054c2.376,0,4.556-1.283,5.688-3.35l10.739-19.469
			c0.275-0.481,0.423-1.065,0.423-1.682c0-1.93-1.57-3.5-3.5-3.5h-44.053l-2.685-5.713L640.955,324.405L640.955,324.405z
			 M678.827,372.405c-3.568,0-6.471,2.916-6.471,6.5s2.902,6.5,6.471,6.5c3.584,0,6.5-2.916,6.5-6.5
			S682.411,372.405,678.827,372.405L678.827,372.405z M648.827,372.405c-3.568,0-6.471,2.916-6.471,6.5s2.902,6.5,6.471,6.5
			c3.584,0,6.5-2.916,6.5-6.5S652.411,372.405,648.827,372.405L648.827,372.405z"/>
	</g>
	<path fill="#488FCC" d="M712.865,301.412l-4.152-4.103l0.049-0.052c2.845-3.171,4.871-6.817,6.065-10.674h4.79v-3.27h-11.444v-3.27
		h-3.27v3.27h-11.444v3.254h18.262c-1.095,3.155-2.829,6.147-5.183,8.762c-1.521-1.682-2.779-3.531-3.776-5.476h-3.271
		c1.194,2.665,2.829,5.182,4.873,7.456l-8.322,8.206l2.321,2.321l8.175-8.174l5.084,5.083L712.865,301.412z M722.07,293.123H718.8
		l-7.357,19.619h3.271l1.831-4.905h7.766l1.848,4.905h3.27L722.07,293.123z M717.786,304.567l2.649-7.079l2.648,7.079H717.786z"/>
</g>
<path fill="#FFFFFF" d="M267.58,294.09l-23.782,11.597l23.782,11.598v-8.698h41.777v-5.799H267.58V294.09z M351.076,288.291
	l-23.78-11.598v8.698h-41.777v5.799h41.777v8.697L351.076,288.291z"/>
<path fill="#FFFFFF" d="M397.842,116.066l-23.782,11.597l23.782,11.598v-8.698h41.777v-5.799h-41.777V116.066z M481.338,110.268
	L457.559,98.67v8.698h-41.777v5.799h41.777v8.697L481.338,110.268z"/>
<g>
	<g>
		<rect x="99.042" y="249.116" fill="#488FCC" width="107.712" height="59.841"/>
		<g>
			<path fill="#FFFFFF" d="M206.753,237.148H99.042c-6.587,0-11.968,5.384-11.968,11.968v71.81c0,6.578,5.381,11.968,11.968,11.968
				h41.887l-11.967,17.952v5.984h47.87v-5.984l-11.965-17.952h41.887c6.581,0,11.969-5.39,11.969-11.968v-71.81
				C218.722,242.532,213.334,237.148,206.753,237.148z M206.753,308.957H99.042v-59.841h107.712V308.957z"/>
			<path fill="#FFFFFF" d="M138.531,306.604h28.747v-25.151h-28.747V306.604z M104.031,306.604h28.758v-54.499h-28.758V306.604z
				 M173.028,306.604h28.745v-25.151h-28.745V306.604z M138.531,252.104v25.152h63.242v-25.152H138.531z"/>
		</g>
	</g>
	<g>
		<g>
			<rect x="69.419" y="301.846" fill="#488FCC" width="80.134" height="55.094"/>
			<g>
				<g>
					<path fill="#FFFFFF" d="M59.402,377.227c-5.661,0-10.267-4.607-10.267-10.271v-0.25h17.116
						c-4.116-1.338-7.099-5.21-7.099-9.766v-55.094c0-5.661,4.605-10.266,10.267-10.266h80.134c5.662,0,10.268,4.605,10.268,10.266
						l-0.048,55.094c0,4.556-2.969,8.428-7.066,9.766h17.131v0.25c0,5.664-4.606,10.271-10.267,10.271H59.402z M109.487,362.197
						c-2.624,0-4.759,2.135-4.759,4.758c0,2.625,2.135,4.76,4.759,4.76c2.623,0,4.757-2.135,4.757-4.76
						C114.244,364.332,112.11,362.197,109.487,362.197z M149.303,356.689v-54.594H69.669v54.594H149.303z"/>
					<path fill="#488FCC" d="M149.553,291.83c5.509,0,10.018,4.507,10.018,10.016l-0.048,55.094c0,5.508-4.46,10.016-9.97,10.016
						h20.035c0,5.51-4.51,10.021-10.017,10.021H59.402c-5.512,0-10.017-4.512-10.017-10.021h20.034
						c-5.512,0-10.017-4.508-10.017-10.016v-55.094c0-5.509,4.505-10.016,10.017-10.016H149.553 M69.419,356.939h80.134v-55.094
						H69.419V356.939 M109.487,371.965c2.753,0,5.007-2.256,5.007-5.01c0-2.753-2.253-5.008-5.007-5.008
						c-2.756,0-5.009,2.255-5.009,5.008C104.479,369.709,106.731,371.965,109.487,371.965 M149.553,291.33H69.419
						c-5.799,0-10.517,4.718-10.517,10.516v55.094c0,4.199,2.474,7.832,6.042,9.516H49.385h-0.5v0.5
						c0,5.802,4.718,10.521,10.517,10.521H159.57c5.799,0,10.517-4.72,10.517-10.521v-0.5h-0.5h-15.58
						c3.552-1.684,6.015-5.316,6.015-9.516l0.048-55.093C160.07,296.047,155.352,291.33,149.553,291.33L149.553,291.33z
						 M69.919,302.346h79.134v54.094H69.919V302.346L69.919,302.346z M109.487,371.465c-2.486,0-4.509-2.023-4.509-4.51
						c0-2.485,2.022-4.508,4.509-4.508c2.485,0,4.507,2.022,4.507,4.508C113.994,369.441,111.972,371.465,109.487,371.465
						L109.487,371.465z"/>
				</g>
				<path fill="#FFFFFF" d="M98.903,352.051h20.746v-21.053H98.903V352.051z M74.006,352.051h20.75v-45.613h-20.75V352.051z
					 M123.796,352.051h20.75v-21.053h-20.75V352.051z M98.903,306.438v21.051h45.643v-21.051H98.903z"/>
			</g>
		</g>
	</g>
	<g>
		<rect x="165.771" y="311.891" fill="#488FCC" width="57.239" height="61.057"/>
		<g>
			<g>
				<path fill="#FFFFFF" d="M167.68,392.277c-5.398,0-9.79-4.393-9.79-9.791v-72.504c0-5.398,4.392-9.791,9.79-9.791h53.423
					c5.398,0,9.79,4.393,9.79,9.791v72.504c0,5.398-4.392,9.791-9.79,9.791H167.68z M194.392,377.013
					c-3.018,0-5.474,2.455-5.474,5.474s2.456,5.475,5.474,5.475s5.473-2.456,5.473-5.475S197.41,377.013,194.392,377.013z
					 M222.761,372.697v-60.557h-56.739v60.557H222.761z"/>
				<path fill="#488FCC" d="M221.104,300.441c5.265,0,9.54,4.275,9.54,9.541v72.504c0,5.262-4.274,9.541-9.54,9.541H167.68
					c-5.265,0-9.54-4.279-9.54-9.541v-72.504c0-5.266,4.275-9.541,9.54-9.541H221.104 M165.771,372.947h57.239v-61.057h-57.239
					V372.947 M194.392,388.211c3.166,0,5.723-2.557,5.723-5.725s-2.557-5.724-5.723-5.724c-3.168,0-5.724,2.556-5.724,5.724
					S191.224,388.211,194.392,388.211 M221.104,299.941H167.68c-5.536,0-10.04,4.504-10.04,10.041v72.504
					c0,5.537,4.504,10.041,10.04,10.041h53.423c5.536,0,10.04-4.504,10.04-10.041v-72.504
					C231.143,304.445,226.639,299.941,221.104,299.941L221.104,299.941z M166.271,312.391h56.239v60.057h-56.239V312.391
					L166.271,312.391z M194.392,387.711c-2.88,0-5.224-2.344-5.224-5.225c0-2.88,2.343-5.224,5.224-5.224
					c2.88,0,5.223,2.344,5.223,5.224C199.615,385.367,197.272,387.711,194.392,387.711L194.392,387.711z"/>
			</g>
			<path fill="#FFFFFF" d="M186.909,369.131h14.429v-24.955h-14.429V369.131z M169.587,369.131h14.434V315.07h-14.434V369.131z
				 M204.23,369.131h14.429v-24.955H204.23V369.131z M186.909,315.07v24.949h31.75V315.07H186.909z"/>
		</g>
	</g>
	<g>
		<rect x="136.206" y="353.445" fill="#488FCC" width="21.938" height="34.127"/>
		<g>
			<g>
				<path fill="#FFFFFF" d="M137.425,400.008c-3.497,0-6.342-2.844-6.342-6.34v-41.439c0-3.498,2.845-6.344,6.342-6.344h19.5
					c3.497,0,6.342,2.846,6.342,6.344v41.439c0,3.496-2.845,6.34-6.342,6.34H137.425z M147.173,390.26
					c-1.878,0-3.407,1.529-3.407,3.408c0,1.876,1.528,3.402,3.407,3.402c1.88,0,3.41-1.526,3.41-3.402
					C150.583,391.789,149.053,390.26,147.173,390.26z M157.894,387.322v-33.627h-21.438v33.627H157.894z"/>
				<path fill="#488FCC" d="M156.925,346.135c3.361,0,6.092,2.73,6.092,6.094v41.439c0,3.361-2.731,6.09-6.092,6.09h-19.5
					c-3.361,0-6.092-2.729-6.092-6.09v-41.439c0-3.363,2.731-6.094,6.092-6.094H156.925 M136.206,387.572h21.938v-34.127h-21.938
					V387.572 M147.173,397.32c2.023,0,3.66-1.633,3.66-3.652c0-2.027-1.637-3.658-3.66-3.658c-2.02,0-3.657,1.631-3.657,3.658
					C143.517,395.688,145.154,397.32,147.173,397.32 M156.925,345.635h-19.5c-3.635,0-6.592,2.957-6.592,6.594v41.439
					c0,3.634,2.958,6.59,6.592,6.59h19.5c3.635,0,6.592-2.956,6.592-6.59v-41.439C163.518,348.592,160.56,345.635,156.925,345.635
					L156.925,345.635z M136.706,353.945h20.938v33.127h-20.938V353.945L136.706,353.945z M147.173,396.82
					c-1.741,0-3.157-1.414-3.157-3.152c0-1.741,1.416-3.158,3.157-3.158c1.742,0,3.16,1.417,3.16,3.158
					C150.333,395.406,148.916,396.82,147.173,396.82L147.173,396.82z"/>
			</g>
			<path fill="#FFFFFF" d="M144.426,386.357h5.504v-14.623h-5.504V386.357z M137.83,386.357h5.497v-31.691h-5.497V386.357z
				 M151.03,386.357h5.497v-14.623h-5.497V386.357z M144.426,354.666v14.628h12.101v-14.628H144.426z"/>
		</g>
	</g>
	<g>
		<path fill="#488FCC" d="M158.572,270.253l-5.661-5.66l5.661-5.66l-1.723-1.725l-7.384,7.385l7.384,7.384L158.572,270.253z
			 M180.97,270.253l5.662-5.66l-5.662-5.66l1.724-1.725l7.384,7.385l-7.384,7.384L180.97,270.253z"/>
		<path fill="#488FCC" d="M169.771,256.789c-4.636,0-8.397,3.762-8.397,8.397c0,4.635,3.762,8.397,8.397,8.397
			c4.635,0,8.397-3.763,8.397-8.397C178.169,260.55,174.406,256.789,169.771,256.789z M168.931,271.845
			c-3.317-0.412-5.878-3.233-5.878-6.659c0-0.521,0.067-1.016,0.176-1.503l4.022,4.021v0.84c0,0.924,0.756,1.68,1.679,1.68V271.845z
			 M174.726,269.712c-0.218-0.681-0.84-1.168-1.596-1.168h-0.839v-2.519c0-0.462-0.378-0.84-0.84-0.84h-5.038v-1.68h1.679
			c0.462,0,0.839-0.378,0.839-0.839v-1.68h1.68c0.923,0,1.679-0.756,1.679-1.681v-0.344c2.46,0.999,4.199,3.409,4.199,6.223
			C176.489,266.932,175.818,268.521,174.726,269.712z"/>
	</g>
	<g>
		<path fill="#488FCC" d="M110.756,322.139l-5.661-5.66l5.661-5.66l-1.723-1.725l-7.384,7.385l7.384,7.383L110.756,322.139z
			 M133.154,322.139l5.662-5.66l-5.662-5.66l1.724-1.725l7.384,7.385l-7.384,7.383L133.154,322.139z"/>
		<path fill="#488FCC" d="M121.956,308.674c-4.636,0-8.397,3.762-8.397,8.396s3.762,8.398,8.397,8.398
			c4.635,0,8.397-3.764,8.397-8.398S126.59,308.674,121.956,308.674z M121.115,323.73c-3.317-0.412-5.878-3.234-5.878-6.66
			c0-0.52,0.067-1.016,0.176-1.502l4.022,4.021v0.84c0,0.924,0.756,1.68,1.679,1.68V323.73z M126.91,321.598
			c-0.218-0.682-0.84-1.168-1.596-1.168h-0.839v-2.52c0-0.461-0.378-0.84-0.84-0.84h-5.038v-1.68h1.679
			c0.462,0,0.839-0.377,0.839-0.838v-1.68h1.68c0.923,0,1.679-0.756,1.679-1.682v-0.344c2.46,1,4.199,3.41,4.199,6.223
			C128.673,318.816,128.002,320.406,126.91,321.598z"/>
	</g>
	<g>
		<path fill="#488FCC" d="M194.785,328.441l-3.939-3.939l3.939-3.938l-1.199-1.2l-5.139,5.139l5.139,5.139L194.785,328.441z
			 M210.373,328.441l3.94-3.939l-3.94-3.938l1.2-1.2l5.139,5.139l-5.139,5.139L210.373,328.441z"/>
		<path fill="#488FCC" d="M202.58,319.07c-3.226,0-5.844,2.618-5.844,5.845c0,3.226,2.618,5.844,5.844,5.844
			c3.226,0,5.844-2.618,5.844-5.844C208.424,321.688,205.805,319.07,202.58,319.07z M201.995,329.549
			c-2.308-0.286-4.09-2.25-4.09-4.634c0-0.362,0.047-0.707,0.123-1.046l2.799,2.799v0.584c0,0.643,0.526,1.169,1.168,1.169V329.549z
			 M206.027,328.064c-0.152-0.473-0.584-0.812-1.11-0.812h-0.584V325.5c0-0.322-0.263-0.585-0.584-0.585h-3.506v-1.169h1.168
			c0.321,0,0.584-0.264,0.584-0.584v-1.169h1.169c0.642,0,1.168-0.526,1.168-1.169v-0.24c1.712,0.695,2.922,2.373,2.922,4.331
			C207.255,326.13,206.788,327.236,206.027,328.064z"/>
	</g>
	<g>
		<path fill="#488FCC" d="M146.692,361.158l-1.819-1.819l1.819-1.819l-0.554-0.554l-2.373,2.373l2.373,2.373L146.692,361.158z
			 M153.89,361.158l1.82-1.819l-1.82-1.819l0.554-0.554l2.373,2.373l-2.373,2.373L153.89,361.158z"/>
		<path fill="#488FCC" d="M150.292,356.83c-1.49,0-2.699,1.209-2.699,2.699c0,1.489,1.209,2.699,2.699,2.699s2.699-1.21,2.699-2.699
			C152.99,358.039,151.781,356.83,150.292,356.83z M150.021,361.669c-1.066-0.132-1.889-1.039-1.889-2.14
			c0-0.167,0.021-0.326,0.056-0.482l1.293,1.292v0.27c0,0.297,0.243,0.54,0.54,0.54V361.669z M151.884,360.983
			c-0.07-0.218-0.27-0.375-0.513-0.375h-0.27V359.8c0-0.149-0.121-0.271-0.27-0.271h-1.619v-0.54h0.54c0.148,0,0.27-0.121,0.27-0.27
			v-0.54h0.54c0.296,0,0.54-0.242,0.54-0.539v-0.111c0.791,0.321,1.35,1.096,1.35,2
			C152.451,360.091,152.235,360.602,151.884,360.983z"/>
	</g>
</g>
<g>
	<g>
		<g>
			<g>
				<path fill="#FFFFFF" d="M488.754,247.084H381.041c-6.587,0-11.968,5.384-11.968,11.968v71.81
					c0,6.578,5.381,11.968,11.968,11.968h41.887l-11.967,17.952v5.984h47.87v-5.984l-11.965-17.952h41.888
					c6.58,0,11.969-5.39,11.969-11.968v-71.81C500.723,252.469,495.334,247.084,488.754,247.084z M488.754,318.894H381.041v-59.841
					h107.713V318.894z"/>
			</g>
			<rect x="376.966" y="256.789" fill="#488FCC" width="116.034" height="75.211"/>
		</g>
	</g>
	<path fill="#FFFFFF" d="M434.853,306.16l-3.567-3.525l0.041-0.044c2.445-2.725,4.186-5.858,5.211-9.171h4.115v-2.81h-9.83v-2.809
		h-2.81v2.809h-9.833v2.795h15.689c-0.939,2.711-2.43,5.281-4.452,7.526c-1.306-1.444-2.388-3.032-3.245-4.703h-2.809
		c1.025,2.289,2.43,4.452,4.186,6.406l-7.149,7.05l1.993,1.994l7.024-7.021l4.368,4.366L434.853,306.16z M442.761,299.037h-2.81
		l-6.32,16.856h2.809l1.574-4.215h6.672l1.587,4.215h2.81L442.761,299.037z M439.08,308.869l2.275-6.082l2.276,6.082H439.08z"/>
</g>
<path fill="#FFFFFF" d="M543.58,293.494l-23.782,11.597l23.782,11.598v-8.698h41.777v-5.799H543.58V293.494z M627.076,287.695
	l-23.78-11.598v8.698h-41.777v5.799h41.777v8.697L627.076,287.695z"/>
<g>
	<g>
		<g>
			<defs>
				<circle id="SVGID_1_" cx="410.356" cy="273.643" r="9.953"/>
			</defs>
			<clipPath id="SVGID_2_">
				<use xlink:href="#SVGID_1_"  overflow="visible"/>
			</clipPath>
			<g clip-path="url(#SVGID_2_)">
				<path fill="#FFFFFF" d="M401.652,268.403c-0.113,0.824,0.17,1.25,0,1.647s-0.369,1.107-0.199,1.59
					c0.171,0.482,0.427,1.533,0.653,1.562c0.228,0.028-0.17-1.136,0.058-0.767c0.227,0.369,0.227,0.918,0.624,1.297
					s0.938,0.322,1.363,0.691c0.426,0.37,0.853,0.909,1.25,0.852c0,0-0.028,0.284-0.228,0.767s-0.228,1.05,0.028,1.392
					c0.256,0.341,0.511,0.852,0.738,1.107c0.228,0.256,0.397,1.619,0.341,2.3c-0.057,0.681,0.256,2.215,0.966,2.556
					s0-0.17-0.143-0.596c-0.142-0.426,0.11-1.42,0.453-1.562s0.655-0.71,0.91-1.108c0.256-0.397,0.909-0.568,1.107-1.05
					c0.199-0.483,0.114-1.051,0.228-1.306c0.113-0.256,0.426-0.824-0.256-1.165s-0.966-0.17-0.994-0.483
					c-0.028-0.312-0.198-0.653-0.681-0.795c-0.483-0.142-0.909-0.417-1.449-0.479c-0.539-0.061-0.652,0.365-0.937,0.138
					c-0.284-0.227-0.512-0.455-0.625-0.738s-0.454-0.113-0.426-0.284s0.482-0.653-0.028-0.483c-0.512,0.17-0.966,0.113-0.938-0.341
					s0.653-0.625,0.909-0.682c0.255-0.057,0.454,0.255,0.767,0.455c0.312,0.198,0.028-0.284,0.198-0.625
					c0.171-0.341,0.824-0.312,0.909-0.795c0.085-0.483-0.028-0.881,0.482-0.938c0.512-0.057,1.051,0.029,1.107-0.227
					c0.058-0.255-0.596,0.085-0.624-0.227c-0.029-0.312,0.567-0.738,0.738-0.426c0.17,0.312,0.596,0.341,0.653,0.228
					c0.057-0.114,0-0.312-0.199-0.795c-0.198-0.482-0.397-0.34-0.568-0.88c-0.17-0.54-0.454,0.029-0.738-0.255
					s-0.624-0.88-0.682-0.369c-0.057,0.511-0.057,0.795-0.312,1.192c-0.256,0.398-0.37,0.086-0.597-0.17
					c-0.228-0.255-0.738-0.511-0.568-0.738c0.171-0.227,0.341-0.824,0.597-0.653s0.653,0.17,0.597-0.114
					c-0.057-0.284,0-0.397,0.113-0.54c0.113-0.142,0.512-0.397,0.512,0.114s-0.058,0.653,0.34,0.71
					c0.398,0.057,0.853,0.085,0.824-0.17c-0.028-0.256,0.113-0.199,0-0.625c-0.114-0.426-0.455-0.454-0.824-0.653
					s-0.567-0.511-0.88-0.397c-0.312,0.113-0.341,0.227-0.369,0.54c-0.029,0.312-0.199,0.426-0.312,0.284
					c-0.113-0.143,0.028-0.597-0.397-0.313c-0.426,0.284-0.597,0.767-0.823,0.426c-0.228-0.341,0.34-0.937-0.256-0.682
					c-0.597,0.255-1.022,0.54-0.71,0.653c0.312,0.113,0.624,0.312,0.312,0.426c-0.312,0.114-0.938-0.085-1.165,0.142
					C402.277,267.268,401.652,268.403,401.652,268.403z"/>
				<path fill="#FFFFFF" d="M405.004,265.337c-0.002,0.317,0.085,0.568,0.369,0.284c0.283-0.284,0.453-0.625,0.652-0.483
					s0.54,0.104,0.682,0.095c0.143-0.009,0.171-0.436,0.568-0.378c0.397,0.057,0.256-0.085,0.682-0.312
					c0.426-0.228,1.335-0.625,0.397-0.511c-0.938,0.114-0.994-0.142-1.647,0.284c-0.652,0.426-0.795,0.426-0.966,0.54
					c-0.17,0.113-0.368-0.341-0.596,0C404.918,265.194,405.005,265.013,405.004,265.337z"/>
				<path fill="#FFFFFF" d="M408.411,264.456c-0.336,0.29-0.852,0.71-0.454,0.71s0.591-0.208,0.806,0.066
					c0.216,0.275,0.132,0.7,0.132,0.899c0,0.199-0.114,0.653,0.17,1.221c0.283,0.568,0.312,0.938,0.597,0.568
					c0.283-0.369,0.965-1.079,1.306-1.135c0.341-0.057,0.682-0.199,0.853-0.483c0.17-0.284,0-0.56,0.283-0.763
					c0.284-0.203,0.228-0.458,0.312-0.771s0.852-0.312,0.512-0.482c-0.341-0.17-0.966-0.284-1.704-0.199
					C410.484,264.172,409.036,263.917,408.411,264.456z"/>
				<path fill="#FFFFFF" d="M405.287,273.231c-0.181,0.295-0.085,0.312,0.114,0.369c0.198,0.057-0.086,0.397,0.142,0.426
					c0.228,0.028,0.738,0.17,0.88,0c0.143-0.17-0.227-0.104-0.482-0.293C405.686,273.543,405.415,273.022,405.287,273.231z"/>
				<path fill="#FFFFFF" d="M419.032,277.86c-0.306,0.153-0.171,0.397-0.455,0.568c-0.284,0.17-0.17,0.227-0.255,0.625
					c-0.086,0.397,0.028,0.625,0.227,0.312C418.748,279.053,419.372,277.689,419.032,277.86z"/>
				<path fill="#FFFFFF" d="M420.65,273.089c-0.085-0.483-0.71-4.856-0.71-4.856s-1.676-1.079-1.959-0.852
					c-0.284,0.227-0.768,0.193-0.71-0.031c0.057-0.225,0.426-0.167-0.199-0.594c-0.625-0.426-0.738-0.795-1.221-0.255
					c-0.483,0.54-0.597,0.994-0.881,1.136s-0.511,0.596-0.198,0.71c0.312,0.113,0.34,0,0.596,0.227s0.597,0.17,0.653,0.029
					c0.057-0.143,0.114-0.596,0.142-0.767c0.029-0.17,0.317-0.738,0.287-0.284s0.395,0.455,0.111,0.767
					c-0.284,0.312-0.114,0.568-0.682,0.625c-0.568,0.057-0.597-0.284-0.909-0.114c-0.312,0.17-0.284,0.284-0.397,0.454
					s-0.71,0.511-0.71,0.511s-0.482-0.17-0.256,0.142c0.228,0.312,0.427,0.681,0.228,0.71c-0.199,0.028-0.738-0.284-0.738,0.057
					s-0.085,0.71,0.142,0.795c0.16,0.06,0.265,0.19,0.412,0.172c-0.114,0.049-0.218,0.121-0.299,0.226
					c-0.22,0.289-0.085,0.795-0.539,0.965c-0.454,0.171-0.454,0.369-0.539,0.738c-0.086,0.37,0,1.307,0.113,1.392
					c0.113,0.085,0.312,0.795,0.795,0.738c0.483-0.057,0.994-0.079,1.164,0.003c0.171,0.082,0.455-0.174,0.54,0.479
					c0.085,0.653,0.284,0.738,0.397,1.079c0.113,0.34-0.057,1.051,0,1.477c0.057,0.426,0.455,1.165,0.455,1.534
					s0.425,0.54,0.652,0.397s0.71-0.426,0.909-0.88c0.198-0.454,0.198-0.682,0.511-1.278s0.228-1.022,0.369-1.477
					c0.143-0.455,0.483-0.767,0.952-1.278c0.468-0.511,0.384-0.795,0-0.767c-0.384,0.028-0.64-0.341-0.839-0.795
					c-0.198-0.455-0.426-1.59-0.255-1.221s0.511,1.392,0.852,1.562s0.966-0.29,1.107-0.458c0.143-0.167,0.085-0.65-0.284-0.849
					c-0.368-0.199-0.142-0.369,0.228-0.143C420.31,273.345,420.735,273.572,420.65,273.089z M417.641,271.868
					c-0.028,0.227,0.085,0.596-0.54,0.454s-0.625-0.483-0.88-0.227c-0.256,0.255-0.568,0.483-0.938,0.085
					c-0.369-0.397-0.312-0.511-0.511-0.539c-0.142-0.021-0.614-0.126-1.008-0.011c0.031-0.018,0.063-0.042,0.099-0.074
					c0.284-0.255,0.228-0.341,0.539-0.625c0.313-0.284,0.54-0.54,0.768-0.284c0.227,0.256,0.71,0.312,0.539,0.596
					c-0.17,0.284-0.057,0.455,0.143,0.284c0.198-0.17,0.482-0.284,0.284-0.511c-0.199-0.227-0.397-0.824-0.114-0.426
					c0.284,0.397,0.369,0.596,0.54,0.824c0.17,0.227,0.341,0.369,0.397,0.227c0.057-0.142-0.028-0.455,0.057-0.512
					c0.085-0.057,0,0.483,0.256,0.512C417.526,271.669,417.669,271.641,417.641,271.868z M418.293,270.903
					c-0.199-0.114-0.567,0-1.021,0.142c-0.455,0.142-0.092-0.316,0.113-0.625c0.183-0.276,0.085,0.085,0.482,0.114
					C418.265,270.562,418.492,271.016,418.293,270.903z M419.287,271.783c-0.085,0.085-0.227-0.397-0.312-0.625
					c-0.085-0.227-0.083-0.622,0.157-0.842c0.298-0.273,0.155,0.359,0.155,0.7S419.372,271.698,419.287,271.783z"/>
				<path fill="#FFFFFF" d="M413.807,268.318c-0.174,0.052-0.312,0.397-0.227,0.568c0.085,0.17-0.086-0.086-0.313,0.057
					c-0.227,0.142-0.564,0.54-0.253,0.568c0.311,0.028,0.253-0.228,0.537-0.114s0.597,0.085,0.597-0.199
					S414.091,268.233,413.807,268.318z"/>
				<path fill="#FFFFFF" d="M411.961,267.012c-0.171,0.024-0.228,0.454,0.142,0.511c0.369,0.057,1.03-0.085,0.785-0.312
					C412.643,266.983,412.358,266.955,411.961,267.012z"/>
			</g>
		</g>
		<g>
			<g>
				<circle fill="none" stroke="#FFFFFF" stroke-width="2" stroke-miterlimit="10" cx="410.402" cy="273.771" r="9.863"/>
			</g>
		</g>
	</g>
	<g>
		<g>
			<g>
				<defs>
					<rect id="SVGID_3_" x="441.852" y="263.521" width="12.156" height="20.182"/>
				</defs>
				<clipPath id="SVGID_4_">
					<use xlink:href="#SVGID_3_"  overflow="visible"/>
				</clipPath>
				<path clip-path="url(#SVGID_4_)" fill="#55A4DB" d="M452.208,265.273c-1.182-1.168-2.612-1.752-4.292-1.752
					c-1.681,0-3.111,0.584-4.293,1.752c-1.182,1.168-1.771,2.58-1.771,4.233c0,0.998,0.505,2.665,1.516,5.001
					c1.011,2.336,2.021,4.463,3.032,6.379s1.517,2.848,1.517,2.796c0.157-0.289,0.373-0.683,0.649-1.181
					c0.275-0.499,0.762-1.438,1.457-2.816c0.695-1.378,1.307-2.645,1.831-3.8c0.525-1.155,1.011-2.35,1.457-3.583
					s0.669-2.166,0.669-2.796C453.979,267.853,453.39,266.441,452.208,265.273L452.208,265.273z M449.215,270.767
					c-0.367,0.368-0.807,0.551-1.319,0.551c-0.512,0-0.951-0.184-1.318-0.551c-0.368-0.367-0.552-0.807-0.552-1.319
					c0-0.512,0.184-0.945,0.552-1.3c0.367-0.354,0.807-0.532,1.318-0.532c0.513,0,0.952,0.177,1.319,0.532
					c0.368,0.354,0.552,0.788,0.552,1.3C449.767,269.959,449.583,270.399,449.215,270.767L449.215,270.767z M449.215,270.767"/>
			</g>
		</g>
		<g>
			<g>
				<defs>
					<rect id="SVGID_5_" x="441.852" y="263.521" width="12.156" height="20.182"/>
				</defs>
				<clipPath id="SVGID_6_">
					<use xlink:href="#SVGID_5_"  overflow="visible"/>
				</clipPath>
				<path clip-path="url(#SVGID_6_)" fill="#FFFFFF" d="M452.208,265.273c-1.182-1.168-2.612-1.752-4.292-1.752
					c-1.681,0-3.111,0.584-4.293,1.752c-1.182,1.168-1.771,2.58-1.771,4.233c0,0.998,0.505,2.665,1.516,5.001
					c1.011,2.336,2.021,4.463,3.032,6.379s1.517,2.848,1.517,2.796c0.157-0.289,0.373-0.683,0.649-1.181
					c0.275-0.499,0.762-1.438,1.457-2.816c0.695-1.378,1.307-2.645,1.831-3.8c0.525-1.155,1.011-2.35,1.457-3.583
					s0.669-2.166,0.669-2.796C453.979,267.853,453.39,266.441,452.208,265.273L452.208,265.273z M449.215,270.767
					c-0.367,0.368-0.807,0.551-1.319,0.551c-0.512,0-0.951-0.184-1.318-0.551c-0.368-0.367-0.552-0.807-0.552-1.319
					c0-0.512,0.184-0.945,0.552-1.3c0.367-0.354,0.807-0.532,1.318-0.532c0.513,0,0.952,0.177,1.319,0.532
					c0.368,0.354,0.552,0.788,0.552,1.3C449.767,269.959,449.583,270.399,449.215,270.767L449.215,270.767z M449.215,270.767"/>
			</g>
		</g>
		<g>
			<g>
				<defs>
					<rect id="SVGID_7_" x="441.852" y="263.521" width="12.156" height="20.182"/>
				</defs>
				<clipPath id="SVGID_8_">
					<use xlink:href="#SVGID_7_"  overflow="visible"/>
				</clipPath>
			</g>
		</g>
	</g>
	<text transform="matrix(0.9688 0 0 1 383.7197 283.5854)" fill="#FFFFFF" font-family="'MyriadPro-Regular'" font-size="29.6587">L</text>
	<text transform="matrix(1 0 0 1 422.7207 283.4375)" fill="#FFFFFF" font-family="'MyriadPro-Regular'" font-size="29.6587">C</text>
	<text transform="matrix(1 0 0 1 455.0488 283.5859)" fill="#FFFFFF" font-family="'MyriadPro-Regular'" font-size="29.6587">ZE</text>
</g>
</svg>
