<?xml version="1.0" encoding="utf-8"?>
<!-- Generator: Adobe Illustrator 16.0.0, SVG Export Plug-In . SVG Version: 6.00 Build 0)  -->
<!DOCTYPE svg PUBLIC "-//W3C//DTD SVG 1.1//EN" "http://www.w3.org/Graphics/SVG/1.1/DTD/svg11.dtd">
<svg version="1.1" id="Layer_1" xmlns="http://www.w3.org/2000/svg" xmlns:xlink="http://www.w3.org/1999/xlink" x="0px" y="0px"
	 viewBox="0 0 841.89 140" enable-background="new 0 0 841.89 140" xml:space="preserve">
<g>
	<path fill="#FFFFFF" d="M245.781,67.46v8.599l11.465-11.465l-11.465-11.467v8.6c-12.668,0-22.931,10.262-22.931,22.931
		c0,4.501,1.32,8.683,3.555,12.211l4.185-4.186c-1.29-2.376-2.007-5.131-2.007-8.025C228.583,75.169,236.293,67.46,245.781,67.46z
		 M265.157,72.446l-4.185,4.186c1.263,2.407,2.006,5.131,2.006,8.025c0,9.489-7.709,17.197-17.197,17.197v-8.599l-11.465,11.465
		l11.465,11.466v-8.599c12.668,0,22.93-10.262,22.93-22.931C268.711,80.155,267.393,75.975,265.157,72.446z"/>
	<path fill="#FFFFFF" d="M180.31,84.885c5.544,0,9.985-4.476,9.985-10.018c0-5.545-4.441-10.019-9.985-10.019
		s-10.017,4.474-10.017,10.019C170.293,80.409,174.766,84.885,180.31,84.885z M153.596,84.885c5.544,0,9.986-4.476,9.986-10.018
		c0-5.545-4.442-10.019-9.986-10.019c-5.543,0-10.018,4.474-10.018,10.019C143.579,80.409,148.053,84.885,153.596,84.885z
		 M153.596,91.562c-7.78,0-23.375,3.905-23.375,11.688v8.348h46.749v-8.348C176.971,95.468,161.377,91.562,153.596,91.562z
		 M180.31,91.562c-0.969,0-2.07,0.065-3.241,0.166c3.874,2.808,6.581,6.577,6.581,11.522v8.348h20.035v-8.348
		C203.685,95.468,188.091,91.562,180.31,91.562z"/>
	<g>
		<path fill="#FFFFFF" d="M144.242,37.337c0,2.474-0.671,4.364-2.014,5.673c-1.343,1.309-3.274,1.963-5.796,1.963h-4.151V29.988
			h4.591c2.33,0,4.141,0.646,5.432,1.938C143.597,33.217,144.242,35.021,144.242,37.337z M142.397,37.398
			c0-1.954-0.49-3.427-1.471-4.417s-2.438-1.485-4.371-1.485h-2.532v11.971h2.122c2.077,0,3.639-0.512,4.684-1.533
			C141.875,40.912,142.397,39.401,142.397,37.398z"/>
		<path fill="#FFFFFF" d="M152.072,45.178c-1.66,0-2.97-0.506-3.93-1.518c-0.96-1.011-1.44-2.415-1.44-4.212
			c0-1.811,0.446-3.249,1.337-4.314c0.892-1.065,2.089-1.599,3.592-1.599c1.408,0,2.521,0.463,3.341,1.389s1.23,2.146,1.23,3.664
			v1.075h-7.738c0.034,1.318,0.367,2.32,0.999,3.003c0.632,0.684,1.522,1.025,2.67,1.025c1.209,0,2.405-0.252,3.587-0.758v1.517
			c-0.601,0.26-1.17,0.445-1.706,0.559C153.478,45.121,152.831,45.178,152.072,45.178z M151.611,34.959
			c-0.902,0-1.622,0.295-2.158,0.882c-0.536,0.588-0.852,1.401-0.948,2.439h5.873c0-1.073-0.239-1.895-0.717-2.466
			C153.183,35.245,152.5,34.959,151.611,34.959z"/>
		<path fill="#FFFFFF" d="M161.562,44.973l-4.264-11.233h1.824l2.419,6.662c0.547,1.558,0.868,2.569,0.964,3.034h0.082
			c0.075-0.362,0.312-1.112,0.712-2.25c0.399-1.138,1.296-3.619,2.69-7.446h1.824l-4.263,11.233H161.562z"/>
		<path fill="#FFFFFF" d="M174.364,45.178c-1.661,0-2.971-0.506-3.931-1.518c-0.96-1.011-1.44-2.415-1.44-4.212
			c0-1.811,0.446-3.249,1.337-4.314c0.892-1.065,2.089-1.599,3.592-1.599c1.408,0,2.521,0.463,3.342,1.389
			c0.819,0.926,1.229,2.146,1.229,3.664v1.075h-7.738c0.034,1.318,0.367,2.32,0.999,3.003c0.632,0.684,1.522,1.025,2.67,1.025
			c1.209,0,2.405-0.252,3.587-0.758v1.517c-0.602,0.26-1.17,0.445-1.707,0.559C175.769,45.121,175.122,45.178,174.364,45.178z
			 M173.902,34.959c-0.902,0-1.621,0.295-2.158,0.882c-0.536,0.588-0.852,1.401-0.948,2.439h5.873c0-1.073-0.239-1.895-0.717-2.466
			C175.474,35.245,174.791,34.959,173.902,34.959z"/>
		<path fill="#FFFFFF" d="M183.096,44.973h-1.702V29.025h1.702V44.973z"/>
		<path fill="#FFFFFF" d="M196.398,39.347c0,1.83-0.46,3.261-1.383,4.288c-0.922,1.028-2.197,1.543-3.823,1.543
			c-1.004,0-1.896-0.236-2.675-0.708c-0.778-0.471-1.38-1.147-1.803-2.028c-0.424-0.881-0.636-1.913-0.636-3.095
			c0-1.832,0.458-3.259,1.374-4.28s2.186-1.531,3.812-1.531c1.571,0,2.82,0.522,3.746,1.567
			C195.936,36.148,196.398,37.562,196.398,39.347z M187.84,39.347c0,1.435,0.288,2.527,0.861,3.279
			c0.574,0.751,1.418,1.127,2.532,1.127s1.959-0.374,2.536-1.122c0.578-0.748,0.867-1.844,0.867-3.284
			c0-1.429-0.289-2.513-0.867-3.255c-0.577-0.741-1.429-1.111-2.557-1.111c-1.114,0-1.954,0.364-2.521,1.096
			C188.124,36.808,187.84,37.897,187.84,39.347z"/>
		<path fill="#FFFFFF" d="M204.607,45.178c-0.731,0-1.399-0.135-2.003-0.405c-0.604-0.27-1.112-0.685-1.522-1.245h-0.123
			c0.082,0.656,0.123,1.277,0.123,1.865v4.623h-1.702V33.739h1.384L201,35.277h0.082c0.438-0.615,0.946-1.06,1.527-1.333
			c0.581-0.272,1.247-0.409,1.998-0.409c1.489,0,2.639,0.509,3.449,1.527c0.809,1.018,1.214,2.445,1.214,4.284
			c0,1.844-0.412,3.277-1.235,4.299C207.212,44.667,206.069,45.178,204.607,45.178z M204.362,34.98
			c-1.148,0-1.978,0.317-2.491,0.952c-0.513,0.636-0.775,1.647-0.789,3.034v0.38c0,1.577,0.263,2.707,0.789,3.387
			c0.526,0.679,1.37,1.02,2.531,1.02c0.971,0,1.73-0.394,2.281-1.179c0.55-0.786,0.825-1.869,0.825-3.249
			c0-1.4-0.275-2.475-0.825-3.223C206.133,35.354,205.359,34.98,204.362,34.98z"/>
		<path fill="#FFFFFF" d="M226.561,44.973v-7.308c0-0.895-0.191-1.566-0.574-2.014c-0.382-0.448-0.977-0.671-1.783-0.671
			c-1.059,0-1.841,0.304-2.347,0.912c-0.505,0.608-0.759,1.544-0.759,2.808v6.272h-1.701v-7.308c0-0.895-0.191-1.566-0.574-2.014
			c-0.383-0.448-0.98-0.671-1.794-0.671c-1.066,0-1.846,0.319-2.341,0.958c-0.496,0.639-0.743,1.686-0.743,3.141v5.894h-1.701
			V33.739h1.383l0.277,1.538h0.082c0.321-0.546,0.774-0.974,1.357-1.281c0.584-0.308,1.239-0.461,1.963-0.461
			c1.756,0,2.904,0.636,3.444,1.906h0.082c0.334-0.588,0.82-1.053,1.455-1.395c0.636-0.341,1.36-0.512,2.173-0.512
			c1.271,0,2.222,0.326,2.854,0.979s0.949,1.696,0.949,3.131v7.328H226.561z"/>
		<path fill="#FFFFFF" d="M236.512,45.178c-1.66,0-2.97-0.506-3.931-1.518c-0.959-1.011-1.44-2.415-1.44-4.212
			c0-1.811,0.446-3.249,1.337-4.314c0.892-1.065,2.089-1.599,3.593-1.599c1.407,0,2.521,0.463,3.341,1.389
			c0.819,0.926,1.23,2.146,1.23,3.664v1.075h-7.738c0.034,1.318,0.367,2.32,0.999,3.003c0.632,0.684,1.522,1.025,2.669,1.025
			c1.21,0,2.405-0.252,3.587-0.758v1.517c-0.602,0.26-1.17,0.445-1.707,0.559C237.918,45.121,237.271,45.178,236.512,45.178z
			 M236.051,34.959c-0.902,0-1.621,0.295-2.157,0.882c-0.536,0.588-0.853,1.401-0.948,2.439h5.873c0-1.073-0.239-1.895-0.718-2.466
			C237.622,35.245,236.939,34.959,236.051,34.959z"/>
		<path fill="#FFFFFF" d="M251.229,44.973v-7.267c0-0.916-0.208-1.599-0.625-2.05c-0.417-0.451-1.069-0.676-1.957-0.676
			c-1.175,0-2.037,0.317-2.583,0.952c-0.547,0.636-0.82,1.685-0.82,3.146v5.894h-1.701V33.739h1.383l0.277,1.538h0.082
			c0.349-0.554,0.837-0.982,1.465-1.287c0.628-0.304,1.329-0.455,2.101-0.455c1.353,0,2.371,0.326,3.054,0.979
			c0.683,0.652,1.025,1.696,1.025,3.131v7.328H251.229z"/>
		<path fill="#FFFFFF" d="M260.053,43.773c0.301,0,0.591-0.022,0.872-0.066c0.28-0.045,0.502-0.091,0.666-0.139v1.302
			c-0.185,0.089-0.456,0.162-0.815,0.221c-0.358,0.058-0.682,0.087-0.968,0.087c-2.173,0-3.259-1.145-3.259-3.434v-6.682h-1.609
			v-0.82l1.609-0.707l0.718-2.398h0.984v2.603h3.259v1.323h-3.259v6.609c0,0.677,0.16,1.196,0.481,1.559
			S259.493,43.773,260.053,43.773z"/>
		<path fill="#FFFFFF" d="M275.959,31.332c-1.646,0-2.947,0.548-3.9,1.645c-0.953,1.096-1.429,2.598-1.429,4.504
			c0,1.961,0.459,3.476,1.378,4.546c0.919,1.069,2.229,1.604,3.931,1.604c1.045,0,2.237-0.188,3.577-0.563v1.527
			c-1.039,0.39-2.32,0.584-3.843,0.584c-2.207,0-3.91-0.67-5.109-2.01c-1.2-1.338-1.799-3.241-1.799-5.708
			c0-1.544,0.289-2.896,0.866-4.058c0.577-1.162,1.411-2.058,2.501-2.686c1.09-0.629,2.373-0.943,3.849-0.943
			c1.571,0,2.945,0.287,4.12,0.861l-0.738,1.496C278.228,31.598,277.094,31.332,275.959,31.332z"/>
		<path fill="#FFFFFF" d="M280.746,33.739h1.824l2.459,6.406c0.54,1.462,0.875,2.518,1.004,3.167h0.082
			c0.089-0.349,0.275-0.945,0.559-1.788c0.283-0.845,1.211-3.439,2.783-7.785h1.824l-4.827,12.791
			c-0.478,1.264-1.037,2.161-1.676,2.69c-0.639,0.529-1.423,0.795-2.352,0.795c-0.52,0-1.032-0.059-1.537-0.175v-1.363
			c0.375,0.082,0.796,0.123,1.26,0.123c1.168,0,2.002-0.655,2.5-1.968l0.625-1.599L280.746,33.739z"/>
		<path fill="#FFFFFF" d="M297.595,45.178c-1.626,0-2.885-0.501-3.777-1.502s-1.337-2.417-1.337-4.247
			c0-1.879,0.453-3.332,1.358-4.356c0.905-1.025,2.195-1.537,3.869-1.537c0.54,0,1.08,0.058,1.619,0.175
			c0.54,0.115,0.963,0.252,1.271,0.409l-0.523,1.444c-0.375-0.149-0.786-0.274-1.229-0.373s-0.837-0.149-1.178-0.149
			c-2.282,0-3.424,1.456-3.424,4.366c0,1.38,0.279,2.439,0.835,3.177c0.557,0.738,1.382,1.107,2.476,1.107
			c0.936,0,1.896-0.201,2.879-0.604v1.507C299.682,44.983,298.736,45.178,297.595,45.178z"/>
		<path fill="#FFFFFF" d="M304.8,44.973h-1.701V29.025h1.701V44.973z"/>
		<path fill="#FFFFFF" d="M313.152,45.178c-1.66,0-2.97-0.506-3.93-1.518c-0.96-1.011-1.44-2.415-1.44-4.212
			c0-1.811,0.446-3.249,1.337-4.314c0.892-1.065,2.089-1.599,3.592-1.599c1.407,0,2.521,0.463,3.341,1.389
			c0.82,0.926,1.23,2.146,1.23,3.664v1.075h-7.738c0.034,1.318,0.368,2.32,1,3.003c0.632,0.684,1.522,1.025,2.67,1.025
			c1.209,0,2.405-0.252,3.587-0.758v1.517c-0.601,0.26-1.17,0.445-1.707,0.559C314.558,45.121,313.911,45.178,313.152,45.178z
			 M312.691,34.959c-0.902,0-1.621,0.295-2.157,0.882c-0.537,0.588-0.853,1.401-0.948,2.439h5.873c0-1.073-0.239-1.895-0.717-2.466
			C314.263,35.245,313.58,34.959,312.691,34.959z"/>
	</g>
</g>
<g>
	<path fill="#FFFFFF" d="M677.096,68.004v8.599l11.466-11.465L677.096,53.67v8.6c-12.667,0-22.93,10.262-22.93,22.932
		c0,4.501,1.318,8.683,3.555,12.209l4.185-4.185c-1.289-2.376-2.007-5.131-2.007-8.024
		C659.898,75.712,667.609,68.004,677.096,68.004z M696.472,72.989l-4.185,4.186c1.264,2.407,2.006,5.13,2.006,8.026
		c0,9.488-7.708,17.197-17.197,17.197V93.8l-11.465,11.465l11.465,11.465v-8.599c12.669,0,22.931-10.262,22.931-22.93
		C700.026,80.699,698.709,76.519,696.472,72.989z"/>
	<g>
		<path fill="#FFFFFF" d="M571.562,45.516h-1.742V32.08h-4.746v-1.549h11.233v1.549h-4.745V45.516z"/>
		<path fill="#FFFFFF" d="M583.431,34.078c0.499,0,0.946,0.041,1.343,0.123l-0.236,1.578c-0.464-0.103-0.874-0.154-1.229-0.154
			c-0.909,0-1.686,0.37-2.332,1.107c-0.646,0.737-0.968,1.656-0.968,2.757v6.026h-1.701V34.283h1.403l0.195,2.08h0.082
			c0.417-0.73,0.919-1.295,1.506-1.69C582.081,34.276,582.728,34.078,583.431,34.078z"/>
		<path fill="#FFFFFF" d="M593.782,45.516l-0.339-1.599h-0.082c-0.561,0.704-1.119,1.181-1.676,1.43
			c-0.556,0.249-1.251,0.374-2.085,0.374c-1.114,0-1.986-0.287-2.618-0.861c-0.632-0.573-0.948-1.391-0.948-2.449
			c0-2.269,1.813-3.457,5.441-3.566l1.906-0.062v-0.697c0-0.881-0.189-1.531-0.568-1.952c-0.38-0.42-0.986-0.63-1.819-0.63
			c-0.937,0-1.995,0.286-3.178,0.86l-0.522-1.301c0.554-0.302,1.16-0.537,1.82-0.708c0.659-0.171,1.32-0.257,1.982-0.257
			c1.339,0,2.331,0.299,2.978,0.893c0.646,0.595,0.968,1.547,0.968,2.859v7.666H593.782z M589.938,44.316
			c1.059,0,1.891-0.29,2.495-0.871c0.605-0.581,0.908-1.394,0.908-2.438v-1.016l-1.702,0.072c-1.353,0.048-2.328,0.258-2.926,0.63
			s-0.897,0.951-0.897,1.737c0,0.615,0.188,1.083,0.559,1.404C588.748,44.156,589.269,44.316,589.938,44.316z"/>
		<path fill="#FFFFFF" d="M606.234,45.516v-7.267c0-0.916-0.208-1.599-0.625-2.05c-0.417-0.45-1.07-0.676-1.958-0.676
			c-1.176,0-2.036,0.317-2.583,0.952c-0.546,0.636-0.819,1.685-0.819,3.147v5.893h-1.702V34.283h1.384l0.277,1.537h0.082
			c0.349-0.554,0.837-0.981,1.465-1.286c0.63-0.304,1.329-0.456,2.102-0.456c1.353,0,2.37,0.326,3.055,0.979
			c0.683,0.652,1.024,1.696,1.024,3.131v7.328H606.234z"/>
		<path fill="#FFFFFF" d="M618.676,42.451c0,1.045-0.39,1.852-1.168,2.419c-0.779,0.566-1.872,0.851-3.279,0.851
			c-1.489,0-2.651-0.235-3.485-0.707v-1.578c0.54,0.273,1.12,0.488,1.737,0.645c0.619,0.158,1.215,0.236,1.789,0.236
			c0.888,0,1.571-0.142,2.049-0.425c0.479-0.284,0.718-0.716,0.718-1.297c0-0.438-0.189-0.812-0.568-1.122s-1.119-0.679-2.22-1.102
			c-1.045-0.39-1.788-0.729-2.229-1.021c-0.44-0.29-0.769-0.619-0.984-0.988c-0.215-0.369-0.322-0.81-0.322-1.322
			c0-0.916,0.373-1.639,1.117-2.168c0.745-0.529,1.767-0.794,3.064-0.794c1.209,0,2.391,0.245,3.546,0.738l-0.605,1.383
			c-1.127-0.465-2.148-0.696-3.063-0.696c-0.807,0-1.414,0.126-1.824,0.379s-0.614,0.602-0.614,1.045
			c0,0.301,0.076,0.558,0.229,0.769c0.154,0.213,0.402,0.414,0.743,0.604c0.342,0.192,0.997,0.47,1.968,0.83
			c1.332,0.486,2.232,0.975,2.7,1.466C618.441,41.089,618.676,41.706,618.676,42.451z"/>
		<path fill="#FFFFFF" d="M623.145,45.516h-1.701V29.568h1.701V45.516z"/>
		<path fill="#FFFFFF" d="M633.66,45.516l-0.339-1.599h-0.082c-0.561,0.704-1.118,1.181-1.675,1.43
			c-0.558,0.249-1.253,0.374-2.086,0.374c-1.113,0-1.986-0.287-2.618-0.861c-0.632-0.573-0.949-1.391-0.949-2.449
			c0-2.269,1.815-3.457,5.442-3.566l1.906-0.062v-0.697c0-0.881-0.189-1.531-0.568-1.952c-0.379-0.42-0.985-0.63-1.819-0.63
			c-0.936,0-1.995,0.286-3.177,0.86l-0.522-1.301c0.554-0.302,1.159-0.537,1.819-0.708c0.659-0.171,1.319-0.257,1.982-0.257
			c1.34,0,2.332,0.299,2.977,0.893c0.646,0.595,0.969,1.547,0.969,2.859v7.666H633.66z M629.816,44.316
			c1.06,0,1.892-0.29,2.496-0.871s0.907-1.394,0.907-2.438v-1.016l-1.702,0.072c-1.353,0.048-2.327,0.258-2.926,0.63
			c-0.598,0.372-0.896,0.951-0.896,1.737c0,0.615,0.186,1.083,0.559,1.404C628.626,44.156,629.146,44.316,629.816,44.316z"/>
		<path fill="#FFFFFF" d="M642.054,44.316c0.3,0,0.591-0.021,0.871-0.066c0.28-0.044,0.503-0.091,0.667-0.139v1.302
			c-0.186,0.089-0.457,0.162-0.815,0.221c-0.359,0.058-0.682,0.087-0.969,0.087c-2.173,0-3.259-1.145-3.259-3.434v-6.682h-1.609
			v-0.82l1.609-0.707l0.717-2.398h0.984v2.604h3.26v1.322h-3.26v6.61c0,0.676,0.161,1.196,0.481,1.558
			C641.053,44.135,641.494,44.316,642.054,44.316z"/>
		<path fill="#FFFFFF" d="M645.692,31.239c0-0.39,0.095-0.675,0.286-0.855c0.191-0.182,0.432-0.271,0.718-0.271
			c0.273,0,0.509,0.092,0.708,0.276c0.198,0.185,0.297,0.468,0.297,0.851s-0.099,0.668-0.297,0.855
			c-0.199,0.188-0.435,0.282-0.708,0.282c-0.286,0-0.526-0.095-0.718-0.282S645.692,31.622,645.692,31.239z M647.537,45.516h-1.701
			V34.283h1.701V45.516z"/>
		<path fill="#FFFFFF" d="M660.84,39.889c0,1.832-0.462,3.262-1.384,4.29s-2.196,1.542-3.822,1.542
			c-1.005,0-1.896-0.235-2.675-0.707c-0.779-0.472-1.381-1.148-1.805-2.029c-0.424-0.882-0.635-1.913-0.635-3.096
			c0-1.831,0.457-3.257,1.373-4.278c0.915-1.021,2.187-1.532,3.812-1.532c1.572,0,2.819,0.522,3.746,1.567
			C660.377,36.691,660.84,38.105,660.84,39.889z M652.282,39.889c0,1.436,0.287,2.529,0.86,3.279
			c0.574,0.752,1.418,1.129,2.531,1.129c1.114,0,1.96-0.375,2.537-1.123s0.865-1.843,0.865-3.285c0-1.427-0.288-2.512-0.865-3.253
			s-1.43-1.112-2.558-1.112c-1.112,0-1.953,0.365-2.521,1.096C652.565,37.351,652.282,38.44,652.282,39.889z"/>
		<path fill="#FFFFFF" d="M671.509,45.516v-7.267c0-0.916-0.209-1.599-0.626-2.05c-0.416-0.45-1.068-0.676-1.957-0.676
			c-1.175,0-2.035,0.317-2.582,0.952c-0.547,0.636-0.82,1.685-0.82,3.147v5.893h-1.701V34.283h1.384l0.276,1.537h0.082
			c0.349-0.554,0.837-0.981,1.466-1.286c0.629-0.304,1.329-0.456,2.101-0.456c1.354,0,2.371,0.326,3.054,0.979
			c0.684,0.652,1.025,1.696,1.025,3.131v7.328H671.509z"/>
		<path fill="#FFFFFF" d="M688.829,31.875c-1.646,0-2.946,0.548-3.899,1.645s-1.43,2.598-1.43,4.504
			c0,1.961,0.459,3.477,1.378,4.546c0.92,1.068,2.229,1.604,3.931,1.604c1.046,0,2.238-0.188,3.576-0.563v1.527
			c-1.038,0.39-2.319,0.584-3.843,0.584c-2.207,0-3.909-0.67-5.109-2.009c-1.198-1.339-1.799-3.242-1.799-5.709
			c0-1.544,0.289-2.896,0.867-4.059c0.577-1.161,1.41-2.057,2.501-2.685c1.089-0.629,2.372-0.943,3.848-0.943
			c1.571,0,2.945,0.287,4.12,0.861l-0.738,1.496C691.098,32.141,689.964,31.875,688.829,31.875z"/>
		<path fill="#FFFFFF" d="M693.615,34.283h1.824l2.46,6.405c0.539,1.462,0.874,2.518,1.005,3.167h0.082
			c0.088-0.349,0.274-0.944,0.558-1.789c0.284-0.843,1.212-3.438,2.783-7.783h1.824l-4.828,12.79
			c-0.478,1.264-1.036,2.161-1.675,2.69c-0.639,0.53-1.424,0.795-2.353,0.795c-0.519,0-1.032-0.059-1.537-0.175v-1.362
			c0.376,0.082,0.796,0.122,1.261,0.122c1.169,0,2.002-0.655,2.501-1.968l0.625-1.599L693.615,34.283z"/>
		<path fill="#FFFFFF" d="M710.464,45.721c-1.626,0-2.884-0.501-3.776-1.502c-0.892-1-1.338-2.416-1.338-4.248
			c0-1.879,0.453-3.33,1.358-4.354c0.905-1.025,2.195-1.538,3.869-1.538c0.54,0,1.079,0.058,1.62,0.174
			c0.539,0.117,0.963,0.253,1.271,0.41l-0.522,1.445c-0.377-0.15-0.786-0.274-1.23-0.375c-0.444-0.099-0.837-0.147-1.179-0.147
			c-2.282,0-3.423,1.455-3.423,4.366c0,1.38,0.277,2.438,0.835,3.177c0.557,0.737,1.382,1.106,2.476,1.106
			c0.936,0,1.896-0.201,2.88-0.604v1.507C712.552,45.526,711.605,45.721,710.464,45.721z"/>
		<path fill="#FFFFFF" d="M717.67,45.516h-1.702V29.568h1.702V45.516z"/>
		<path fill="#FFFFFF" d="M726.021,45.721c-1.66,0-2.97-0.506-3.93-1.517c-0.961-1.012-1.439-2.416-1.439-4.213
			c0-1.81,0.445-3.248,1.337-4.314c0.892-1.065,2.089-1.599,3.592-1.599c1.407,0,2.521,0.462,3.341,1.389
			c0.82,0.926,1.23,2.146,1.23,3.663v1.076h-7.738c0.035,1.319,0.368,2.321,1,3.004s1.521,1.024,2.669,1.024
			c1.21,0,2.405-0.253,3.587-0.759v1.518c-0.601,0.26-1.169,0.445-1.706,0.559C727.429,45.664,726.78,45.721,726.021,45.721z
			 M725.561,35.503c-0.901,0-1.62,0.294-2.157,0.881c-0.536,0.588-0.853,1.4-0.948,2.439h5.873c0-1.073-0.239-1.895-0.718-2.465
			C727.132,35.787,726.449,35.503,725.561,35.503z"/>
	</g>
	<path fill="#FFFFFF" d="M616.647,92.106c-4.008,0-10.252,1.134-15.026,3.338c-4.775-2.236-11.019-3.338-15.026-3.338
		c-7.245,0-21.705,3.604-21.705,10.851v9.185h73.462v-9.185C638.352,95.711,623.894,92.106,616.647,92.106z M603.29,107.131h-33.391
		v-4.174c0-1.803,8.548-5.843,16.695-5.843c8.148,0,16.695,4.04,16.695,5.843V107.131z M633.344,107.131H608.3v-4.174
		c0-1.535-0.669-2.868-1.735-4.075c2.935-0.998,6.542-1.768,10.083-1.768c8.146,0,16.696,4.04,16.696,5.843V107.131z
		 M586.595,88.766c6.444,0,11.688-5.242,11.688-11.688c0-6.444-5.243-11.687-11.688-11.687s-11.687,5.242-11.687,11.687
		C574.908,83.523,580.15,88.766,586.595,88.766z M586.595,70.4c3.674,0,6.679,3.005,6.679,6.678s-3.005,6.68-6.679,6.68
		c-3.673,0-6.679-3.007-6.679-6.68S582.922,70.4,586.595,70.4z M616.647,88.766c6.443,0,11.688-5.242,11.688-11.688
		c0-6.444-5.244-11.687-11.688-11.687s-11.688,5.242-11.688,11.687C604.96,83.523,610.204,88.766,616.647,88.766z M616.647,70.4
		c3.673,0,6.68,3.005,6.68,6.678s-3.007,6.68-6.68,6.68s-6.679-3.007-6.679-6.68S612.975,70.4,616.647,70.4z"/>
</g>
<path fill="#FFFFFF" d="M397.842,71.066L374.06,82.663l23.782,11.598v-8.698h41.777v-5.799h-41.777V71.066z M481.338,65.268
	L457.559,53.67v8.698h-41.777v5.799h41.777v8.697L481.338,65.268z"/>
</svg>
