<?xml version="1.0" encoding="utf-8"?>
<!-- Generator: Adobe Illustrator 16.0.0, SVG Export Plug-In . SVG Version: 6.00 Build 0)  -->
<!DOCTYPE svg PUBLIC "-//W3C//DTD SVG 1.1//EN" "http://www.w3.org/Graphics/SVG/1.1/DTD/svg11.dtd">
<svg version="1.1" id="Layer_1" xmlns="http://www.w3.org/2000/svg" xmlns:xlink="http://www.w3.org/1999/xlink" x="0px" y="0px"
	 viewBox="0 0 841.89 224.167" enable-background="new 0 0 841.89 224.167"
	 xml:space="preserve">
<g>
	<path fill="#FFFFFF" d="M768.045,42.466h-107.37v15.256h107.37V42.466z M774.756,118.748v-15.256l-6.711-38.142h-107.37
		l-6.712,38.142v15.256h6.712v45.77h67.106v-45.77h26.843v45.77h13.421v-45.77H774.756z M714.359,149.262h-40.265v-30.514h40.265
		V149.262z"/>
	<g>
		<path fill="#FFFFFF" d="M678.827,180.155c-3.43,0-6.221-2.804-6.221-6.25s2.791-6.25,6.221-6.25c3.446,0,6.25,2.804,6.25,6.25
			S682.273,180.155,678.827,180.155z M648.827,180.155c-3.43,0-6.221-2.804-6.221-6.25s2.791-6.25,6.221-6.25
			c3.446,0,6.25,2.804,6.25,6.25S652.273,180.155,648.827,180.155z M648.827,165.155c-3.446,0-6.25-2.804-6.25-6.25
			c0-1.068,0.271-2.107,0.783-3.004l3.987-7.235l-10.679-22.511h-6.092v-6.5h10.22l2.819,6h44.211c1.792,0,3.25,1.458,3.25,3.25
			c0,0.564-0.14,1.12-0.394,1.564l-10.738,19.467c-1.089,1.985-3.185,3.219-5.469,3.219h-22.201l-2.629,4.761l-0.067,0.301
			c0.008,0.224,0.223,0.438,0.508,0.438h34.99v6.5H648.827z"/>
		<path fill="#488FCC" d="M640.638,119.905l2.819,6h44.37c1.649,0,3,1.351,3,3c0,0.51-0.12,1.02-0.36,1.44l-10.74,19.47
			c-1.02,1.859-3,3.09-5.25,3.09h-22.349l-2.7,4.89l-0.091,0.36c0,0.422,0.33,0.75,0.75,0.75h34.74v6h-36c-3.301,0-6-2.701-6-6
			c0-1.049,0.27-2.039,0.75-2.88l4.051-7.351l-10.801-22.77h-6v-6H640.638 M678.827,167.905c3.299,0,6,2.701,6,6s-2.701,6-6,6
			s-5.971-2.701-5.971-6S675.528,167.905,678.827,167.905 M648.827,167.905c3.301,0,6,2.701,6,6s-2.699,6-6,6s-5.971-2.701-5.971-6
			S645.526,167.905,648.827,167.905 M640.955,119.405h-0.317h-9.811h-0.5v0.5v6v0.5h0.5h5.684l10.556,22.253l-3.927,7.126
			c-0.53,0.927-0.812,2.009-0.812,3.121c0,3.584,2.916,6.5,6.5,6.5h36h0.5v-0.5v-6v-0.5h-0.5h-34.74
			c-0.129,0-0.226-0.083-0.246-0.203l0.056-0.223l2.526-4.574h22.054c2.376,0,4.556-1.283,5.688-3.35l10.739-19.469
			c0.275-0.481,0.423-1.065,0.423-1.682c0-1.93-1.57-3.5-3.5-3.5h-44.053l-2.685-5.713L640.955,119.405L640.955,119.405z
			 M678.827,167.405c-3.568,0-6.471,2.916-6.471,6.5s2.902,6.5,6.471,6.5c3.584,0,6.5-2.916,6.5-6.5
			S682.411,167.405,678.827,167.405L678.827,167.405z M648.827,167.405c-3.568,0-6.471,2.916-6.471,6.5s2.902,6.5,6.471,6.5
			c3.584,0,6.5-2.916,6.5-6.5S652.411,167.405,648.827,167.405L648.827,167.405z"/>
	</g>
	<path fill="#488FCC" d="M712.865,96.412l-4.152-4.103l0.049-0.052c2.845-3.171,4.871-6.817,6.065-10.674h4.79v-3.27h-11.444v-3.27
		h-3.27v3.27h-11.444v3.254h18.262c-1.095,3.155-2.829,6.147-5.183,8.762c-1.521-1.682-2.779-3.531-3.776-5.476h-3.271
		c1.194,2.665,2.829,5.182,4.873,7.456l-8.322,8.206l2.321,2.321l8.175-8.174l5.084,5.083L712.865,96.412z M722.07,88.123H718.8
		l-7.357,19.619h3.271l1.831-4.905h7.766l1.848,4.905h3.27L722.07,88.123z M717.786,99.567l2.649-7.079l2.648,7.079H717.786z"/>
</g>
<path fill="#FFFFFF" d="M267.58,89.09l-23.782,11.597l23.782,11.598v-8.698h41.777v-5.799H267.58V89.09z M351.076,83.291
	l-23.78-11.598v8.698h-41.777v5.799h41.777v8.697L351.076,83.291z"/>
<g>
	<g>
		<rect x="99.042" y="44.116" fill="#488FCC" width="107.712" height="59.841"/>
		<g>
			<path fill="#FFFFFF" d="M206.753,32.148H99.042c-6.587,0-11.968,5.384-11.968,11.968v71.81c0,6.578,5.381,11.968,11.968,11.968
				h41.887l-11.967,17.952v5.984h47.87v-5.984l-11.965-17.952h41.887c6.581,0,11.969-5.39,11.969-11.968v-71.81
				C218.722,37.532,213.334,32.148,206.753,32.148z M206.753,103.957H99.042V44.116h107.712V103.957z"/>
			<path fill="#FFFFFF" d="M138.531,101.604h28.747V76.452h-28.747V101.604z M104.031,101.604h28.758V47.104h-28.758V101.604z
				 M173.028,101.604h28.745V76.452h-28.745V101.604z M138.531,47.104v25.152h63.242V47.104H138.531z"/>
		</g>
	</g>
	<g>
		<g>
			<rect x="69.419" y="96.846" fill="#488FCC" width="80.134" height="55.094"/>
			<g>
				<g>
					<path fill="#FFFFFF" d="M59.402,172.227c-5.661,0-10.267-4.607-10.267-10.271v-0.25h17.116
						c-4.116-1.338-7.099-5.21-7.099-9.766V96.846c0-5.661,4.605-10.266,10.267-10.266h80.134c5.662,0,10.268,4.605,10.268,10.266
						l-0.048,55.094c0,4.556-2.969,8.428-7.066,9.766h17.131v0.25c0,5.664-4.606,10.271-10.267,10.271H59.402z M109.487,157.197
						c-2.624,0-4.759,2.135-4.759,4.758c0,2.625,2.135,4.76,4.759,4.76c2.623,0,4.757-2.135,4.757-4.76
						C114.244,159.332,112.11,157.197,109.487,157.197z M149.303,151.689V97.096H69.669v54.594H149.303z"/>
					<path fill="#488FCC" d="M149.553,86.83c5.509,0,10.018,4.507,10.018,10.016l-0.048,55.094c0,5.508-4.46,10.016-9.97,10.016
						h20.035c0,5.51-4.51,10.021-10.017,10.021H59.402c-5.512,0-10.017-4.512-10.017-10.021h20.034
						c-5.512,0-10.017-4.508-10.017-10.016V96.846c0-5.509,4.505-10.016,10.017-10.016H149.553 M69.419,151.939h80.134V96.846
						H69.419V151.939 M109.487,166.965c2.753,0,5.007-2.256,5.007-5.01c0-2.753-2.253-5.008-5.007-5.008
						c-2.756,0-5.009,2.255-5.009,5.008C104.479,164.709,106.731,166.965,109.487,166.965 M149.553,86.33H69.419
						c-5.799,0-10.517,4.718-10.517,10.516v55.094c0,4.199,2.474,7.832,6.042,9.516H49.385h-0.5v0.5
						c0,5.802,4.718,10.521,10.517,10.521H159.57c5.799,0,10.517-4.72,10.517-10.521v-0.5h-0.5h-15.58
						c3.552-1.684,6.015-5.316,6.015-9.516l0.048-55.093C160.07,91.047,155.352,86.33,149.553,86.33L149.553,86.33z M69.919,97.346
						h79.134v54.094H69.919V97.346L69.919,97.346z M109.487,166.465c-2.486,0-4.509-2.023-4.509-4.51
						c0-2.485,2.022-4.508,4.509-4.508c2.485,0,4.507,2.022,4.507,4.508C113.994,164.441,111.972,166.465,109.487,166.465
						L109.487,166.465z"/>
				</g>
				<path fill="#FFFFFF" d="M98.903,147.051h20.746v-21.053H98.903V147.051z M74.006,147.051h20.75v-45.613h-20.75V147.051z
					 M123.796,147.051h20.75v-21.053h-20.75V147.051z M98.903,101.438v21.051h45.643v-21.051H98.903z"/>
			</g>
		</g>
	</g>
	<g>
		<rect x="165.771" y="106.891" fill="#488FCC" width="57.239" height="61.057"/>
		<g>
			<g>
				<path fill="#FFFFFF" d="M167.68,187.277c-5.398,0-9.79-4.393-9.79-9.791v-72.504c0-5.398,4.392-9.791,9.79-9.791h53.423
					c5.398,0,9.79,4.393,9.79,9.791v72.504c0,5.398-4.392,9.791-9.79,9.791H167.68z M194.392,172.013
					c-3.018,0-5.474,2.455-5.474,5.474s2.456,5.475,5.474,5.475s5.473-2.456,5.473-5.475S197.41,172.013,194.392,172.013z
					 M222.761,167.697v-60.557h-56.739v60.557H222.761z"/>
				<path fill="#488FCC" d="M221.104,95.441c5.265,0,9.54,4.275,9.54,9.541v72.504c0,5.262-4.274,9.541-9.54,9.541H167.68
					c-5.265,0-9.54-4.279-9.54-9.541v-72.504c0-5.266,4.275-9.541,9.54-9.541H221.104 M165.771,167.947h57.239v-61.057h-57.239
					V167.947 M194.392,183.211c3.166,0,5.723-2.557,5.723-5.725s-2.557-5.724-5.723-5.724c-3.168,0-5.724,2.556-5.724,5.724
					S191.224,183.211,194.392,183.211 M221.104,94.941H167.68c-5.536,0-10.04,4.504-10.04,10.041v72.504
					c0,5.537,4.504,10.041,10.04,10.041h53.423c5.536,0,10.04-4.504,10.04-10.041v-72.504
					C231.143,99.445,226.639,94.941,221.104,94.941L221.104,94.941z M166.271,107.391h56.239v60.057h-56.239V107.391
					L166.271,107.391z M194.392,182.711c-2.88,0-5.224-2.344-5.224-5.225c0-2.88,2.343-5.224,5.224-5.224
					c2.88,0,5.223,2.344,5.223,5.224C199.615,180.367,197.272,182.711,194.392,182.711L194.392,182.711z"/>
			</g>
			<path fill="#FFFFFF" d="M186.909,164.131h14.429v-24.955h-14.429V164.131z M169.587,164.131h14.434V110.07h-14.434V164.131z
				 M204.23,164.131h14.429v-24.955H204.23V164.131z M186.909,110.07v24.949h31.75V110.07H186.909z"/>
		</g>
	</g>
	<g>
		<rect x="136.206" y="148.445" fill="#488FCC" width="21.938" height="34.127"/>
		<g>
			<g>
				<path fill="#FFFFFF" d="M137.425,195.008c-3.497,0-6.342-2.844-6.342-6.34v-41.439c0-3.498,2.845-6.344,6.342-6.344h19.5
					c3.497,0,6.342,2.846,6.342,6.344v41.439c0,3.496-2.845,6.34-6.342,6.34H137.425z M147.173,185.26
					c-1.878,0-3.407,1.529-3.407,3.408c0,1.876,1.528,3.402,3.407,3.402c1.88,0,3.41-1.526,3.41-3.402
					C150.583,186.789,149.053,185.26,147.173,185.26z M157.894,182.322v-33.627h-21.438v33.627H157.894z"/>
				<path fill="#488FCC" d="M156.925,141.135c3.361,0,6.092,2.73,6.092,6.094v41.439c0,3.361-2.731,6.09-6.092,6.09h-19.5
					c-3.361,0-6.092-2.729-6.092-6.09v-41.439c0-3.363,2.731-6.094,6.092-6.094H156.925 M136.206,182.572h21.938v-34.127h-21.938
					V182.572 M147.173,192.32c2.023,0,3.66-1.633,3.66-3.652c0-2.027-1.637-3.658-3.66-3.658c-2.02,0-3.657,1.631-3.657,3.658
					C143.517,190.688,145.154,192.32,147.173,192.32 M156.925,140.635h-19.5c-3.635,0-6.592,2.958-6.592,6.594v41.439
					c0,3.634,2.958,6.59,6.592,6.59h19.5c3.635,0,6.592-2.956,6.592-6.59v-41.439C163.518,143.593,160.56,140.635,156.925,140.635
					L156.925,140.635z M136.706,148.945h20.938v33.127h-20.938V148.945L136.706,148.945z M147.173,191.82
					c-1.741,0-3.157-1.414-3.157-3.152c0-1.741,1.416-3.158,3.157-3.158c1.742,0,3.16,1.417,3.16,3.158
					C150.333,190.406,148.916,191.82,147.173,191.82L147.173,191.82z"/>
			</g>
			<path fill="#FFFFFF" d="M144.426,181.357h5.504v-14.623h-5.504V181.357z M137.83,181.357h5.497v-31.691h-5.497V181.357z
				 M151.03,181.357h5.497v-14.623h-5.497V181.357z M144.426,149.666v14.628h12.101v-14.628H144.426z"/>
		</g>
	</g>
	<g>
		<path fill="#488FCC" d="M158.572,65.253l-5.661-5.66l5.661-5.66l-1.723-1.725l-7.384,7.385l7.384,7.384L158.572,65.253z
			 M180.97,65.253l5.662-5.66l-5.662-5.66l1.724-1.725l7.384,7.385l-7.384,7.384L180.97,65.253z"/>
		<path fill="#488FCC" d="M169.771,51.789c-4.636,0-8.397,3.762-8.397,8.397c0,4.635,3.762,8.397,8.397,8.397
			c4.635,0,8.397-3.763,8.397-8.397C178.169,55.55,174.406,51.789,169.771,51.789z M168.931,66.845
			c-3.317-0.412-5.878-3.233-5.878-6.659c0-0.521,0.067-1.016,0.176-1.503l4.022,4.021v0.84c0,0.924,0.756,1.68,1.679,1.68V66.845z
			 M174.726,64.712c-0.218-0.681-0.84-1.168-1.596-1.168h-0.839v-2.519c0-0.462-0.378-0.84-0.84-0.84h-5.038v-1.68h1.679
			c0.462,0,0.839-0.378,0.839-0.839v-1.68h1.68c0.923,0,1.679-0.756,1.679-1.681v-0.344c2.46,0.999,4.199,3.409,4.199,6.223
			C176.489,61.932,175.818,63.521,174.726,64.712z"/>
	</g>
	<g>
		<path fill="#488FCC" d="M110.756,117.139l-5.661-5.66l5.661-5.66l-1.723-1.725l-7.384,7.385l7.384,7.383L110.756,117.139z
			 M133.154,117.139l5.662-5.66l-5.662-5.66l1.724-1.725l7.384,7.385l-7.384,7.383L133.154,117.139z"/>
		<path fill="#488FCC" d="M121.956,103.674c-4.636,0-8.397,3.762-8.397,8.396s3.762,8.398,8.397,8.398
			c4.635,0,8.397-3.764,8.397-8.398S126.59,103.674,121.956,103.674z M121.115,118.73c-3.317-0.412-5.878-3.234-5.878-6.66
			c0-0.52,0.067-1.016,0.176-1.502l4.022,4.021v0.84c0,0.924,0.756,1.68,1.679,1.68V118.73z M126.91,116.598
			c-0.218-0.682-0.84-1.168-1.596-1.168h-0.839v-2.52c0-0.461-0.378-0.84-0.84-0.84h-5.038v-1.68h1.679
			c0.462,0,0.839-0.377,0.839-0.838v-1.68h1.68c0.923,0,1.679-0.756,1.679-1.682v-0.344c2.46,1,4.199,3.41,4.199,6.223
			C128.673,113.816,128.002,115.406,126.91,116.598z"/>
	</g>
	<g>
		<path fill="#488FCC" d="M194.785,123.441l-3.939-3.939l3.939-3.938l-1.199-1.2l-5.139,5.139l5.139,5.139L194.785,123.441z
			 M210.373,123.441l3.94-3.939l-3.94-3.938l1.2-1.2l5.139,5.139l-5.139,5.139L210.373,123.441z"/>
		<path fill="#488FCC" d="M202.58,114.07c-3.226,0-5.844,2.618-5.844,5.845c0,3.226,2.618,5.844,5.844,5.844
			c3.226,0,5.844-2.618,5.844-5.844C208.424,116.688,205.805,114.07,202.58,114.07z M201.995,124.549
			c-2.308-0.286-4.09-2.25-4.09-4.634c0-0.362,0.047-0.707,0.123-1.046l2.799,2.799v0.584c0,0.643,0.526,1.169,1.168,1.169V124.549z
			 M206.027,123.064c-0.152-0.473-0.584-0.812-1.11-0.812h-0.584V120.5c0-0.322-0.263-0.585-0.584-0.585h-3.506v-1.169h1.168
			c0.321,0,0.584-0.264,0.584-0.584v-1.169h1.169c0.642,0,1.168-0.526,1.168-1.169v-0.24c1.712,0.695,2.922,2.373,2.922,4.331
			C207.255,121.13,206.788,122.236,206.027,123.064z"/>
	</g>
	<g>
		<path fill="#488FCC" d="M146.692,156.158l-1.819-1.819l1.819-1.819l-0.554-0.554l-2.373,2.373l2.373,2.373L146.692,156.158z
			 M153.89,156.158l1.82-1.819l-1.82-1.819l0.554-0.554l2.373,2.373l-2.373,2.373L153.89,156.158z"/>
		<path fill="#488FCC" d="M150.292,151.83c-1.49,0-2.699,1.209-2.699,2.699c0,1.489,1.209,2.699,2.699,2.699s2.699-1.21,2.699-2.699
			C152.99,153.039,151.781,151.83,150.292,151.83z M150.021,156.669c-1.066-0.132-1.889-1.039-1.889-2.14
			c0-0.167,0.021-0.326,0.056-0.482l1.293,1.292v0.27c0,0.297,0.243,0.54,0.54,0.54V156.669z M151.884,155.983
			c-0.07-0.218-0.27-0.375-0.513-0.375h-0.27V154.8c0-0.149-0.121-0.271-0.27-0.271h-1.619v-0.54h0.54c0.148,0,0.27-0.121,0.27-0.27
			v-0.54h0.54c0.296,0,0.54-0.242,0.54-0.539v-0.111c0.791,0.321,1.35,1.096,1.35,2
			C152.451,155.091,152.235,155.602,151.884,155.983z"/>
	</g>
</g>
<g>
	<g>
		<g>
			<g>
				<path fill="#FFFFFF" d="M488.754,42.084H381.041c-6.587,0-11.968,5.384-11.968,11.968v71.81c0,6.578,5.381,11.968,11.968,11.968
					h41.887l-11.967,17.952v5.984h47.87v-5.984l-11.965-17.952h41.888c6.58,0,11.969-5.39,11.969-11.968v-71.81
					C500.723,47.469,495.334,42.084,488.754,42.084z M488.754,113.894H381.041V54.052h107.713V113.894z"/>
			</g>
			<rect x="376.966" y="51.789" fill="#488FCC" width="116.034" height="75.211"/>
		</g>
	</g>
	<path fill="#FFFFFF" d="M434.853,103.16l-3.567-3.525l0.041-0.044c2.445-2.725,4.186-5.858,5.211-9.171h4.115v-2.81h-9.83v-2.809
		h-2.81v2.809h-9.833v2.795h15.689c-0.939,2.711-2.43,5.281-4.452,7.526c-1.306-1.444-2.388-3.032-3.245-4.703h-2.809
		c1.025,2.289,2.43,4.452,4.186,6.406l-7.149,7.05l1.993,1.994l7.024-7.021l4.368,4.366L434.853,103.16z M442.761,96.037h-2.81
		l-6.32,16.856h2.809l1.574-4.215h6.672l1.587,4.215h2.81L442.761,96.037z M439.08,105.869l2.275-6.082l2.276,6.082H439.08z"/>
</g>
<path fill="#FFFFFF" d="M543.58,88.494l-23.782,11.597l23.782,11.598v-8.698h41.777v-5.799H543.58V88.494z M627.076,82.695
	l-23.78-11.598v8.698h-41.777v5.799h41.777v8.697L627.076,82.695z"/>
<g>
	<g>
		<g>
			<defs>
				<circle id="SVGID_1_" cx="410.356" cy="68.643" r="9.953"/>
			</defs>
			<clipPath id="SVGID_2_">
				<use xlink:href="#SVGID_1_"  overflow="visible"/>
			</clipPath>
			<g clip-path="url(#SVGID_2_)">
				<path fill="#FFFFFF" d="M401.652,63.403c-0.113,0.824,0.17,1.25,0,1.647s-0.369,1.107-0.199,1.59
					c0.171,0.482,0.427,1.533,0.653,1.562c0.228,0.028-0.17-1.136,0.058-0.767c0.227,0.369,0.227,0.918,0.624,1.297
					s0.938,0.322,1.363,0.691c0.426,0.37,0.853,0.909,1.25,0.852c0,0-0.028,0.284-0.228,0.767s-0.228,1.05,0.028,1.392
					c0.256,0.341,0.511,0.852,0.738,1.107c0.228,0.256,0.397,1.619,0.341,2.3c-0.057,0.681,0.256,2.215,0.966,2.556
					s0-0.17-0.143-0.596c-0.142-0.426,0.11-1.42,0.453-1.562s0.655-0.71,0.91-1.108c0.256-0.397,0.909-0.568,1.107-1.05
					c0.199-0.483,0.114-1.051,0.228-1.306c0.113-0.256,0.426-0.824-0.256-1.165s-0.966-0.17-0.994-0.483
					c-0.028-0.312-0.198-0.653-0.681-0.795c-0.483-0.142-0.909-0.417-1.449-0.479c-0.539-0.061-0.652,0.365-0.937,0.138
					c-0.284-0.227-0.512-0.455-0.625-0.738s-0.454-0.113-0.426-0.284s0.482-0.653-0.028-0.483c-0.512,0.17-0.966,0.113-0.938-0.341
					s0.653-0.625,0.909-0.682c0.255-0.057,0.454,0.255,0.767,0.455c0.312,0.198,0.028-0.284,0.198-0.625
					c0.171-0.341,0.824-0.312,0.909-0.795c0.085-0.483-0.028-0.881,0.482-0.938c0.512-0.057,1.051,0.029,1.107-0.227
					c0.058-0.255-0.596,0.085-0.624-0.227c-0.029-0.312,0.567-0.738,0.738-0.426c0.17,0.312,0.596,0.341,0.653,0.228
					c0.057-0.114,0-0.312-0.199-0.795c-0.198-0.482-0.397-0.34-0.568-0.88c-0.17-0.54-0.454,0.029-0.738-0.255
					s-0.624-0.88-0.682-0.369c-0.057,0.511-0.057,0.795-0.312,1.192c-0.256,0.398-0.37,0.086-0.597-0.17
					c-0.228-0.255-0.738-0.511-0.568-0.738c0.171-0.227,0.341-0.824,0.597-0.653s0.653,0.17,0.597-0.114
					c-0.057-0.284,0-0.397,0.113-0.54c0.113-0.142,0.512-0.397,0.512,0.114s-0.058,0.653,0.34,0.71
					c0.398,0.057,0.853,0.085,0.824-0.17c-0.028-0.256,0.113-0.199,0-0.625c-0.114-0.426-0.455-0.454-0.824-0.653
					s-0.567-0.511-0.88-0.397c-0.312,0.113-0.341,0.227-0.369,0.54c-0.029,0.312-0.199,0.426-0.312,0.284
					c-0.113-0.143,0.028-0.597-0.397-0.313c-0.426,0.284-0.597,0.767-0.823,0.426c-0.228-0.341,0.34-0.937-0.256-0.682
					c-0.597,0.255-1.022,0.54-0.71,0.653c0.312,0.113,0.624,0.312,0.312,0.426c-0.312,0.114-0.938-0.085-1.165,0.142
					C402.277,62.268,401.652,63.403,401.652,63.403z"/>
				<path fill="#FFFFFF" d="M405.004,60.337c-0.002,0.317,0.085,0.568,0.369,0.284c0.283-0.284,0.453-0.625,0.652-0.483
					s0.54,0.104,0.682,0.095c0.143-0.009,0.171-0.436,0.568-0.378c0.397,0.057,0.256-0.085,0.682-0.312
					c0.426-0.228,1.335-0.625,0.397-0.511c-0.938,0.114-0.994-0.142-1.647,0.284c-0.652,0.426-0.795,0.426-0.966,0.54
					c-0.17,0.113-0.368-0.341-0.596,0C404.918,60.194,405.005,60.013,405.004,60.337z"/>
				<path fill="#FFFFFF" d="M408.411,59.456c-0.336,0.29-0.852,0.71-0.454,0.71s0.591-0.208,0.806,0.066
					c0.216,0.275,0.132,0.7,0.132,0.899c0,0.199-0.114,0.653,0.17,1.221c0.283,0.568,0.312,0.938,0.597,0.568
					c0.283-0.369,0.965-1.079,1.306-1.135c0.341-0.057,0.682-0.199,0.853-0.483c0.17-0.284,0-0.56,0.283-0.763
					c0.284-0.203,0.228-0.458,0.312-0.771s0.852-0.312,0.512-0.482c-0.341-0.17-0.966-0.284-1.704-0.199
					C410.484,59.172,409.036,58.917,408.411,59.456z"/>
				<path fill="#FFFFFF" d="M405.287,68.231c-0.181,0.295-0.085,0.312,0.114,0.369c0.198,0.057-0.086,0.397,0.142,0.426
					c0.228,0.028,0.738,0.17,0.88,0c0.143-0.17-0.227-0.104-0.482-0.293C405.686,68.543,405.415,68.022,405.287,68.231z"/>
				<path fill="#FFFFFF" d="M419.032,72.86c-0.306,0.153-0.171,0.397-0.455,0.568c-0.284,0.17-0.17,0.227-0.255,0.625
					c-0.086,0.397,0.028,0.625,0.227,0.312C418.748,74.053,419.372,72.689,419.032,72.86z"/>
				<path fill="#FFFFFF" d="M420.65,68.089c-0.085-0.483-0.71-4.856-0.71-4.856s-1.676-1.079-1.959-0.852
					c-0.284,0.227-0.768,0.193-0.71-0.031c0.057-0.225,0.426-0.167-0.199-0.594c-0.625-0.426-0.738-0.795-1.221-0.255
					c-0.483,0.54-0.597,0.994-0.881,1.136s-0.511,0.596-0.198,0.71c0.312,0.113,0.34,0,0.596,0.227s0.597,0.17,0.653,0.029
					c0.057-0.143,0.114-0.596,0.142-0.767c0.029-0.17,0.317-0.738,0.287-0.284s0.395,0.455,0.111,0.767
					c-0.284,0.312-0.114,0.568-0.682,0.625c-0.568,0.057-0.597-0.284-0.909-0.114c-0.312,0.17-0.284,0.284-0.397,0.454
					s-0.71,0.511-0.71,0.511s-0.482-0.17-0.256,0.142c0.228,0.312,0.427,0.681,0.228,0.71c-0.199,0.028-0.738-0.284-0.738,0.057
					s-0.085,0.71,0.142,0.795c0.16,0.06,0.265,0.19,0.412,0.172c-0.114,0.049-0.218,0.121-0.299,0.226
					c-0.22,0.289-0.085,0.795-0.539,0.965c-0.454,0.171-0.454,0.369-0.539,0.738c-0.086,0.37,0,1.307,0.113,1.392
					c0.113,0.085,0.312,0.795,0.795,0.738c0.483-0.057,0.994-0.079,1.164,0.003c0.171,0.082,0.455-0.174,0.54,0.479
					c0.085,0.653,0.284,0.738,0.397,1.079c0.113,0.34-0.057,1.051,0,1.477c0.057,0.426,0.455,1.165,0.455,1.534
					s0.425,0.54,0.652,0.397s0.71-0.426,0.909-0.88c0.198-0.454,0.198-0.682,0.511-1.278s0.228-1.022,0.369-1.477
					c0.143-0.455,0.483-0.767,0.952-1.278c0.468-0.511,0.384-0.795,0-0.767c-0.384,0.028-0.64-0.341-0.839-0.795
					c-0.198-0.455-0.426-1.59-0.255-1.221s0.511,1.392,0.852,1.562s0.966-0.29,1.107-0.458c0.143-0.167,0.085-0.65-0.284-0.849
					c-0.368-0.199-0.142-0.369,0.228-0.143C420.31,68.345,420.735,68.572,420.65,68.089z M417.641,66.868
					c-0.028,0.227,0.085,0.596-0.54,0.454s-0.625-0.483-0.88-0.227c-0.256,0.255-0.568,0.483-0.938,0.085
					c-0.369-0.397-0.312-0.511-0.511-0.539c-0.142-0.021-0.614-0.126-1.008-0.011c0.031-0.018,0.063-0.042,0.099-0.074
					c0.284-0.255,0.228-0.341,0.539-0.625c0.313-0.284,0.54-0.54,0.768-0.284c0.227,0.256,0.71,0.312,0.539,0.596
					c-0.17,0.284-0.057,0.455,0.143,0.284c0.198-0.17,0.482-0.284,0.284-0.511c-0.199-0.227-0.397-0.824-0.114-0.426
					c0.284,0.397,0.369,0.596,0.54,0.824c0.17,0.227,0.341,0.369,0.397,0.227c0.057-0.142-0.028-0.455,0.057-0.512
					c0.085-0.057,0,0.483,0.256,0.512C417.526,66.669,417.669,66.641,417.641,66.868z M418.293,65.903
					c-0.199-0.114-0.567,0-1.021,0.142c-0.455,0.142-0.092-0.316,0.113-0.625c0.183-0.276,0.085,0.085,0.482,0.114
					C418.265,65.562,418.492,66.016,418.293,65.903z M419.287,66.783c-0.085,0.085-0.227-0.397-0.312-0.625
					c-0.085-0.227-0.083-0.622,0.157-0.842c0.298-0.273,0.155,0.359,0.155,0.7S419.372,66.698,419.287,66.783z"/>
				<path fill="#FFFFFF" d="M413.807,63.318c-0.174,0.052-0.312,0.397-0.227,0.568c0.085,0.17-0.086-0.086-0.313,0.057
					c-0.227,0.142-0.564,0.54-0.253,0.568c0.311,0.028,0.253-0.228,0.537-0.114s0.597,0.085,0.597-0.199
					S414.091,63.233,413.807,63.318z"/>
				<path fill="#FFFFFF" d="M411.961,62.012c-0.171,0.024-0.228,0.454,0.142,0.511c0.369,0.057,1.03-0.085,0.785-0.312
					C412.643,61.983,412.358,61.955,411.961,62.012z"/>
			</g>
		</g>
		<g>
			<g>
				<circle fill="none" stroke="#FFFFFF" stroke-width="2" stroke-miterlimit="10" cx="410.402" cy="68.771" r="9.863"/>
			</g>
		</g>
	</g>
	<g>
		<g>
			<g>
				<defs>
					<rect id="SVGID_3_" x="441.852" y="58.521" width="12.156" height="20.182"/>
				</defs>
				<clipPath id="SVGID_4_">
					<use xlink:href="#SVGID_3_"  overflow="visible"/>
				</clipPath>
				<path clip-path="url(#SVGID_4_)" fill="#55A4DB" d="M452.208,60.273c-1.182-1.168-2.612-1.752-4.292-1.752
					c-1.681,0-3.111,0.584-4.293,1.752c-1.182,1.168-1.771,2.58-1.771,4.233c0,0.998,0.505,2.665,1.516,5.001
					c1.011,2.336,2.021,4.463,3.032,6.379s1.517,2.848,1.517,2.796c0.157-0.289,0.373-0.683,0.649-1.181
					c0.275-0.499,0.762-1.438,1.457-2.816c0.695-1.378,1.307-2.645,1.831-3.8c0.525-1.155,1.011-2.35,1.457-3.583
					s0.669-2.166,0.669-2.796C453.979,62.853,453.39,61.441,452.208,60.273L452.208,60.273z M449.215,65.767
					c-0.367,0.368-0.807,0.551-1.319,0.551c-0.512,0-0.951-0.184-1.318-0.551c-0.368-0.367-0.552-0.807-0.552-1.319
					c0-0.512,0.184-0.945,0.552-1.3c0.367-0.354,0.807-0.532,1.318-0.532c0.513,0,0.952,0.177,1.319,0.532
					c0.368,0.354,0.552,0.788,0.552,1.3C449.767,64.959,449.583,65.399,449.215,65.767L449.215,65.767z M449.215,65.767"/>
			</g>
		</g>
		<g>
			<g>
				<defs>
					<rect id="SVGID_5_" x="441.852" y="58.521" width="12.156" height="20.182"/>
				</defs>
				<clipPath id="SVGID_6_">
					<use xlink:href="#SVGID_5_"  overflow="visible"/>
				</clipPath>
				<path clip-path="url(#SVGID_6_)" fill="#FFFFFF" d="M452.208,60.273c-1.182-1.168-2.612-1.752-4.292-1.752
					c-1.681,0-3.111,0.584-4.293,1.752c-1.182,1.168-1.771,2.58-1.771,4.233c0,0.998,0.505,2.665,1.516,5.001
					c1.011,2.336,2.021,4.463,3.032,6.379s1.517,2.848,1.517,2.796c0.157-0.289,0.373-0.683,0.649-1.181
					c0.275-0.499,0.762-1.438,1.457-2.816c0.695-1.378,1.307-2.645,1.831-3.8c0.525-1.155,1.011-2.35,1.457-3.583
					s0.669-2.166,0.669-2.796C453.979,62.853,453.39,61.441,452.208,60.273L452.208,60.273z M449.215,65.767
					c-0.367,0.368-0.807,0.551-1.319,0.551c-0.512,0-0.951-0.184-1.318-0.551c-0.368-0.367-0.552-0.807-0.552-1.319
					c0-0.512,0.184-0.945,0.552-1.3c0.367-0.354,0.807-0.532,1.318-0.532c0.513,0,0.952,0.177,1.319,0.532
					c0.368,0.354,0.552,0.788,0.552,1.3C449.767,64.959,449.583,65.399,449.215,65.767L449.215,65.767z M449.215,65.767"/>
			</g>
		</g>
		<g>
			<g>
				<defs>
					<rect id="SVGID_7_" x="441.852" y="58.521" width="12.156" height="20.182"/>
				</defs>
				<clipPath id="SVGID_8_">
					<use xlink:href="#SVGID_7_"  overflow="visible"/>
				</clipPath>
			</g>
		</g>
	</g>
	<g>
		<path fill="#FFFFFF" d="M385.903,58.593h2.5V76.42h8.274v2.166h-10.774V58.593z"/>
	</g>
	<g>
		<path fill="#FFFFFF" d="M438.946,77.785c-0.949,0.475-2.848,0.949-5.28,0.949c-5.636,0-9.877-3.56-9.877-10.115
			c0-6.259,4.241-10.501,10.441-10.501c2.491,0,4.063,0.534,4.746,0.89l-0.623,2.106c-0.979-0.475-2.373-0.831-4.034-0.831
			c-4.688,0-7.802,2.996-7.802,8.247c0,4.894,2.818,8.039,7.683,8.039c1.572,0,3.174-0.327,4.212-0.831L438.946,77.785z"/>
	</g>
	<g>
		<path fill="#FFFFFF" d="M455.938,77.073l11.095-16.226v-0.089h-10.146v-2.166h13.497v1.572L459.35,76.332v0.089h11.184v2.166
			h-14.595V77.073z"/>
		<path fill="#FFFFFF" d="M484.057,69.212h-7.771v7.208h8.662v2.166h-11.242V58.593h10.797v2.166h-8.217v6.318h7.771V69.212z"/>
	</g>
</g>
</svg>
